<?xml version="1.0" standalone="no"?>
<!DOCTYPE svg PUBLIC "-//W3C//DTD SVG 20010904//EN"
 "http://www.w3.org/TR/2001/REC-SVG-20010904/DTD/svg10.dtd">
<svg version="1.0" xmlns="http://www.w3.org/2000/svg"
 width="2443.000000pt" height="3349.000000pt" viewBox="0 0 2443.000000 3349.000000"
 preserveAspectRatio="xMidYMid meet">

<g transform="translate(0.000000,3349.000000) scale(0.100000,-0.100000)"
fill="#000000" stroke="none">
<path d="M2935 28889 c-148 -4 -302 -10 -340 -14 -67 -6 -71 -8 -94 -43 l-24
-36 32 -260 c102 -851 149 -1575 203 -3111 16 -461 23 -8750 9 -9585 -29
-1624 -95 -2739 -217 -3702 l-27 -208 27 -40 c15 -23 30 -38 35 -36 12 8 360
45 531 56 257 18 1007 24 1315 11 289 -12 561 -32 722 -55 l93 -12 24 37 25
37 -29 228 c-92 731 -162 1675 -200 2709 -27 728 -32 1091 -37 2763 l-5 1792
263 0 c609 0 1971 48 2135 75 30 5 36 -1 161 -157 245 -307 518 -680 698 -953
50 -77 219 -349 375 -605 156 -256 437 -715 625 -1020 576 -936 919 -1518
1347 -2285 666 -1195 1064 -1994 1244 -2500 23 -66 46 -119 51 -118 35 6 324
35 435 43 452 32 1576 38 2068 10 196 -11 503 -37 583 -50 48 -7 49 -7 74 31
l26 39 -75 87 c-478 563 -1363 1780 -2678 3683 -1637 2370 -2414 3478 -2810
4007 -23 31 -28 44 -18 47 7 2 110 25 228 51 779 170 1337 392 1890 752 534
348 1016 827 1378 1369 455 680 692 1533 692 2489 0 1065 -308 1982 -926 2755
-626 784 -1308 1183 -2552 1494 -612 153 -1005 198 -1992 226 -400 11 -4858
11 -5265 -1z m4845 -1059 c495 -31 857 -98 1249 -232 557 -190 985 -445 1301
-774 374 -389 652 -978 759 -1609 71 -413 81 -1001 25 -1485 -109 -953 -482
-1755 -1041 -2242 -365 -318 -768 -540 -1303 -718 -371 -124 -671 -188 -1121
-240 -423 -48 -539 -52 -1632 -57 l-1037 -5 3 3344 c3 3079 4 3352 20 3453 20
134 57 214 130 287 148 148 388 247 673 277 116 12 1779 13 1974 1z"/>
<path d="M17840 24243 c-487 -23 -1029 -124 -1495 -278 -984 -323 -1761 -865
-2414 -1680 -440 -548 -724 -1159 -845 -1815 -51 -276 -61 -401 -61 -760 0
-262 4 -367 18 -480 62 -494 176 -878 401 -1345 375 -778 880 -1318 1816
-1944 639 -428 1106 -668 2400 -1236 479 -210 984 -471 1260 -652 297 -195
672 -507 861 -716 457 -505 691 -1073 781 -1892 17 -161 18 -753 0 -895 -51
-408 -135 -706 -286 -1015 -138 -280 -286 -486 -511 -710 -397 -396 -892 -681
-1420 -815 -995 -254 -1991 -30 -3090 694 -801 528 -1408 1159 -1811 1881 -43
77 -79 142 -81 144 -4 5 -245 -18 -251 -24 -3 -2 -17 -93 -33 -202 -43 -308
-134 -795 -203 -1085 -33 -139 -229 -865 -314 -1166 l-69 -243 29 -40 c113
-157 816 -477 1640 -748 887 -291 2038 -461 3128 -461 1644 0 2998 449 4075
1351 1013 849 1555 1930 1646 3279 14 218 6 703 -15 892 -62 553 -197 1011
-451 1533 -394 809 -940 1394 -1905 2040 -658 440 -1256 734 -2320 1140 -860
328 -1059 418 -1475 668 -401 241 -624 406 -856 637 -219 218 -344 392 -500
695 -232 450 -332 836 -346 1340 -13 476 69 886 263 1325 218 491 515 863 859
1077 375 234 1053 370 1745 350 712 -21 1347 -267 1997 -774 254 -198 560
-500 767 -759 144 -179 347 -478 456 -670 56 -99 257 -494 272 -536 2 -5 187
11 254 22 1 0 5 26 8 58 51 429 202 1140 397 1862 44 162 183 656 194 686 12
36 -191 234 -352 342 -296 199 -807 440 -1218 575 -444 146 -1120 271 -1745
322 -374 30 -901 42 -1200 28z"/>
</g>
</svg>
