<?xml version="1.0" standalone="no"?>
<!DOCTYPE svg PUBLIC "-//W3C//DTD SVG 20010904//EN"
 "http://www.w3.org/TR/2001/REC-SVG-20010904/DTD/svg10.dtd">
<svg version="1.0" xmlns="http://www.w3.org/2000/svg"
 width="413.000000pt" height="195.000000pt" viewBox="0 0 413.000000 195.000000"
 preserveAspectRatio="xMidYMid meet">

<g transform="translate(0.000000,195.000000) scale(0.100000,-0.100000)"
fill="#000000" stroke="none">
<path d="M1908 1850 c-76 -13 -178 -50 -245 -86 -55 -31 -173 -135 -173 -154
0 -4 30 -1 68 6 111 22 292 43 381 46 72 2 85 -1 98 -18 13 -16 14 -61 10
-297 -3 -158 -1 -280 4 -283 5 -3 18 -2 29 1 19 6 20 16 20 295 0 214 3 291
12 296 26 17 233 1 432 -32 48 -8 91 -12 94 -9 12 12 -127 131 -189 162 -114
56 -198 75 -354 78 -77 2 -161 0 -187 -5z"/>
<path d="M1710 1575 c-8 -2 -68 -11 -132 -21 l-118 -17 -6 -34 c-9 -49 2 -116
27 -165 31 -61 115 -138 195 -180 72 -38 180 -75 189 -66 8 8 53 188 81 326
33 166 36 162 -109 161 -62 -1 -119 -3 -127 -4z"/>
<path d="M2188 1555 c-9 -19 -7 -44 6 -112 26 -137 77 -342 86 -348 13 -8 112
25 182 62 84 44 158 114 194 184 22 43 28 68 29 121 0 36 -2 69 -5 72 -13 12
-293 46 -383 46 -94 0 -98 -1 -109 -25z"/>
<path d="M1297 973 c-4 -3 -7 -30 -7 -60 l0 -53 65 0 65 0 0 -135 0 -135 65 0
65 0 0 135 0 135 65 0 65 0 0 60 0 60 -188 0 c-104 0 -192 -3 -195 -7z"/>
<path d="M1732 806 c-29 -95 -56 -183 -59 -195 -5 -20 -2 -21 54 -21 l60 0 32
123 c17 67 31 128 31 135 0 6 4 12 9 12 8 0 28 -65 64 -210 l13 -55 61 -3 61
-3 -44 143 c-25 79 -51 167 -60 196 l-15 52 -77 0 -77 0 -53 -174z"/>
<path d="M2070 920 l0 -60 60 0 60 0 0 -135 0 -135 60 0 59 0 3 133 3 132 68
3 67 3 0 59 0 60 -190 0 -190 0 0 -60z"/>
<path d="M2546 968 c-3 -7 -19 -60 -36 -118 -17 -58 -42 -139 -55 -180 l-23
-75 55 -3 c31 -2 59 1 63 5 4 4 22 64 40 133 17 69 33 127 35 129 3 3 9 -18
36 -121 6 -24 17 -67 25 -95 l15 -53 60 0 c47 0 60 3 57 14 -2 8 -28 96 -58
195 l-55 181 -78 0 c-53 0 -79 -4 -81 -12z"/>
<path d="M57 343 c-4 -3 -7 -19 -7 -35 0 -24 4 -28 30 -28 l30 0 0 -110 0
-110 35 0 34 0 3 108 3 107 28 3 c24 3 27 8 27 38 l0 34 -88 0 c-49 0 -92 -3
-95 -7z"/>
<path d="M305 338 c-2 -7 -14 -67 -25 -133 -12 -66 -23 -126 -25 -133 -3 -8 7
-12 31 -12 27 0 37 5 41 20 4 14 14 20 35 20 21 0 31 -6 35 -20 4 -15 14 -20
39 -20 23 0 34 5 34 14 0 14 -33 198 -45 254 -5 20 -11 22 -61 22 -35 0 -56
-5 -59 -12z m69 -110 c9 -35 7 -66 -5 -74 -19 -11 -28 10 -22 54 6 46 17 54
27 20z"/>
<path d="M488 320 c-5 -36 -2 -40 29 -40 23 0 23 -1 23 -110 l0 -110 40 0 40
0 0 110 0 110 25 0 c14 0 25 6 25 13 0 6 3 22 6 35 6 22 5 22 -89 22 l-95 0
-4 -30z"/>
<path d="M735 328 c-9 -40 -45 -241 -45 -255 0 -8 13 -13 35 -13 28 0 35 4 35
20 0 15 7 20 25 20 14 0 28 0 33 0 4 1 8 -8 10 -20 3 -16 11 -20 43 -20 34 0
40 3 35 18 -2 9 -15 74 -27 145 l-23 127 -58 0 c-52 0 -58 -2 -63 -22z m73
-145 c-2 -25 -6 -30 -17 -24 -10 7 -12 21 -6 57 7 44 8 47 17 24 5 -13 8 -39
6 -57z"/>
<path d="M1040 221 c0 -71 -3 -136 -6 -145 -5 -13 2 -16 35 -16 l41 0 1 73 c1
74 5 68 23 -36 7 -35 9 -37 45 -37 l38 0 15 78 16 77 1 -77 1 -78 35 0 35 0 0
99 c0 54 -3 119 -6 145 l-7 46 -47 0 c-55 0 -56 -2 -66 -89 -6 -59 -24 -86
-24 -36 0 13 -5 47 -11 75 l-11 50 -54 0 -54 0 0 -129z"/>
<path d="M1393 326 c-25 -22 -28 -31 -31 -104 -6 -130 21 -167 122 -165 52 1
83 33 96 100 13 72 -1 141 -35 170 -37 33 -113 32 -152 -1z m107 -72 c11 -29
13 -78 4 -112 -5 -18 -13 -22 -33 -20 -25 3 -26 6 -29 67 -2 35 -1 70 2 77 9
24 46 16 56 -12z"/>
<path d="M1600 315 c0 -32 2 -35 30 -35 l30 0 0 -111 0 -110 37 3 37 3 1 105
0 105 28 3 c24 3 27 8 27 38 l0 34 -95 0 -95 0 0 -35z"/>
<path d="M1845 326 c-28 -28 -39 -77 -33 -152 8 -94 63 -137 146 -115 45 13
69 48 73 111 5 94 0 120 -30 151 -25 24 -37 29 -81 29 -40 0 -56 -5 -75 -24z
m109 -62 c3 -9 6 -37 6 -64 0 -27 -3 -55 -6 -64 -7 -18 -49 -22 -59 -5 -10 14
-10 123 -1 137 11 17 53 15 60 -4z"/>
<path d="M2080 205 l0 -145 35 0 35 0 0 50 c0 28 4 50 9 50 5 0 15 -22 22 -50
13 -49 14 -50 51 -50 43 0 43 -1 23 68 -14 47 -14 55 0 74 15 23 20 74 9 103
-11 27 -60 45 -124 45 l-60 0 0 -145z m105 40 c0 -20 -6 -31 -17 -33 -15 -3
-18 4 -18 33 0 29 3 36 18 33 11 -2 17 -13 17 -33z"/>
<path d="M2325 325 c-18 -17 -25 -35 -25 -64 0 -41 1 -41 79 -100 34 -25 19
-45 -30 -38 -39 5 -39 5 -39 -29 0 -31 3 -34 33 -36 67 -4 92 2 115 28 40 46
21 114 -42 148 -51 27 -47 46 9 46 45 0 45 0 45 35 l0 35 -60 0 c-51 0 -65 -4
-85 -25z"/>
<path d="M2610 205 l0 -145 40 0 40 0 0 55 c0 54 0 55 30 55 27 0 30 3 30 30
0 27 -3 30 -30 30 -25 0 -30 4 -30 25 0 23 4 25 40 25 39 0 40 1 40 35 l0 35
-80 0 -80 0 0 -145z"/>
<path d="M2800 205 l0 -145 40 0 40 0 0 145 0 145 -40 0 -40 0 0 -145z"/>
<path d="M2930 205 l0 -145 35 0 35 0 1 68 1 67 31 -67 c31 -66 33 -68 70 -68
l37 0 0 145 0 145 -35 0 -34 0 -3 -72 -3 -73 -28 73 -29 72 -39 0 -39 0 0
-145z"/>
<path d="M3200 218 c-12 -73 -25 -139 -27 -145 -4 -9 7 -13 36 -13 34 0 41 3
41 20 0 29 60 29 67 0 4 -15 14 -20 43 -20 l37 0 -27 143 -26 142 -60 3 -60 3
-24 -133z m96 -54 c-11 -28 -26 -13 -26 25 0 65 13 83 23 33 5 -24 6 -50 3
-58z"/>
<path d="M3430 206 l0 -146 30 0 c30 0 30 0 30 59 0 33 4 62 8 65 4 3 21 -24
36 -60 28 -63 29 -64 67 -64 l39 0 0 145 0 145 -35 0 -35 0 0 -65 c0 -36 -3
-65 -7 -65 -5 0 -20 28 -34 63 -24 59 -27 62 -62 65 l-37 3 0 -145z"/>
<path d="M3727 339 c-44 -26 -63 -161 -33 -233 17 -40 61 -59 118 -50 36 6 39
9 36 37 -3 29 -6 31 -43 31 -39 1 -40 2 -49 44 -5 25 -5 55 1 75 8 29 13 32
46 32 31 0 39 4 44 22 10 41 -3 53 -54 53 -26 0 -56 -5 -66 -11z"/>
<path d="M3880 205 l0 -145 80 0 80 0 0 30 c0 28 -2 30 -40 30 -36 0 -40 3
-40 24 0 21 6 25 33 28 27 2 33 8 35 31 3 25 1 27 -32 27 -31 0 -36 3 -36 24
0 21 5 25 38 28 34 3 37 6 40 36 l3 32 -80 0 -81 0 0 -145z"/>
</g>
</svg>
