<?xml version="1.0" standalone="no"?>
<!DOCTYPE svg PUBLIC "-//W3C//DTD SVG 20010904//EN"
 "http://www.w3.org/TR/2001/REC-SVG-20010904/DTD/svg10.dtd">
<svg version="1.0" xmlns="http://www.w3.org/2000/svg"
 width="3200.000000pt" height="1800.000000pt" viewBox="0 0 3200.000000 1800.000000"
 preserveAspectRatio="xMidYMid meet">

<g transform="translate(0.000000,1800.000000) scale(0.100000,-0.100000)"
fill="#000000" stroke="none">
<path d="M18103 14103 c-10 -4 -13 -84 -13 -353 l0 -349 26 -20 c14 -11 35
-23 47 -27 27 -7 384 -147 447 -174 25 -11 95 -38 155 -61 61 -23 133 -50 160
-61 28 -11 77 -30 110 -43 33 -12 98 -38 145 -57 47 -19 129 -51 182 -72 160
-63 159 -81 -7 -143 -66 -24 -138 -50 -160 -58 -22 -7 -83 -30 -135 -50 -52
-20 -113 -42 -135 -50 -22 -7 -101 -37 -175 -65 -74 -28 -164 -62 -200 -75
-36 -13 -94 -35 -130 -48 -36 -13 -117 -43 -180 -66 -63 -23 -123 -49 -132
-58 -17 -15 -18 -44 -18 -368 0 -278 3 -355 13 -363 13 -11 82 11 172 53 17 8
75 32 130 54 55 21 150 59 210 84 61 25 218 89 350 142 214 86 300 121 520
212 33 13 105 42 160 63 55 22 134 53 175 71 41 17 95 39 120 49 91 36 516
208 545 221 68 30 65 13 65 328 0 157 -4 291 -8 298 -4 6 -30 21 -57 33 -43
19 -787 320 -915 370 -25 10 -153 61 -285 115 -132 53 -285 115 -340 137 -55
21 -109 43 -120 48 -11 5 -42 18 -70 28 -27 11 -129 52 -225 91 -96 40 -197
81 -225 91 -27 10 -81 32 -118 49 -38 17 -70 31 -70 30 -1 0 -8 -3 -14 -6z"/>
<path d="M19640 11310 c-19 -10 -66 -31 -105 -46 -73 -28 -188 -76 -240 -99
-16 -7 -48 -20 -70 -28 -151 -55 -273 -110 -292 -133 -23 -25 -23 -30 -23
-269 0 -231 -1 -245 -19 -255 -11 -5 -78 -10 -148 -10 -91 0 -135 -4 -147 -13
-17 -12 -18 -36 -18 -291 0 -232 2 -281 15 -293 11 -12 42 -15 144 -14 111 1
133 -1 152 -16 l22 -18 -1 -730 c0 -599 3 -752 15 -855 43 -347 198 -551 495
-650 179 -60 455 -76 693 -40 142 22 164 30 177 66 6 14 10 146 10 294 0 324
2 317 -104 285 -31 -9 -90 -15 -157 -15 -170 0 -238 39 -288 168 -21 52 -21
67 -21 767 l0 715 24 15 c20 13 60 16 252 15 126 -1 236 -1 245 -1 33 2 39 46
39 309 0 217 -2 261 -16 280 -15 22 -18 22 -264 22 -213 0 -251 2 -264 16 -14
13 -16 65 -16 418 0 414 -1 427 -39 426 -9 -1 -32 -9 -51 -20z"/>
<path d="M4565 10519 c-27 -5 -81 -14 -120 -19 -153 -22 -369 -104 -494 -187
-133 -89 -267 -244 -330 -385 -45 -102 -82 -243 -79 -302 l3 -51 372 -3 372
-2 15 22 c7 13 17 41 21 62 9 54 59 138 107 182 22 20 70 50 107 68 64 30 70
31 206 31 132 0 143 -2 200 -28 156 -73 224 -211 225 -458 0 -60 -4 -79 -17
-91 -15 -13 -74 -16 -348 -22 -320 -7 -388 -12 -566 -49 -175 -37 -356 -116
-484 -212 -106 -80 -181 -173 -238 -295 -56 -121 -62 -157 -62 -400 0 -189 3
-235 18 -285 84 -275 285 -462 588 -547 77 -21 103 -23 319 -23 269 0 314 8
462 80 106 52 142 78 235 169 95 92 103 87 103 -70 0 -105 1 -114 22 -128 19
-14 73 -16 385 -16 315 0 364 2 377 16 14 14 16 121 16 1025 0 858 -2 1024
-15 1107 -52 330 -214 550 -505 689 -127 61 -201 81 -429 118 -103 16 -381 19
-466 4z m593 -1721 c15 -15 17 -265 3 -348 -36 -221 -247 -372 -521 -374 -87
0 -117 4 -175 24 -175 61 -261 244 -205 434 44 148 133 213 350 257 106 22
528 27 548 7z"/>
<path d="M7659 10526 c-2 -2 -49 -11 -104 -20 -404 -66 -738 -296 -929 -639
-82 -147 -143 -325 -173 -507 -21 -133 -29 -510 -13 -613 6 -40 16 -101 21
-137 12 -81 42 -191 81 -295 158 -418 512 -705 965 -780 148 -25 571 -17 688
13 245 62 437 171 593 336 149 158 245 351 291 587 23 119 25 145 12 154 -6 3
-166 6 -358 6 -398 0 -358 11 -393 -104 -31 -101 -71 -176 -130 -240 -138
-151 -342 -205 -543 -142 -201 62 -304 188 -379 465 -22 80 -23 102 -23 395 0
303 1 312 26 406 97 354 313 519 627 480 83 -11 132 -32 210 -89 63 -47 130
-163 161 -279 6 -22 19 -51 29 -62 17 -21 22 -22 377 -22 330 0 361 1 372 17
22 30 11 124 -28 254 -98 325 -286 548 -579 687 -91 44 -227 89 -295 98 -27 4
-85 13 -129 21 -70 12 -366 20 -377 10z"/>
<path d="M10560 10505 c-281 -51 -502 -161 -688 -339 -290 -279 -433 -663
-432 -1166 1 -382 85 -699 250 -946 64 -95 221 -254 309 -314 143 -96 340
-174 517 -205 138 -24 517 -21 647 5 370 74 657 284 816 595 49 97 104 264
120 361 6 40 13 78 16 86 3 7 0 22 -8 31 -12 17 -39 18 -356 18 -302 0 -345
-2 -361 -16 -10 -9 -25 -46 -34 -82 -62 -246 -269 -415 -509 -414 -154 1 -309
67 -397 170 -84 98 -151 280 -169 460 -14 130 -14 399 -1 513 42 363 222 597
485 629 179 22 317 -20 415 -128 52 -57 102 -152 121 -230 6 -26 18 -58 26
-71 l14 -22 372 2 372 3 3 54 c4 61 -35 227 -75 326 -104 257 -277 444 -521
563 -263 129 -621 174 -932 117z"/>
<path d="M13625 10515 c-33 -8 -72 -14 -86 -14 -48 -2 -202 -51 -309 -100
-150 -67 -240 -130 -360 -251 -196 -196 -304 -400 -377 -715 -27 -118 -28
-124 -27 -445 0 -320 1 -327 27 -435 37 -149 62 -223 112 -331 163 -350 468
-587 880 -681 118 -27 632 -27 750 0 164 38 338 110 464 194 74 49 201 172
261 252 63 84 131 221 164 332 33 112 34 137 0 149 -33 13 -654 13 -687 1 -17
-7 -36 -33 -61 -87 -101 -212 -309 -309 -594 -277 -134 15 -213 52 -302 141
-103 103 -159 230 -186 425 -12 84 -12 112 -3 123 10 12 150 14 923 14 729 0
916 3 930 13 16 12 17 34 14 287 -4 299 -13 369 -71 570 -154 534 -626 853
-1259 849 -81 0 -169 -7 -203 -14z m358 -570 c181 -38 299 -160 355 -365 28
-103 36 -174 22 -199 -11 -21 -14 -21 -530 -21 -518 0 -519 0 -525 21 -15 46
24 188 83 306 39 75 127 173 190 208 105 59 267 79 405 50z"/>
<path d="M17105 10505 c-184 -40 -323 -110 -450 -228 -40 -37 -91 -91 -111
-120 -73 -99 -79 -90 -79 117 0 123 -3 167 -14 179 -12 15 -51 17 -387 17
-325 0 -375 -2 -388 -16 -14 -14 -16 -158 -16 -1439 0 -1281 2 -1425 16 -1439
13 -14 63 -16 388 -16 335 0 375 2 387 17 12 13 14 174 16 942 3 911 3 927 24
996 44 145 107 230 213 290 149 83 388 87 522 10 56 -33 101 -86 138 -165 l31
-65 5 -998 c5 -974 5 -999 24 -1013 31 -22 742 -21 774 2 l22 15 0 1009 c0
971 -1 1014 -21 1152 -43 293 -147 491 -326 620 -100 72 -169 102 -306 133
-146 33 -314 33 -462 0z"/>
<path d="M27069 10526 c-2 -2 -49 -11 -104 -20 -545 -90 -947 -483 -1070
-1046 -57 -260 -59 -659 -4 -905 71 -321 207 -562 414 -735 175 -146 389 -244
624 -284 131 -22 520 -22 652 0 265 45 495 160 670 334 101 102 133 147 198
277 81 163 115 311 75 327 -26 10 -661 7 -688 -3 -17 -7 -38 -36 -67 -93 -56
-108 -122 -175 -221 -221 -162 -77 -398 -77 -550 -1 -166 84 -266 249 -308
508 -11 72 -14 117 -8 129 8 16 63 17 928 17 l919 0 12 22 c8 15 10 103 6 317
-6 325 -17 407 -75 573 -32 90 -99 230 -135 282 -78 112 -188 224 -295 297
-123 85 -345 177 -467 194 -27 4 -85 13 -129 21 -70 12 -366 20 -377 10z m314
-582 c132 -30 240 -112 299 -228 61 -120 98 -312 66 -344 -9 -9 -139 -12 -525
-12 -507 0 -512 0 -523 21 -13 23 -3 80 31 182 51 151 138 271 244 333 104 61
266 80 408 48z"/>
<path d="M25380 10490 c-246 -42 -454 -190 -580 -413 -22 -39 -38 -57 -49 -55
-14 3 -17 30 -21 211 -5 192 -7 210 -24 223 -29 21 -743 21 -772 0 -19 -14
-19 -40 -19 -1441 0 -1401 0 -1427 19 -1441 16 -11 86 -14 388 -14 355 0 369
1 388 20 20 20 20 33 20 794 0 627 3 788 14 848 34 177 131 305 289 381 51 25
108 48 127 52 19 3 55 13 80 20 25 8 110 19 190 25 112 9 148 15 158 28 9 12
12 104 12 378 0 316 -2 365 -16 378 -17 17 -120 20 -204 6z"/>
<path d="M20790 10450 c-20 -20 -20 -33 -20 -987 0 -1055 5 -1166 55 -1338 86
-298 272 -490 561 -581 51 -16 92 -19 294 -19 218 0 240 2 309 23 166 52 318
151 408 263 98 124 94 120 109 108 11 -9 14 -47 14 -170 0 -130 3 -160 16
-173 13 -14 63 -16 388 -16 349 0 374 1 389 18 16 17 17 131 17 1439 0 1363
-1 1421 -18 1436 -17 15 -58 17 -389 17 -346 0 -371 -1 -386 -18 -16 -17 -17
-95 -17 -918 0 -502 -5 -931 -10 -972 -14 -104 -73 -225 -142 -287 -80 -72
-166 -111 -275 -124 -213 -26 -371 37 -442 178 -11 21 -29 73 -41 117 -19 76
-20 102 -20 1029 0 844 -2 953 -16 973 l-15 22 -375 0 c-361 0 -375 -1 -394
-20z"/>
</g>
</svg>
