<?xml version="1.0" encoding="UTF-8"?>
<!DOCTYPE svg PUBLIC "-//W3C//DTD SVG 1.1//EN" "http://www.w3.org/Graphics/SVG/1.1/DTD/svg11.dtd">
<svg xmlns="http://www.w3.org/2000/svg" version="1.1" width="1174px" height="1280px" style="shape-rendering:geometricPrecision; text-rendering:geometricPrecision; image-rendering:optimizeQuality; fill-rule:evenodd; clip-rule:evenodd" xmlns:xlink="http://www.w3.org/1999/xlink">
<g><path style="opacity:0.004" fill="#000000" d="M 542.5,49.5 C 571.664,48.3362 600.997,48.1695 630.5,49C 601.169,49.5 571.835,49.6666 542.5,49.5 Z"/></g>
<g><path style="opacity:0.845" fill="#020704" d="M 630.5,52.5 C 630.168,90.0037 630.502,127.337 631.5,164.5C 779.071,164.672 926.571,164.672 1074,164.5C 1079.5,165.289 1084.5,167.289 1089,170.5C 1089.72,169.549 1090.55,169.383 1091.5,170C 1094.04,172.205 1096.21,174.705 1098,177.5C 1097.37,180.316 1098.04,182.982 1100,185.5C 1100.33,184.833 1100.67,184.167 1101,183.5C 1104.91,194.643 1106.41,206.143 1105.5,218C 1104.69,386.497 1104.19,554.997 1104,723.5C 1103.67,561.5 1103.33,399.5 1103,237.5C 1101.89,524.17 1101.73,810.837 1102.5,1097.5C 1101.52,1100.96 1101.19,1104.63 1101.5,1108.5C 1100.55,1109.92 1100.22,1111.59 1100.5,1113.5C 1099.6,1114.21 1099.26,1115.21 1099.5,1116.5C 1098.17,1117.17 1098.17,1117.83 1099.5,1118.5C 1099.57,1120.03 1098.91,1121.03 1097.5,1121.5C 1097.17,1120.17 1096.83,1120.17 1096.5,1121.5C 1095.83,1121.5 1095.5,1121.83 1095.5,1122.5C 1094.83,1122.5 1094.5,1122.83 1094.5,1123.5C 1093.83,1123.5 1093.5,1123.83 1093.5,1124.5C 1092.83,1124.5 1092.5,1124.83 1092.5,1125.5C 1091.83,1125.5 1091.5,1125.83 1091.5,1126.5C 1090.51,1126.33 1089.84,1126.66 1089.5,1127.5C 1088.21,1127.26 1087.21,1127.6 1086.5,1128.5C 1085.21,1128.26 1084.21,1128.6 1083.5,1129.5C 1081.9,1129.23 1080.57,1129.57 1079.5,1130.5C 1076.61,1130.19 1073.95,1130.53 1071.5,1131.5C 484.833,1131.83 484.833,1132.17 1071.5,1132.5C 925.001,1133.5 778.334,1133.83 631.5,1133.5C 631.5,1162.83 631.5,1192.17 631.5,1221.5C 601.995,1221.17 572.662,1221.5 543.5,1222.5C 539.557,1221.51 535.557,1220.85 531.5,1220.5C 505.077,1214.23 478.411,1208.57 451.5,1203.5C 429.748,1198.21 407.748,1193.55 385.5,1189.5C 381.079,1187.9 376.412,1186.9 371.5,1186.5C 367.079,1184.9 362.412,1183.9 357.5,1183.5C 346.748,1180.55 335.748,1178.21 324.5,1176.5C 291.748,1168.88 258.748,1161.88 225.5,1155.5C 221.079,1153.9 216.412,1152.9 211.5,1152.5C 207.079,1150.9 202.412,1149.9 197.5,1149.5C 149.67,1138.93 101.67,1128.6 53.5,1118.5C 52.791,1117.6 51.791,1117.26 50.5,1117.5C 52.0636,841.504 53.397,565.504 54.5,289.5C 54.497,252.459 54.1636,215.459 53.5,178.5C 79.2839,170.886 105.284,163.886 131.5,157.5C 195.173,142.083 258.506,125.749 321.5,108.5C 394.802,90.007 468.135,71.1737 541.5,52C 540.5,51.6667 539.5,51.3333 538.5,51C 569.5,50.3333 600.5,50.3333 631.5,51C 630.944,51.3826 630.611,51.8826 630.5,52.5 Z"/></g>
<g><path style="opacity:0.004" fill="#000000" d="M 632.5,51.5 C 633.833,52.1667 633.833,52.1667 632.5,51.5 Z"/></g>
<g><path style="opacity:0.812" fill="#23824d" d="M 630.5,52.5 C 631.498,88.6628 631.832,124.996 631.5,161.5C 633.199,161.34 634.866,161.506 636.5,162C 634.256,162.05 632.589,162.883 631.5,164.5C 630.502,127.337 630.168,90.0037 630.5,52.5 Z"/></g>
<g><path style="opacity:1" fill="#1b673d" d="M 545.5,55.5 C 572.662,54.5021 599.995,54.1688 627.5,54.5C 627.833,412.334 627.5,770 626.5,1127.5C 626.5,770.167 626.5,412.833 626.5,55.5C 599.5,55.5 572.5,55.5 545.5,55.5 Z"/></g>
<g><path style="opacity:1" fill="#24824e" d="M 540.5,56.5 C 540.833,56.5 541.167,56.5 541.5,56.5C 542.166,443.835 541.499,830.835 539.5,1217.5C 539.167,1217.5 538.833,1217.5 538.5,1217.5C 540.498,830.707 541.165,443.707 540.5,56.5 Z"/></g>
<g><path style="opacity:1" fill="#154d2f" d="M 541.5,56.5 C 542.5,443.666 542.833,831 542.5,1218.5C 541.209,1218.74 540.209,1218.4 539.5,1217.5C 541.499,830.835 542.166,443.835 541.5,56.5 Z"/></g>
<g><path style="opacity:1" fill="#207345" d="M 545.5,55.5 C 572.5,55.5 599.5,55.5 626.5,55.5C 626.5,412.833 626.5,770.167 626.5,1127.5C 625.903,1127.74 625.57,1128.24 625.5,1129C 627.475,1158.71 628.141,1188.55 627.5,1218.5C 600.167,1218.5 572.833,1218.5 545.5,1218.5C 545.5,830.833 545.5,443.167 545.5,55.5 Z"/></g>
<g><path style="opacity:1" fill="#207244" d="M 540.5,56.5 C 541.165,443.707 540.498,830.707 538.5,1217.5C 377.829,1183.63 217.163,1149.63 56.5,1115.5C 55.5055,1070.57 55.1722,1025.57 55.5,980.5C 56.2688,713.499 57.2688,446.499 58.5,179.5C 219.176,138.498 379.843,97.4976 540.5,56.5 Z"/></g>
<g><path style="opacity:0.009" fill="#000000" d="M 468.5,69.5 C 469.251,68.4265 470.251,68.2599 471.5,69C 470.552,69.4828 469.552,69.6495 468.5,69.5 Z"/></g>
<g><path style="opacity:0.01" fill="#000000" d="M 409.5,84.5 C 410.251,83.4265 411.251,83.2599 412.5,84C 411.552,84.4828 410.552,84.6495 409.5,84.5 Z"/></g>
<g><path style="opacity:0.012" fill="#22815b" d="M 317.5,107.5 C 318.251,106.427 319.251,106.26 320.5,107C 319.552,107.483 318.552,107.649 317.5,107.5 Z"/></g>
<g><path style="opacity:0.012" fill="#25965b" d="M 301.5,111.5 C 302.251,110.427 303.251,110.26 304.5,111C 303.552,111.483 302.552,111.649 301.5,111.5 Z"/></g>
<g><path style="opacity:0.012" fill="#227b57" d="M 288.5,114.5 C 289.601,113.402 290.934,113.235 292.5,114C 291.207,114.49 289.873,114.657 288.5,114.5 Z"/></g>
<g><path style="opacity:0.012" fill="#1d8354" d="M 288.5,114.5 C 287.749,115.573 286.749,115.74 285.5,115C 286.448,114.517 287.448,114.351 288.5,114.5 Z"/></g>
<g><path style="opacity:0.004" fill="#289f42" d="M 272.5,118.5 C 273.601,117.402 274.934,117.235 276.5,118C 275.207,118.49 273.873,118.657 272.5,118.5 Z"/></g>
<g><path style="opacity:0.012" fill="#1f8f5b" d="M 272.5,118.5 C 271.749,119.573 270.749,119.74 269.5,119C 270.448,118.517 271.448,118.351 272.5,118.5 Z"/></g>
<g><path style="opacity:0.012" fill="#27a262" d="M 257.5,122.5 C 258.251,121.427 259.251,121.26 260.5,122C 259.552,122.483 258.552,122.649 257.5,122.5 Z"/></g>
<g><path style="opacity:0.012" fill="#227b57" d="M 244.5,125.5 C 245.601,124.402 246.934,124.235 248.5,125C 247.207,125.49 245.873,125.657 244.5,125.5 Z"/></g>
<g><path style="opacity:0.008" fill="#1f7e38" d="M 240.5,126.5 C 241.568,125.566 242.901,125.232 244.5,125.5C 243.432,126.434 242.099,126.768 240.5,126.5 Z"/></g>
<g><path style="opacity:0.012" fill="#1b765a" d="M 237.5,127.5 C 238.209,126.596 239.209,126.263 240.5,126.5C 239.791,127.404 238.791,127.737 237.5,127.5 Z"/></g>
<g><path style="opacity:0.012" fill="#226c4e" d="M 237.5,127.5 C 237.5,127.833 237.5,128.167 237.5,128.5C 232.167,128.167 232.167,127.833 237.5,127.5 Z"/></g>
<g><path style="opacity:0.012" fill="#227b57" d="M 228.5,129.5 C 229.601,128.402 230.934,128.235 232.5,129C 231.207,129.49 229.873,129.657 228.5,129.5 Z"/></g>
<g><path style="opacity:0.012" fill="#1d8354" d="M 228.5,129.5 C 227.749,130.573 226.749,130.74 225.5,130C 226.448,129.517 227.448,129.351 228.5,129.5 Z"/></g>
<g><path style="opacity:0.012" fill="#227b57" d="M 212.5,133.5 C 213.601,132.402 214.934,132.235 216.5,133C 215.207,133.49 213.873,133.657 212.5,133.5 Z"/></g>
<g><path style="opacity:0.012" fill="#1d8354" d="M 212.5,133.5 C 211.749,134.573 210.749,134.74 209.5,134C 210.448,133.517 211.448,133.351 212.5,133.5 Z"/></g>
<g><path style="opacity:0.012" fill="#1b765a" d="M 205.5,135.5 C 206.251,134.427 207.251,134.26 208.5,135C 207.552,135.483 206.552,135.649 205.5,135.5 Z"/></g>
<g><path style="opacity:0.012" fill="#1b765a" d="M 177.5,142.5 C 178.251,141.427 179.251,141.26 180.5,142C 179.552,142.483 178.552,142.649 177.5,142.5 Z"/></g>
<g><path style="opacity:0.012" fill="#1b765a" d="M 173.5,143.5 C 174.251,142.427 175.251,142.26 176.5,143C 175.552,143.483 174.552,143.649 173.5,143.5 Z"/></g>
<g><path style="opacity:0.012" fill="#1b6a50" d="M 168.5,144.5 C 169.601,143.402 170.934,143.235 172.5,144C 171.207,144.49 169.873,144.657 168.5,144.5 Z"/></g>
<g><path style="opacity:0.008" fill="#1f7e38" d="M 164.5,145.5 C 165.568,144.566 166.901,144.232 168.5,144.5C 168.5,144.833 168.5,145.167 168.5,145.5C 167.167,145.5 165.833,145.5 164.5,145.5 Z"/></g>
<g><path style="opacity:0.012" fill="#1b765a" d="M 164.5,145.5 C 163.749,146.573 162.749,146.74 161.5,146C 162.448,145.517 163.448,145.351 164.5,145.5 Z"/></g>
<g><path style="opacity:0.012" fill="#248962" d="M 157.5,147.5 C 158.251,146.427 159.251,146.26 160.5,147C 159.552,147.483 158.552,147.649 157.5,147.5 Z"/></g>
<g><path style="opacity:0.48" fill="#217c4a" d="M 321.5,108.5 C 258.506,125.749 195.173,142.083 131.5,157.5C 143.786,153.345 156.119,149.345 168.5,145.5C 191.787,140.595 214.787,134.928 237.5,128.5C 265.5,121.833 293.5,115.167 321.5,108.5 Z"/></g>
<g><path style="opacity:0.008" fill="#000000" d="M 1001.5,163.5 C 886.166,163.667 770.833,163.5 655.5,163C 771.001,162.167 886.334,162.334 1001.5,163.5 Z"/></g>
<g><path style="opacity:0.004" fill="#000000" d="M 1073.5,162.5 C 1074.83,163.167 1074.83,163.167 1073.5,162.5 Z"/></g>
<g><path style="opacity:0.01" fill="#000000" d="M 1001.5,163.5 C 1025.17,163.333 1048.84,163.5 1072.5,164C 1048.66,164.83 1025,164.663 1001.5,163.5 Z"/></g>
<g><path style="opacity:1" fill="#217345" d="M 630.5,1067.5 C 631.492,1074.98 631.825,1082.65 631.5,1090.5C 774.833,1090.5 918.167,1090.5 1061.5,1090.5C 1061.5,795.5 1061.5,500.5 1061.5,205.5C 918.167,205.5 774.833,205.5 631.5,205.5C 631.813,209.042 631.479,212.375 630.5,215.5C 630.5,199.833 630.5,184.167 630.5,168.5C 779.167,168.333 927.834,168.5 1076.5,169C 1089.67,172.848 1097.17,181.681 1099,195.5C 1098.6,499.162 1097.94,802.828 1097,1106.5C 1094.75,1117.08 1088.25,1123.25 1077.5,1125C 1068.18,1126 1058.85,1126.83 1049.5,1127.5C 909.842,1127.41 770.176,1127.41 630.5,1127.5C 630.5,1107.5 630.5,1087.5 630.5,1067.5 Z"/></g>
<g><path style="opacity:1" fill="#fdfefe" d="M 196.5,400.5 C 206.87,400.274 217.203,400.774 227.5,402C 231.446,402.533 234.612,404.366 237,407.5C 258.909,456.316 281.076,504.983 303.5,553.5C 325.924,504.983 348.091,456.316 370,407.5C 371.873,405.291 374.04,403.458 376.5,402C 389.167,400 401.833,400 414.5,402C 420.507,403.672 422.673,407.505 421,413.5C 419.897,418.372 418.23,423.038 416,427.5C 389.282,484.934 363.116,542.601 337.5,600.5C 366.561,664.169 395.728,727.835 425,791.5C 428.971,804.888 423.804,811.388 409.5,811C 400.167,811.667 390.833,811.667 381.5,811C 376.849,810.258 373.016,808.092 370,804.5C 346.757,752.351 323.257,700.351 299.5,648.5C 276.397,700.374 253.563,752.374 231,804.5C 228.222,807.807 224.722,809.974 220.5,811C 208.82,812.91 197.153,812.91 185.5,811C 179.795,809.797 176.795,806.297 176.5,800.5C 177.164,796.675 178.331,793.008 180,789.5C 208.697,727.273 237.53,665.107 266.5,603C 238.47,541.774 210.304,480.607 182,419.5C 178.786,412.539 180.286,407.039 186.5,403C 189.952,402.115 193.286,401.282 196.5,400.5 Z"/></g>
<g><path style="opacity:1" fill="#fdfdfd" d="M 630.5,1067.5 C 630.5,783.5 630.5,499.5 630.5,215.5C 631.479,212.375 631.813,209.042 631.5,205.5C 774.833,205.5 918.167,205.5 1061.5,205.5C 1061.5,500.5 1061.5,795.5 1061.5,1090.5C 918.167,1090.5 774.833,1090.5 631.5,1090.5C 631.825,1082.65 631.492,1074.98 630.5,1067.5 Z"/></g>
<g><path style="opacity:1" fill="#fefefe" d="M 873.5,469.5 C 871.425,458.273 867.758,447.607 862.5,437.5C 883.66,436.503 904.993,436.169 926.5,436.5C 926.5,447.167 926.5,457.833 926.5,468.5C 908.757,468.181 891.09,468.514 873.5,469.5 Z"/></g>
<g><path style="opacity:1" fill="#0d0e0f" d="M 860.5,434.5 C 860.932,435.71 861.599,436.71 862.5,437.5C 867.758,447.607 871.425,458.273 873.5,469.5C 873.263,470.791 873.596,471.791 874.5,472.5C 879.37,519.247 862.37,555.414 823.5,581C 784.98,601.037 747.98,598.704 712.5,574C 681.505,548.149 668.005,514.982 672,474.5C 679.321,434.182 701.821,406.015 739.5,390C 781.233,377.641 817.4,386.808 848,417.5C 852.416,423.068 856.583,428.735 860.5,434.5 Z"/></g>
<g><path style="opacity:1" fill="#368292" d="M 773.5,496.5 C 785.576,525.543 797.576,554.71 809.5,584C 794.121,590.506 778.121,592.673 761.5,590.5C 761.167,589.5 760.833,588.5 760.5,587.5C 764.753,557.141 769.086,526.808 773.5,496.5 Z"/></g>
<g><path style="opacity:1" fill="#4d8ef2" d="M 769.5,493.5 C 770.124,493.917 770.457,494.584 770.5,495.5C 765.838,526.793 761.505,558.126 757.5,589.5C 730.925,585.385 709.925,572.385 694.5,550.5C 719.748,531.722 744.748,512.722 769.5,493.5 Z"/></g>
<g><path style="opacity:1" fill="#5b5643" d="M 677.5,461.5 C 708.19,470.897 738.857,480.397 769.5,490C 744.191,509.654 718.524,528.82 692.5,547.5C 680.557,529.909 674.557,510.409 674.5,489C 674.465,479.711 675.465,470.545 677.5,461.5 Z"/></g>
<g><path style="opacity:1" fill="#1f3e65" d="M 685.5,442.5 C 708.796,454.814 731.796,467.648 754.5,481C 729.464,474.157 704.464,466.991 679.5,459.5C 680.31,453.404 682.31,447.737 685.5,442.5 Z"/></g>
<g><path style="opacity:1" fill="#98a65b" d="M 795.5,390.5 C 828.314,399.136 851.481,419.136 865,450.5C 878.388,488.404 873.055,523.404 849,555.5C 838.969,567.208 826.969,576.208 813,582.5C 811.523,581.556 810.523,580.223 810,578.5C 797.468,548.065 785.634,517.398 774.5,486.5C 781.503,454.49 788.503,422.49 795.5,390.5 Z"/></g>
<g><path style="opacity:1" fill="#234caa" d="M 746.5,390.5 C 751.032,389.878 753.198,391.878 753,396.5C 759.118,425.751 764.451,455.085 769,484.5C 741.266,470.053 714.099,454.72 687.5,438.5C 701.207,415.122 720.873,399.122 746.5,390.5 Z"/></g>
<g><path style="opacity:1" fill="#acb083" d="M 760.5,387.5 C 770.874,387.234 781.207,387.734 791.5,389C 792.097,390.062 792.43,391.228 792.5,392.5C 785.976,421.262 779.143,449.928 772,478.5C 765.971,448.857 760.138,419.19 754.5,389.5C 756.631,388.831 758.631,388.165 760.5,387.5 Z"/></g>
<g><path style="opacity:1" fill="#f1f1f1" d="M 633.5,215.5 C 633.5,224.5 633.5,233.5 633.5,242.5C 763.834,242.667 894.167,242.5 1024.5,242C 1026.45,233.434 1027.12,224.601 1026.5,215.5C 1030.17,215.5 1033.83,215.5 1037.5,215.5C 1037.5,232.5 1037.5,249.5 1037.5,266.5C 1036.51,276.319 1036.17,286.319 1036.5,296.5C 1000.17,296.5 963.833,296.5 927.5,296.5C 927.167,275.167 926.833,275.167 926.5,296.5C 890.5,296.5 854.5,296.5 818.5,296.5C 817.833,260.5 817.167,260.5 816.5,296.5C 780.5,296.5 744.5,296.5 708.5,296.5C 708.167,275.167 707.833,275.167 707.5,296.5C 682.5,296.5 657.5,296.5 632.5,296.5C 632.169,269.328 632.502,242.328 633.5,215.5 Z"/></g>
<g><path style="opacity:1" fill="#76757b" d="M 984.5,266.5 C 985.647,270.646 985.814,274.98 985,279.5C 982.136,282.326 979.969,281.826 978.5,278C 978.833,277.5 979.167,277 979.5,276.5C 980.386,277.325 980.719,278.325 980.5,279.5C 981.822,279.67 982.989,279.337 984,278.5C 984.499,274.514 984.666,270.514 984.5,266.5 Z"/></g>
<g><path style="opacity:1" fill="#808086" d="M 757.5,265.5 C 759.344,267.279 760.01,269.612 759.5,272.5C 761.5,272.5 763.5,272.5 765.5,272.5C 765.192,270.076 765.526,267.743 766.5,265.5C 767.833,270.833 767.833,276.167 766.5,281.5C 765.526,279.257 765.192,276.924 765.5,274.5C 763.5,274.5 761.5,274.5 759.5,274.5C 759.808,276.924 759.474,279.257 758.5,281.5C 757.505,276.208 757.172,270.875 757.5,265.5 Z"/></g>
<g><path style="opacity:1" fill="#7e7d84" d="M 650.5,265.5 C 654.224,264.773 656.891,266.106 658.5,269.5C 658.167,269.833 657.833,270.167 657.5,270.5C 655.401,267.016 652.901,266.682 650,269.5C 648.996,272.993 649.496,276.159 651.5,279C 655.492,280.177 657.158,278.677 656.5,274.5C 655.448,274.649 654.448,274.483 653.5,274C 655.134,273.506 656.801,273.34 658.5,273.5C 658.664,276.187 658.497,278.854 658,281.5C 655.631,281.273 653.131,281.107 650.5,281C 646.541,275.835 646.541,270.668 650.5,265.5 Z"/></g>
<g><path style="opacity:1" fill="#f5f5f5" d="M 633.5,215.5 C 764.5,215.5 895.5,215.5 1026.5,215.5C 1027.12,224.601 1026.45,233.434 1024.5,242C 894.167,242.5 763.834,242.667 633.5,242.5C 633.5,233.5 633.5,224.5 633.5,215.5 Z"/></g>
<g><path style="opacity:1" fill="#fefefe" d="M 722.5,778.5 C 723.394,768.392 718.728,763.392 708.5,763.5C 708.5,757.833 708.5,752.167 708.5,746.5C 744.5,746.5 780.5,746.5 816.5,746.5C 816.5,757.167 816.5,767.833 816.5,778.5C 785.167,778.5 753.833,778.5 722.5,778.5 Z"/></g>
<g><path style="opacity:1" fill="#3e3e3e" d="M 689.5,766.5 C 696.5,766.5 703.5,766.5 710.5,766.5C 710.814,769.947 711.648,773.28 713,776.5C 713.667,831.5 713.667,886.5 713,941.5C 712.5,942.5 712,943.5 711.5,944.5C 707.555,945.491 703.555,945.824 699.5,945.5C 697.5,945.5 695.5,945.5 693.5,945.5C 692.167,945.5 690.833,945.5 689.5,945.5C 689.5,885.833 689.5,826.167 689.5,766.5 Z"/></g>
<g><path style="opacity:1" fill="#8a8a8a" d="M 715.5,767.5 C 717.017,767.511 718.184,768.177 719,769.5C 719.667,828.167 719.667,886.833 719,945.5C 717.992,947.259 716.492,948.426 714.5,949C 708.801,949.742 703.134,949.575 697.5,948.5C 695.84,947.828 694.507,946.828 693.5,945.5C 695.5,945.5 697.5,945.5 699.5,945.5C 700.263,946.268 701.263,946.768 702.5,947C 706.167,947.667 709.833,947.667 713.5,947C 715.487,945.681 716.654,943.848 717,941.5C 717.667,885.5 717.667,829.5 717,773.5C 716.187,771.564 715.687,769.564 715.5,767.5 Z"/></g>
<g><path style="opacity:1" fill="#666666" d="M 710.5,766.5 C 711.222,766.918 711.722,767.584 712,768.5C 713.011,767.663 714.178,767.33 715.5,767.5C 715.687,769.564 716.187,771.564 717,773.5C 717.667,829.5 717.667,885.5 717,941.5C 716.654,943.848 715.487,945.681 713.5,947C 709.833,947.667 706.167,947.667 702.5,947C 701.263,946.768 700.263,946.268 699.5,945.5C 703.555,945.824 707.555,945.491 711.5,944.5C 712,943.5 712.5,942.5 713,941.5C 713.667,886.5 713.667,831.5 713,776.5C 711.648,773.28 710.814,769.947 710.5,766.5 Z"/></g>
<g><path style="opacity:1" fill="#f3f4f3" d="M 722.5,780.5 C 753.833,780.5 785.167,780.5 816.5,780.5C 816.5,791.5 816.5,802.5 816.5,813.5C 809.167,813.5 801.833,813.5 794.5,813.5C 794.815,809.629 794.482,805.962 793.5,802.5C 792.752,798.583 790.418,796.083 786.5,795C 780.5,794.333 774.5,794.333 768.5,795C 767.944,795.383 767.611,795.883 767.5,796.5C 765.167,796.5 762.833,796.5 760.5,796.5C 760.168,846.336 760.501,896.003 761.5,945.5C 762.865,947.86 764.865,949.527 767.5,950.5C 762.5,951.833 757.5,951.833 752.5,950.5C 755.461,949.607 757.294,947.607 758,944.5C 758.667,895.167 758.667,845.833 758,796.5C 757.28,792.112 754.78,789.279 750.5,788C 744.5,787.333 738.5,787.333 732.5,788C 731.944,788.383 731.611,788.883 731.5,789.5C 729.5,789.5 727.5,789.5 725.5,789.5C 725.5,841.5 725.5,893.5 725.5,945.5C 727.183,947.514 729.183,949.18 731.5,950.5C 726.5,951.833 721.5,951.833 716.5,950.5C 719.541,949.625 721.375,947.625 722,944.5C 722.5,889.834 722.667,835.168 722.5,780.5 Z"/></g>
<g><path style="opacity:1" fill="#fcfbfb" d="M 818.5,780.5 C 854.5,780.5 890.5,780.5 926.5,780.5C 926.5,791.5 926.5,802.5 926.5,813.5C 918.167,813.5 909.833,813.5 901.5,813.5C 901.824,806.646 901.491,799.979 900.5,793.5C 900.44,788.939 898.107,786.439 893.5,786C 887.833,785.333 882.167,785.333 876.5,786C 875.944,786.383 875.611,786.883 875.5,787.5C 873.167,787.5 870.833,787.5 868.5,787.5C 868.5,840.167 868.5,892.833 868.5,945.5C 869.865,947.86 871.865,949.527 874.5,950.5C 869.5,951.833 864.5,951.833 859.5,950.5C 862.541,949.625 864.375,947.625 865,944.5C 865.667,907.167 865.667,869.833 865,832.5C 863.749,829.619 861.583,827.786 858.5,827C 852.167,826.333 845.833,826.333 839.5,827C 838.584,827.278 837.918,827.778 837.5,828.5C 835.833,828.5 834.167,828.5 832.5,828.5C 831.672,834.987 831.172,841.654 831,848.5C 826.934,847.536 822.767,847.203 818.5,847.5C 818.5,836.833 818.5,826.167 818.5,815.5C 882.5,814.833 882.5,814.167 818.5,813.5C 818.5,802.5 818.5,791.5 818.5,780.5 Z"/></g>
<g><path style="opacity:1" fill="#aa0000" d="M 875.5,787.5 C 880.167,787.5 884.833,787.5 889.5,787.5C 889.5,788.833 889.5,790.167 889.5,791.5C 889.5,842.833 889.5,894.167 889.5,945.5C 884.5,945.5 879.5,945.5 874.5,945.5C 872.5,945.5 870.5,945.5 868.5,945.5C 868.5,892.833 868.5,840.167 868.5,787.5C 870.833,787.5 873.167,787.5 875.5,787.5 Z"/></g>
<g><path style="opacity:1" fill="#006600" d="M 731.5,789.5 C 736.5,789.5 741.5,789.5 746.5,789.5C 746.5,790.167 746.5,790.833 746.5,791.5C 746.5,792.167 746.5,792.833 746.5,793.5C 746.5,844.167 746.5,894.833 746.5,945.5C 742.833,945.5 739.167,945.5 735.5,945.5C 734.167,945.5 732.833,945.5 731.5,945.5C 729.5,945.5 727.5,945.5 725.5,945.5C 725.5,893.5 725.5,841.5 725.5,789.5C 727.5,789.5 729.5,789.5 731.5,789.5 Z"/></g>
<g><path style="opacity:1" fill="#9c9c9c" d="M 900.5,793.5 C 900.5,843.5 900.5,893.5 900.5,943.5C 900.536,947.108 898.869,949.441 895.5,950.5C 888.5,951.833 881.5,951.833 874.5,950.5C 871.865,949.527 869.865,947.86 868.5,945.5C 870.5,945.5 872.5,945.5 874.5,945.5C 874.5,946.167 874.833,946.5 875.5,946.5C 876.058,947.79 877.058,948.623 878.5,949C 883.5,949.667 888.5,949.667 893.5,949C 895,948.167 896.167,947 897,945.5C 897.667,894.167 897.667,842.833 897,791.5C 895.492,789.162 893.325,788.162 890.5,788.5C 890.5,787.833 890.167,787.5 889.5,787.5C 884.833,787.5 880.167,787.5 875.5,787.5C 875.611,786.883 875.944,786.383 876.5,786C 882.167,785.333 887.833,785.333 893.5,786C 898.107,786.439 900.44,788.939 900.5,793.5 Z"/></g>
<g><path style="opacity:1" fill="#9f9f9f" d="M 752.5,950.5 C 747.562,951.392 742.562,951.726 737.5,951.5C 736.167,951.5 734.833,951.5 733.5,951.5C 733.158,950.662 732.492,950.328 731.5,950.5C 729.183,949.18 727.183,947.514 725.5,945.5C 727.5,945.5 729.5,945.5 731.5,945.5C 731.953,946.458 732.619,947.292 733.5,948C 739.167,948.667 744.833,948.667 750.5,948C 752.049,946.786 753.215,945.286 754,943.5C 754.667,894.167 754.667,844.833 754,795.5C 752.516,792.179 750.016,790.179 746.5,789.5C 741.5,789.5 736.5,789.5 731.5,789.5C 731.611,788.883 731.944,788.383 732.5,788C 738.5,787.333 744.5,787.333 750.5,788C 754.78,789.279 757.28,792.112 758,796.5C 758.667,845.833 758.667,895.167 758,944.5C 757.294,947.607 755.461,949.607 752.5,950.5 Z"/></g>
<g><path style="opacity:1" fill="#696969" d="M 889.5,787.5 C 890.167,787.5 890.5,787.833 890.5,788.5C 891.209,789.404 892.209,789.737 893.5,789.5C 893.312,791.103 893.812,792.437 895,793.5C 895.667,843.5 895.667,893.5 895,943.5C 893.421,945.041 891.587,946.208 889.5,947C 884.78,947.717 880.114,947.55 875.5,946.5C 874.833,946.5 874.5,946.167 874.5,945.5C 879.5,945.5 884.5,945.5 889.5,945.5C 890.237,943.618 891.404,942.952 893,943.5C 893.833,893.497 893.667,843.497 892.5,793.5C 891.735,792.388 890.735,791.721 889.5,791.5C 889.5,790.167 889.5,788.833 889.5,787.5 Z"/></g>
<g><path style="opacity:1" fill="#a1a1a1" d="M 707.5,763.5 C 707.833,763.5 708.167,763.5 708.5,763.5C 718.728,763.392 723.394,768.392 722.5,778.5C 722.5,779.167 722.5,779.833 722.5,780.5C 722.667,835.168 722.5,889.834 722,944.5C 721.375,947.625 719.541,949.625 716.5,950.5C 709.5,951.833 702.5,951.833 695.5,950.5C 693.475,948.804 691.475,947.137 689.5,945.5C 690.833,945.5 692.167,945.5 693.5,945.5C 694.507,946.828 695.84,947.828 697.5,948.5C 703.134,949.575 708.801,949.742 714.5,949C 716.492,948.426 717.992,947.259 719,945.5C 719.667,886.833 719.667,828.167 719,769.5C 718.184,768.177 717.017,767.511 715.5,767.5C 714.178,767.33 713.011,767.663 712,768.5C 711.722,767.584 711.222,766.918 710.5,766.5C 703.5,766.5 696.5,766.5 689.5,766.5C 695.291,765.013 701.291,764.013 707.5,763.5 Z"/></g>
<g><path style="opacity:1" fill="#858585" d="M 746.5,789.5 C 750.016,790.179 752.516,792.179 754,795.5C 754.667,844.833 754.667,894.167 754,943.5C 753.215,945.286 752.049,946.786 750.5,948C 744.833,948.667 739.167,948.667 733.5,948C 732.619,947.292 731.953,946.458 731.5,945.5C 732.833,945.5 734.167,945.5 735.5,945.5C 739.646,946.647 743.98,946.814 748.5,946C 749.618,944.926 750.618,943.76 751.5,942.5C 752.667,893.17 752.833,843.837 752,794.5C 750.417,793.029 748.583,792.029 746.5,791.5C 746.5,790.833 746.5,790.167 746.5,789.5 Z"/></g>
<g><path style="opacity:1" fill="#666666" d="M 746.5,791.5 C 748.583,792.029 750.417,793.029 752,794.5C 752.833,843.837 752.667,893.17 751.5,942.5C 750.618,943.76 749.618,944.926 748.5,946C 743.98,946.814 739.646,946.647 735.5,945.5C 739.167,945.5 742.833,945.5 746.5,945.5C 747.151,944.909 747.818,944.243 748.5,943.5C 749.667,894.17 749.833,844.837 749,795.5C 748.292,794.619 747.458,793.953 746.5,793.5C 746.5,792.833 746.5,792.167 746.5,791.5 Z"/></g>
<g><path style="opacity:1" fill="#524f4f" d="M 889.5,791.5 C 890.735,791.721 891.735,792.388 892.5,793.5C 893.667,843.497 893.833,893.497 893,943.5C 891.404,942.952 890.237,943.618 889.5,945.5C 889.5,894.167 889.5,842.833 889.5,791.5 Z"/></g>
<g><path style="opacity:1" fill="#808080" d="M 890.5,788.5 C 893.325,788.162 895.492,789.162 897,791.5C 897.667,842.833 897.667,894.167 897,945.5C 896.167,947 895,948.167 893.5,949C 888.5,949.667 883.5,949.667 878.5,949C 877.058,948.623 876.058,947.79 875.5,946.5C 880.114,947.55 884.78,947.717 889.5,947C 891.587,946.208 893.421,945.041 895,943.5C 895.667,893.5 895.667,843.5 895,793.5C 893.812,792.437 893.312,791.103 893.5,789.5C 892.209,789.737 891.209,789.404 890.5,788.5 Z"/></g>
<g><path style="opacity:1" fill="#4c4c4c" d="M 746.5,793.5 C 747.458,793.953 748.292,794.619 749,795.5C 749.833,844.837 749.667,894.17 748.5,943.5C 747.818,944.243 747.151,944.909 746.5,945.5C 746.5,894.833 746.5,844.167 746.5,793.5 Z"/></g>
<g><path style="opacity:1" fill="#000066" d="M 782.5,797.5 C 782.5,798.167 782.5,798.833 782.5,799.5C 782.5,847.5 782.5,895.5 782.5,943.5C 778.627,945.43 774.294,946.097 769.5,945.5C 768.167,945.5 766.833,945.5 765.5,945.5C 764.167,945.5 762.833,945.5 761.5,945.5C 761.5,896.167 761.5,846.833 761.5,797.5C 768.5,797.5 775.5,797.5 782.5,797.5 Z"/></g>
<g><path style="opacity:1" fill="#8c8c8c" d="M 782.5,797.5 C 786.355,796.845 789.188,798.179 791,801.5C 791.667,849.167 791.667,896.833 791,944.5C 790.535,945.931 789.701,947.097 788.5,948C 781.5,950 774.5,950 767.5,948C 767.833,947.667 768.167,947.333 768.5,947C 767.263,946.768 766.263,946.268 765.5,945.5C 766.833,945.5 768.167,945.5 769.5,945.5C 770.263,946.268 771.263,946.768 772.5,947C 776.5,947.667 780.5,947.667 784.5,947C 786.333,946.5 787.5,945.333 788,943.5C 788.667,897.167 788.667,850.833 788,804.5C 787.623,803.058 786.79,802.058 785.5,801.5C 785.179,799.952 784.179,799.285 782.5,799.5C 782.5,798.833 782.5,798.167 782.5,797.5 Z"/></g>
<g><path style="opacity:1" fill="#a5a5a4" d="M 793.5,802.5 C 794.175,848.833 794.342,895.166 794,941.5C 793.676,945.492 791.843,948.492 788.5,950.5C 781.47,951.8 774.47,951.8 767.5,950.5C 764.865,949.527 762.865,947.86 761.5,945.5C 762.833,945.5 764.167,945.5 765.5,945.5C 766.263,946.268 767.263,946.768 768.5,947C 768.167,947.333 767.833,947.667 767.5,948C 774.5,950 781.5,950 788.5,948C 789.701,947.097 790.535,945.931 791,944.5C 791.667,896.833 791.667,849.167 791,801.5C 789.188,798.179 786.355,796.845 782.5,797.5C 777.695,796.513 772.695,796.179 767.5,796.5C 767.611,795.883 767.944,795.383 768.5,795C 774.5,794.333 780.5,794.333 786.5,795C 790.418,796.083 792.752,798.583 793.5,802.5 Z"/></g>
<g><path style="opacity:1" fill="#6c6c6c" d="M 785.5,801.5 C 786.79,802.058 787.623,803.058 788,804.5C 788.667,850.833 788.667,897.167 788,943.5C 787.5,945.333 786.333,946.5 784.5,947C 780.5,947.667 776.5,947.667 772.5,947C 771.263,946.768 770.263,946.268 769.5,945.5C 774.294,946.097 778.627,945.43 782.5,943.5C 783.822,943.67 784.989,943.337 786,942.5C 786.823,895.459 786.657,848.459 785.5,801.5 Z"/></g>
<g><path style="opacity:1" fill="#50504d" d="M 782.5,799.5 C 784.179,799.285 785.179,799.952 785.5,801.5C 786.657,848.459 786.823,895.459 786,942.5C 784.989,943.337 783.822,943.67 782.5,943.5C 782.5,895.5 782.5,847.5 782.5,799.5 Z"/></g>
<g><path style="opacity:1" fill="#ececec" d="M 816.5,780.5 C 817.167,780.5 817.833,780.5 818.5,780.5C 818.5,791.5 818.5,802.5 818.5,813.5C 882.5,814.167 882.5,814.833 818.5,815.5C 818.5,826.167 818.5,836.833 818.5,847.5C 822.767,847.203 826.934,847.536 831,848.5C 831.172,841.654 831.672,834.987 832.5,828.5C 832.168,867.67 832.501,906.67 833.5,945.5C 834.833,947.5 836.5,949.167 838.5,950.5C 833.833,951.833 829.167,951.833 824.5,950.5C 826.504,949.327 828.004,947.66 829,945.5C 829.667,916.833 829.667,888.167 829,859.5C 827.363,857.19 825.196,855.69 822.5,855C 816.167,854.333 809.833,854.333 803.5,855C 802.944,855.383 802.611,855.883 802.5,856.5C 800.5,856.5 798.5,856.5 796.5,856.5C 796.5,886.167 796.5,915.833 796.5,945.5C 798.531,947.522 800.865,949.189 803.5,950.5C 798.5,951.833 793.5,951.833 788.5,950.5C 791.843,948.492 793.676,945.492 794,941.5C 794.342,895.166 794.175,848.833 793.5,802.5C 794.482,805.962 794.815,809.629 794.5,813.5C 801.833,813.5 809.167,813.5 816.5,813.5C 816.5,802.5 816.5,791.5 816.5,780.5 Z"/></g>
<g><path style="opacity:1" fill="#fefefe" d="M 794.5,815.5 C 801.833,815.5 809.167,815.5 816.5,815.5C 816.5,826.167 816.5,836.833 816.5,847.5C 809.245,847.187 802.079,847.52 795,848.5C 794.5,837.505 794.333,826.505 794.5,815.5 Z"/></g>
<g><path style="opacity:1" fill="#ccaa20" d="M 832.5,828.5 C 834.167,828.5 835.833,828.5 837.5,828.5C 842.833,828.5 848.167,828.5 853.5,828.5C 853.5,867.5 853.5,906.5 853.5,945.5C 848.5,945.5 843.5,945.5 838.5,945.5C 836.833,945.5 835.167,945.5 833.5,945.5C 832.501,906.67 832.168,867.67 832.5,828.5 Z"/></g>
<g><path style="opacity:1" fill="#888888" d="M 854.5,828.5 C 855.83,829.832 857.497,830.665 859.5,831C 860.701,831.903 861.535,833.069 862,834.5C 862.667,871.5 862.667,908.5 862,945.5C 861.348,947.723 859.848,948.89 857.5,949C 854.667,949.167 851.833,949.333 849,949.5C 845.748,949.481 842.915,948.814 840.5,947.5C 844.846,947.666 849.179,947.499 853.5,947C 855.931,946.705 857.764,945.538 859,943.5C 859.833,907.162 859.667,870.829 858.5,834.5C 857.476,833.147 856.143,832.48 854.5,832.5C 854.5,831.167 854.5,829.833 854.5,828.5 Z"/></g>
<g><path style="opacity:1" fill="#9fa0a0" d="M 859.5,950.5 C 852.5,951.833 845.5,951.833 838.5,950.5C 836.5,949.167 834.833,947.5 833.5,945.5C 835.167,945.5 836.833,945.5 838.5,945.5C 838.833,946.5 839.5,947.167 840.5,947.5C 842.915,948.814 845.748,949.481 849,949.5C 851.833,949.333 854.667,949.167 857.5,949C 859.848,948.89 861.348,947.723 862,945.5C 862.667,908.5 862.667,871.5 862,834.5C 861.535,833.069 860.701,831.903 859.5,831C 857.497,830.665 855.83,829.832 854.5,828.5C 854.167,828.5 853.833,828.5 853.5,828.5C 848.167,828.5 842.833,828.5 837.5,828.5C 837.918,827.778 838.584,827.278 839.5,827C 845.833,826.333 852.167,826.333 858.5,827C 861.583,827.786 863.749,829.619 865,832.5C 865.667,869.833 865.667,907.167 865,944.5C 864.375,947.625 862.541,949.625 859.5,950.5 Z"/></g>
<g><path style="opacity:1" fill="#5f5e59" d="M 853.5,828.5 C 853.833,828.5 854.167,828.5 854.5,828.5C 854.5,829.833 854.5,831.167 854.5,832.5C 856.143,832.48 857.476,833.147 858.5,834.5C 859.667,870.829 859.833,907.162 859,943.5C 857.764,945.538 855.931,946.705 853.5,947C 849.179,947.499 844.846,947.666 840.5,947.5C 839.5,947.167 838.833,946.5 838.5,945.5C 843.5,945.5 848.5,945.5 853.5,945.5C 853.5,906.5 853.5,867.5 853.5,828.5 Z"/></g>
<g><path style="opacity:0.008" fill="#000000" d="M 49.5,1084.5 C 49.3333,1006.83 49.5,929.166 50,851.5C 50.8323,929.334 50.6656,1007 49.5,1084.5 Z"/></g>
<g><path style="opacity:1" fill="#ca5102" d="M 802.5,856.5 C 807.833,856.5 813.167,856.5 818.5,856.5C 818.5,857.167 818.5,857.833 818.5,858.5C 818.5,887.5 818.5,916.5 818.5,945.5C 812.833,945.5 807.167,945.5 801.5,945.5C 799.833,945.5 798.167,945.5 796.5,945.5C 796.5,915.833 796.5,886.167 796.5,856.5C 798.5,856.5 800.5,856.5 802.5,856.5 Z"/></g>
<g><path style="opacity:1" fill="#7b7b7b" d="M 818.5,856.5 C 821.155,857.001 823.322,858.334 825,860.5C 825.667,888.167 825.667,915.833 825,943.5C 824.89,945.848 823.723,947.348 821.5,948C 816.167,948.667 810.833,948.667 805.5,948C 803.934,947.392 802.6,946.558 801.5,945.5C 807.167,945.5 812.833,945.5 818.5,945.5C 820.408,945.117 821.908,944.117 823,942.5C 823.667,915.5 823.667,888.5 823,861.5C 821.729,860.117 820.229,859.117 818.5,858.5C 818.5,857.833 818.5,857.167 818.5,856.5 Z"/></g>
<g><path style="opacity:1" fill="#9d9d9d" d="M 824.5,950.5 C 817.47,951.8 810.47,951.8 803.5,950.5C 800.865,949.189 798.531,947.522 796.5,945.5C 798.167,945.5 799.833,945.5 801.5,945.5C 802.6,946.558 803.934,947.392 805.5,948C 810.833,948.667 816.167,948.667 821.5,948C 823.723,947.348 824.89,945.848 825,943.5C 825.667,915.833 825.667,888.167 825,860.5C 823.322,858.334 821.155,857.001 818.5,856.5C 813.167,856.5 807.833,856.5 802.5,856.5C 802.611,855.883 802.944,855.383 803.5,855C 809.833,854.333 816.167,854.333 822.5,855C 825.196,855.69 827.363,857.19 829,859.5C 829.667,888.167 829.667,916.833 829,945.5C 828.004,947.66 826.504,949.327 824.5,950.5 Z"/></g>
<g><path style="opacity:1" fill="#545658" d="M 818.5,858.5 C 820.229,859.117 821.729,860.117 823,861.5C 823.667,888.5 823.667,915.5 823,942.5C 821.908,944.117 820.408,945.117 818.5,945.5C 818.5,916.5 818.5,887.5 818.5,858.5 Z"/></g>
<g><path style="opacity:1" fill="#5d5d9c" d="M 767.5,796.5 C 772.695,796.179 777.695,796.513 782.5,797.5C 775.5,797.5 768.5,797.5 761.5,797.5C 761.5,846.833 761.5,896.167 761.5,945.5C 760.501,896.003 760.168,846.336 760.5,796.5C 762.833,796.5 765.167,796.5 767.5,796.5 Z"/></g>
<g><path style="opacity:1" fill="#fefefe" d="M 895.5,950.5 C 898.869,949.441 900.536,947.108 900.5,943.5C 901.493,935.35 901.826,927.017 901.5,918.5C 909.833,918.5 918.167,918.5 926.5,918.5C 926.5,929.5 926.5,940.5 926.5,951.5C 915.986,951.828 905.653,951.494 895.5,950.5 Z"/></g>
<g><path style="opacity:1" fill="#e1e1e1" d="M 1037.5,266.5 C 1037.5,515.833 1037.5,765.167 1037.5,1014.5C 970.07,1013.83 902.57,1013.5 835,1013.5C 767.291,1013.5 699.791,1014.17 632.5,1015.5C 632.5,1014.17 632.5,1012.83 632.5,1011.5C 657.5,1011.5 682.5,1011.5 707.5,1011.5C 707.5,1003.5 707.5,995.5 707.5,987.5C 607.5,986.833 607.5,986.167 707.5,985.5C 707.5,974.5 707.5,963.5 707.5,952.5C 682.498,952.667 657.498,952.5 632.5,952C 653.671,951.832 674.671,951.332 695.5,950.5C 702.5,951.833 709.5,951.833 716.5,950.5C 721.5,951.833 726.5,951.833 731.5,950.5C 732.492,950.328 733.158,950.662 733.5,951.5C 725.252,952.469 716.918,952.802 708.5,952.5C 708.5,963.5 708.5,974.5 708.5,985.5C 744.5,985.5 780.5,985.5 816.5,985.5C 816.5,974.5 816.5,963.5 816.5,952.5C 789.995,952.831 763.661,952.498 737.5,951.5C 742.562,951.726 747.562,951.392 752.5,950.5C 757.5,951.833 762.5,951.833 767.5,950.5C 774.47,951.8 781.47,951.8 788.5,950.5C 793.5,951.833 798.5,951.833 803.5,950.5C 810.47,951.8 817.47,951.8 824.5,950.5C 829.167,951.833 833.833,951.833 838.5,950.5C 845.5,951.833 852.5,951.833 859.5,950.5C 864.5,951.833 869.5,951.833 874.5,950.5C 881.5,951.833 888.5,951.833 895.5,950.5C 905.653,951.494 915.986,951.828 926.5,951.5C 926.5,940.5 926.5,929.5 926.5,918.5C 918.167,918.5 909.833,918.5 901.5,918.5C 901.826,927.017 901.493,935.35 900.5,943.5C 900.5,893.5 900.5,843.5 900.5,793.5C 901.491,799.979 901.824,806.646 901.5,813.5C 909.833,813.5 918.167,813.5 926.5,813.5C 926.5,802.5 926.5,791.5 926.5,780.5C 890.5,780.5 854.5,780.5 818.5,780.5C 817.833,780.5 817.167,780.5 816.5,780.5C 785.167,780.5 753.833,780.5 722.5,780.5C 722.5,779.833 722.5,779.167 722.5,778.5C 753.833,778.5 785.167,778.5 816.5,778.5C 816.5,767.833 816.5,757.167 816.5,746.5C 780.5,746.5 744.5,746.5 708.5,746.5C 708.5,752.167 708.5,757.833 708.5,763.5C 708.167,763.5 707.833,763.5 707.5,763.5C 707.5,757.833 707.5,752.167 707.5,746.5C 607.5,745.833 607.5,745.167 707.5,744.5C 707.5,733.5 707.5,722.5 707.5,711.5C 607.5,711.167 607.5,710.833 707.5,710.5C 707.5,699.5 707.5,688.5 707.5,677.5C 607.5,676.833 607.5,676.167 707.5,675.5C 707.5,664.5 707.5,653.5 707.5,642.5C 607.5,642.167 607.5,641.833 707.5,641.5C 707.5,630.5 707.5,619.5 707.5,608.5C 607.5,607.833 607.5,607.167 707.5,606.5C 707.5,595.5 707.5,584.5 707.5,573.5C 607.581,573.499 607.581,572.832 707.5,571.5C 708.646,572.145 709.646,572.978 710.5,574C 708.537,584.577 707.87,595.41 708.5,606.5C 744.5,606.5 780.5,606.5 816.5,606.5C 817.167,578.5 817.833,578.5 818.5,606.5C 854.5,606.5 890.5,606.5 926.5,606.5C 926.5,595.5 926.5,584.5 926.5,573.5C 807.833,573.167 807.833,572.833 926.5,572.5C 926.5,561.5 926.5,550.5 926.5,539.5C 905.831,539.667 885.164,539.5 864.5,539C 885.015,537.512 905.682,537.012 926.5,537.5C 926.5,526.833 926.5,516.167 926.5,505.5C 858.5,504.833 858.5,504.167 926.5,503.5C 926.5,492.5 926.5,481.5 926.5,470.5C 908.801,469.847 891.468,470.514 874.5,472.5C 873.596,471.791 873.263,470.791 873.5,469.5C 891.09,468.514 908.757,468.181 926.5,468.5C 926.5,457.833 926.5,447.167 926.5,436.5C 904.993,436.169 883.66,436.503 862.5,437.5C 861.599,436.71 860.932,435.71 860.5,434.5C 882.5,434.5 904.5,434.5 926.5,434.5C 926.5,423.5 926.5,412.5 926.5,401.5C 798.5,401.167 798.5,400.833 926.5,400.5C 926.5,389.5 926.5,378.5 926.5,367.5C 890.5,367.5 854.5,367.5 818.5,367.5C 818.666,376.173 818.5,384.84 818,393.5C 816.531,385.003 816.031,376.336 816.5,367.5C 780.5,367.5 744.5,367.5 708.5,367.5C 708.5,378.5 708.5,389.5 708.5,400.5C 717.833,400.833 717.833,401.167 708.5,401.5C 708.167,408.167 707.833,408.167 707.5,401.5C 607.5,401.167 607.5,400.833 707.5,400.5C 707.5,389.5 707.5,378.5 707.5,367.5C 607.5,366.833 607.5,366.167 707.5,365.5C 707.5,354.5 707.5,343.5 707.5,332.5C 607.5,332.167 607.5,331.833 707.5,331.5C 707.5,320.5 707.5,309.5 707.5,298.5C 682.144,299.157 657.144,298.491 632.5,296.5C 657.5,296.5 682.5,296.5 707.5,296.5C 707.833,275.167 708.167,275.167 708.5,296.5C 744.5,296.5 780.5,296.5 816.5,296.5C 817.167,260.5 817.833,260.5 818.5,296.5C 854.5,296.5 890.5,296.5 926.5,296.5C 926.833,275.167 927.167,275.167 927.5,296.5C 963.833,296.5 1000.17,296.5 1036.5,296.5C 1036.17,286.319 1036.51,276.319 1037.5,266.5 Z"/></g>
<g><path style="opacity:1" fill="#fefefe" d="M 928.5,918.5 C 964.5,918.5 1000.5,918.5 1036.5,918.5C 1036.5,929.5 1036.5,940.5 1036.5,951.5C 1000.5,951.5 964.5,951.5 928.5,951.5C 928.5,940.5 928.5,929.5 928.5,918.5 Z"/></g>
<g><path style="opacity:1" fill="#fefefe" d="M 928.5,884.5 C 964.5,884.5 1000.5,884.5 1036.5,884.5C 1036.5,895.167 1036.5,905.833 1036.5,916.5C 1000.5,916.5 964.5,916.5 928.5,916.5C 928.5,905.833 928.5,895.167 928.5,884.5 Z"/></g>
<g><path style="opacity:1" fill="#fefefe" d="M 901.5,883.5 C 909.748,884.469 918.082,884.802 926.5,884.5C 926.5,895.167 926.5,905.833 926.5,916.5C 918.167,916.5 909.833,916.5 901.5,916.5C 901.5,905.5 901.5,894.5 901.5,883.5 Z"/></g>
<g><path style="opacity:1" fill="#fefefe" d="M 927.5,849.5 C 963.833,849.5 1000.17,849.5 1036.5,849.5C 1036.5,860.5 1036.5,871.5 1036.5,882.5C 1000.17,882.5 963.833,882.5 927.5,882.5C 927.5,871.5 927.5,860.5 927.5,849.5 Z"/></g>
<g><path style="opacity:1" fill="#fefefe" d="M 901.5,849.5 C 909.833,849.5 918.167,849.5 926.5,849.5C 926.5,860.5 926.5,871.5 926.5,882.5C 918.167,882.5 909.833,882.5 901.5,882.5C 901.5,871.5 901.5,860.5 901.5,849.5 Z"/></g>
<g><path style="opacity:1" fill="#fefefe" d="M 928.5,815.5 C 964.5,815.5 1000.5,815.5 1036.5,815.5C 1036.5,826.167 1036.5,836.833 1036.5,847.5C 1000.5,847.5 964.5,847.5 928.5,847.5C 928.5,836.833 928.5,826.167 928.5,815.5 Z"/></g>
<g><path style="opacity:1" fill="#fefefe" d="M 901.5,814.5 C 909.748,815.469 918.082,815.802 926.5,815.5C 926.5,826.5 926.5,837.5 926.5,848.5C 918.167,848.5 909.833,848.5 901.5,848.5C 901.5,837.167 901.5,825.833 901.5,814.5 Z"/></g>
<g><path style="opacity:1" fill="#fefefe" d="M 927.5,780.5 C 963.833,780.5 1000.17,780.5 1036.5,780.5C 1036.5,791.5 1036.5,802.5 1036.5,813.5C 1000.17,813.5 963.833,813.5 927.5,813.5C 927.5,802.5 927.5,791.5 927.5,780.5 Z"/></g>
<g><path style="opacity:1" fill="#fefefe" d="M 927.5,746.5 C 963.833,746.5 1000.17,746.5 1036.5,746.5C 1036.5,757.167 1036.5,767.833 1036.5,778.5C 1000.17,778.5 963.833,778.5 927.5,778.5C 927.5,767.833 927.5,757.167 927.5,746.5 Z"/></g>
<g><path style="opacity:1" fill="#fefefe" d="M 818.5,746.5 C 854.5,746.5 890.5,746.5 926.5,746.5C 926.5,757.167 926.5,767.833 926.5,778.5C 890.5,778.5 854.5,778.5 818.5,778.5C 818.5,767.833 818.5,757.167 818.5,746.5 Z"/></g>
<g><path style="opacity:1" fill="#fefefe" d="M 927.5,711.5 C 963.833,711.5 1000.17,711.5 1036.5,711.5C 1036.5,722.5 1036.5,733.5 1036.5,744.5C 1000.17,744.5 963.833,744.5 927.5,744.5C 927.5,733.5 927.5,722.5 927.5,711.5 Z"/></g>
<g><path style="opacity:1" fill="#fefefe" d="M 708.5,711.5 C 744.5,711.5 780.5,711.5 816.5,711.5C 816.5,722.5 816.5,733.5 816.5,744.5C 780.5,744.5 744.5,744.5 708.5,744.5C 708.5,733.5 708.5,722.5 708.5,711.5 Z"/></g>
<g><path style="opacity:1" fill="#fefefe" d="M 818.5,711.5 C 854.5,711.5 890.5,711.5 926.5,711.5C 926.5,722.5 926.5,733.5 926.5,744.5C 890.5,744.5 854.5,744.5 818.5,744.5C 818.5,733.5 818.5,722.5 818.5,711.5 Z"/></g>
<g><path style="opacity:1" fill="#fefefe" d="M 928.5,677.5 C 964.5,677.5 1000.5,677.5 1036.5,677.5C 1036.5,688.5 1036.5,699.5 1036.5,710.5C 1000.5,710.5 964.5,710.5 928.5,710.5C 928.5,699.5 928.5,688.5 928.5,677.5 Z"/></g>
<g><path style="opacity:1" fill="#fefefe" d="M 818.5,677.5 C 854.5,677.5 890.5,677.5 926.5,677.5C 926.5,688.5 926.5,699.5 926.5,710.5C 890.5,710.5 854.5,710.5 818.5,710.5C 818.5,699.5 818.5,688.5 818.5,677.5 Z"/></g>
<g><path style="opacity:1" fill="#fefefe" d="M 708.5,677.5 C 744.5,677.5 780.5,677.5 816.5,677.5C 816.5,688.5 816.5,699.5 816.5,710.5C 780.5,710.5 744.5,710.5 708.5,710.5C 708.5,699.5 708.5,688.5 708.5,677.5 Z"/></g>
<g><path style="opacity:1" fill="#fefefe" d="M 818.5,642.5 C 854.5,642.5 890.5,642.5 926.5,642.5C 926.5,653.5 926.5,664.5 926.5,675.5C 890.5,675.5 854.5,675.5 818.5,675.5C 818.5,664.5 818.5,653.5 818.5,642.5 Z"/></g>
<g><path style="opacity:1" fill="#fefefe" d="M 708.5,642.5 C 744.5,642.5 780.5,642.5 816.5,642.5C 816.5,653.5 816.5,664.5 816.5,675.5C 780.5,675.5 744.5,675.5 708.5,675.5C 708.5,664.5 708.5,653.5 708.5,642.5 Z"/></g>
<g><path style="opacity:1" fill="#fdfdfd" d="M 995.5,469.5 C 995.5,453.5 995.5,437.5 995.5,421.5C 989.833,421.5 984.167,421.5 978.5,421.5C 978.5,495.167 978.5,568.833 978.5,642.5C 984.167,642.5 989.833,642.5 995.5,642.5C 995.5,619.833 995.5,597.167 995.5,574.5C 1009.09,573.519 1022.75,573.185 1036.5,573.5C 1036.5,584.5 1036.5,595.5 1036.5,606.5C 983.167,607.167 983.167,607.833 1036.5,608.5C 1036.5,619.5 1036.5,630.5 1036.5,641.5C 983.167,641.833 983.167,642.167 1036.5,642.5C 1036.5,653.5 1036.5,664.5 1036.5,675.5C 1000.17,675.5 963.833,675.5 927.5,675.5C 927.5,664.5 927.5,653.5 927.5,642.5C 994.167,642.167 994.167,641.833 927.5,641.5C 927.5,630.5 927.5,619.5 927.5,608.5C 994.167,607.833 994.167,607.167 927.5,606.5C 927.18,595.585 927.513,584.752 928.5,574C 942.833,573.667 957.167,573.333 971.5,573C 956.837,572.5 942.17,572.333 927.5,572.5C 927.5,561.5 927.5,550.5 927.5,539.5C 944.18,539.833 960.847,539.499 977.5,538.5C 961.211,538.812 944.878,538.479 928.5,537.5C 928.5,526.833 928.5,516.167 928.5,505.5C 942.516,505.833 956.516,505.499 970.5,504.5C 956.182,503.501 941.849,503.167 927.5,503.5C 927.5,492.5 927.5,481.5 927.5,470.5C 994.167,470.167 994.167,469.833 927.5,469.5C 927.5,458.5 927.5,447.5 927.5,436.5C 994.167,435.833 994.167,435.167 927.5,434.5C 927.5,423.5 927.5,412.5 927.5,401.5C 963.833,401.5 1000.17,401.5 1036.5,401.5C 1036.5,412.5 1036.5,423.5 1036.5,434.5C 983.167,435.167 983.167,435.833 1036.5,436.5C 1036.5,447.167 1036.5,457.833 1036.5,468.5C 1022.78,468.202 1009.12,468.535 995.5,469.5 Z"/></g>
<g><path style="opacity:1" fill="#a8a8a8" d="M 937.5,626.5 C 939.549,626.706 939.883,627.539 938.5,629C 939.817,630.659 941.483,631.826 943.5,632.5C 943.94,631.302 944.273,630.135 944.5,629C 940.73,628.116 940.73,627.449 944.5,627C 945.423,629.041 945.756,631.208 945.5,633.5C 943.738,633.643 942.071,633.309 940.5,632.5C 939.742,633.811 938.742,634.311 937.5,634C 936.83,631.666 936.83,629.166 937.5,626.5 Z"/></g>
<g><path style="opacity:1" fill="#b5b5b5" d="M 950.5,626.5 C 952.017,626.511 953.184,627.177 954,628.5C 955.563,625.956 957.063,625.956 958.5,628.5C 962.923,625.738 964.423,627.071 963,632.5C 960.684,632.847 958.351,633.18 956,633.5C 954.347,633.18 953.347,632.18 953,630.5C 952.213,631.711 951.546,632.711 951,633.5C 950.5,633.167 950,632.833 949.5,632.5C 950.167,631.5 950.833,630.5 951.5,629.5C 950.603,629.331 949.603,628.998 948.5,628.5C 949.243,627.818 949.909,627.151 950.5,626.5 Z"/></g>
<g><path style="opacity:1" fill="#fefefe" d="M 818.5,608.5 C 854.5,608.5 890.5,608.5 926.5,608.5C 926.5,619.5 926.5,630.5 926.5,641.5C 890.5,641.5 854.5,641.5 818.5,641.5C 818.5,630.5 818.5,619.5 818.5,608.5 Z"/></g>
<g><path style="opacity:1" fill="#fefefe" d="M 708.5,608.5 C 744.5,608.5 780.5,608.5 816.5,608.5C 816.5,619.5 816.5,630.5 816.5,641.5C 780.5,641.5 744.5,641.5 708.5,641.5C 708.5,630.5 708.5,619.5 708.5,608.5 Z"/></g>
<g><path style="opacity:1" fill="#a7a7a7" d="M 945.5,597.5 C 943.661,598.752 941.828,598.752 940,597.5C 938.167,600.333 936.667,600.167 935.5,597C 936.167,596.667 936.833,596.333 937.5,596C 934.724,593.584 935.057,592.25 938.5,592C 939.641,592.741 939.641,593.575 938.5,594.5C 939.833,595.5 941.167,596.5 942.5,597.5C 943.244,591.371 944.244,591.371 945.5,597.5 Z"/></g>
<g><path style="opacity:1" fill="#bababa" d="M 945.5,597.5 C 947.086,596.587 948.586,596.587 950,597.5C 949.689,596.065 949.855,594.732 950.5,593.5C 949.833,593.167 949.167,592.833 948.5,592.5C 950.259,591.246 951.759,591.579 953,593.5C 954.549,590.997 956.216,590.997 958,593.5C 958.953,591.408 960.286,591.075 962,592.5C 962.667,594.167 962.667,595.833 962,597.5C 960.286,598.925 958.953,598.592 958,596.5C 956.477,598.62 954.644,598.953 952.5,597.5C 950.5,598.167 948.5,598.833 946.5,599.5C 945.702,599.043 945.369,598.376 945.5,597.5 Z"/></g>
<g><path style="opacity:1" fill="#b6b6b6" d="M 954.5,557.5 C 956.39,557.297 957.89,557.963 959,559.5C 959.725,557.842 960.892,557.342 962.5,558C 963.576,559.726 963.743,561.559 963,563.5C 959.333,563.833 955.667,564.167 952,564.5C 947.643,562.689 947.476,560.689 951.5,558.5C 952.893,562.231 953.893,561.898 954.5,557.5 Z"/></g>
<g><path style="opacity:1" fill="#a8a8a8" d="M 937.5,557.5 C 940.524,557.947 940.857,558.78 938.5,560C 939.817,561.659 941.483,562.826 943.5,563.5C 943.94,562.302 944.273,561.135 944.5,560C 940.73,559.116 940.73,558.449 944.5,558C 945.423,560.041 945.756,562.208 945.5,564.5C 943.738,564.643 942.071,564.309 940.5,563.5C 939.742,564.811 938.742,565.311 937.5,565C 937.351,562.518 937.351,560.018 937.5,557.5 Z"/></g>
<g><path style="opacity:1" fill="#fefdfd" d="M 995.5,470.5 C 1009.17,470.5 1022.83,470.5 1036.5,470.5C 1036.5,481.5 1036.5,492.5 1036.5,503.5C 983.167,504.167 983.167,504.833 1036.5,505.5C 1036.5,516.167 1036.5,526.833 1036.5,537.5C 1023.01,537.02 1009.67,537.52 996.5,539C 1009.83,539.5 1023.16,539.667 1036.5,539.5C 1036.5,550.5 1036.5,561.5 1036.5,572.5C 1022.83,572.5 1009.17,572.5 995.5,572.5C 995.5,538.5 995.5,504.5 995.5,470.5 Z"/></g>
<g><path style="opacity:1" fill="#b9b9b9" d="M 949.5,523.5 C 952.718,523.651 953.051,524.484 950.5,526C 951.416,526.374 952.25,526.874 953,527.5C 953.347,525.82 954.347,524.82 956,524.5C 958.411,525.127 960.911,525.127 963.5,524.5C 963.739,526.467 963.406,528.301 962.5,530C 959.5,529.833 956.5,529.667 953.5,529.5C 951.097,530.704 948.764,531.038 946.5,530.5C 948.074,528.397 949.074,526.063 949.5,523.5 Z"/></g>
<g><path style="opacity:1" fill="#a4a4a4" d="M 937.5,523.5 C 940.524,523.947 940.857,524.78 938.5,526C 939.817,527.659 941.483,528.826 943.5,529.5C 943.94,528.302 944.273,527.135 944.5,526C 940.774,524.957 941.107,524.457 945.5,524.5C 945.5,526.5 945.5,528.5 945.5,530.5C 943.738,530.643 942.071,530.309 940.5,529.5C 939.742,530.811 938.742,531.311 937.5,531C 937.351,528.518 937.351,526.018 937.5,523.5 Z"/></g>
<g><path style="opacity:1" fill="#acacac" d="M 937.5,488.5 C 940.5,489.833 943.5,489.833 946.5,488.5C 946.662,490.527 946.495,492.527 946,494.5C 944.703,495.784 943.536,495.617 942.5,494C 943.5,493.667 944.5,493.333 945.5,493C 944.167,492 944.167,491 945.5,490C 943.831,489.878 942.165,490.212 940.5,491C 941.93,492.88 941.596,494.38 939.5,495.5C 938.5,495.167 937.833,494.5 937.5,493.5C 938.052,491.997 938.052,490.331 937.5,488.5 Z"/></g>
<g><path style="opacity:1" fill="#bbbbbb" d="M 950.5,488.5 C 954.865,488.35 959.198,488.516 963.5,489C 964.554,490.388 964.72,491.888 964,493.5C 962.202,488.19 961.202,488.524 961,494.5C 960.586,494.043 960.086,493.709 959.5,493.5C 958.784,494.311 957.95,494.978 957,495.5C 955.467,494.305 953.967,494.305 952.5,495.5C 949.497,493.822 948.831,491.489 950.5,488.5 Z"/></g>
<g><path style="opacity:1" fill="#ff3d17" d="M 995.5,469.5 C 995.5,469.833 995.5,470.167 995.5,470.5C 995.5,504.5 995.5,538.5 995.5,572.5C 995.5,573.167 995.5,573.833 995.5,574.5C 995.5,597.167 995.5,619.833 995.5,642.5C 989.833,642.5 984.167,642.5 978.5,642.5C 978.5,568.833 978.5,495.167 978.5,421.5C 984.167,421.5 989.833,421.5 995.5,421.5C 995.5,437.5 995.5,453.5 995.5,469.5 Z"/></g>
<g><path style="opacity:1" fill="#b0b0b0" d="M 949.5,418.5 C 951.663,419.72 953.83,419.72 956,418.5C 956.945,418.905 957.612,419.572 958,420.5C 959.784,417.997 961.451,417.997 963,420.5C 963.725,425.589 962.058,426.589 958,423.5C 957.612,424.428 956.945,425.095 956,425.5C 953.882,424.804 951.716,424.637 949.5,425C 948.232,422.837 948.232,420.67 949.5,418.5 Z"/></g>
<g><path style="opacity:1" fill="#fefefe" d="M 927.5,367.5 C 963.833,367.5 1000.17,367.5 1036.5,367.5C 1036.5,378.5 1036.5,389.5 1036.5,400.5C 1000.17,400.5 963.833,400.5 927.5,400.5C 927.5,389.5 927.5,378.5 927.5,367.5 Z"/></g>
<g><path style="opacity:1" fill="#b4b4b4" d="M 949.5,386.5 C 951.017,386.511 952.184,387.177 953,388.5C 954.784,385.997 956.451,385.997 958,388.5C 960.647,385.639 962.48,386.139 963.5,390C 962.48,393.861 960.647,394.361 958,391.5C 956.451,394.003 954.784,394.003 953,391.5C 951.89,393.037 950.39,393.703 948.5,393.5C 948.298,391.05 948.631,388.717 949.5,386.5 Z"/></g>
<g><path style="opacity:1" fill="#b4b4b4" d="M 936.5,386.5 C 939.162,387.639 941.829,387.806 944.5,387C 944.667,388.833 944.833,390.667 945,392.5C 943.542,393.747 942.042,393.747 940.5,392.5C 938.428,395.154 936.761,394.82 935.5,391.5C 935.579,389.872 935.912,388.205 936.5,386.5 Z"/></g>
<g><path style="opacity:1" fill="#fdfdfd" d="M 927.5,332.5 C 963.833,332.5 1000.17,332.5 1036.5,332.5C 1036.5,343.5 1036.5,354.5 1036.5,365.5C 1000.17,365.5 963.833,365.5 927.5,365.5C 927.5,354.5 927.5,343.5 927.5,332.5 Z"/></g>
<g><path style="opacity:1" fill="#acacac" d="M 937.5,349.5 C 938.978,349.238 940.311,349.571 941.5,350.5C 940.494,351.396 940.494,352.062 941.5,352.5C 945.842,348.348 947.175,349.348 945.5,355.5C 944.707,355.069 943.873,354.735 943,354.5C 941.607,355.615 940.107,356.115 938.5,356C 938.742,353.928 938.409,351.761 937.5,349.5 Z"/></g>
<g><path style="opacity:1" fill="#bebebe" d="M 950.5,349.5 C 954.865,349.35 959.198,349.516 963.5,350C 964.576,351.726 964.743,353.559 964,355.5C 962.249,356.809 960.749,356.475 959.5,354.5C 957.833,355.833 956.167,355.833 954.5,354.5C 951.773,357.15 950.107,356.484 949.5,352.5C 949.685,351.416 950.018,350.416 950.5,349.5 Z"/></g>
<g><path style="opacity:1" fill="#fefefe" d="M 818.5,332.5 C 854.5,332.5 890.5,332.5 926.5,332.5C 926.5,343.5 926.5,354.5 926.5,365.5C 890.5,365.5 854.5,365.5 818.5,365.5C 818.5,354.5 818.5,343.5 818.5,332.5 Z"/></g>
<g><path style="opacity:1" fill="#fefefe" d="M 708.5,332.5 C 744.5,332.5 780.5,332.5 816.5,332.5C 816.5,343.5 816.5,354.5 816.5,365.5C 780.5,365.5 744.5,365.5 708.5,365.5C 708.5,354.5 708.5,343.5 708.5,332.5 Z"/></g>
<g><path style="opacity:1" fill="#fefefe" d="M 927.5,298.5 C 963.833,298.5 1000.17,298.5 1036.5,298.5C 1036.5,309.5 1036.5,320.5 1036.5,331.5C 1000.17,331.5 963.833,331.5 927.5,331.5C 927.5,320.5 927.5,309.5 927.5,298.5 Z"/></g>
<g><path style="opacity:1" fill="#fefefe" d="M 818.5,298.5 C 854.5,298.5 890.5,298.5 926.5,298.5C 926.5,309.5 926.5,320.5 926.5,331.5C 890.5,331.5 854.5,331.5 818.5,331.5C 818.5,320.5 818.5,309.5 818.5,298.5 Z"/></g>
<g><path style="opacity:1" fill="#fefefe" d="M 708.5,298.5 C 744.5,298.5 780.5,298.5 816.5,298.5C 816.5,309.5 816.5,320.5 816.5,331.5C 780.5,331.5 744.5,331.5 708.5,331.5C 708.5,320.5 708.5,309.5 708.5,298.5 Z"/></g>
<g><path style="opacity:1" fill="#fefefe" d="M 733.5,951.5 C 734.833,951.5 736.167,951.5 737.5,951.5C 763.661,952.498 789.995,952.831 816.5,952.5C 816.5,963.5 816.5,974.5 816.5,985.5C 780.5,985.5 744.5,985.5 708.5,985.5C 708.5,974.5 708.5,963.5 708.5,952.5C 716.918,952.802 725.252,952.469 733.5,951.5 Z"/></g>
<g><path style="opacity:1" fill="#fefefe" d="M 818.5,952.5 C 854.5,952.5 890.5,952.5 926.5,952.5C 926.5,963.5 926.5,974.5 926.5,985.5C 890.5,985.5 854.5,985.5 818.5,985.5C 818.5,974.5 818.5,963.5 818.5,952.5 Z"/></g>
<g><path style="opacity:1" fill="#fefefe" d="M 927.5,952.5 C 963.833,952.5 1000.17,952.5 1036.5,952.5C 1036.5,963.5 1036.5,974.5 1036.5,985.5C 1000.17,985.5 963.833,985.5 927.5,985.5C 927.5,974.5 927.5,963.5 927.5,952.5 Z"/></g>
<g><path style="opacity:1" fill="#fefefe" d="M 708.5,987.5 C 744.5,987.5 780.5,987.5 816.5,987.5C 816.5,995.5 816.5,1003.5 816.5,1011.5C 780.5,1011.5 744.5,1011.5 708.5,1011.5C 708.5,1003.5 708.5,995.5 708.5,987.5 Z"/></g>
<g><path style="opacity:1" fill="#fefefe" d="M 818.5,987.5 C 854.5,987.5 890.5,987.5 926.5,987.5C 926.5,995.5 926.5,1003.5 926.5,1011.5C 890.5,1011.5 854.5,1011.5 818.5,1011.5C 818.5,1003.5 818.5,995.5 818.5,987.5 Z"/></g>
<g><path style="opacity:1" fill="#fefefe" d="M 928.5,987.5 C 964.5,987.5 1000.5,987.5 1036.5,987.5C 1036.5,995.5 1036.5,1003.5 1036.5,1011.5C 1000.5,1011.5 964.5,1011.5 928.5,1011.5C 928.5,1003.5 928.5,995.5 928.5,987.5 Z"/></g>
<g><path style="opacity:1" fill="#f1f1f1" d="M 1037.5,1014.5 C 1037.5,1032.17 1037.5,1049.83 1037.5,1067.5C 902.5,1067.5 767.5,1067.5 632.5,1067.5C 632.5,1050.17 632.5,1032.83 632.5,1015.5C 699.791,1014.17 767.291,1013.5 835,1013.5C 902.57,1013.5 970.07,1013.83 1037.5,1014.5 Z"/></g>
<g><path style="opacity:1" fill="#5b5b5b" d="M 952.5,1035.5 C 955.705,1035.92 959.038,1036.09 962.5,1036C 963.617,1039.07 963.784,1042.24 963,1045.5C 961.783,1033.7 960.117,1033.7 958,1045.5C 956.783,1033.7 955.117,1033.7 953,1045.5C 952.502,1042.18 952.335,1038.85 952.5,1035.5 Z"/></g>
<g><path style="opacity:1" fill="#767676" d="M 965.5,1035.5 C 968.927,1036.1 972.26,1036.27 975.5,1036C 977.673,1038.89 978.006,1042.06 976.5,1045.5C 975.909,1042.36 975.076,1039.36 974,1036.5C 972.913,1039.69 972.08,1043.02 971.5,1046.5C 970.92,1043.02 970.087,1039.69 969,1036.5C 966.907,1039.04 965.907,1042.04 966,1045.5C 965.502,1042.18 965.335,1038.85 965.5,1035.5 Z"/></g>
<g><path style="opacity:1" fill="#727272" d="M 980.5,1035.5 C 984.314,1035.65 985.981,1037.65 985.5,1041.5C 983.396,1041.2 981.396,1041.53 979.5,1042.5C 981.186,1046.36 983.019,1046.36 985,1042.5C 984.355,1046.72 982.355,1047.38 979,1044.5C 978.068,1041.18 978.568,1038.18 980.5,1035.5 Z"/></g>
<g><path style="opacity:1" fill="#676767" d="M 934.5,1033.5 C 935.666,1036.62 937.999,1038.62 941.5,1039.5C 942.938,1042 942.604,1044.16 940.5,1046C 938.191,1046.76 936.191,1046.26 934.5,1044.5C 933.675,1040.85 934.341,1040.68 936.5,1044C 938.134,1044.49 939.801,1044.66 941.5,1044.5C 941.762,1043.02 941.429,1041.69 940.5,1040.5C 936.299,1039.97 934.299,1037.64 934.5,1033.5 Z"/></g>
<g><path style="opacity:1" fill="#393939" d="M 1002.5,1031.5 C 1006.47,1032.22 1008.13,1034.72 1007.5,1039C 1008.04,1042.42 1006.87,1044.92 1004,1046.5C 1002.74,1046.24 1001.74,1045.57 1001,1044.5C 999.978,1039.87 1000.48,1035.54 1002.5,1031.5 Z"/></g>
<g><path style="opacity:1" fill="#dcdcdc" d="M 1002.5,1033.5 C 1003.5,1033.41 1004.33,1033.75 1005,1034.5C 1005.5,1037.82 1005.67,1041.15 1005.5,1044.5C 1003.88,1044.64 1002.71,1043.97 1002,1042.5C 1001.37,1039.45 1001.53,1036.45 1002.5,1033.5 Z"/></g>
<g><path style="opacity:1" fill="#696969" d="M 949.5,1035.5 C 950.806,1038.69 950.806,1042.02 949.5,1045.5C 947.958,1046.75 946.458,1046.75 945,1045.5C 944.333,1042.5 944.333,1039.5 945,1036.5C 945.497,1039.15 945.664,1041.81 945.5,1044.5C 946.822,1044.67 947.989,1044.34 949,1043.5C 949.497,1040.85 949.664,1038.19 949.5,1035.5 Z"/></g>
<g><path style="opacity:0.01" fill="#000000" d="M 1103.5,1097.5 C 1103.33,1090.16 1103.5,1082.83 1104,1075.5C 1104.82,1083.01 1104.66,1090.35 1103.5,1097.5 Z"/></g>
<g><path style="opacity:0.004" fill="#000000" d="M 49.5,1084.5 C 49.6665,1095.17 49.4998,1105.84 49,1116.5C 48.1745,1105.66 48.3412,1094.99 49.5,1084.5 Z"/></g>
<g><path style="opacity:1" fill="#114127" d="M 55.5,980.5 C 55.1722,1025.57 55.5055,1070.57 56.5,1115.5C 55.1669,1093.34 54.5003,1070.84 54.5,1048C 54.5,1025.33 54.8334,1002.83 55.5,980.5 Z"/></g>
<g><path style="opacity:0.009" fill="#000000" d="M 1102.5,1097.5 C 1102.83,1097.5 1103.17,1097.5 1103.5,1097.5C 1103.81,1101.37 1103.48,1105.04 1102.5,1108.5C 1102.5,1104.83 1102.5,1101.17 1102.5,1097.5 Z"/></g>
<g><path style="opacity:0.009" fill="#000000" d="M 1101.5,1108.5 C 1101.83,1108.5 1102.17,1108.5 1102.5,1108.5C 1102.78,1110.41 1102.45,1112.08 1101.5,1113.5C 1101.5,1111.83 1101.5,1110.17 1101.5,1108.5 Z"/></g>
<g><path style="opacity:0.008" fill="#000000" d="M 1100.5,1113.5 C 1100.83,1113.5 1101.17,1113.5 1101.5,1113.5C 1101.74,1114.79 1101.4,1115.79 1100.5,1116.5C 1100.5,1115.5 1100.5,1114.5 1100.5,1113.5 Z"/></g>
<g><path style="opacity:0.006" fill="#000000" d="M 1099.5,1116.5 C 1099.83,1116.5 1100.17,1116.5 1100.5,1116.5C 1100.67,1117.49 1100.34,1118.16 1099.5,1118.5C 1099.5,1117.83 1099.5,1117.17 1099.5,1116.5 Z"/></g>
<g><path style="opacity:0.006" fill="#000000" d="M 53.5,1118.5 C 53.5,1118.83 53.5,1119.17 53.5,1119.5C 50.8333,1119.17 50.8333,1118.83 53.5,1118.5 Z"/></g>
<g><path style="opacity:0.008" fill="#000000" d="M 53.5,1119.5 C 54.2389,1119.37 54.9056,1119.54 55.5,1120C 54.5632,1120.69 53.8966,1120.53 53.5,1119.5 Z"/></g>
<g><path style="opacity:0.008" fill="#000000" d="M 1096.5,1121.5 C 1096.83,1121.5 1097.17,1121.5 1097.5,1121.5C 1097.17,1123.83 1095.83,1125.17 1093.5,1125.5C 1093.5,1125.17 1093.5,1124.83 1093.5,1124.5C 1094.17,1124.5 1094.5,1124.17 1094.5,1123.5C 1095.17,1123.5 1095.5,1123.17 1095.5,1122.5C 1096.17,1122.5 1096.5,1122.17 1096.5,1121.5 Z"/></g>
<g><path style="opacity:0.012" fill="#000000" d="M 1092.5,1125.5 C 1092.83,1125.5 1093.17,1125.5 1093.5,1125.5C 1093.31,1126.17 1092.98,1126.17 1092.5,1125.5 Z"/></g>
<g><path style="opacity:0.008" fill="#000000" d="M 1091.5,1126.5 C 1091.83,1126.5 1092.17,1126.5 1092.5,1126.5C 1092.31,1127.17 1091.98,1127.17 1091.5,1126.5 Z"/></g>
<g><path style="opacity:0.008" fill="#000000" d="M 1089.5,1128.5 C 1089.5,1128.17 1089.5,1127.83 1089.5,1127.5C 1090.17,1127.5 1090.83,1127.5 1091.5,1127.5C 1091.16,1128.34 1090.49,1128.67 1089.5,1128.5 Z"/></g>
<g><path style="opacity:0.008" fill="#000000" d="M 1086.5,1129.5 C 1086.5,1129.17 1086.5,1128.83 1086.5,1128.5C 1087.5,1128.5 1088.5,1128.5 1089.5,1128.5C 1088.79,1129.4 1087.79,1129.74 1086.5,1129.5 Z"/></g>
<g><path style="opacity:0.008" fill="#000000" d="M 1083.5,1130.5 C 1083.5,1130.17 1083.5,1129.83 1083.5,1129.5C 1084.5,1129.5 1085.5,1129.5 1086.5,1129.5C 1085.79,1130.4 1084.79,1130.74 1083.5,1130.5 Z"/></g>
<g><path style="opacity:0.009" fill="#000000" d="M 1079.5,1131.5 C 1079.5,1131.17 1079.5,1130.83 1079.5,1130.5C 1080.83,1130.5 1082.17,1130.5 1083.5,1130.5C 1082.43,1131.43 1081.1,1131.77 1079.5,1131.5 Z"/></g>
<g><path style="opacity:0.008" fill="#000000" d="M 1071.5,1132.5 C 1071.5,1132.17 1071.5,1131.83 1071.5,1131.5C 1074.17,1131.5 1076.83,1131.5 1079.5,1131.5C 1077.05,1132.47 1074.39,1132.81 1071.5,1132.5 Z"/></g>
<g><path style="opacity:0.008" fill="#000000" d="M 197.5,1149.5 C 197.5,1149.83 197.5,1150.17 197.5,1150.5C 190.833,1150.17 190.833,1149.83 197.5,1149.5 Z"/></g>
<g><path style="opacity:0.009" fill="#000000" d="M 197.5,1150.5 C 198.873,1150.34 200.207,1150.51 201.5,1151C 199.934,1151.76 198.601,1151.6 197.5,1150.5 Z"/></g>
<g><path style="opacity:0.009" fill="#000000" d="M 211.5,1152.5 C 211.5,1152.83 211.5,1153.17 211.5,1153.5C 204.833,1153.17 204.833,1152.83 211.5,1152.5 Z"/></g>
<g><path style="opacity:0.01" fill="#000000" d="M 211.5,1153.5 C 212.873,1153.34 214.207,1153.51 215.5,1154C 213.934,1154.76 212.601,1154.6 211.5,1153.5 Z"/></g>
<g><path style="opacity:0.009" fill="#000000" d="M 225.5,1155.5 C 225.5,1155.83 225.5,1156.17 225.5,1156.5C 218.833,1156.17 218.833,1155.83 225.5,1155.5 Z"/></g>
<g><path style="opacity:0.009" fill="#000000" d="M 225.5,1156.5 C 226.873,1156.34 228.207,1156.51 229.5,1157C 227.934,1157.76 226.601,1157.6 225.5,1156.5 Z"/></g>
<g><path style="opacity:0.01" fill="#000000" d="M 230.5,1158.5 C 231.601,1157.4 232.934,1157.24 234.5,1158C 233.207,1158.49 231.873,1158.66 230.5,1158.5 Z"/></g>
<g><path style="opacity:0.008" fill="#000000" d="M 324.5,1176.5 C 324.5,1176.83 324.5,1177.17 324.5,1177.5C 317.833,1177.17 317.833,1176.83 324.5,1176.5 Z"/></g>
<g><path style="opacity:0.009" fill="#000000" d="M 324.5,1177.5 C 325.873,1177.34 327.207,1177.51 328.5,1178C 326.934,1178.76 325.601,1178.6 324.5,1177.5 Z"/></g>
<g><path style="opacity:0.008" fill="#000000" d="M 357.5,1183.5 C 357.5,1183.83 357.5,1184.17 357.5,1184.5C 350.833,1184.17 350.833,1183.83 357.5,1183.5 Z"/></g>
<g><path style="opacity:0.009" fill="#000000" d="M 357.5,1184.5 C 358.873,1184.34 360.207,1184.51 361.5,1185C 359.934,1185.76 358.601,1185.6 357.5,1184.5 Z"/></g>
<g><path style="opacity:0.009" fill="#000000" d="M 371.5,1186.5 C 371.5,1186.83 371.5,1187.17 371.5,1187.5C 364.833,1187.17 364.833,1186.83 371.5,1186.5 Z"/></g>
<g><path style="opacity:0.01" fill="#000000" d="M 371.5,1187.5 C 372.873,1187.34 374.207,1187.51 375.5,1188C 373.934,1188.76 372.601,1188.6 371.5,1187.5 Z"/></g>
<g><path style="opacity:0.009" fill="#000000" d="M 385.5,1189.5 C 385.5,1189.83 385.5,1190.17 385.5,1190.5C 378.833,1190.17 378.833,1189.83 385.5,1189.5 Z"/></g>
<g><path style="opacity:0.009" fill="#000000" d="M 385.5,1190.5 C 386.873,1190.34 388.207,1190.51 389.5,1191C 387.934,1191.76 386.601,1191.6 385.5,1190.5 Z"/></g>
<g><path style="opacity:0.009" fill="#000000" d="M 390.5,1192.5 C 391.601,1191.4 392.934,1191.24 394.5,1192C 393.207,1192.49 391.873,1192.66 390.5,1192.5 Z"/></g>
<g><path style="opacity:0.009" fill="#000000" d="M 451.5,1203.5 C 451.5,1203.83 451.5,1204.17 451.5,1204.5C 444.833,1204.17 444.833,1203.83 451.5,1203.5 Z"/></g>
<g><path style="opacity:0.009" fill="#000000" d="M 451.5,1204.5 C 452.873,1204.34 454.207,1204.51 455.5,1205C 453.934,1205.76 452.601,1205.6 451.5,1204.5 Z"/></g>
<g><path style="opacity:0.009" fill="#000000" d="M 531.5,1220.5 C 531.5,1220.83 531.5,1221.17 531.5,1221.5C 524.833,1221.17 524.833,1220.83 531.5,1220.5 Z"/></g>
<g><path style="opacity:0.01" fill="#000000" d="M 531.5,1221.5 C 532.873,1221.34 534.207,1221.51 535.5,1222C 533.934,1222.76 532.601,1222.6 531.5,1221.5 Z"/></g>
<g><path style="opacity:0.008" fill="#000101" d="M 543.5,1223.5 C 543.5,1223.17 543.5,1222.83 543.5,1222.5C 660.833,1222.83 660.833,1223.17 543.5,1223.5 Z"/></g>
<g><path style="opacity:0.005" fill="#000000" d="M 543.5,1223.5 C 542.749,1224.57 541.749,1224.74 540.5,1224C 541.448,1223.52 542.448,1223.35 543.5,1223.5 Z"/></g>
</svg>
