<?xml version="1.0" encoding="UTF-8"?>
<!DOCTYPE svg PUBLIC "-//W3C//DTD SVG 1.1//EN" "http://www.w3.org/Graphics/SVG/1.1/DTD/svg11.dtd">
<svg xmlns="http://www.w3.org/2000/svg" version="1.1" width="850px" height="460px" style="shape-rendering:geometricPrecision; text-rendering:geometricPrecision; image-rendering:optimizeQuality; fill-rule:evenodd; clip-rule:evenodd" xmlns:xlink="http://www.w3.org/1999/xlink">
<g><path style="opacity:1" fill="#fefefe" d="M -0.5,-0.5 C 282.833,-0.5 566.167,-0.5 849.5,-0.5C 849.5,152.833 849.5,306.167 849.5,459.5C 566.167,459.5 282.833,459.5 -0.5,459.5C -0.5,306.167 -0.5,152.833 -0.5,-0.5 Z"/></g>
<g><path style="opacity:1" fill="#58ba88" d="M 446.5,60.5 C 446.5,60.8333 446.5,61.1667 446.5,61.5C 424.167,61.5 401.833,61.5 379.5,61.5C 368.162,61.3335 356.828,61.5001 345.5,62C 342.084,63.5814 339.084,65.7481 336.5,68.5C 338.535,63.6399 342.201,60.8065 347.5,60C 380.669,59.1692 413.669,59.3359 446.5,60.5 Z"/></g>
<g><path style="opacity:1" fill="#23a565" d="M 379.5,61.5 C 384.305,62.4872 389.305,62.8205 394.5,62.5C 394.446,95.7219 378.113,115.555 345.5,122C 341.848,122.499 338.182,122.665 334.5,122.5C 334.5,148.167 334.5,173.833 334.5,199.5C 334.5,231.833 334.5,264.167 334.5,296.5C 333.334,222.001 333.168,147.334 334,72.5C 334.2,70.6803 335.034,69.347 336.5,68.5C 339.084,65.7481 342.084,63.5814 345.5,62C 356.828,61.5001 368.162,61.3335 379.5,61.5 Z"/></g>
<g><path style="opacity:1" fill="#1aa160" d="M 379.5,61.5 C 401.833,61.5 424.167,61.5 446.5,61.5C 446.333,79.1698 446.5,96.8365 447,114.5C 447.906,117.31 449.073,119.976 450.5,122.5C 450.369,123.239 450.536,123.906 451,124.5C 453.015,125.697 454.849,127.03 456.5,128.5C 446.604,149.266 431.604,166.099 411.5,179C 400.5,179.333 389.5,179.667 378.5,180C 409.003,180.168 439.336,180.668 469.5,181.5C 469.167,181.5 468.833,181.5 468.5,181.5C 468.167,181.5 467.833,181.5 467.5,181.5C 438.5,181.5 409.5,181.5 380.5,181.5C 380.167,181.5 379.833,181.5 379.5,181.5C 379.167,181.5 378.833,181.5 378.5,181.5C 377.009,185.796 376.009,190.296 375.5,195C 362.084,198.702 348.417,200.202 334.5,199.5C 334.5,173.833 334.5,148.167 334.5,122.5C 338.182,122.665 341.848,122.499 345.5,122C 378.113,115.555 394.446,95.7219 394.5,62.5C 389.305,62.8205 384.305,62.4872 379.5,61.5 Z"/></g>
<g><path style="opacity:1" fill="#8bcfaf" d="M 446.5,60.5 C 469.167,82.5 491.5,104.833 513.5,127.5C 495.164,127.667 476.83,127.5 458.5,127C 455.676,125.755 453.009,124.255 450.5,122.5C 449.073,119.976 447.906,117.31 447,114.5C 446.5,96.8365 446.333,79.1698 446.5,61.5C 446.5,61.1667 446.5,60.8333 446.5,60.5 Z"/></g>
<g><path style="opacity:1" fill="#1e8c58" d="M 450.5,122.5 C 453.009,124.255 455.676,125.755 458.5,127C 476.83,127.5 495.164,127.667 513.5,127.5C 514.494,136.652 514.827,145.985 514.5,155.5C 513.596,154.791 513.263,153.791 513.5,152.5C 513.5,148.5 513.5,144.5 513.5,140.5C 505.833,140.5 498.167,140.5 490.5,140.5C 490.5,139.5 490.5,138.5 490.5,137.5C 482.747,137.201 475.08,137.534 467.5,138.5C 463.833,135.167 460.167,131.833 456.5,128.5C 454.849,127.03 453.015,125.697 451,124.5C 450.536,123.906 450.369,123.239 450.5,122.5 Z"/></g>
<g><path style="opacity:1" fill="#169357" d="M 513.5,152.5 C 503.494,152.334 493.494,152.5 483.5,153C 484.999,153.838 485.332,154.671 484.5,155.5C 478.5,150.167 472.833,144.5 467.5,138.5C 475.08,137.534 482.747,137.201 490.5,137.5C 490.5,138.5 490.5,139.5 490.5,140.5C 498.167,140.5 505.833,140.5 513.5,140.5C 513.5,144.5 513.5,148.5 513.5,152.5 Z"/></g>
<g><path style="opacity:1" fill="#189b5b" d="M 513.5,152.5 C 513.263,153.791 513.596,154.791 514.5,155.5C 514.832,202.67 514.499,249.67 513.5,296.5C 513.667,258.832 513.5,221.165 513,183.5C 502.995,174.661 493.495,165.328 484.5,155.5C 485.332,154.671 484.999,153.838 483.5,153C 493.494,152.5 503.494,152.334 513.5,152.5 Z"/></g>
<g><path style="opacity:1" fill="#119d59" d="M 456.5,128.5 C 460.167,131.833 463.833,135.167 467.5,138.5C 472.833,144.5 478.5,150.167 484.5,155.5C 493.495,165.328 502.995,174.661 513,183.5C 513.5,221.165 513.667,258.832 513.5,296.5C 512.831,299.849 511.164,302.516 508.5,304.5C 505.984,304.755 503.65,305.589 501.5,307C 449.833,307.667 398.167,307.667 346.5,307C 342.109,305.423 338.442,302.923 335.5,299.5C 334.89,298.609 334.557,297.609 334.5,296.5C 334.5,264.167 334.5,231.833 334.5,199.5C 348.417,200.202 362.084,198.702 375.5,195C 376.009,190.296 377.009,185.796 378.5,181.5C 378.5,208.833 378.5,236.167 378.5,263.5C 408.833,263.5 439.167,263.5 469.5,263.5C 469.5,236.167 469.5,208.833 469.5,181.5C 439.336,180.668 409.003,180.168 378.5,180C 389.5,179.667 400.5,179.333 411.5,179C 431.604,166.099 446.604,149.266 456.5,128.5 Z"/></g>
<g><path style="opacity:1" fill="#c5e1d3" d="M 378.5,181.5 C 378.833,181.5 379.167,181.5 379.5,181.5C 379.5,208.5 379.5,235.5 379.5,262.5C 409.167,262.5 438.833,262.5 468.5,262.5C 468.5,235.5 468.5,208.5 468.5,181.5C 468.833,181.5 469.167,181.5 469.5,181.5C 469.5,208.833 469.5,236.167 469.5,263.5C 439.167,263.5 408.833,263.5 378.5,263.5C 378.5,236.167 378.5,208.833 378.5,181.5 Z"/></g>
<g><path style="opacity:1" fill="#fffafe" d="M 379.5,181.5 C 379.833,181.5 380.167,181.5 380.5,181.5C 380.5,208.167 380.5,234.833 380.5,261.5C 409.5,261.5 438.5,261.5 467.5,261.5C 467.5,234.833 467.5,208.167 467.5,181.5C 467.833,181.5 468.167,181.5 468.5,181.5C 468.5,208.5 468.5,235.5 468.5,262.5C 438.833,262.5 409.167,262.5 379.5,262.5C 379.5,235.5 379.5,208.5 379.5,181.5 Z"/></g>
<g><path style="opacity:1" fill="#f1f1f1" d="M 380.5,181.5 C 409.5,181.5 438.5,181.5 467.5,181.5C 467.5,208.167 467.5,234.833 467.5,261.5C 438.5,261.5 409.5,261.5 380.5,261.5C 380.5,234.833 380.5,208.167 380.5,181.5 Z"/></g>
<g><path style="opacity:1" fill="#72c29a" d="M 457.5,238.5 C 458.486,242.97 458.819,247.637 458.5,252.5C 448.652,252.827 438.986,252.494 429.5,251.5C 429.833,251.5 430.167,251.5 430.5,251.5C 439.5,251.5 448.5,251.5 457.5,251.5C 457.5,247.167 457.5,242.833 457.5,238.5 Z"/></g>
<g><path style="opacity:1" fill="#72c29b" d="M 390.5,238.5 C 390.5,242.833 390.5,247.167 390.5,251.5C 399.833,251.5 409.167,251.5 418.5,251.5C 409.014,252.494 399.348,252.827 389.5,252.5C 389.181,247.637 389.514,242.97 390.5,238.5 Z"/></g>
<g><path style="opacity:1" fill="#008f3f" d="M 457.5,238.5 C 457.5,242.833 457.5,247.167 457.5,251.5C 448.5,251.5 439.5,251.5 430.5,251.5C 438.984,250.507 447.651,250.174 456.5,250.5C 456.5,246.833 456.5,243.167 456.5,239.5C 447.827,239.666 439.16,239.5 430.5,239C 439.494,238.5 448.494,238.334 457.5,238.5 Z"/></g>
<g><path style="opacity:1" fill="#22a15f" d="M 457.5,238.5 C 448.494,238.334 439.494,238.5 430.5,239C 439.16,239.5 447.827,239.666 456.5,239.5C 456.5,243.167 456.5,246.833 456.5,250.5C 447.651,250.174 438.984,250.507 430.5,251.5C 430.167,251.5 429.833,251.5 429.5,251.5C 429.5,246.833 429.5,242.167 429.5,237.5C 439.015,237.173 448.348,237.506 457.5,238.5 Z"/></g>
<g><path style="opacity:1" fill="#209f5c" d="M 418.5,251.5 C 409.167,251.5 399.833,251.5 390.5,251.5C 390.5,247.167 390.5,242.833 390.5,238.5C 399.652,237.506 408.985,237.173 418.5,237.5C 418.5,242.167 418.5,246.833 418.5,251.5 Z"/></g>
<g><path style="opacity:1" fill="#129e59" d="M 429.5,215.5 C 438.833,215.5 448.167,215.5 457.5,215.5C 457.5,220.167 457.5,224.833 457.5,229.5C 448.167,229.5 438.833,229.5 429.5,229.5C 429.5,224.833 429.5,220.167 429.5,215.5 Z"/></g>
<g><path style="opacity:1" fill="#149e5a" d="M 390.5,215.5 C 399.833,215.5 409.167,215.5 418.5,215.5C 418.5,220.167 418.5,224.833 418.5,229.5C 409.167,229.5 399.833,229.5 390.5,229.5C 390.5,224.833 390.5,220.167 390.5,215.5 Z"/></g>
<g><path style="opacity:1" fill="#6bbe94" d="M 457.5,206.5 C 448.348,207.494 439.015,207.827 429.5,207.5C 429.5,202.5 429.5,197.5 429.5,192.5C 439.167,192.5 448.833,192.5 458.5,192.5C 458.819,197.363 458.486,202.03 457.5,206.5 Z"/></g>
<g><path style="opacity:1" fill="#119c57" d="M 457.5,206.5 C 448.5,206.5 439.5,206.5 430.5,206.5C 430.5,202.167 430.5,197.833 430.5,193.5C 439.5,193.5 448.5,193.5 457.5,193.5C 457.5,197.833 457.5,202.167 457.5,206.5 Z"/></g>
<g><path style="opacity:1" fill="#6cbf95" d="M 390.5,206.5 C 389.514,202.03 389.181,197.363 389.5,192.5C 399.167,192.5 408.833,192.5 418.5,192.5C 418.5,197.5 418.5,202.5 418.5,207.5C 408.985,207.827 399.652,207.494 390.5,206.5 Z"/></g>
<g><path style="opacity:1" fill="#139d58" d="M 390.5,206.5 C 390.5,202.167 390.5,197.833 390.5,193.5C 399.5,193.5 408.5,193.5 417.5,193.5C 417.5,197.833 417.5,202.167 417.5,206.5C 408.5,206.5 399.5,206.5 390.5,206.5 Z"/></g>
<g><path style="opacity:1" fill="#1a8855" d="M 335.5,299.5 C 338.442,302.923 342.109,305.423 346.5,307C 398.167,307.667 449.833,307.667 501.5,307C 503.65,305.589 505.984,304.755 508.5,304.5C 506.727,305.892 504.727,307.059 502.5,308C 449.833,308.667 397.167,308.667 344.5,308C 340.342,306.341 337.342,303.508 335.5,299.5 Z"/></g>
<g><path style="opacity:1" fill="#727272" d="M 273.5,382.5 C 274.404,381.791 274.737,380.791 274.5,379.5C 269.167,379.5 263.833,379.5 258.5,379.5C 258.5,377.5 258.5,375.5 258.5,373.5C 265.833,373.5 273.167,373.5 280.5,373.5C 280.5,376.833 280.5,380.167 280.5,383.5C 278.008,392.157 272.341,397.657 263.5,400C 241.513,400.342 231.68,389.509 234,367.5C 242.737,350.699 255.57,346.532 272.5,355C 274.916,358.026 274.083,360.193 270,361.5C 258.675,354.56 249.342,356.56 242,367.5C 238.197,381.906 243.53,390.572 258,393.5C 265.888,393.419 271.055,389.752 273.5,382.5 Z"/></g>
<g><path style="opacity:1" fill="#929292" d="M 389.5,352.5 C 389.5,367.833 389.5,383.167 389.5,398.5C 391.5,398.5 393.5,398.5 395.5,398.5C 393.393,399.468 391.059,399.802 388.5,399.5C 388.17,383.658 388.504,367.991 389.5,352.5 Z"/></g>
<g><path style="opacity:1" fill="#707070" d="M 389.5,352.5 C 391.5,352.5 393.5,352.5 395.5,352.5C 395.5,367.833 395.5,383.167 395.5,398.5C 393.5,398.5 391.5,398.5 389.5,398.5C 389.5,383.167 389.5,367.833 389.5,352.5 Z"/></g>
<g><path style="opacity:1" fill="#737373" d="M 451.5,355.5 C 456.267,355.191 460.934,355.691 465.5,357C 467.741,358.739 469.408,360.906 470.5,363.5C 467.277,366.403 464.611,365.903 462.5,362C 454.965,358.401 450.799,360.567 450,368.5C 453.998,372.507 458.831,375.007 464.5,376C 471.549,380.487 473.383,386.654 470,394.5C 458.523,403.863 449.356,402.029 442.5,389C 446.607,385.371 449.273,386.371 450.5,392C 456.07,395.658 461.236,395.158 466,390.5C 466.93,387.15 466.097,384.317 463.5,382C 458.833,380 454.167,378 449.5,376C 441.136,368.339 441.803,361.506 451.5,355.5 Z"/></g>
<g><path style="opacity:1" fill="#999999" d="M 483.5,372.5 C 483.44,373.043 483.107,373.376 482.5,373.5C 481.505,367.872 481.171,362.206 481.5,356.5C 480.167,356.5 478.833,356.5 477.5,356.5C 477.5,370.5 477.5,384.5 477.5,398.5C 479.167,398.5 480.833,398.5 482.5,398.5C 480.735,399.461 478.735,399.795 476.5,399.5C 476.5,384.833 476.5,370.167 476.5,355.5C 478.5,355.5 480.5,355.5 482.5,355.5C 482.178,361.358 482.511,367.025 483.5,372.5 Z"/></g>
<g><path style="opacity:1" fill="#767676" d="M 574.5,360.5 C 576.5,360.5 578.5,360.5 580.5,360.5C 580.5,363.5 580.5,366.5 580.5,369.5C 582.833,369.5 585.167,369.5 587.5,369.5C 587.5,371.167 587.5,372.833 587.5,374.5C 585.167,374.5 582.833,374.5 580.5,374.5C 580.334,380.509 580.501,386.509 581,392.5C 582.916,393.928 585.083,394.928 587.5,395.5C 588.246,396.736 588.579,398.07 588.5,399.5C 583.465,400.498 579.298,399.165 576,395.5C 574.575,388.615 574.075,381.615 574.5,374.5C 572.833,374.5 571.167,374.5 569.5,374.5C 569.5,372.833 569.5,371.167 569.5,369.5C 571.167,369.5 572.833,369.5 574.5,369.5C 574.5,366.5 574.5,363.5 574.5,360.5 Z"/></g>
<g><path style="opacity:1" fill="#737373" d="M 293.5,368.5 C 312.056,367.65 318.556,375.984 313,393.5C 306.079,401.108 298.246,402.274 289.5,397C 280.514,386.035 281.848,376.535 293.5,368.5 Z"/></g>
<g><path style="opacity:1" fill="#737373" d="M 328.5,368.5 C 344.177,367.011 351.344,374.011 350,389.5C 345.124,398.854 337.624,402.021 327.5,399C 315.18,388.4 315.513,378.234 328.5,368.5 Z"/></g>
<g><path style="opacity:1" fill="#727272" d="M 363.5,368.5 C 368.284,367.839 372.618,368.839 376.5,371.5C 378.523,369.827 380.856,369.16 383.5,369.5C 383.92,382.228 383.42,394.894 382,407.5C 376.575,414.193 369.741,416.026 361.5,413C 358.767,411.269 356.767,408.936 355.5,406C 356.493,404.033 358.16,402.866 360.5,402.5C 363.327,408.43 367.66,409.93 373.5,407C 376.665,404.173 377.831,400.673 377,396.5C 366.889,402.971 359.222,400.638 354,389.5C 352.292,380.252 355.459,373.252 363.5,368.5 Z"/></g>
<g><path style="opacity:1" fill="#737373" d="M 408.5,368.5 C 418.099,366.964 424.766,370.631 428.5,379.5C 421.5,382.833 414.5,386.167 407.5,389.5C 410.187,393.314 413.853,394.48 418.5,393C 420.286,392.215 421.786,391.049 423,389.5C 424.972,390.305 426.472,391.639 427.5,393.5C 421.716,400.529 414.716,402.029 406.5,398C 399.915,392.643 397.749,385.809 400,377.5C 402.362,373.973 405.196,370.973 408.5,368.5 Z"/></g>
<g><path style="opacity:1" fill="#717171" d="M 483.5,372.5 C 488.511,367.541 494.011,367.207 500,371.5C 501.559,373.217 502.392,375.217 502.5,377.5C 502.5,384.5 502.5,391.5 502.5,398.5C 500.833,398.5 499.167,398.5 497.5,398.5C 497.825,391.313 497.491,384.313 496.5,377.5C 491.676,371.957 487.176,372.29 483,378.5C 482.5,385.158 482.334,391.825 482.5,398.5C 480.833,398.5 479.167,398.5 477.5,398.5C 477.5,384.5 477.5,370.5 477.5,356.5C 478.833,356.5 480.167,356.5 481.5,356.5C 481.171,362.206 481.505,367.872 482.5,373.5C 483.107,373.376 483.44,373.043 483.5,372.5 Z"/></g>
<g><path style="opacity:1" fill="#747474" d="M 517.5,368.5 C 529.971,367.392 535.971,373.058 535.5,385.5C 527.833,385.5 520.167,385.5 512.5,385.5C 513.969,393.453 518.636,396.287 526.5,394C 527.904,392.663 529.404,391.497 531,390.5C 532.621,390.725 533.788,391.558 534.5,393C 529.84,399.997 523.507,401.997 515.5,399C 508.286,394.037 505.786,387.203 508,378.5C 510.022,373.98 513.189,370.647 517.5,368.5 Z"/></g>
<g><path style="opacity:1" fill="#757575" d="M 549.5,368.5 C 561.808,367.488 568.141,373.154 568.5,385.5C 560.5,385.5 552.5,385.5 544.5,385.5C 545.969,393.453 550.636,396.287 558.5,394C 559.904,392.663 561.404,391.497 563,390.5C 564.621,390.725 565.788,391.558 566.5,393C 562.539,399.215 556.872,401.549 549.5,400C 539.261,393.935 536.761,385.435 542,374.5C 544.114,371.879 546.614,369.879 549.5,368.5 Z"/></g>
<g><path style="opacity:1" fill="#737373" d="M 598.5,368.5 C 605.39,367.119 610.723,369.285 614.5,375C 613.109,376.02 611.609,376.853 610,377.5C 606.481,373.247 602.481,372.58 598,375.5C 597.28,377.112 597.446,378.612 598.5,380C 602.123,381.105 605.79,382.105 609.5,383C 614.224,385.435 615.724,389.269 614,394.5C 608.963,400.99 602.796,402.156 595.5,398C 593.457,396.292 591.79,394.292 590.5,392C 594.073,388.437 596.74,389.104 598.5,394C 602.474,396.364 605.974,395.864 609,392.5C 609.711,390.633 609.211,389.133 607.5,388C 601.272,387.596 596.105,385.096 592,380.5C 590.781,374.601 592.948,370.601 598.5,368.5 Z"/></g>
<g><path style="opacity:1" fill="#c1c1c1" d="M 258.5,373.5 C 265.982,372.508 273.648,372.175 281.5,372.5C 281.815,376.371 281.482,380.038 280.5,383.5C 280.5,380.167 280.5,376.833 280.5,373.5C 273.167,373.5 265.833,373.5 258.5,373.5 Z"/></g>
<g><path style="opacity:1" fill="#f8f8f8" d="M 518.5,373.5 C 524.412,372.609 528.079,374.942 529.5,380.5C 524.125,380.828 518.792,380.495 513.5,379.5C 514.51,376.859 516.176,374.859 518.5,373.5 Z"/></g>
<g><path style="opacity:1" fill="#f8f8f8" d="M 550.5,373.5 C 556.412,372.609 560.079,374.942 561.5,380.5C 556.125,380.828 550.792,380.495 545.5,379.5C 546.51,376.859 548.176,374.859 550.5,373.5 Z"/></g>
<g><path style="opacity:1" fill="#f9f9f9" d="M 296.5,374.5 C 305.53,374.358 309.363,378.692 308,387.5C 305.646,393.095 301.479,394.928 295.5,393C 288.539,386.313 288.872,380.147 296.5,374.5 Z"/></g>
<g><path style="opacity:1" fill="#fafafa" d="M 331.5,374.5 C 340.478,374.31 344.311,378.643 343,387.5C 340.549,393.089 336.383,394.922 330.5,393C 323.621,386.35 323.955,380.183 331.5,374.5 Z"/></g>
<g><path style="opacity:1" fill="#fafafa" d="M 365.5,374.5 C 374.97,374.474 378.803,379.14 377,388.5C 374.459,393.069 370.625,394.569 365.5,393C 358.87,386.882 358.87,380.715 365.5,374.5 Z"/></g>
<g><path style="opacity:1" fill="#f6f6f6" d="M 411.5,374.5 C 414.908,373.828 417.575,374.828 419.5,377.5C 415.388,379.64 411.221,381.64 407,383.5C 406.377,379.412 407.877,376.412 411.5,374.5 Z"/></g>
<g><path style="opacity:1" fill="#bebebe" d="M 258.5,379.5 C 263.833,379.5 269.167,379.5 274.5,379.5C 274.737,380.791 274.404,381.791 273.5,382.5C 268.749,380.859 263.749,379.859 258.5,379.5 Z"/></g>
<g><path style="opacity:1" fill="#d2d2d2" d="M 496.5,377.5 C 497.491,384.313 497.825,391.313 497.5,398.5C 499.167,398.5 500.833,398.5 502.5,398.5C 502.5,391.5 502.5,384.5 502.5,377.5C 503.492,384.648 503.825,391.981 503.5,399.5C 501.167,399.5 498.833,399.5 496.5,399.5C 496.5,392.167 496.5,384.833 496.5,377.5 Z"/></g>
</svg>
