 <svg  version="1.0" xmlns="http://www.w3.org/2000/svg"  width="100" height="100" viewBox="0 0 300.000000 300.000000"  preserveAspectRatio="xMidYMid meet">  <g transform="translate(0.000000,300.000000) scale(0.050000,-0.050000)" fill="#333533" stroke="none"> <path d="M2040 3465 c-1 -536 -9 -1010 -19 -1053 -87 -373 -640 -368 -676 7 l-10 101 -278 0 -277 0 0 -86 c0 -830 1388 -1040 1732 -261 77 175 87 322 88 1322 l0 945 -280 0 -280 0 0 -975z"/> <path d="M3080 3081 l0 -1361 280 0 280 0 0 477 0 478 375 10 c528 15 700 69 917 284 376 374 269 1096 -199 1335 -240 122 -249 123 -978 131 l-675 8 0 -1362z m1304 853 c273 -160 288 -588 26 -738 -73 -42 -108 -47 -425 -53 l-345 -6 0 433 0 434 325 -7 c313 -7 328 -9 419 -63z"/> </g> </svg> 