<?xml version="1.0" encoding="UTF-8"?>
<!DOCTYPE svg PUBLIC "-//W3C//DTD SVG 1.1//EN" "http://www.w3.org/Graphics/SVG/1.1/DTD/svg11.dtd">
<svg xmlns="http://www.w3.org/2000/svg" version="1.1" width="1920px" height="864px" style="shape-rendering:geometricPrecision; text-rendering:geometricPrecision; image-rendering:optimizeQuality; fill-rule:evenodd; clip-rule:evenodd" xmlns:xlink="http://www.w3.org/1999/xlink">
<g><path style="opacity:0.988" fill="#4cabcf" d="M 392.5,135.5 C 425.048,151.107 457.381,167.274 489.5,184C 459.5,200.333 429.5,216.667 399.5,233C 398.5,233.667 397.5,233.667 396.5,233C 363.678,216.756 331.011,200.256 298.5,183.5C 329.894,167.47 361.228,151.47 392.5,135.5 Z"/></g>
<g><path style="opacity:0.988" fill="#4daacf" d="M 251.5,205.5 C 285.423,221.795 319.09,238.628 352.5,256C 317.658,274.588 282.658,292.922 247.5,311C 246.167,311.667 244.833,311.667 243.5,311C 210.167,294 176.833,277 143.5,260C 179.716,242.059 215.716,223.892 251.5,205.5 Z"/></g>
<g><path style="opacity:0.988" fill="#4cabcf" d="M 533.5,206.5 C 570.046,223.773 606.38,241.606 642.5,260C 611.167,276 579.833,292 548.5,308C 547.167,308.667 545.833,308.667 544.5,308C 510.309,290.739 476.309,273.239 442.5,255.5C 473.054,239.392 503.388,223.059 533.5,206.5 Z"/></g>
<g><path style="opacity:0.989" fill="#4caacf" d="M 395.5,278.5 C 430.229,295.358 464.895,312.525 499.5,330C 500.711,330.893 500.711,331.726 499.5,332.5C 464.062,350.302 428.562,367.969 393,385.5C 358.616,368.725 324.449,351.558 290.5,334C 325.561,315.471 360.561,296.971 395.5,278.5 Z"/></g>
<g><path style="opacity:0.997" fill="#4c76cf" d="M 116.5,289.5 C 138.114,300.307 159.78,311.14 181.5,322C 184.927,323.796 188.094,325.963 191,328.5C 225.333,401.167 259.667,473.833 294,546.5C 294.5,491.501 294.667,436.501 294.5,381.5C 321.29,393.811 347.79,406.811 374,420.5C 374.5,522.166 374.667,623.833 374.5,725.5C 348.574,711.425 323.241,696.259 298.5,680C 295.333,676.167 292.167,672.333 289,668.5C 254.745,603.658 220.745,538.658 187,473.5C 186.833,524.837 186.333,576.17 185.5,627.5C 162.427,615.548 139.594,603.215 117,590.5C 116.5,490.167 116.333,389.834 116.5,289.5 Z"/></g>
<g><path style="opacity:0.995" fill="#4cabcf" d="M 668.5,293.5 C 669.833,314.823 670.5,336.49 670.5,358.5C 670.167,380.167 669.833,401.833 669.5,423.5C 636.833,440.167 604.167,456.833 571.5,473.5C 570.333,429.837 570.167,386.17 571,342.5C 603.763,326.536 636.263,310.202 668.5,293.5 Z"/></g>
<g><path style="opacity:0.997" fill="#4c76ce" d="M 760.5,331.5 C 772.838,331.333 785.171,331.5 797.5,332C 799.246,332.471 800.913,333.138 802.5,334C 840.714,381.212 878.547,428.712 916,476.5C 915.601,428.176 915.434,379.843 915.5,331.5C 931.833,331.5 948.167,331.5 964.5,331.5C 964.5,409.167 964.5,486.833 964.5,564.5C 952.829,564.667 941.162,564.5 929.5,564C 926.215,563.241 923.215,561.908 920.5,560C 882.953,513.455 845.786,466.621 809,419.5C 809.429,467.82 809.595,516.154 809.5,564.5C 793.167,564.5 776.833,564.5 760.5,564.5C 760.5,486.833 760.5,409.167 760.5,331.5 Z"/></g>
<g><path style="opacity:0.992" fill="#4c76cf" d="M 1442.5,331.5 C 1475.83,331.333 1509.17,331.5 1542.5,332C 1599.46,338.284 1624.29,369.784 1617,426.5C 1609.43,457.067 1590.27,475.9 1559.5,483C 1553.88,484.258 1548.21,485.258 1542.5,486C 1527.5,486.5 1512.5,486.667 1497.5,486.5C 1497.5,512.5 1497.5,538.5 1497.5,564.5C 1479.17,564.5 1460.83,564.5 1442.5,564.5C 1442.5,486.833 1442.5,409.167 1442.5,331.5 Z M 1497.5,372.5 C 1509.5,372.333 1521.5,372.5 1533.5,373C 1557.4,378.263 1567.23,393.097 1563,417.5C 1559.23,434.927 1548.4,444.093 1530.5,445C 1519.51,445.5 1508.51,445.667 1497.5,445.5C 1497.5,421.167 1497.5,396.833 1497.5,372.5 Z"/></g>
<g><path style="opacity:0.994" fill="#4cabcf" d="M 529.5,362.5 C 530.665,405.998 530.831,449.665 530,493.5C 491.807,512.401 453.641,531.401 415.5,550.5C 414.333,507.171 414.167,463.837 415,420.5C 453.305,401.264 491.472,381.931 529.5,362.5 Z"/></g>
<g><path style="opacity:0.991" fill="#4c76cf" d="M 1254.5,395.5 C 1277.02,393.003 1292.85,402.003 1302,422.5C 1317.44,401.542 1338.28,392.709 1364.5,396C 1394.55,400.047 1411.05,417.213 1414,447.5C 1414.5,486.499 1414.67,525.499 1414.5,564.5C 1397.83,564.5 1381.17,564.5 1364.5,564.5C 1364.67,528.165 1364.5,491.832 1364,455.5C 1361.41,436.45 1350.91,429.95 1332.5,436C 1324.96,440.217 1320.8,446.717 1320,455.5C 1319.5,491.832 1319.33,528.165 1319.5,564.5C 1302.83,564.5 1286.17,564.5 1269.5,564.5C 1269.67,527.165 1269.5,489.832 1269,452.5C 1267.71,439.879 1260.71,433.546 1248,433.5C 1239.02,434.491 1231.35,438.158 1225,444.5C 1224.5,484.499 1224.33,524.499 1224.5,564.5C 1207.83,564.5 1191.17,564.5 1174.5,564.5C 1174.5,509.167 1174.5,453.833 1174.5,398.5C 1186.5,398.333 1198.5,398.5 1210.5,399C 1212.59,399.792 1214.42,400.959 1216,402.5C 1217.4,406.217 1218.9,409.883 1220.5,413.5C 1230.22,404.308 1241.55,398.308 1254.5,395.5 Z"/></g>
<g><path style="opacity:0.988" fill="#4c76cf" d="M 992.5,398.5 C 1009.17,398.5 1025.83,398.5 1042.5,398.5C 1042.33,435.502 1042.5,472.502 1043,509.5C 1045.05,521.726 1052.22,528.059 1064.5,528.5C 1075.17,527.917 1084.33,523.917 1092,516.5C 1092.5,477.168 1092.67,437.835 1092.5,398.5C 1109.5,398.5 1126.5,398.5 1143.5,398.5C 1143.5,453.833 1143.5,509.167 1143.5,564.5C 1130.43,564.943 1117.43,564.443 1104.5,563C 1103.33,561.833 1102.17,560.667 1101,559.5C 1099.52,555.385 1097.85,551.385 1096,547.5C 1074.87,567.155 1050.7,571.988 1023.5,562C 1005.51,552.206 995.34,537.04 993,516.5C 992.5,477.168 992.333,437.835 992.5,398.5 Z"/></g>
<g><path style="opacity:0.992" fill="#4c76cf" d="M 1626.5,399.5 C 1642.99,398.338 1659.66,398.172 1676.5,399C 1679.54,400.031 1682.04,401.865 1684,404.5C 1695.62,434.734 1706.95,465.067 1718,495.5C 1728.86,465.242 1739.53,434.909 1750,404.5C 1751.94,401.894 1754.44,400.061 1757.5,399C 1772.5,398.5 1787.5,398.333 1802.5,398.5C 1772.97,469.253 1743.13,539.92 1713,610.5C 1711.13,612.709 1708.96,614.542 1706.5,616C 1691.17,616.667 1675.83,616.667 1660.5,616C 1671.57,594.032 1682.23,571.865 1692.5,549.5C 1671,499.175 1649,449.175 1626.5,399.5 Z"/></g>
<g><path style="opacity:0.994" fill="#4caacf" d="M 667.5,468.5 C 668.5,468.5 669.5,468.5 670.5,468.5C 670.833,512.505 670.5,556.505 669.5,600.5C 636.833,616.833 604.167,633.167 571.5,649.5C 570.167,605.5 570.167,561.5 571.5,517.5C 603.561,501.137 635.561,484.803 667.5,468.5 Z"/></g>
<g><path style="opacity:0.997" fill="#4dabcf" d="M 529.5,537.5 C 530.939,581.328 531.439,625.328 531,669.5C 492.457,689.105 453.791,708.438 415,727.5C 414.333,683.5 414.333,639.5 415,595.5C 453.305,576.264 491.472,556.931 529.5,537.5 Z"/></g>
</svg>
