<?xml version="1.0" encoding="UTF-8"?>
<!DOCTYPE svg PUBLIC "-//W3C//DTD SVG 1.1//EN" "http://www.w3.org/Graphics/SVG/1.1/DTD/svg11.dtd">
<svg xmlns="http://www.w3.org/2000/svg" version="1.1" width="500px" height="500px" style="shape-rendering:geometricPrecision; text-rendering:geometricPrecision; image-rendering:optimizeQuality; fill-rule:evenodd; clip-rule:evenodd" xmlns:xlink="http://www.w3.org/1999/xlink">
<g><path style="opacity:1" fill="#fefefe" d="M -0.5,-0.5 C 166.167,-0.5 332.833,-0.5 499.5,-0.5C 499.5,166.167 499.5,332.833 499.5,499.5C 332.833,499.5 166.167,499.5 -0.5,499.5C -0.5,332.833 -0.5,166.167 -0.5,-0.5 Z"/></g>
<g><path style="opacity:1" fill="#060606" d="M 444.5,1.5 C 449.494,1.32904 451.328,3.66238 450,8.5C 416.833,40.3333 383.667,72.1667 350.5,104C 363.745,105.237 369.578,112.404 368,125.5C 364.468,135.689 357.302,139.855 346.5,138C 338.43,134.577 334.263,128.41 334,119.5C 309.812,143.022 285.645,166.522 261.5,190C 267.226,201.252 264.892,210.252 254.5,217C 247.554,219.697 241.388,218.53 236,213.5C 227.959,221.709 219.792,229.709 211.5,237.5C 222.243,245.949 223.243,255.449 214.5,266C 203.761,272.197 194.761,270.364 187.5,260.5C 178.318,269.516 168.984,278.349 159.5,287C 177.339,288.509 183.172,297.676 177,314.5C 170.315,321.854 162.482,323.354 153.5,319C 147.772,314.649 144.772,308.816 144.5,301.5C 114.985,330.182 85.3184,358.682 55.5,387C 49.0632,390.268 46.5632,388.435 48,381.5C 109.26,322.895 170.26,264.562 231,206.5C 229.848,189.989 237.681,182.489 254.5,184C 318.032,123.3 381.365,62.4664 444.5,1.5 Z"/></g>
<g><path style="opacity:1" fill="#050505" d="M 364.5,22.5 C 379.858,22.0214 386.691,29.3548 385,44.5C 380.987,54.7484 373.487,58.5817 362.5,56C 352.883,50.8234 349.717,42.9901 353,32.5C 355.794,27.8659 359.627,24.5326 364.5,22.5 Z"/></g>
<g><path style="opacity:1" fill="#ff1b19" d="M 87.5,57.5 C 105.096,56.4203 112.262,64.4203 109,81.5C 102.248,92.0306 93.4147,94.1973 82.5,88C 76.0141,81.0196 74.8474,73.1863 79,64.5C 81.4412,61.5464 84.2745,59.2131 87.5,57.5 Z"/></g>
<g><path style="opacity:1" fill="#030303" d="M 264.5,104.5 C 281.296,103.517 288.463,111.184 286,127.5C 279.686,138.622 270.852,141.122 259.5,135C 253.883,129.289 252.05,122.455 254,114.5C 256.738,110.26 260.238,106.926 264.5,104.5 Z"/></g>
<g><path style="opacity:1" fill="#040404" d="M 139.5,201.5 C 157.189,200.347 164.356,208.347 161,225.5C 156.581,233.624 149.747,236.79 140.5,235C 128.637,228.732 125.804,219.565 132,207.5C 134.478,205.361 136.978,203.361 139.5,201.5 Z"/></g>
<g><path style="opacity:1" fill="#040404" d="M 298.5,201.5 C 319.015,201.172 325.515,210.505 318,229.5C 306.838,238.594 297.171,237.261 289,225.5C 285.798,214.913 288.965,206.913 298.5,201.5 Z"/></g>
<g><path style="opacity:1" fill="#ff1b19" d="M 265.5,365.5 C 276.211,364.101 283.378,368.434 287,378.5C 287.664,394.107 280.164,400.941 264.5,399C 253.465,392.893 250.632,384.06 256,372.5C 258.825,369.524 261.992,367.191 265.5,365.5 Z"/></g>
<g><path style="opacity:1" fill="#242424" d="M 236.5,385.5 C 241.167,385.5 245.833,385.5 250.5,385.5C 250.5,409.833 250.5,434.167 250.5,458.5C 245.833,458.5 241.167,458.5 236.5,458.5C 236.5,434.167 236.5,409.833 236.5,385.5 Z"/></g>
<g><path style="opacity:1" fill="#232323" d="M 204.5,395.5 C 207.5,395.5 210.5,395.5 213.5,395.5C 213.5,399.167 213.5,402.833 213.5,406.5C 218.5,406.5 223.5,406.5 228.5,406.5C 228.5,409.833 228.5,413.167 228.5,416.5C 223.5,416.5 218.5,416.5 213.5,416.5C 213.173,426.015 213.506,435.348 214.5,444.5C 214.937,446.074 215.937,447.241 217.5,448C 220.507,448.301 223.507,448.135 226.5,447.5C 228.402,450.337 229.069,453.671 228.5,457.5C 222.325,459.418 215.991,459.918 209.5,459C 203.808,456.794 200.641,452.627 200,446.5C 199.5,436.506 199.334,426.506 199.5,416.5C 197.167,416.5 194.833,416.5 192.5,416.5C 192.201,414.396 192.534,412.396 193.5,410.5C 199.836,407.509 203.502,402.509 204.5,395.5 Z"/></g>
<g><path style="opacity:1" fill="#a2a2a2" d="M 204.5,395.5 C 207.625,394.521 210.958,394.187 214.5,394.5C 214.5,398.167 214.5,401.833 214.5,405.5C 219.363,405.181 224.03,405.514 228.5,406.5C 223.5,406.5 218.5,406.5 213.5,406.5C 213.5,402.833 213.5,399.167 213.5,395.5C 210.5,395.5 207.5,395.5 204.5,395.5 Z"/></g>
<g><path style="opacity:1" fill="#242424" d="M 98.5,405.5 C 123.107,404.279 133.607,415.946 130,440.5C 125.06,455.732 114.56,461.898 98.5,459C 88.9334,456.368 83.1,450.201 81,440.5C 76.8543,423.456 82.6877,411.789 98.5,405.5 Z"/></g>
<g><path style="opacity:1" fill="#242424" d="M 300.5,405.5 C 323.337,402.671 333.67,412.671 331.5,435.5C 320.5,435.5 309.5,435.5 298.5,435.5C 297.937,441.327 300.27,445.494 305.5,448C 313.428,449.129 321.095,448.296 328.5,445.5C 328.5,449.167 328.5,452.833 328.5,456.5C 320.37,459.036 312.036,459.87 303.5,459C 293.009,456.509 286.509,450.009 284,439.5C 280.863,423.651 286.363,412.317 300.5,405.5 Z"/></g>
<g><path style="opacity:1" fill="#252525" d="M 340.5,458.5 C 340.5,441.167 340.5,423.833 340.5,406.5C 343.833,406.5 347.167,406.5 350.5,406.5C 351.022,409.253 351.856,411.92 353,414.5C 357.986,407.257 364.819,404.257 373.5,405.5C 373.261,409.842 372.927,414.176 372.5,418.5C 364.955,416.864 359.122,419.197 355,425.5C 354.5,436.495 354.333,447.495 354.5,458.5C 349.833,458.5 345.167,458.5 340.5,458.5 Z"/></g>
<g><path style="opacity:1" fill="#252525" d="M 387.5,405.5 C 397.201,404.616 406.535,405.949 415.5,409.5C 413.827,412.869 412.16,416.202 410.5,419.5C 404.852,416.42 398.852,415.254 392.5,416C 389.92,418.12 389.92,420.287 392.5,422.5C 398.543,425.237 404.543,428.07 410.5,431C 415.801,436.962 416.967,443.796 414,451.5C 408.03,457.64 400.696,460.307 392,459.5C 386.719,459.762 381.719,458.762 377,456.5C 376.333,452.5 376.333,448.5 377,444.5C 384.05,448.234 391.55,449.4 399.5,448C 401.725,445.975 402.059,443.642 400.5,441C 395.62,438.393 390.62,436.06 385.5,434C 376.593,429.117 374.093,421.951 378,412.5C 380.79,409.535 383.957,407.202 387.5,405.5 Z"/></g>
<g><path style="opacity:1" fill="#232323" d="M 138.5,406.5 C 143.167,406.5 147.833,406.5 152.5,406.5C 152.333,417.838 152.5,429.172 153,440.5C 153.621,445.628 156.454,447.961 161.5,447.5C 166.394,448.141 169.561,446.141 171,441.5C 172.412,429.896 172.912,418.229 172.5,406.5C 177.167,406.5 181.833,406.5 186.5,406.5C 186.5,423.833 186.5,441.167 186.5,458.5C 182.833,458.5 179.167,458.5 175.5,458.5C 175.753,456.173 175.086,454.173 173.5,452.5C 167.029,458.727 159.363,460.894 150.5,459C 143.781,456.948 139.948,452.448 139,445.5C 138.5,432.504 138.333,419.504 138.5,406.5 Z"/></g>
<g><path style="opacity:1" fill="#212221" d="M 261.5,406.5 C 266.167,406.5 270.833,406.5 275.5,406.5C 275.5,423.833 275.5,441.167 275.5,458.5C 270.833,458.5 266.167,458.5 261.5,458.5C 261.5,441.167 261.5,423.833 261.5,406.5 Z"/></g>
<g><path style="opacity:1" fill="#626262" d="M 350.5,406.5 C 347.167,406.5 343.833,406.5 340.5,406.5C 340.5,423.833 340.5,441.167 340.5,458.5C 339.503,441.008 339.17,423.341 339.5,405.5C 343.371,405.185 347.038,405.518 350.5,406.5 Z"/></g>
<g><path style="opacity:1" fill="#f5f5f5" d="M 304.5,415.5 C 313.363,414.043 318.03,417.71 318.5,426.5C 311.833,426.5 305.167,426.5 298.5,426.5C 298.171,421.487 300.171,417.82 304.5,415.5 Z"/></g>
<g><path style="opacity:1" fill="#f8f8f8" d="M 101.5,416.5 C 109.135,415.193 113.968,418.193 116,425.5C 117.998,433.774 116.164,440.941 110.5,447C 104.013,449.067 99.1801,447.234 96,441.5C 93.6831,434.336 94.0164,427.336 97,420.5C 98.3968,418.93 99.8968,417.596 101.5,416.5 Z"/></g>
<g><path style="opacity:1" fill="#b0b0b0" d="M 228.5,416.5 C 224.03,417.486 219.363,417.819 214.5,417.5C 214.5,426.5 214.5,435.5 214.5,444.5C 213.506,435.348 213.173,426.015 213.5,416.5C 218.5,416.5 223.5,416.5 228.5,416.5 Z"/></g>
<g><path style="opacity:1" fill="#7b7b7b" d="M 226.5,447.5 C 227.209,446.596 228.209,446.263 229.5,446.5C 229.815,450.371 229.482,454.038 228.5,457.5C 229.069,453.671 228.402,450.337 226.5,447.5 Z"/></g>
</svg>
