<?xml version="1.0" encoding="UTF-8"?>
<!DOCTYPE svg PUBLIC "-//W3C//DTD SVG 1.1//EN" "http://www.w3.org/Graphics/SVG/1.1/DTD/svg11.dtd">
<svg xmlns="http://www.w3.org/2000/svg" version="1.1" width="880px" height="550px" style="shape-rendering:geometricPrecision; text-rendering:geometricPrecision; image-rendering:optimizeQuality; fill-rule:evenodd; clip-rule:evenodd" xmlns:xlink="http://www.w3.org/1999/xlink">
<g><path style="opacity:1" fill="#fefefe" d="M -0.5,-0.5 C 292.833,-0.5 586.167,-0.5 879.5,-0.5C 879.5,182.833 879.5,366.167 879.5,549.5C 586.167,549.5 292.833,549.5 -0.5,549.5C -0.5,366.167 -0.5,182.833 -0.5,-0.5 Z"/></g>
<g><path style="opacity:1" fill="#c5d5e5" d="M 759.5,39.5 C 765.518,38.6179 770.852,39.9512 775.5,43.5C 774.5,43.5 773.5,43.5 772.5,43.5C 768.42,41.2846 764.087,39.9513 759.5,39.5 Z"/></g>
<g><path style="opacity:1" fill="#417198" d="M 772.5,43.5 C 773.5,43.5 774.5,43.5 775.5,43.5C 778.602,45.037 781.268,47.037 783.5,49.5C 785.784,53.1346 787.617,57.1346 789,61.5C 789.599,78.1753 789.432,94.842 788.5,111.5C 787.025,115.783 785.025,119.783 782.5,123.5C 782.167,123.5 781.833,123.5 781.5,123.5C 778.094,124.355 774.761,125.521 771.5,127C 756.5,127.333 741.5,127.667 726.5,128C 723.964,128.186 721.631,128.686 719.5,129.5C 716.505,129.294 713.838,129.96 711.5,131.5C 709.217,131.608 707.217,132.441 705.5,134C 702.917,137.068 700.584,140.235 698.5,143.5C 698.167,143.5 697.833,143.5 697.5,143.5C 696.5,143.5 695.5,143.5 694.5,143.5C 693.171,154.12 692.504,164.786 692.5,175.5C 680.2,178.909 669.533,176.242 660.5,167.5C 657.963,162.416 655.963,157.083 654.5,151.5C 653.625,140.86 653.291,130.194 653.5,119.5C 653.336,116.813 653.503,114.146 654,111.5C 655.414,107.016 657.081,102.683 659,98.5C 661.436,95.5532 664.269,93.2199 667.5,91.5C 670.923,90.6366 674.256,89.4699 677.5,88C 688.828,87.5001 700.162,87.3335 711.5,87.5C 719.5,87.5 727.5,87.5 735.5,87.5C 737.927,87.477 740.26,86.977 742.5,86C 743.38,84.6439 743.714,83.1439 743.5,81.5C 740.873,80.9084 738.206,80.5751 735.5,80.5C 724.679,79.5054 713.679,79.1721 702.5,79.5C 702.334,73.1579 702.5,66.8246 703,60.5C 704.808,58.6041 706.975,58.1041 709.5,59C 709.989,61.2092 710.989,63.0425 712.5,64.5C 712.5,65.1667 712.5,65.8333 712.5,66.5C 712.5,68.5 712.5,70.5 712.5,72.5C 717.576,73.5929 722.576,73.4262 727.5,72C 726.978,71.4387 726.645,70.772 726.5,70C 727.647,67.556 728.981,65.2227 730.5,63C 730.566,55.565 726.899,51.3984 719.5,50.5C 715.808,51.9439 711.975,52.9439 708,53.5C 707.288,51.3047 707.955,49.6381 710,48.5C 711.652,48.8598 713.318,49.1932 715,49.5C 718.172,45.6618 722.339,43.4951 727.5,43C 725.167,42.6667 722.833,42.3333 720.5,42C 724.863,41.7095 729.196,41.2095 733.5,40.5C 746.505,41.3951 759.505,42.3951 772.5,43.5 Z"/></g>
<g><path style="opacity:1" fill="#547a9a" d="M 759.5,39.5 C 764.087,39.9513 768.42,41.2846 772.5,43.5C 759.505,42.3951 746.505,41.3951 733.5,40.5C 729.196,41.2095 724.863,41.7095 720.5,42C 722.833,42.3333 725.167,42.6667 727.5,43C 722.339,43.4951 718.172,45.6618 715,49.5C 713.318,49.1932 711.652,48.8598 710,48.5C 707.955,49.6381 707.288,51.3047 708,53.5C 711.975,52.9439 715.808,51.9439 719.5,50.5C 726.899,51.3984 730.566,55.565 730.5,63C 728.981,65.2227 727.647,67.556 726.5,70C 726.645,70.772 726.978,71.4387 727.5,72C 722.576,73.4262 717.576,73.5929 712.5,72.5C 712.5,70.5 712.5,68.5 712.5,66.5C 712.833,66.5 713.167,66.5 713.5,66.5C 714.492,68.0265 715.992,68.6932 718,68.5C 720.637,68.3432 723.137,67.6765 725.5,66.5C 726.833,62.8333 726.833,59.1667 725.5,55.5C 723.974,55.0057 722.641,54.339 721.5,53.5C 720.399,52.4017 719.066,52.235 717.5,53C 713.097,55.6235 711.431,59.4568 712.5,64.5C 710.989,63.0425 709.989,61.2092 709.5,59C 706.975,58.1041 704.808,58.6041 703,60.5C 702.5,66.8246 702.334,73.1579 702.5,79.5C 713.679,79.1721 724.679,79.5054 735.5,80.5C 723.988,80.8281 712.654,80.4948 701.5,79.5C 700.997,70.6926 701.664,62.0259 703.5,53.5C 704.51,49.9866 706.51,47.1533 709.5,45C 718.786,39.9483 728.786,37.7816 739.5,38.5C 746.177,38.7226 752.844,39.056 759.5,39.5 Z"/></g>
<g><path style="opacity:1" fill="#abc3d7" d="M 721.5,53.5 C 714.796,55.2274 712.129,59.5608 713.5,66.5C 713.167,66.5 712.833,66.5 712.5,66.5C 712.5,65.8333 712.5,65.1667 712.5,64.5C 711.431,59.4568 713.097,55.6235 717.5,53C 719.066,52.235 720.399,52.4017 721.5,53.5 Z"/></g>
<g><path style="opacity:1" fill="#e9f0f4" d="M 721.5,53.5 C 722.641,54.339 723.974,55.0057 725.5,55.5C 726.833,59.1667 726.833,62.8333 725.5,66.5C 723.137,67.6765 720.637,68.3432 718,68.5C 715.992,68.6932 714.492,68.0265 713.5,66.5C 712.129,59.5608 714.796,55.2274 721.5,53.5 Z"/></g>
<g><path style="opacity:1" fill="#9ab3c3" d="M 703.5,53.5 C 701.664,62.0259 700.997,70.6926 701.5,79.5C 700.345,72.3451 700.178,65.0118 701,57.5C 701.2,55.6803 702.034,54.347 703.5,53.5 Z"/></g>
<g><path style="opacity:1" fill="#7795ae" d="M 711.5,87.5 C 700.162,87.3335 688.828,87.5001 677.5,88C 674.256,89.4699 670.923,90.6366 667.5,91.5C 667.953,90.5416 668.619,89.7083 669.5,89C 683.511,85.0308 697.511,84.5308 711.5,87.5 Z"/></g>
<g><path style="opacity:1" fill="#83a0b7" d="M 735.5,80.5 C 738.206,80.5751 740.873,80.9084 743.5,81.5C 743.714,83.1439 743.38,84.6439 742.5,86C 740.26,86.977 737.927,87.477 735.5,87.5C 737.71,86.6491 739.71,85.3157 741.5,83.5C 739.556,82.1993 737.556,81.1993 735.5,80.5 Z"/></g>
<g><path style="opacity:1" fill="#f0c767" d="M 815.5,88.5 C 810.125,88.1718 804.792,88.5052 799.5,89.5C 798.611,93.3174 797.611,96.9841 796.5,100.5C 796.335,96.8183 796.501,93.1516 797,89.5C 797.308,88.6919 797.808,88.0253 798.5,87.5C 801.445,86.8773 804.445,86.544 807.5,86.5C 810.59,86.5217 813.257,87.1883 815.5,88.5 Z"/></g>
<g><path style="opacity:1" fill="#fef5d6" d="M 830.5,95.5 C 829.5,95.5 828.5,95.5 827.5,95.5C 827.489,93.9826 826.823,92.8159 825.5,92C 822.244,90.5263 818.911,89.3597 815.5,88.5C 813.257,87.1883 810.59,86.5217 807.5,86.5C 804.445,86.544 801.445,86.8773 798.5,87.5C 797.808,88.0253 797.308,88.6919 797,89.5C 796.501,93.1516 796.335,96.8183 796.5,100.5C 795.518,103.962 795.185,107.629 795.5,111.5C 794.5,113.5 793.5,115.5 792.5,117.5C 793.665,109.842 794.665,102.176 795.5,94.5C 793.757,90.7787 794.424,87.6121 797.5,85C 807.804,83.3289 817.47,84.9956 826.5,90C 828.439,91.4321 829.772,93.2654 830.5,95.5 Z"/></g>
<g><path style="opacity:1" fill="#fcbd33" d="M 815.5,88.5 C 819.091,91.304 823.091,93.6374 827.5,95.5C 828.5,95.5 829.5,95.5 830.5,95.5C 831.451,96.9187 831.784,98.5853 831.5,100.5C 834.105,105.692 836.105,111.025 837.5,116.5C 837.666,124.174 837.5,131.841 837,139.5C 836.308,142.936 835.308,146.27 834,149.5C 833.502,152.817 833.335,156.15 833.5,159.5C 831.744,160.552 831.077,162.219 831.5,164.5C 831.5,164.833 831.5,165.167 831.5,165.5C 827.777,169.539 823.443,172.873 818.5,175.5C 817.5,175.5 816.5,175.5 815.5,175.5C 804.829,176.805 794.162,176.805 783.5,175.5C 783.119,174.069 782.119,173.236 780.5,173C 773.167,172.333 765.833,172.333 758.5,173C 755.809,173.156 753.476,173.989 751.5,175.5C 748.817,176.669 747.651,178.669 748,181.5C 750.194,183.178 752.694,184.178 755.5,184.5C 765.987,185.494 776.654,185.828 787.5,185.5C 786.863,189.412 786.863,193.245 787.5,197C 787.458,198.967 786.958,200.801 786,202.5C 785.461,199.471 784.794,196.471 784,193.5C 783.482,198.281 782.148,198.614 780,194.5C 779.014,195.171 777.847,195.171 776.5,194.5C 775.833,194.5 775.167,194.5 774.5,194.5C 773.688,193.007 772.355,192.34 770.5,192.5C 767.558,192.854 764.725,193.52 762,194.5C 761.361,199.98 762.028,205.313 764,210.5C 766.041,211.423 768.208,211.756 770.5,211.5C 771.263,212.268 772.263,212.768 773.5,213C 769.036,214.74 764.536,214.907 760,213.5C 756.68,215.175 756.18,217.175 758.5,219.5C 758.291,220.086 757.957,220.586 757.5,221C 750.251,222.574 743.084,222.074 736,219.5C 733.23,220.348 730.397,220.681 727.5,220.5C 722.728,219.907 718.061,218.907 713.5,217.5C 709.785,214.452 706.452,211.119 703.5,207.5C 703.5,206.167 703.5,204.833 703.5,203.5C 702.195,186.148 702.195,168.814 703.5,151.5C 703.5,150.5 703.5,149.5 703.5,148.5C 704.496,148.586 705.329,148.252 706,147.5C 706.663,143.464 708.496,140.131 711.5,137.5C 713.655,137.628 715.655,137.128 717.5,136C 735.833,135.667 754.167,135.333 772.5,135C 777.122,133.793 781.789,132.793 786.5,132C 788.888,129.371 790.888,126.538 792.5,123.5C 793.884,119.664 794.884,115.664 795.5,111.5C 795.185,107.629 795.518,103.962 796.5,100.5C 797.611,96.9841 798.611,93.3174 799.5,89.5C 804.792,88.5052 810.125,88.1718 815.5,88.5 Z"/></g>
<g><path style="opacity:1" fill="#efc357" d="M 815.5,88.5 C 818.911,89.3597 822.244,90.5263 825.5,92C 826.823,92.8159 827.489,93.9826 827.5,95.5C 823.091,93.6374 819.091,91.304 815.5,88.5 Z"/></g>
<g><path style="opacity:1" fill="#60819c" d="M 783.5,49.5 C 786.66,52.0726 788.827,55.4059 790,59.5C 790.667,74.8333 790.667,90.1667 790,105.5C 789.809,107.708 789.309,109.708 788.5,111.5C 789.432,94.842 789.599,78.1753 789,61.5C 787.617,57.1346 785.784,53.1346 783.5,49.5 Z"/></g>
<g><path style="opacity:1" fill="#f2cb6d" d="M 831.5,100.5 C 835.193,103.205 837.193,106.872 837.5,111.5C 837.5,113.167 837.5,114.833 837.5,116.5C 836.105,111.025 834.105,105.692 831.5,100.5 Z"/></g>
<g><path style="opacity:1" fill="#f2d175" d="M 795.5,111.5 C 794.884,115.664 793.884,119.664 792.5,123.5C 790.833,124.833 789.167,126.167 787.5,127.5C 789.284,125.052 790.618,122.385 791.5,119.5C 791.328,118.508 791.662,117.842 792.5,117.5C 793.5,115.5 794.5,113.5 795.5,111.5 Z"/></g>
<g><path style="opacity:1" fill="#f9df9d" d="M 837.5,111.5 C 839.993,115.827 840.993,120.661 840.5,126C 840.55,132.059 839.883,137.893 838.5,143.5C 838.827,134.318 838.493,125.318 837.5,116.5C 837.5,114.833 837.5,113.167 837.5,111.5 Z"/></g>
<g><path style="opacity:1" fill="#8ba5b9" d="M 652.5,119.5 C 652.833,119.5 653.167,119.5 653.5,119.5C 653.291,130.194 653.625,140.86 654.5,151.5C 653.71,150.391 653.21,149.058 653,147.5C 652.5,138.173 652.334,128.839 652.5,119.5 Z"/></g>
<g><path style="opacity:1" fill="#6d8da5" d="M 781.5,123.5 C 777.557,126.835 772.89,128.668 767.5,129C 751.503,129.5 735.503,129.667 719.5,129.5C 721.631,128.686 723.964,128.186 726.5,128C 741.5,127.667 756.5,127.333 771.5,127C 774.761,125.521 778.094,124.355 781.5,123.5 Z"/></g>
<g><path style="opacity:1" fill="#a1bec9" d="M 719.5,129.5 C 717.095,130.768 714.428,131.435 711.5,131.5C 713.838,129.96 716.505,129.294 719.5,129.5 Z"/></g>
<g><path style="opacity:1" fill="#fef5d7" d="M 791.5,119.5 C 790.618,122.385 789.284,125.052 787.5,127.5C 786.167,127.5 784.833,127.5 783.5,127.5C 783.5,128.5 783.5,129.5 783.5,130.5C 779.197,130.741 775.197,131.908 771.5,134C 754.17,134.5 736.837,134.667 719.5,134.5C 737.174,132.91 755.174,131.744 773.5,131C 777.961,130.093 780.961,127.593 782.5,123.5C 786.682,125.012 789.682,123.678 791.5,119.5 Z"/></g>
<g><path style="opacity:1" fill="#f3c763" d="M 792.5,123.5 C 790.888,126.538 788.888,129.371 786.5,132C 781.789,132.793 777.122,133.793 772.5,135C 754.167,135.333 735.833,135.667 717.5,136C 715.655,137.128 713.655,137.628 711.5,137.5C 713.684,135.415 716.351,134.415 719.5,134.5C 736.837,134.667 754.17,134.5 771.5,134C 775.197,131.908 779.197,130.741 783.5,130.5C 783.5,129.5 783.5,128.5 783.5,127.5C 784.833,127.5 786.167,127.5 787.5,127.5C 789.167,126.167 790.833,124.833 792.5,123.5 Z"/></g>
<g><path style="opacity:1" fill="#f3cc6d" d="M 711.5,137.5 C 708.496,140.131 706.663,143.464 706,147.5C 705.329,148.252 704.496,148.586 703.5,148.5C 703.5,148.167 703.5,147.833 703.5,147.5C 704.36,142.647 707.027,139.314 711.5,137.5 Z"/></g>
<g><path style="opacity:1" fill="#a4b8ce" d="M 697.5,143.5 C 697.833,143.5 698.167,143.5 698.5,143.5C 698.741,145.898 698.074,147.898 696.5,149.5C 696.517,147.435 696.85,145.435 697.5,143.5 Z"/></g>
<g><path style="opacity:1" fill="#f4c149" d="M 837.5,116.5 C 838.493,125.318 838.827,134.318 838.5,143.5C 836.548,148.564 835.215,153.897 834.5,159.5C 834.167,159.5 833.833,159.5 833.5,159.5C 833.335,156.15 833.502,152.817 834,149.5C 835.308,146.27 836.308,142.936 837,139.5C 837.5,131.841 837.666,124.174 837.5,116.5 Z"/></g>
<g><path style="opacity:1" fill="#e0edf4" d="M 652.5,119.5 C 652.334,128.839 652.5,138.173 653,147.5C 653.21,149.058 653.71,150.391 654.5,151.5C 655.963,157.083 657.963,162.416 660.5,167.5C 659.18,166.058 657.514,165.392 655.5,165.5C 654.652,160.45 653.486,155.45 652,150.5C 651.175,139.992 651.341,129.658 652.5,119.5 Z"/></g>
<g><path style="opacity:1" fill="#527995" d="M 697.5,143.5 C 696.85,145.435 696.517,147.435 696.5,149.5C 695.318,158.323 693.984,166.99 692.5,175.5C 692.504,164.786 693.171,154.12 694.5,143.5C 695.5,143.5 696.5,143.5 697.5,143.5 Z"/></g>
<g><path style="opacity:1" fill="#fbeab9" d="M 703.5,147.5 C 703.5,147.833 703.5,148.167 703.5,148.5C 703.5,149.5 703.5,150.5 703.5,151.5C 702.883,151.611 702.383,151.944 702,152.5C 701.503,154.81 701.337,157.143 701.5,159.5C 701.167,159.5 700.833,159.5 700.5,159.5C 700.335,156.482 700.502,153.482 701,150.5C 701.377,149.058 702.21,148.058 703.5,147.5 Z"/></g>
<g><path style="opacity:1" fill="#fde9b6" d="M 838.5,143.5 C 839.26,149.595 837.927,154.928 834.5,159.5C 835.215,153.897 836.548,148.564 838.5,143.5 Z"/></g>
<g><path style="opacity:1" fill="#f6da93" d="M 833.5,159.5 C 833.88,161.698 833.213,163.365 831.5,164.5C 831.077,162.219 831.744,160.552 833.5,159.5 Z"/></g>
<g><path style="opacity:1" fill="#fbe2a6" d="M 831.5,165.5 C 829.334,167.837 827.334,170.337 825.5,173C 823.559,174.903 821.226,175.736 818.5,175.5C 823.443,172.873 827.777,169.539 831.5,165.5 Z"/></g>
<g><path style="opacity:1" fill="#f8c047" d="M 783.5,175.5 C 780.167,175.5 776.833,175.5 773.5,175.5C 768.5,175.5 763.5,175.5 758.5,175.5C 757.167,175.5 755.833,175.5 754.5,175.5C 753.5,175.5 752.5,175.5 751.5,175.5C 753.476,173.989 755.809,173.156 758.5,173C 765.833,172.333 773.167,172.333 780.5,173C 782.119,173.236 783.119,174.069 783.5,175.5 Z"/></g>
<g><path style="opacity:1" fill="#f8dc97" d="M 700.5,159.5 C 700.833,159.5 701.167,159.5 701.5,159.5C 701.333,173.504 701.5,187.504 702,201.5C 702.278,202.416 702.778,203.082 703.5,203.5C 703.5,204.833 703.5,206.167 703.5,207.5C 701.18,204.679 700.013,201.346 700,197.5C 699.173,184.66 699.34,171.993 700.5,159.5 Z"/></g>
<g><path style="opacity:1" fill="#f6d37d" d="M 783.5,175.5 C 794.162,176.805 804.829,176.805 815.5,175.5C 814.448,177.256 812.781,177.923 810.5,177.5C 802.493,177.666 794.493,177.5 786.5,177C 785.263,176.768 784.263,176.268 783.5,175.5 Z"/></g>
<g><path style="opacity:1" fill="#fcf2d2" d="M 773.5,175.5 C 776.833,175.5 780.167,175.5 783.5,175.5C 784.263,176.268 785.263,176.768 786.5,177C 794.493,177.5 802.493,177.666 810.5,177.5C 800.008,178.659 789.341,178.825 778.5,178C 776.256,177.95 774.589,177.117 773.5,175.5 Z"/></g>
<g><path style="opacity:1" fill="#f4c050" d="M 703.5,151.5 C 702.195,168.814 702.195,186.148 703.5,203.5C 702.778,203.082 702.278,202.416 702,201.5C 701.5,187.504 701.333,173.504 701.5,159.5C 701.337,157.143 701.503,154.81 702,152.5C 702.383,151.944 702.883,151.611 703.5,151.5 Z"/></g>
<g><path style="opacity:1" fill="#fef8d8" d="M 754.5,175.5 C 755.833,175.5 757.167,175.5 758.5,175.5C 757.521,177.145 756.188,178.479 754.5,179.5C 754.709,180.086 755.043,180.586 755.5,181C 766.874,181.575 778.207,181.575 789.5,181C 790,181.5 790.5,182 791,182.5C 791.818,188.349 791.652,194.015 790.5,199.5C 790.828,194.125 790.495,188.792 789.5,183.5C 776.879,182.686 764.212,182.186 751.5,182C 750.643,181.311 749.977,180.478 749.5,179.5C 751.419,178.388 753.086,177.054 754.5,175.5 Z"/></g>
<g><path style="opacity:1" fill="#f5cd74" d="M 751.5,175.5 C 752.5,175.5 753.5,175.5 754.5,175.5C 753.086,177.054 751.419,178.388 749.5,179.5C 749.977,180.478 750.643,181.311 751.5,182C 764.212,182.186 776.879,182.686 789.5,183.5C 790.495,188.792 790.828,194.125 790.5,199.5C 789.833,199.5 789.167,199.5 788.5,199.5C 788.5,194.5 788.5,189.5 788.5,184.5C 777.5,184.5 766.5,184.5 755.5,184.5C 752.694,184.178 750.194,183.178 748,181.5C 747.651,178.669 748.817,176.669 751.5,175.5 Z"/></g>
<g><path style="opacity:1" fill="#cbdee9" d="M 655.5,181.5 C 659.298,180.517 663.298,180.183 667.5,180.5C 667.674,182.861 668.007,185.194 668.5,187.5C 667.275,186.063 666.275,184.396 665.5,182.5C 662.232,181.513 658.898,181.18 655.5,181.5 Z"/></g>
<g><path style="opacity:1" fill="#d1dfea" d="M 639.5,188.5 C 632.431,190.796 625.098,192.463 617.5,193.5C 621.646,191.58 625.979,190.08 630.5,189C 633.482,188.502 636.482,188.335 639.5,188.5 Z"/></g>
<g><path style="opacity:1" fill="#427198" d="M 655.5,181.5 C 658.898,181.18 662.232,181.513 665.5,182.5C 666.275,184.396 667.275,186.063 668.5,187.5C 668.5,190.5 668.5,193.5 668.5,196.5C 665.305,201.878 661.471,206.878 657,211.5C 654.138,217.011 653.804,222.678 656,228.5C 657.966,232.091 659.466,235.758 660.5,239.5C 661.517,245.568 662.85,251.568 664.5,257.5C 664.259,259.898 664.926,261.898 666.5,263.5C 669.039,269.571 673.039,274.737 678.5,279C 687.128,279.854 694.795,277.521 701.5,272C 703.864,268.441 705.531,264.608 706.5,260.5C 707.328,254.347 707.828,248.013 708,241.5C 708.615,239.884 709.615,238.551 711,237.5C 711.49,236.207 711.657,234.873 711.5,233.5C 715.824,231.505 718.158,232.838 718.5,237.5C 718.255,243.084 718.922,248.417 720.5,253.5C 721.987,271.208 721.821,288.875 720,306.5C 717.637,308.366 715.47,310.366 713.5,312.5C 704.142,317.175 695.475,322.841 687.5,329.5C 684.5,330.5 682.5,332.5 681.5,335.5C 679.04,343.333 676.873,351.333 675,359.5C 672.607,362.543 671.107,365.876 670.5,369.5C 666.16,376.237 661.827,382.903 657.5,389.5C 656.167,389.5 655.5,390.167 655.5,391.5C 650.364,396.45 645.698,401.783 641.5,407.5C 640.5,407.833 639.833,408.5 639.5,409.5C 638.184,412.087 637.517,415.087 637.5,418.5C 639.099,427.323 639.766,436.323 639.5,445.5C 639.5,446.833 639.5,448.167 639.5,449.5C 636.31,454.547 633.643,459.88 631.5,465.5C 629.454,468.914 628.621,472.581 629,476.5C 631.599,478.879 634.433,480.879 637.5,482.5C 637.5,483.5 637.5,484.5 637.5,485.5C 632.63,485.69 627.964,486.356 623.5,487.5C 605.884,489.21 588.218,489.877 570.5,489.5C 568.447,489.598 566.78,488.931 565.5,487.5C 565.15,482.009 565.816,476.676 567.5,471.5C 568.448,468.86 569.448,466.193 570.5,463.5C 571.558,462.4 572.392,461.066 573,459.5C 573.808,455.973 573.641,452.64 572.5,449.5C 562.585,438.672 556.085,426.005 553,411.5C 552.274,404.131 552.441,396.798 553.5,389.5C 555.074,387.898 555.741,385.898 555.5,383.5C 557.164,377.345 559.33,371.345 562,365.5C 567.412,355.005 573.578,345.005 580.5,335.5C 581.833,335.5 583.167,335.5 584.5,335.5C 585.034,330.062 587.2,325.395 591,321.5C 591.498,318.183 591.665,314.85 591.5,311.5C 591.517,306.07 592.183,300.737 593.5,295.5C 594.768,293.095 595.435,290.428 595.5,287.5C 597.415,282.329 598.748,276.996 599.5,271.5C 600.825,260.935 600.492,250.268 598.5,239.5C 598.664,236.813 598.497,234.146 598,231.5C 596.294,230.692 595.461,229.359 595.5,227.5C 588.17,228.598 585.003,225.598 586,218.5C 589.891,212.532 592.058,213.199 592.5,220.5C 594.395,219.027 596.061,217.36 597.5,215.5C 599.839,216.724 602.172,216.724 604.5,215.5C 604.013,214.554 603.68,213.554 603.5,212.5C 604.581,210.789 605.915,209.289 607.5,208C 607.333,207.5 607.167,207 607,206.5C 604.41,207.45 602.41,209.116 601,211.5C 600.5,211 600,210.5 599.5,210C 602.456,206.567 605.123,203.067 607.5,199.5C 610.534,196.984 613.868,194.984 617.5,193.5C 625.098,192.463 632.431,190.796 639.5,188.5C 644.867,186.148 650.2,183.814 655.5,181.5 Z"/></g>
<g><path style="opacity:1" fill="#fef1c6" d="M 774.5,194.5 C 774.833,195.167 775.167,195.833 775.5,196.5C 766.288,195.047 763.288,198.714 766.5,207.5C 761.639,198.351 764.306,194.018 774.5,194.5 Z"/></g>
<g><path style="opacity:1" fill="#fbf5e2" d="M 775.5,196.5 C 777.84,200.856 777.84,205.189 775.5,209.5C 772.145,209.909 769.145,209.242 766.5,207.5C 763.288,198.714 766.288,195.047 775.5,196.5 Z"/></g>
<g><path style="opacity:1" fill="#f9d379" d="M 774.5,194.5 C 775.167,194.5 775.833,194.5 776.5,194.5C 778.534,198.876 779.034,203.543 778,208.5C 777.329,209.252 776.496,209.586 775.5,209.5C 777.84,205.189 777.84,200.856 775.5,196.5C 775.167,195.833 774.833,195.167 774.5,194.5 Z"/></g>
<g><path style="opacity:1" fill="#fabe3b" d="M 755.5,184.5 C 766.5,184.5 777.5,184.5 788.5,184.5C 788.5,189.5 788.5,194.5 788.5,199.5C 788.322,202.216 787.822,204.883 787,207.5C 785.274,209.591 784.107,211.924 783.5,214.5C 780.32,216.255 777.32,218.255 774.5,220.5C 772.076,221.03 769.743,221.864 767.5,223C 756.839,223.5 746.172,223.667 735.5,223.5C 732.833,222.5 730.167,221.5 727.5,220.5C 730.397,220.681 733.23,220.348 736,219.5C 743.084,222.074 750.251,222.574 757.5,221C 757.957,220.586 758.291,220.086 758.5,219.5C 756.18,217.175 756.68,215.175 760,213.5C 764.536,214.907 769.036,214.74 773.5,213C 772.263,212.768 771.263,212.268 770.5,211.5C 772.553,211.598 774.22,210.931 775.5,209.5C 776.496,209.586 777.329,209.252 778,208.5C 779.034,203.543 778.534,198.876 776.5,194.5C 777.847,195.171 779.014,195.171 780,194.5C 782.148,198.614 783.482,198.281 784,193.5C 784.794,196.471 785.461,199.471 786,202.5C 786.958,200.801 787.458,198.967 787.5,197C 786.863,193.245 786.863,189.412 787.5,185.5C 776.654,185.828 765.987,185.494 755.5,184.5 Z"/></g>
<g><path style="opacity:1" fill="#4b7596" d="M 607.5,199.5 C 605.123,203.067 602.456,206.567 599.5,210C 600,210.5 600.5,211 601,211.5C 602.41,209.116 604.41,207.45 607,206.5C 607.167,207 607.333,207.5 607.5,208C 605.915,209.289 604.581,210.789 603.5,212.5C 603.68,213.554 604.013,214.554 604.5,215.5C 602.172,216.724 599.839,216.724 597.5,215.5C 596.061,217.36 594.395,219.027 592.5,220.5C 592.058,213.199 589.891,212.532 586,218.5C 585.003,225.598 588.17,228.598 595.5,227.5C 595.461,229.359 596.294,230.692 598,231.5C 598.497,234.146 598.664,236.813 598.5,239.5C 597.833,237.5 597.167,235.5 596.5,233.5C 592.84,230.579 588.673,228.245 584,226.5C 583.333,222.833 583.333,219.167 584,215.5C 591.458,209.529 599.292,204.196 607.5,199.5 Z"/></g>
<g><path style="opacity:1" fill="#f6c659" d="M 774.5,194.5 C 764.306,194.018 761.639,198.351 766.5,207.5C 769.145,209.242 772.145,209.909 775.5,209.5C 774.22,210.931 772.553,211.598 770.5,211.5C 768.208,211.756 766.041,211.423 764,210.5C 762.028,205.313 761.361,199.98 762,194.5C 764.725,193.52 767.558,192.854 770.5,192.5C 772.355,192.34 773.688,193.007 774.5,194.5 Z"/></g>
<g><path style="opacity:1" fill="#f2cb73" d="M 703.5,207.5 C 706.452,211.119 709.785,214.452 713.5,217.5C 712.127,217.657 710.793,217.49 709.5,217C 708.055,214.243 706.055,212.076 703.5,210.5C 703.5,209.5 703.5,208.5 703.5,207.5 Z"/></g>
<g><path style="opacity:1" fill="#fef3d4" d="M 788.5,199.5 C 789.167,199.5 789.833,199.5 790.5,199.5C 789.987,203.553 789.154,207.553 788,211.5C 786.871,213.141 785.371,214.141 783.5,214.5C 784.107,211.924 785.274,209.591 787,207.5C 787.822,204.883 788.322,202.216 788.5,199.5 Z"/></g>
<g><path style="opacity:1" fill="#e2eff4" d="M 668.5,196.5 C 668.79,200.501 667.29,203.501 664,205.5C 663.71,207.952 663.044,210.285 662,212.5C 655.876,217.059 654.709,222.726 658.5,229.5C 659.23,230.934 660.23,232.1 661.5,233C 660.577,235.041 660.244,237.208 660.5,239.5C 659.466,235.758 657.966,232.091 656,228.5C 653.804,222.678 654.138,217.011 657,211.5C 661.471,206.878 665.305,201.878 668.5,196.5 Z"/></g>
<g><path style="opacity:1" fill="#fef6dc" d="M 703.5,210.5 C 706.055,212.076 708.055,214.243 709.5,217C 710.793,217.49 712.127,217.657 713.5,217.5C 715.5,218.833 717.5,220.167 719.5,221.5C 716.022,221.816 712.688,221.316 709.5,220C 707.249,216.932 705.249,213.765 703.5,210.5 Z"/></g>
<g><path style="opacity:1" fill="#feefcd" d="M 783.5,214.5 C 781.53,218.151 778.53,220.151 774.5,220.5C 777.32,218.255 780.32,216.255 783.5,214.5 Z"/></g>
<g><path style="opacity:1" fill="#fdebbd" d="M 719.5,221.5 C 722.152,221.41 724.485,222.076 726.5,223.5C 723.848,223.59 721.515,222.924 719.5,221.5 Z"/></g>
<g><path style="opacity:1" fill="#f4ca65" d="M 713.5,217.5 C 718.061,218.907 722.728,219.907 727.5,220.5C 730.167,221.5 732.833,222.5 735.5,223.5C 732.833,223.5 730.167,223.5 727.5,223.5C 727.167,223.5 726.833,223.5 726.5,223.5C 724.485,222.076 722.152,221.41 719.5,221.5C 717.5,220.167 715.5,218.833 713.5,217.5 Z"/></g>
<g><path style="opacity:1" fill="#fcf7dd" d="M 774.5,220.5 C 774.146,222.48 773.813,224.48 773.5,226.5C 771.29,225.018 769.624,225.518 768.5,228C 769.153,232.586 769.487,237.253 769.5,242C 769.493,246.886 768.826,251.386 767.5,255.5C 767.5,252.833 767.5,250.167 767.5,247.5C 768.833,242.167 768.833,236.833 767.5,231.5C 767.749,228.425 766.415,227.758 763.5,229.5C 761.933,229.523 760.6,229.023 759.5,228C 762.226,227.818 764.893,227.318 767.5,226.5C 766.5,226.167 765.5,225.833 764.5,225.5C 753.854,226.597 743.187,226.764 732.5,226C 730.256,225.95 728.589,225.117 727.5,223.5C 730.167,223.5 732.833,223.5 735.5,223.5C 746.172,223.667 756.839,223.5 767.5,223C 769.743,221.864 772.076,221.03 774.5,220.5 Z"/></g>
<g><path style="opacity:1" fill="#fdf6d2" d="M 767.5,231.5 C 768.833,236.833 768.833,242.167 767.5,247.5C 767.5,242.833 767.5,238.167 767.5,233.5C 759.684,232.508 751.684,232.174 743.5,232.5C 737.021,231.509 730.354,231.176 723.5,231.5C 723.183,235.702 723.517,239.702 724.5,243.5C 724.5,258.167 724.5,272.833 724.5,287.5C 723.432,268.664 722.932,249.664 723,230.5C 723.893,229.919 724.893,229.585 726,229.5C 739.808,230.557 753.642,231.224 767.5,231.5 Z"/></g>
<g><path style="opacity:1" fill="#7d99ae" d="M 718.5,237.5 C 718.158,232.838 715.824,231.505 711.5,233.5C 712.665,231.584 714.332,230.751 716.5,231C 718.229,232.789 718.896,234.956 718.5,237.5 Z"/></g>
<g><path style="opacity:1" fill="#f4cb71" d="M 743.5,232.5 C 751.684,232.174 759.684,232.508 767.5,233.5C 764.167,233.5 760.833,233.5 757.5,233.5C 746.833,233.5 736.167,233.5 725.5,233.5C 727.609,283.647 727.942,333.647 726.5,383.5C 726.167,383.5 725.833,383.5 725.5,383.5C 725.832,351.329 725.498,319.329 724.5,287.5C 724.5,272.833 724.5,258.167 724.5,243.5C 724.5,239.833 724.5,236.167 724.5,232.5C 730.833,232.5 737.167,232.5 743.5,232.5 Z"/></g>
<g><path style="opacity:1" fill="#fcbe34" d="M 757.5,233.5 C 759.948,234.473 762.615,234.806 765.5,234.5C 764.561,254.477 764.228,274.477 764.5,294.5C 766.947,294.615 768.947,295.615 770.5,297.5C 772.902,299.909 775.569,301.909 778.5,303.5C 778.833,303.5 779.167,303.5 779.5,303.5C 780.831,305.924 782.331,308.257 784,310.5C 784.671,311.252 785.504,311.586 786.5,311.5C 786.5,315.167 786.5,318.833 786.5,322.5C 785.5,322.5 784.5,322.5 783.5,322.5C 783.5,323.5 783.5,324.5 783.5,325.5C 782.417,325.539 781.417,325.873 780.5,326.5C 778.559,329.384 776.893,332.384 775.5,335.5C 773.807,336.475 772.307,337.808 771,339.5C 770.172,354.339 770.339,369.006 771.5,383.5C 771.833,394.167 772.167,404.833 772.5,415.5C 772.54,428.183 773.04,440.85 774,453.5C 774.433,457.324 775.599,460.657 777.5,463.5C 777.395,467.687 778.228,471.687 780,475.5C 780.498,477.544 781.665,478.878 783.5,479.5C 784.5,479.5 785.5,479.5 786.5,479.5C 787.167,480.5 787.833,481.5 788.5,482.5C 788.611,483.117 788.944,483.617 789.5,484C 792.777,485.143 796.11,485.977 799.5,486.5C 802.567,487.871 805.567,489.538 808.5,491.5C 809.869,493.764 810.869,496.097 811.5,498.5C 811.5,501.167 811.5,503.833 811.5,506.5C 807.5,506.5 803.5,506.5 799.5,506.5C 794.349,505.673 789.016,505.173 783.5,505C 743.331,504.169 703.331,504.335 663.5,505.5C 644.628,505.514 625.961,506.514 607.5,508.5C 584.456,508.947 561.456,508.447 538.5,507C 537.202,504.501 537.536,502.167 539.5,500C 551.11,498.754 562.776,498.087 574.5,498C 575.252,497.329 575.586,496.496 575.5,495.5C 577.5,495.5 579.5,495.5 581.5,495.5C 592.046,495.792 602.379,495.125 612.5,493.5C 621.491,492.959 630.491,492.626 639.5,492.5C 651.507,491.833 663.507,491 675.5,490C 679.937,489.483 683.937,488.317 687.5,486.5C 687.5,486.167 687.5,485.833 687.5,485.5C 691.687,485.605 695.687,484.772 699.5,483C 701.324,482.34 702.657,481.173 703.5,479.5C 703.5,478.833 703.5,478.167 703.5,477.5C 706.367,477.631 708.033,476.297 708.5,473.5C 712.532,471.423 714.532,468.089 714.5,463.5C 716.472,460.916 717.472,457.916 717.5,454.5C 717.5,454.167 717.5,453.833 717.5,453.5C 719.074,451.898 719.741,449.898 719.5,447.5C 720.953,443.709 722.119,439.709 723,435.5C 723.226,428.628 724.226,421.961 726,415.5C 726.5,404.839 726.667,394.172 726.5,383.5C 727.942,333.647 727.609,283.647 725.5,233.5C 736.167,233.5 746.833,233.5 757.5,233.5 Z"/></g>
<g><path style="opacity:1" fill="#fadb97" d="M 743.5,232.5 C 737.167,232.5 730.833,232.5 724.5,232.5C 724.5,236.167 724.5,239.833 724.5,243.5C 723.517,239.702 723.183,235.702 723.5,231.5C 730.354,231.176 737.021,231.509 743.5,232.5 Z"/></g>
<g><path style="opacity:1" fill="#7b97af" d="M 711.5,233.5 C 711.657,234.873 711.49,236.207 711,237.5C 709.615,238.551 708.615,239.884 708,241.5C 707.828,248.013 707.328,254.347 706.5,260.5C 706.334,253.492 706.5,246.492 707,239.5C 707.792,236.894 709.292,234.894 711.5,233.5 Z"/></g>
<g><path style="opacity:1" fill="#92a8bc" d="M 718.5,237.5 C 719.957,242.598 720.624,247.931 720.5,253.5C 718.922,248.417 718.255,243.084 718.5,237.5 Z"/></g>
<g><path style="opacity:1" fill="#afc5d6" d="M 596.5,233.5 C 597.167,235.5 597.833,237.5 598.5,239.5C 600.492,250.268 600.825,260.935 599.5,271.5C 599.594,258.735 598.594,246.068 596.5,233.5 Z"/></g>
<g><path style="opacity:1" fill="#f5c456" d="M 757.5,233.5 C 760.833,233.5 764.167,233.5 767.5,233.5C 767.5,238.167 767.5,242.833 767.5,247.5C 767.5,250.167 767.5,252.833 767.5,255.5C 765.986,261.595 765.32,267.928 765.5,274.5C 765.501,279.013 765.834,283.347 766.5,287.5C 767.309,289.292 767.809,291.292 768,293.5C 768.708,294.381 769.542,295.047 770.5,295.5C 770.5,296.167 770.5,296.833 770.5,297.5C 768.947,295.615 766.947,294.615 764.5,294.5C 764.228,274.477 764.561,254.477 765.5,234.5C 762.615,234.806 759.948,234.473 757.5,233.5 Z"/></g>
<g><path style="opacity:1" fill="#91aabf" d="M 664.5,257.5 C 666.28,258.99 666.946,260.99 666.5,263.5C 664.926,261.898 664.259,259.898 664.5,257.5 Z"/></g>
<g><path style="opacity:1" fill="#fbe2a8" d="M 767.5,255.5 C 766.85,266.154 766.516,276.821 766.5,287.5C 765.834,283.347 765.501,279.013 765.5,274.5C 765.32,267.928 765.986,261.595 767.5,255.5 Z"/></g>
<g><path style="opacity:1" fill="#a5bbce" d="M 595.5,287.5 C 595.435,290.428 594.768,293.095 593.5,295.5C 593.111,292.447 593.777,289.78 595.5,287.5 Z"/></g>
<g><path style="opacity:1" fill="#fcebbe" d="M 770.5,295.5 C 773.473,297.806 776.14,300.473 778.5,303.5C 775.569,301.909 772.902,299.909 770.5,297.5C 770.5,296.833 770.5,296.167 770.5,295.5 Z"/></g>
<g><path style="opacity:1" fill="#fae3a9" d="M 779.5,303.5 C 782.473,304.81 784.807,306.81 786.5,309.5C 786.5,310.167 786.5,310.833 786.5,311.5C 785.504,311.586 784.671,311.252 784,310.5C 782.331,308.257 780.831,305.924 779.5,303.5 Z"/></g>
<g><path style="opacity:1" fill="#deeaf1" d="M 713.5,312.5 C 711.962,317.278 708.629,319.611 703.5,319.5C 703.714,321.144 703.38,322.644 702.5,324C 699.876,323.35 697.209,323.517 694.5,324.5C 694.513,329.847 692.18,331.514 687.5,329.5C 695.475,322.841 704.142,317.175 713.5,312.5 Z"/></g>
<g><path style="opacity:1" fill="#fdf3d2" d="M 786.5,309.5 C 790.23,319.421 787.564,327.421 778.5,333.5C 779.433,330.356 781.1,327.689 783.5,325.5C 783.5,324.5 783.5,323.5 783.5,322.5C 784.5,322.5 785.5,322.5 786.5,322.5C 786.5,318.833 786.5,315.167 786.5,311.5C 786.5,310.833 786.5,310.167 786.5,309.5 Z"/></g>
<g><path style="opacity:1" fill="#65849e" d="M 591.5,311.5 C 591.665,314.85 591.498,318.183 591,321.5C 587.2,325.395 585.034,330.062 584.5,335.5C 583.167,335.5 581.833,335.5 580.5,335.5C 582.644,331.889 584.81,328.222 587,324.5C 588.57,320.073 590.07,315.74 591.5,311.5 Z"/></g>
<g><path style="opacity:1" fill="#f7d484" d="M 783.5,325.5 C 781.1,327.689 779.433,330.356 778.5,333.5C 777.662,333.842 777.328,334.508 777.5,335.5C 776.833,335.5 776.167,335.5 775.5,335.5C 776.893,332.384 778.559,329.384 780.5,326.5C 781.417,325.873 782.417,325.539 783.5,325.5 Z"/></g>
<g><path style="opacity:1" fill="#9bb6ca" d="M 687.5,329.5 C 685.833,331.833 683.833,333.833 681.5,335.5C 682.5,332.5 684.5,330.5 687.5,329.5 Z"/></g>
<g><path style="opacity:1" fill="#f4c967" d="M 775.5,335.5 C 775.34,337.153 774.674,338.486 773.5,339.5C 772.732,340.263 772.232,341.263 772,342.5C 771.5,356.163 771.333,369.829 771.5,383.5C 770.339,369.006 770.172,354.339 771,339.5C 772.307,337.808 773.807,336.475 775.5,335.5 Z"/></g>
<g><path style="opacity:1" fill="#fef9e1" d="M 775.5,335.5 C 776.167,335.5 776.833,335.5 777.5,335.5C 776.372,338.438 775.205,341.438 774,344.5C 773.5,360.163 773.333,375.83 773.5,391.5C 772.216,374.313 772.216,356.98 773.5,339.5C 774.674,338.486 775.34,337.153 775.5,335.5 Z"/></g>
<g><path style="opacity:1" fill="#64839f" d="M 39.5,355.5 C 55.3246,354.504 71.3246,354.17 87.5,354.5C 90.3129,355.082 92.9796,356.082 95.5,357.5C 77.24,355.649 58.9067,354.983 40.5,355.5C 40.1667,355.5 39.8333,355.5 39.5,355.5 Z"/></g>
<g><path style="opacity:1" fill="#fff8dc" d="M 724.5,287.5 C 725.498,319.329 725.832,351.329 725.5,383.5C 724.512,388.64 724.179,393.974 724.5,399.5C 724.167,399.5 723.833,399.5 723.5,399.5C 724.381,362.175 724.714,324.841 724.5,287.5 Z"/></g>
<g><path style="opacity:1" fill="#427198" d="M 40.5,355.5 C 58.9067,354.983 77.24,355.649 95.5,357.5C 98.3667,359.519 101.033,361.852 103.5,364.5C 104.456,366.075 105.123,367.742 105.5,369.5C 106.275,374.797 106.608,380.13 106.5,385.5C 104.853,392.804 101.187,398.804 95.5,403.5C 93.1475,404.34 91.1475,405.674 89.5,407.5C 84.9159,409.146 80.2492,410.479 75.5,411.5C 73.5,411.5 71.5,411.5 69.5,411.5C 69.5,407.5 69.5,403.5 69.5,399.5C 74.1493,398.514 78.816,397.514 83.5,396.5C 83.6287,394.784 83.962,393.117 84.5,391.5C 89.6535,386.372 90.8202,380.372 88,373.5C 86.5002,371.531 84.6669,370.198 82.5,369.5C 73.5,368.167 64.5,368.167 55.5,369.5C 54.5023,393.994 54.169,418.661 54.5,443.5C 49.8333,443.5 45.1667,443.5 40.5,443.5C 40.5,414.167 40.5,384.833 40.5,355.5 Z"/></g>
<g><path style="opacity:1" fill="#ccdcec" d="M 87.5,354.5 C 71.3246,354.17 55.3246,354.504 39.5,355.5C 39.5,385.167 39.5,414.833 39.5,444.5C 44.8333,444.5 50.1667,444.5 55.5,444.5C 50.0247,445.489 44.358,445.822 38.5,445.5C 38.5,414.833 38.5,384.167 38.5,353.5C 55.0085,353.17 71.3419,353.504 87.5,354.5 Z"/></g>
<g><path style="opacity:1" fill="#427198" d="M 321.5,354.5 C 322.146,383.725 321.479,412.725 319.5,441.5C 316.505,441.294 313.838,441.96 311.5,443.5C 308.794,443.575 306.127,443.908 303.5,444.5C 296.132,444.683 288.799,444.35 281.5,443.5C 268.411,439.393 261.745,430.393 261.5,416.5C 261.407,410.137 261.74,403.804 262.5,397.5C 262.557,396.391 262.89,395.391 263.5,394.5C 265.392,391.26 267.726,388.26 270.5,385.5C 270.833,384.833 271.167,384.167 271.5,383.5C 273.967,383.245 275.967,382.245 277.5,380.5C 283.699,378.817 290.032,378.151 296.5,378.5C 298.599,379.612 300.933,380.279 303.5,380.5C 304.209,381.404 305.209,381.737 306.5,381.5C 306.5,372.5 306.5,363.5 306.5,354.5C 311.5,354.5 316.5,354.5 321.5,354.5 Z"/></g>
<g><path style="opacity:1" fill="#7693ab" d="M 321.5,354.5 C 321.833,354.5 322.167,354.5 322.5,354.5C 322.5,383.5 322.5,412.5 322.5,441.5C 321.5,441.5 320.5,441.5 319.5,441.5C 321.479,412.725 322.146,383.725 321.5,354.5 Z"/></g>
<g><path style="opacity:1" fill="#fde5ab" d="M 773.5,339.5 C 772.216,356.98 772.216,374.313 773.5,391.5C 774.333,404.815 774.666,418.149 774.5,431.5C 773.833,426.167 773.167,420.833 772.5,415.5C 772.167,404.833 771.833,394.167 771.5,383.5C 771.333,369.829 771.5,356.163 772,342.5C 772.232,341.263 772.732,340.263 773.5,339.5 Z"/></g>
<g><path style="opacity:1" fill="#99b2c7" d="M 322.5,354.5 C 322.167,354.5 321.833,354.5 321.5,354.5C 316.5,354.5 311.5,354.5 306.5,354.5C 306.5,363.5 306.5,372.5 306.5,381.5C 305.209,381.737 304.209,381.404 303.5,380.5C 305.47,372.231 306.136,363.565 305.5,354.5C 311.167,353.167 316.833,353.167 322.5,354.5 Z"/></g>
<g><path style="opacity:1" fill="#cddde9" d="M 670.5,369.5 C 670.477,371.927 669.977,374.26 669,376.5C 666.071,381.598 662.238,385.931 657.5,389.5C 661.827,382.903 666.16,376.237 670.5,369.5 Z"/></g>
<g><path style="opacity:1" fill="#a3b9c7" d="M 105.5,369.5 C 107.006,372.356 107.672,375.523 107.5,379C 107.496,381.361 107.163,383.527 106.5,385.5C 106.608,380.13 106.275,374.797 105.5,369.5 Z"/></g>
<g><path style="opacity:1" fill="#c2d6e4" d="M 231.5,378.5 C 226.13,378.392 220.797,378.725 215.5,379.5C 215.918,378.778 216.584,378.278 217.5,378C 222.352,377.185 227.019,377.352 231.5,378.5 Z"/></g>
<g><path style="opacity:1" fill="#92abc1" d="M 447.5,378.5 C 438.8,378.289 430.133,378.623 421.5,379.5C 421.918,378.778 422.584,378.278 423.5,378C 431.677,377.177 439.677,377.344 447.5,378.5 Z"/></g>
<g><path style="opacity:1" fill="#d9e6f0" d="M 132.5,378.5 C 142.69,377.305 153.023,377.472 163.5,379C 166.078,380.716 167.411,383.216 167.5,386.5C 163.002,382.354 157.668,380.02 151.5,379.5C 145.355,378.51 139.022,378.177 132.5,378.5 Z"/></g>
<g><path style="opacity:1" fill="#d8e6f0" d="M 305.5,354.5 C 306.136,363.565 305.47,372.231 303.5,380.5C 300.933,380.279 298.599,379.612 296.5,378.5C 299.119,378.768 301.619,378.435 304,377.5C 304.171,369.656 304.671,361.989 305.5,354.5 Z"/></g>
<g><path style="opacity:1" fill="#6f8da8" d="M 375.5,379.5 C 365.82,379.518 356.153,379.852 346.5,380.5C 351.916,378.971 357.583,378.305 363.5,378.5C 367.681,378.501 371.681,378.834 375.5,379.5 Z"/></g>
<g><path style="opacity:1" fill="#7795ab" d="M 132.5,378.5 C 139.022,378.177 145.355,378.51 151.5,379.5C 140.754,379.237 130.087,379.904 119.5,381.5C 119.5,385.5 119.5,389.5 119.5,393.5C 122.127,392.908 124.794,392.575 127.5,392.5C 127.5,392.833 127.5,393.167 127.5,393.5C 124.518,393.963 121.518,394.296 118.5,394.5C 118.5,389.833 118.5,385.167 118.5,380.5C 123.167,379.833 127.833,379.167 132.5,378.5 Z"/></g>
<g><path style="opacity:1" fill="#8da6b9" d="M 375.5,379.5 C 378.811,379.307 381.478,380.307 383.5,382.5C 380.603,381.871 377.936,380.871 375.5,379.5 Z"/></g>
<g><path style="opacity:1" fill="#457399" d="M 375.5,379.5 C 377.936,380.871 380.603,381.871 383.5,382.5C 385.17,382.751 386.67,383.418 388,384.5C 390.731,386.946 392.731,389.946 394,393.5C 394.5,410.497 394.667,427.497 394.5,444.5C 390.818,444.665 387.152,444.499 383.5,444C 381.946,442.108 380.112,440.608 378,439.5C 376.56,440.148 375.06,440.481 373.5,440.5C 366.735,441.553 359.735,442.553 352.5,443.5C 349.629,441.319 346.463,439.652 343,438.5C 336.951,428.912 337.118,419.578 343.5,410.5C 345.173,408.914 347.173,408.247 349.5,408.5C 349.657,409.873 349.49,411.207 349,412.5C 347.184,413.329 345.351,414.163 343.5,415C 345.899,415.711 348.232,415.544 350.5,414.5C 352.111,415.32 352.778,416.654 352.5,418.5C 350.952,422.43 351.285,426.097 353.5,429.5C 355.911,431.86 358.911,432.86 362.5,432.5C 367.494,432.167 372.16,430.834 376.5,428.5C 377.491,424.555 377.824,420.555 377.5,416.5C 370.863,415.724 364.196,415.391 357.5,415.5C 355.5,414.833 353.5,414.167 351.5,413.5C 351.081,410.675 352.081,408.509 354.5,407C 361.311,405.999 367.978,406.499 374.5,408.5C 376.516,408.484 377.516,407.484 377.5,405.5C 377.665,402.482 377.498,399.482 377,396.5C 376.292,395.619 375.458,394.953 374.5,394.5C 373.118,393.199 371.452,392.366 369.5,392C 363.319,391.181 357.319,391.347 351.5,392.5C 348.14,392.616 344.807,392.949 341.5,393.5C 341.5,389.5 341.5,385.5 341.5,381.5C 343.415,381.784 345.081,381.451 346.5,380.5C 356.153,379.852 365.82,379.518 375.5,379.5 Z"/></g>
<g><path style="opacity:1" fill="#9bb7c9" d="M 277.5,380.5 C 275.967,382.245 273.967,383.245 271.5,383.5C 273.033,381.755 275.033,380.755 277.5,380.5 Z"/></g>
<g><path style="opacity:1" fill="#4f718d" d="M 39.5,355.5 C 39.8333,355.5 40.1667,355.5 40.5,355.5C 40.5,384.833 40.5,414.167 40.5,443.5C 45.1667,443.5 49.8333,443.5 54.5,443.5C 54.169,418.661 54.5023,393.994 55.5,369.5C 55.5,394.5 55.5,419.5 55.5,444.5C 50.1667,444.5 44.8333,444.5 39.5,444.5C 39.5,414.833 39.5,385.167 39.5,355.5 Z"/></g>
<g><path style="opacity:1" fill="#8aa1b4" d="M 346.5,380.5 C 345.081,381.451 343.415,381.784 341.5,381.5C 341.5,385.5 341.5,389.5 341.5,393.5C 344.807,392.949 348.14,392.616 351.5,392.5C 348.124,394.082 344.458,394.749 340.5,394.5C 340.5,389.833 340.5,385.167 340.5,380.5C 342.5,380.5 344.5,380.5 346.5,380.5 Z"/></g>
<g><path style="opacity:1" fill="#437198" d="M 231.5,378.5 C 235.792,379.921 239.458,382.255 242.5,385.5C 244.657,388.446 246.157,391.779 247,395.5C 247.5,411.83 247.667,428.163 247.5,444.5C 242.167,444.5 236.833,444.5 231.5,444.5C 231.667,428.497 231.5,412.497 231,396.5C 230.617,395.944 230.117,395.611 229.5,395.5C 229.586,394.504 229.252,393.671 228.5,393C 224.056,391.439 219.723,391.272 215.5,392.5C 212.246,392.794 209.579,394.127 207.5,396.5C 205.973,396.427 204.973,397.094 204.5,398.5C 203.504,413.324 203.171,428.324 203.5,443.5C 199.098,443.772 194.765,443.439 190.5,442.5C 189.5,421.511 189.167,400.511 189.5,379.5C 193.167,379.5 196.833,379.5 200.5,379.5C 200.948,383.524 201.614,387.524 202.5,391.5C 203.506,391.062 203.506,390.396 202.5,389.5C 204.375,388.591 205.708,387.257 206.5,385.5C 208.63,382.263 211.63,380.263 215.5,379.5C 220.797,378.725 226.13,378.392 231.5,378.5 Z"/></g>
<g><path style="opacity:1" fill="#bfd2e0" d="M 447.5,378.5 C 452.005,378.271 456.339,378.937 460.5,380.5C 460.819,385.363 460.486,390.03 459.5,394.5C 459.818,389.968 459.485,385.634 458.5,381.5C 454.677,380.664 451.011,379.664 447.5,378.5 Z"/></g>
<g><path style="opacity:1" fill="#a6bfd5" d="M 555.5,383.5 C 555.741,385.898 555.074,387.898 553.5,389.5C 553.259,387.102 553.926,385.102 555.5,383.5 Z"/></g>
<g><path style="opacity:1" fill="#447198" d="M 151.5,379.5 C 157.668,380.02 163.002,382.354 167.5,386.5C 170.149,388.412 171.482,391.079 171.5,394.5C 171.5,411.167 171.5,427.833 171.5,444.5C 168.5,444.5 165.5,444.5 162.5,444.5C 160.699,442.527 158.699,440.861 156.5,439.5C 148.393,443.721 139.727,445.388 130.5,444.5C 122.169,443.834 116.836,439.501 114.5,431.5C 114.5,427.5 114.5,423.5 114.5,419.5C 117.713,421.331 119.713,420.331 120.5,416.5C 120.21,412.116 122.543,409.782 127.5,409.5C 127.5,408.5 127.5,407.5 127.5,406.5C 127.918,405.778 128.584,405.278 129.5,405C 138.194,404.289 146.861,404.456 155.5,405.5C 157.318,398.676 154.985,394.343 148.5,392.5C 141.642,391.262 134.642,391.262 127.5,392.5C 124.794,392.575 122.127,392.908 119.5,393.5C 119.5,389.5 119.5,385.5 119.5,381.5C 130.087,379.904 140.754,379.237 151.5,379.5 Z"/></g>
<g><path style="opacity:1" fill="#8aa4b8" d="M 270.5,385.5 C 267.726,388.26 265.392,391.26 263.5,394.5C 263.989,390.016 266.323,387.016 270.5,385.5 Z"/></g>
<g><path style="opacity:1" fill="#acc3d4" d="M 82.5,369.5 C 73.8333,369.5 65.1667,369.5 56.5,369.5C 56.831,394.672 56.4977,419.672 55.5,444.5C 55.5,419.5 55.5,394.5 55.5,369.5C 64.5,368.167 73.5,368.167 82.5,369.5 Z"/></g>
<g><path style="opacity:1" fill="#61839f" d="M 305.5,428.5 C 305.5,417.167 305.5,405.833 305.5,394.5C 303.139,394.326 300.806,393.993 298.5,393.5C 294.019,392.352 289.352,392.185 284.5,393C 283.29,394.039 282.29,395.206 281.5,396.5C 278.061,400.038 276.728,404.371 277.5,409.5C 277.029,415.396 278.362,420.729 281.5,425.5C 283.249,427.516 285.249,429.182 287.5,430.5C 281.739,430.245 278.239,427.245 277,421.5C 276.333,414.167 276.333,406.833 277,399.5C 280.048,392.892 285.215,389.725 292.5,390C 293.966,389.365 295.3,388.531 296.5,387.5C 298.494,391.824 301.827,393.491 306.5,392.5C 306.828,404.678 306.495,416.678 305.5,428.5 Z"/></g>
<g><path style="opacity:1" fill="#b9d0e3" d="M 148.5,392.5 C 141.465,392.326 134.465,392.659 127.5,393.5C 127.5,393.167 127.5,392.833 127.5,392.5C 134.642,391.262 141.642,391.262 148.5,392.5 Z"/></g>
<g><path style="opacity:1" fill="#587995" d="M 206.5,385.5 C 205.708,387.257 204.375,388.591 202.5,389.5C 203.506,390.396 203.506,391.062 202.5,391.5C 201.614,387.524 200.948,383.524 200.5,379.5C 196.833,379.5 193.167,379.5 189.5,379.5C 189.167,400.511 189.5,421.511 190.5,442.5C 194.765,443.439 199.098,443.772 203.5,443.5C 203.171,428.324 203.504,413.324 204.5,398.5C 204.5,413.833 204.5,429.167 204.5,444.5C 199.167,444.5 193.833,444.5 188.5,444.5C 188.5,422.5 188.5,400.5 188.5,378.5C 192.833,378.5 197.167,378.5 201.5,378.5C 201.784,381.254 202.451,383.92 203.5,386.5C 204.417,385.873 205.417,385.539 206.5,385.5 Z"/></g>
<g><path style="opacity:1" fill="#98b5c6" d="M 215.5,392.5 C 219.723,391.272 224.056,391.439 228.5,393C 229.252,393.671 229.586,394.504 229.5,395.5C 225.235,393.043 220.568,392.043 215.5,392.5 Z"/></g>
<g><path style="opacity:1" fill="#63839c" d="M 458.5,381.5 C 459.485,385.634 459.818,389.968 459.5,394.5C 459.44,395.043 459.107,395.376 458.5,395.5C 447.843,391.679 436.843,390.512 425.5,392C 422.814,394.546 421.814,397.713 422.5,401.5C 421.521,398.375 421.187,395.042 421.5,391.5C 433.822,390.212 446.156,390.212 458.5,391.5C 458.5,388.167 458.5,384.833 458.5,381.5 Z"/></g>
<g><path style="opacity:1" fill="#fcfdfd" d="M 303.5,429.5 C 298.859,430.127 294.193,430.46 289.5,430.5C 288.833,430.5 288.167,430.5 287.5,430.5C 285.249,429.182 283.249,427.516 281.5,425.5C 279.754,418.629 279.254,411.629 280,404.5C 280.508,402.096 281.675,401.429 283.5,402.5C 286.239,400.769 285.906,399.603 282.5,399C 283.984,397.426 285.651,396.093 287.5,395C 293.188,394.446 298.855,394.613 304.5,395.5C 304.811,406.914 304.477,418.248 303.5,429.5 Z"/></g>
<g><path style="opacity:1" fill="#bcd2e1" d="M 298.5,393.5 C 294.154,393.334 289.821,393.501 285.5,394C 284.529,395.481 283.196,396.315 281.5,396.5C 282.29,395.206 283.29,394.039 284.5,393C 289.352,392.185 294.019,392.352 298.5,393.5 Z"/></g>
<g><path style="opacity:1" fill="#5e7e99" d="M 84.5,391.5 C 83.962,393.117 83.6287,394.784 83.5,396.5C 78.816,397.514 74.1493,398.514 69.5,399.5C 69.5,403.5 69.5,407.5 69.5,411.5C 71.5,411.5 73.5,411.5 75.5,411.5C 73.3926,412.468 71.0593,412.802 68.5,412.5C 67.8363,407.527 67.5029,402.527 67.5,397.5C 70.5219,397.196 73.5219,396.696 76.5,396C 79.0321,394.235 81.6987,392.735 84.5,391.5 Z"/></g>
<g><path style="opacity:1" fill="#e7f2f8" d="M 298.5,393.5 C 300.806,393.993 303.139,394.326 305.5,394.5C 305.5,405.833 305.5,417.167 305.5,428.5C 305.158,429.338 304.492,429.672 303.5,429.5C 304.477,418.248 304.811,406.914 304.5,395.5C 298.855,394.613 293.188,394.446 287.5,395C 285.651,396.093 283.984,397.426 282.5,399C 285.906,399.603 286.239,400.769 283.5,402.5C 281.675,401.429 280.508,402.096 280,404.5C 279.254,411.629 279.754,418.629 281.5,425.5C 278.362,420.729 277.029,415.396 277.5,409.5C 276.728,404.371 278.061,400.038 281.5,396.5C 283.196,396.315 284.529,395.481 285.5,394C 289.821,393.501 294.154,393.334 298.5,393.5 Z"/></g>
<g><path style="opacity:1" fill="#b0c3d4" d="M 207.5,396.5 C 207.217,397.289 206.717,397.956 206,398.5C 205.5,414.163 205.333,429.83 205.5,445.5C 199.642,445.822 193.975,445.489 188.5,444.5C 193.833,444.5 199.167,444.5 204.5,444.5C 204.5,429.167 204.5,413.833 204.5,398.5C 204.973,397.094 205.973,396.427 207.5,396.5 Z"/></g>
<g><path style="opacity:1" fill="#90aabe" d="M 242.5,385.5 C 245.706,387.564 247.539,390.564 248,394.5C 248.828,411.338 248.662,428.005 247.5,444.5C 247.667,428.163 247.5,411.83 247,395.5C 246.157,391.779 244.657,388.446 242.5,385.5 Z"/></g>
<g><path style="opacity:1" fill="#d2e1eb" d="M 655.5,391.5 C 652.914,395.388 650.414,399.388 648,403.5C 647.667,403.167 647.333,402.833 647,402.5C 645.296,404.373 643.463,406.04 641.5,407.5C 645.698,401.783 650.364,396.45 655.5,391.5 Z"/></g>
<g><path style="opacity:1" fill="#607f9b" d="M 411.5,385.5 C 410.167,389.481 408.834,393.481 407.5,397.5C 408.959,400.669 409.792,404.002 410,407.5C 411.844,410.528 413.678,413.528 415.5,416.5C 411.039,413.84 408.206,409.84 407,404.5C 406.333,400.167 406.333,395.833 407,391.5C 407.792,388.894 409.292,386.894 411.5,385.5 Z"/></g>
<g><path style="opacity:1" fill="#d0e4f2" d="M 374.5,394.5 C 375.458,394.953 376.292,395.619 377,396.5C 377.498,399.482 377.665,402.482 377.5,405.5C 369.858,404.737 362.191,404.403 354.5,404.5C 361.692,403.257 369.025,403.257 376.5,404.5C 376.845,400.885 376.178,397.552 374.5,394.5 Z"/></g>
<g><path style="opacity:1" fill="#9cb6c8" d="M 95.5,403.5 C 94.1979,405.822 92.1979,407.155 89.5,407.5C 91.1475,405.674 93.1475,404.34 95.5,403.5 Z"/></g>
<g><path style="opacity:1" fill="#9bb3c3" d="M 262.5,397.5 C 261.74,403.804 261.407,410.137 261.5,416.5C 260.348,411.015 260.182,405.349 261,399.5C 261.278,398.584 261.778,397.918 262.5,397.5 Z"/></g>
<g><path style="opacity:1" fill="#f5c456" d="M 725.5,383.5 C 725.833,383.5 726.167,383.5 726.5,383.5C 726.667,394.172 726.5,404.839 726,415.5C 724.226,421.961 723.226,428.628 723,435.5C 722.119,439.709 720.953,443.709 719.5,447.5C 719.5,445.5 719.5,443.5 719.5,441.5C 719.5,440.833 719.5,440.167 719.5,439.5C 720.888,433.65 722.055,427.65 723,421.5C 723.721,414.177 724.221,406.844 724.5,399.5C 724.179,393.974 724.512,388.64 725.5,383.5 Z"/></g>
<g><path style="opacity:1" fill="#437199" d="M 447.5,378.5 C 451.011,379.664 454.677,380.664 458.5,381.5C 458.5,384.833 458.5,388.167 458.5,391.5C 446.156,390.212 433.822,390.212 421.5,391.5C 421.187,395.042 421.521,398.375 422.5,401.5C 423.267,402.172 423.934,403.005 424.5,404C 432.167,404.333 439.833,404.667 447.5,405C 450.327,406.623 453.327,407.79 456.5,408.5C 458.734,410.381 460.067,412.715 460.5,415.5C 459.706,431.468 457.872,431.468 455,415.5C 454.586,415.043 454.086,414.709 453.5,414.5C 449.035,415.005 444.702,415.839 440.5,417C 434.175,417.5 427.842,417.666 421.5,417.5C 419.565,416.85 417.565,416.517 415.5,416.5C 413.678,413.528 411.844,410.528 410,407.5C 409.792,404.002 408.959,400.669 407.5,397.5C 408.834,393.481 410.167,389.481 411.5,385.5C 414.096,382.524 417.43,380.524 421.5,379.5C 430.133,378.623 438.8,378.289 447.5,378.5 Z"/></g>
<g><path style="opacity:1" fill="#fdecbd" d="M 723.5,399.5 C 723.833,399.5 724.167,399.5 724.5,399.5C 724.221,406.844 723.721,414.177 723,421.5C 722.055,427.65 720.888,433.65 719.5,439.5C 720.557,425.947 721.89,412.614 723.5,399.5 Z"/></g>
<g><path style="opacity:1" fill="#8da7bd" d="M 171.5,394.5 C 172.497,411.325 172.83,428.325 172.5,445.5C 169.167,445.5 165.833,445.5 162.5,445.5C 162.5,445.167 162.5,444.833 162.5,444.5C 165.5,444.5 168.5,444.5 171.5,444.5C 171.5,427.833 171.5,411.167 171.5,394.5 Z"/></g>
<g><path style="opacity:1" fill="#cbdce9" d="M 229.5,395.5 C 230.117,395.611 230.617,395.944 231,396.5C 231.5,412.497 231.667,428.497 231.5,444.5C 230.805,428.295 230.139,411.961 229.5,395.5 Z"/></g>
<g><path style="opacity:1" fill="#4a7598" d="M 460.5,415.5 C 461.222,415.918 461.722,416.584 462,417.5C 462.687,423.204 462.521,428.87 461.5,434.5C 459.57,435.763 457.903,437.43 456.5,439.5C 453.555,441.143 450.555,442.476 447.5,443.5C 448.987,441.395 450.987,439.728 453.5,438.5C 454.833,436.5 456.167,434.5 457.5,432.5C 455.955,431.548 454.288,431.215 452.5,431.5C 452.5,428.833 452.5,426.167 452.5,423.5C 451.5,423.5 450.5,423.5 449.5,423.5C 449.66,421.801 449.494,420.134 449,418.5C 448.206,421.471 447.539,424.471 447,427.5C 446.252,429.751 444.752,431.084 442.5,431.5C 445.305,428.754 446.139,425.421 445,421.5C 444.184,420.177 443.017,419.511 441.5,419.5C 434.833,418.833 428.167,418.167 421.5,417.5C 427.842,417.666 434.175,417.5 440.5,417C 444.702,415.839 449.035,415.005 453.5,414.5C 454.086,414.709 454.586,415.043 455,415.5C 457.872,431.468 459.706,431.468 460.5,415.5 Z"/></g>
<g><path style="opacity:1" fill="#547a98" d="M 127.5,406.5 C 127.5,407.5 127.5,408.5 127.5,409.5C 122.543,409.782 120.21,412.116 120.5,416.5C 119.713,420.331 117.713,421.331 114.5,419.5C 114.5,423.5 114.5,427.5 114.5,431.5C 111.69,422.639 113.69,414.973 120.5,408.5C 122.801,407.675 125.135,407.008 127.5,406.5 Z"/></g>
<g><path style="opacity:1" fill="#acc4d8" d="M 135.5,416.5 C 135.5,416.833 135.5,417.167 135.5,417.5C 131.689,419.31 130.023,422.31 130.5,426.5C 128.444,421.505 130.111,418.171 135.5,416.5 Z"/></g>
<g><path style="opacity:1" fill="#fafcfb" d="M 135.5,417.5 C 141.833,417.5 148.167,417.5 154.5,417.5C 154.54,420.881 154.207,424.214 153.5,427.5C 150.235,427.918 147.235,429.085 144.5,431C 141.518,431.498 138.518,431.665 135.5,431.5C 134.833,431.5 134.167,431.5 133.5,431.5C 131.273,430.599 130.273,428.933 130.5,426.5C 130.023,422.31 131.689,419.31 135.5,417.5 Z"/></g>
<g><path style="opacity:1" fill="#f4f8f9" d="M 357.5,415.5 C 364.196,415.391 370.863,415.724 377.5,416.5C 377.824,420.555 377.491,424.555 376.5,428.5C 372.16,430.834 367.494,432.167 362.5,432.5C 358.911,432.86 355.911,431.86 353.5,429.5C 351.59,424.961 352.256,420.961 355.5,417.5C 356.167,416.833 356.833,416.167 357.5,415.5 Z"/></g>
<g><path style="opacity:1" fill="#bed1dd" d="M 415.5,416.5 C 417.565,416.517 419.565,416.85 421.5,417.5C 428.167,418.167 434.833,418.833 441.5,419.5C 434.492,419.666 427.492,419.5 420.5,419C 418.509,418.626 416.842,417.793 415.5,416.5 Z"/></g>
<g><path style="opacity:1" fill="#aabdcd" d="M 355.5,417.5 C 352.256,420.961 351.59,424.961 353.5,429.5C 351.285,426.097 350.952,422.43 352.5,418.5C 353.391,417.89 354.391,417.557 355.5,417.5 Z"/></g>
<g><path style="opacity:1" fill="#718fa6" d="M 639.5,409.5 C 638.889,411.913 638.555,414.413 638.5,417C 639.755,423.948 640.755,430.948 641.5,438C 641.333,440.167 641.167,442.333 641,444.5C 640.617,445.056 640.117,445.389 639.5,445.5C 639.766,436.323 639.099,427.323 637.5,418.5C 637.517,415.087 638.184,412.087 639.5,409.5 Z"/></g>
<g><path style="opacity:1" fill="#d9e8f1" d="M 155.5,416.5 C 155.5,420.5 155.5,424.5 155.5,428.5C 152.53,429.549 149.53,430.716 146.5,432C 142.642,432.81 138.976,432.643 135.5,431.5C 138.518,431.665 141.518,431.498 144.5,431C 147.235,429.085 150.235,427.918 153.5,427.5C 154.207,424.214 154.54,420.881 154.5,417.5C 148.167,417.5 141.833,417.5 135.5,417.5C 135.5,417.167 135.5,416.833 135.5,416.5C 142.017,415.315 148.684,415.315 155.5,416.5 Z"/></g>
<g><path style="opacity:1" fill="#507696" d="M 354.5,404.5 C 362.191,404.403 369.858,404.737 377.5,405.5C 377.516,407.484 376.516,408.484 374.5,408.5C 367.978,406.499 361.311,405.999 354.5,407C 352.081,408.509 351.081,410.675 351.5,413.5C 353.5,414.167 355.5,414.833 357.5,415.5C 356.833,416.167 356.167,416.833 355.5,417.5C 354.391,417.557 353.391,417.89 352.5,418.5C 352.778,416.654 352.111,415.32 350.5,414.5C 348.232,415.544 345.899,415.711 343.5,415C 345.351,414.163 347.184,413.329 349,412.5C 349.49,411.207 349.657,409.873 349.5,408.5C 347.173,408.247 345.173,408.914 343.5,410.5C 337.118,419.578 336.951,428.912 343,438.5C 346.463,439.652 349.629,441.319 352.5,443.5C 359.735,442.553 366.735,441.553 373.5,440.5C 371.879,442.117 369.879,443.284 367.5,444C 359.692,445.019 352.025,444.519 344.5,442.5C 335.925,435.882 333.092,427.215 336,416.5C 339.895,409.128 346.062,405.128 354.5,404.5 Z"/></g>
<g><path style="opacity:1" fill="#869cb1" d="M 303.5,429.5 C 298.928,431.558 294.262,431.891 289.5,430.5C 294.193,430.46 298.859,430.127 303.5,429.5 Z"/></g>
<g><path style="opacity:1" fill="#f4c867" d="M 772.5,415.5 C 773.167,420.833 773.833,426.167 774.5,431.5C 775.167,436.833 775.833,442.167 776.5,447.5C 776.833,452.833 777.167,458.167 777.5,463.5C 775.599,460.657 774.433,457.324 774,453.5C 773.04,440.85 772.54,428.183 772.5,415.5 Z"/></g>
<g><path style="opacity:1" fill="#6889a2" d="M 155.5,416.5 C 156.271,419.846 156.938,423.346 157.5,427C 157.241,428.261 156.574,429.261 155.5,430C 148.939,433.378 141.939,434.378 134.5,433C 133.944,432.617 133.611,432.117 133.5,431.5C 134.167,431.5 134.833,431.5 135.5,431.5C 138.976,432.643 142.642,432.81 146.5,432C 149.53,430.716 152.53,429.549 155.5,428.5C 155.5,424.5 155.5,420.5 155.5,416.5 Z"/></g>
<g><path style="opacity:1" fill="#8ba5b8" d="M 415.5,430.5 C 414.07,430.579 412.736,430.246 411.5,429.5C 410.509,433.445 410.176,437.445 410.5,441.5C 409.515,437.366 409.182,433.032 409.5,428.5C 412.01,428.054 414.01,428.72 415.5,430.5 Z"/></g>
<g><path style="opacity:1" fill="#437098" d="M 447.5,443.5 C 446.081,444.451 444.415,444.784 442.5,444.5C 433.467,444.716 424.467,444.383 415.5,443.5C 413.447,443.598 411.78,442.931 410.5,441.5C 410.176,437.445 410.509,433.445 411.5,429.5C 412.736,430.246 414.07,430.579 415.5,430.5C 424.442,432.496 433.442,432.829 442.5,431.5C 444.752,431.084 446.252,429.751 447,427.5C 447.539,424.471 448.206,421.471 449,418.5C 449.494,420.134 449.66,421.801 449.5,423.5C 450.5,423.5 451.5,423.5 452.5,423.5C 452.5,426.167 452.5,428.833 452.5,431.5C 454.288,431.215 455.955,431.548 457.5,432.5C 456.167,434.5 454.833,436.5 453.5,438.5C 450.987,439.728 448.987,441.395 447.5,443.5 Z"/></g>
<g><path style="opacity:1" fill="#99b2c4" d="M 319.5,441.5 C 317.095,442.768 314.428,443.435 311.5,443.5C 313.838,441.96 316.505,441.294 319.5,441.5 Z"/></g>
<g><path style="opacity:1" fill="#dbe9f0" d="M 461.5,434.5 C 461.503,438.057 459.837,440.224 456.5,441C 455.257,442.154 454.257,443.488 453.5,445C 443.693,446.546 434.026,446.712 424.5,445.5C 430.69,445.823 436.69,445.49 442.5,444.5C 444.415,444.784 446.081,444.451 447.5,443.5C 450.555,442.476 453.555,441.143 456.5,439.5C 457.903,437.43 459.57,435.763 461.5,434.5 Z"/></g>
<g><path style="opacity:1" fill="#d7e4ec" d="M 162.5,444.5 C 162.5,444.833 162.5,445.167 162.5,445.5C 160.362,445.297 158.695,444.297 157.5,442.5C 156.167,443.833 154.833,443.833 153.5,442.5C 151.807,444.027 149.973,445.36 148,446.5C 142.067,445.852 136.234,445.186 130.5,444.5C 139.727,445.388 148.393,443.721 156.5,439.5C 158.699,440.861 160.699,442.527 162.5,444.5 Z"/></g>
<g><path style="opacity:1" fill="#aec1d1" d="M 281.5,443.5 C 288.799,444.35 296.132,444.683 303.5,444.5C 297.347,445.653 291.014,445.82 284.5,445C 283.263,444.768 282.263,444.268 281.5,443.5 Z"/></g>
<g><path style="opacity:1" fill="#88a1b6" d="M 415.5,443.5 C 424.467,444.383 433.467,444.716 442.5,444.5C 436.69,445.49 430.69,445.823 424.5,445.5C 421.171,445.785 418.171,445.118 415.5,443.5 Z"/></g>
<g><path style="opacity:1" fill="#fcf4d0" d="M 719.5,441.5 C 719.5,443.5 719.5,445.5 719.5,447.5C 717.926,449.102 717.259,451.102 717.5,453.5C 717.5,453.833 717.5,454.167 717.5,454.5C 716.833,455.5 716.167,456.5 715.5,457.5C 716.065,452.851 716.565,448.184 717,443.5C 717.417,442.244 718.25,441.577 719.5,441.5 Z"/></g>
<g><path style="opacity:1" fill="#fff8da" d="M 776.5,447.5 C 779.149,454.045 780.149,461.045 779.5,468.5C 778.833,466.833 778.167,465.167 777.5,463.5C 777.167,458.167 776.833,452.833 776.5,447.5 Z"/></g>
<g><path style="opacity:1" fill="#f3ce75" d="M 719.5,447.5 C 719.741,449.898 719.074,451.898 717.5,453.5C 717.259,451.102 717.926,449.102 719.5,447.5 Z"/></g>
<g><path style="opacity:1" fill="#f7d280" d="M 717.5,454.5 C 717.472,457.916 716.472,460.916 714.5,463.5C 714.517,461.435 714.85,459.435 715.5,457.5C 716.167,456.5 716.833,455.5 717.5,454.5 Z"/></g>
<g><path style="opacity:1" fill="#7c98b0" d="M 572.5,449.5 C 573.641,452.64 573.808,455.973 573,459.5C 572.392,461.066 571.558,462.4 570.5,463.5C 571.984,458.967 572.65,454.301 572.5,449.5 Z"/></g>
<g><path style="opacity:1" fill="#dae4eb" d="M 639.5,449.5 C 639.698,452.906 638.698,455.906 636.5,458.5C 638.993,460.248 638.827,461.914 636,463.5C 635.692,462.692 635.192,462.025 634.5,461.5C 633.943,463.332 632.943,464.665 631.5,465.5C 633.643,459.88 636.31,454.547 639.5,449.5 Z"/></g>
<g><path style="opacity:1" fill="#fff5d3" d="M 713.5,463.5 C 712.211,467.044 710.544,470.377 708.5,473.5C 707.078,474.925 705.411,475.925 703.5,476.5C 706.892,472.121 710.226,467.787 713.5,463.5 Z"/></g>
<g><path style="opacity:1" fill="#f6d98a" d="M 777.5,463.5 C 778.167,465.167 778.833,466.833 779.5,468.5C 780.446,472.341 781.78,476.008 783.5,479.5C 781.665,478.878 780.498,477.544 780,475.5C 778.228,471.687 777.395,467.687 777.5,463.5 Z"/></g>
<g><path style="opacity:1" fill="#f6cf77" d="M 713.5,463.5 C 713.833,463.5 714.167,463.5 714.5,463.5C 714.532,468.089 712.532,471.423 708.5,473.5C 710.544,470.377 712.211,467.044 713.5,463.5 Z"/></g>
<g><path style="opacity:1" fill="#f4ce74" d="M 708.5,473.5 C 708.033,476.297 706.367,477.631 703.5,477.5C 703.5,477.167 703.5,476.833 703.5,476.5C 705.411,475.925 707.078,474.925 708.5,473.5 Z"/></g>
<g><path style="opacity:1" fill="#cbdce8" d="M 567.5,471.5 C 565.816,476.676 565.15,482.009 565.5,487.5C 563.865,483.012 563.531,478.346 564.5,473.5C 565.518,472.807 566.518,472.141 567.5,471.5 Z"/></g>
<g><path style="opacity:1" fill="#fef1c6" d="M 786.5,479.5 C 788.544,480.508 790.544,481.508 792.5,482.5C 791.167,482.5 789.833,482.5 788.5,482.5C 787.833,481.5 787.167,480.5 786.5,479.5 Z"/></g>
<g><path style="opacity:1" fill="#fff8d8" d="M 699.5,479.5 C 698.657,481.173 697.324,482.34 695.5,483C 692.832,483.567 690.166,484.067 687.5,484.5C 691.099,482.072 695.099,480.406 699.5,479.5 Z"/></g>
<g><path style="opacity:1" fill="#f4c660" d="M 699.5,479.5 C 700.833,479.5 702.167,479.5 703.5,479.5C 702.657,481.173 701.324,482.34 699.5,483C 695.687,484.772 691.687,485.605 687.5,485.5C 687.5,485.167 687.5,484.833 687.5,484.5C 690.166,484.067 692.832,483.567 695.5,483C 697.324,482.34 698.657,481.173 699.5,479.5 Z"/></g>
<g><path style="opacity:1" fill="#f9dc93" d="M 788.5,482.5 C 789.833,482.5 791.167,482.5 792.5,482.5C 795.004,483.584 797.337,484.917 799.5,486.5C 796.11,485.977 792.777,485.143 789.5,484C 788.944,483.617 788.611,483.117 788.5,482.5 Z"/></g>
<g><path style="opacity:1" fill="#fcf1c5" d="M 687.5,484.5 C 687.5,484.833 687.5,485.167 687.5,485.5C 687.5,485.833 687.5,486.167 687.5,486.5C 684.833,486.5 682.167,486.5 679.5,486.5C 681.838,484.96 684.505,484.294 687.5,484.5 Z"/></g>
<g><path style="opacity:1" fill="#a5becf" d="M 637.5,482.5 C 639.519,483.538 639.853,484.872 638.5,486.5C 633.518,487.053 628.518,487.387 623.5,487.5C 627.964,486.356 632.63,485.69 637.5,485.5C 637.5,484.5 637.5,483.5 637.5,482.5 Z"/></g>
<g><path style="opacity:1" fill="#fef4d0" d="M 671.5,487.5 C 661.097,489.779 650.431,490.779 639.5,490.5C 642.598,489.179 646.098,488.512 650,488.5C 657.169,488.136 664.336,487.803 671.5,487.5 Z"/></g>
<g><path style="opacity:1" fill="#e6f2f9" d="M 638.5,486.5 C 630.803,487.745 623.136,489.078 615.5,490.5C 612.833,490.5 610.167,490.5 607.5,490.5C 594.989,490.829 582.655,490.495 570.5,489.5C 588.218,489.877 605.884,489.21 623.5,487.5C 628.518,487.387 633.518,487.053 638.5,486.5 Z"/></g>
<g><path style="opacity:1" fill="#fcebb9" d="M 799.5,486.5 C 801.527,486.338 803.527,486.505 805.5,487C 807.391,488.442 809.391,489.609 811.5,490.5C 811.5,493.167 811.5,495.833 811.5,498.5C 810.869,496.097 809.869,493.764 808.5,491.5C 805.567,489.538 802.567,487.871 799.5,486.5 Z"/></g>
<g><path style="opacity:1" fill="#fef6d4" d="M 607.5,490.5 C 610.167,490.5 612.833,490.5 615.5,490.5C 623.5,490.5 631.5,490.5 639.5,490.5C 639.5,490.833 639.5,491.167 639.5,491.5C 628.624,491.242 617.958,491.909 607.5,493.5C 602.167,493.5 596.833,493.5 591.5,493.5C 587.833,493.5 584.167,493.5 580.5,493.5C 589.552,492.974 598.552,491.974 607.5,490.5 Z"/></g>
<g><path style="opacity:1" fill="#f3c65c" d="M 679.5,486.5 C 682.167,486.5 684.833,486.5 687.5,486.5C 683.937,488.317 679.937,489.483 675.5,490C 663.507,491 651.507,491.833 639.5,492.5C 639.5,492.167 639.5,491.833 639.5,491.5C 639.5,491.167 639.5,490.833 639.5,490.5C 650.431,490.779 661.097,489.779 671.5,487.5C 674.385,487.806 677.052,487.473 679.5,486.5 Z"/></g>
<g><path style="opacity:1" fill="#f1d07f" d="M 639.5,491.5 C 639.5,491.833 639.5,492.167 639.5,492.5C 630.491,492.626 621.491,492.959 612.5,493.5C 610.833,493.5 609.167,493.5 607.5,493.5C 617.958,491.909 628.624,491.242 639.5,491.5 Z"/></g>
<g><path style="opacity:1" fill="#f9f3ce" d="M 580.5,493.5 C 577.833,494.167 575.167,494.833 572.5,495.5C 572.167,495.5 571.833,495.5 571.5,495.5C 567.5,495.5 563.5,495.5 559.5,495.5C 566.262,493.847 573.262,493.18 580.5,493.5 Z"/></g>
<g><path style="opacity:1" fill="#f6dd9e" d="M 580.5,493.5 C 584.167,493.5 587.833,493.5 591.5,493.5C 588.167,494.167 584.833,494.833 581.5,495.5C 579.5,495.5 577.5,495.5 575.5,495.5C 574.5,495.5 573.5,495.5 572.5,495.5C 575.167,494.833 577.833,494.167 580.5,493.5 Z"/></g>
<g><path style="opacity:1" fill="#f3c45c" d="M 591.5,493.5 C 596.833,493.5 602.167,493.5 607.5,493.5C 609.167,493.5 610.833,493.5 612.5,493.5C 602.379,495.125 592.046,495.792 581.5,495.5C 584.833,494.833 588.167,494.167 591.5,493.5 Z"/></g>
<g><path style="opacity:1" fill="#f1c970" d="M 550.5,495.5 C 553.5,495.5 556.5,495.5 559.5,495.5C 563.5,495.5 567.5,495.5 571.5,495.5C 560.653,496.918 549.653,498.085 538.5,499C 536.25,501.928 535.916,505.094 537.5,508.5C 537.167,508.5 536.833,508.5 536.5,508.5C 534.989,504.748 535.323,501.081 537.5,497.5C 541.982,496.833 546.316,496.166 550.5,495.5 Z"/></g>
<g><path style="opacity:1" fill="#f5c14d" d="M 571.5,495.5 C 571.833,495.5 572.167,495.5 572.5,495.5C 573.5,495.5 574.5,495.5 575.5,495.5C 575.586,496.496 575.252,497.329 574.5,498C 562.776,498.087 551.11,498.754 539.5,500C 537.536,502.167 537.202,504.501 538.5,507C 561.456,508.447 584.456,508.947 607.5,508.5C 602.36,509.488 597.026,509.821 591.5,509.5C 573.472,509.779 555.472,509.446 537.5,508.5C 535.916,505.094 536.25,501.928 538.5,499C 549.653,498.085 560.653,496.918 571.5,495.5 Z"/></g>
<g><path style="opacity:1" fill="#f7da90" d="M 663.5,505.5 C 703.331,504.335 743.331,504.169 783.5,505C 789.016,505.173 794.349,505.673 799.5,506.5C 788.833,506.5 778.167,506.5 767.5,506.5C 733.004,505.502 698.337,505.168 663.5,505.5 Z"/></g>
<g><path style="opacity:1" fill="#fdf5cf" d="M 550.5,495.5 C 546.316,496.166 541.982,496.833 537.5,497.5C 535.323,501.081 534.989,504.748 536.5,508.5C 537.833,509.167 539.167,509.833 540.5,510.5C 538.396,510.799 536.396,510.466 534.5,509.5C 532.734,504.683 533.401,500.35 536.5,496.5C 541.12,495.507 545.786,495.173 550.5,495.5 Z"/></g>
<g><path style="opacity:1" fill="#f4d584" d="M 811.5,498.5 C 812.477,501.287 812.81,504.287 812.5,507.5C 807.968,507.818 803.634,507.485 799.5,506.5C 803.5,506.5 807.5,506.5 811.5,506.5C 811.5,503.833 811.5,501.167 811.5,498.5 Z"/></g>
<g><path style="opacity:1" fill="#feecbd" d="M 663.5,505.5 C 698.337,505.168 733.004,505.502 767.5,506.5C 719.473,506.024 671.473,506.691 623.5,508.5C 618.167,508.5 612.833,508.5 607.5,508.5C 625.961,506.514 644.628,505.514 663.5,505.5 Z"/></g>
<g><path style="opacity:1" fill="#fef8e0" d="M 811.5,490.5 C 812.117,490.611 812.617,490.944 813,491.5C 813.187,498.081 813.687,504.581 814.5,511C 798.654,509.378 782.988,507.878 767.5,506.5C 778.167,506.5 788.833,506.5 799.5,506.5C 803.634,507.485 807.968,507.818 812.5,507.5C 812.81,504.287 812.477,501.287 811.5,498.5C 811.5,495.833 811.5,493.167 811.5,490.5 Z"/></g>
<g><path style="opacity:1" fill="#fae3a8" d="M 536.5,508.5 C 536.833,508.5 537.167,508.5 537.5,508.5C 555.472,509.446 573.472,509.779 591.5,509.5C 591.5,509.833 591.5,510.167 591.5,510.5C 574.501,511.813 557.501,511.813 540.5,510.5C 539.167,509.833 537.833,509.167 536.5,508.5 Z"/></g>
<g><path style="opacity:1" fill="#fff7d3" d="M 607.5,508.5 C 612.833,508.5 618.167,508.5 623.5,508.5C 613.042,510.091 602.376,510.758 591.5,510.5C 591.5,510.167 591.5,509.833 591.5,509.5C 597.026,509.821 602.36,509.488 607.5,508.5 Z"/></g>
</svg>
