<?xml version="1.0" encoding="UTF-8"?>
<!DOCTYPE svg PUBLIC "-//W3C//DTD SVG 1.1//EN" "http://www.w3.org/Graphics/SVG/1.1/DTD/svg11.dtd">
<svg xmlns="http://www.w3.org/2000/svg" version="1.1" width="770px" height="480px" style="shape-rendering:geometricPrecision; text-rendering:geometricPrecision; image-rendering:optimizeQuality; fill-rule:evenodd; clip-rule:evenodd" xmlns:xlink="http://www.w3.org/1999/xlink">
<g><path style="opacity:1" fill="#ebc118" d="M -0.5,-0.5 C 256.167,-0.5 512.833,-0.5 769.5,-0.5C 769.5,119.833 769.5,240.167 769.5,360.5C 728.833,360.5 688.167,360.5 647.5,360.5C 647.5,329.833 647.5,299.167 647.5,268.5C 603.5,268.5 559.5,268.5 515.5,268.5C 515.5,299.167 515.5,329.833 515.5,360.5C 493.833,360.5 472.167,360.5 450.5,360.5C 450.5,329.833 450.5,299.167 450.5,268.5C 406.5,268.5 362.5,268.5 318.5,268.5C 318.5,299.167 318.5,329.833 318.5,360.5C 296.833,360.5 275.167,360.5 253.5,360.5C 253.5,329.833 253.5,299.167 253.5,268.5C 209.5,268.5 165.5,268.5 121.5,268.5C 121.5,299.167 121.5,329.833 121.5,360.5C 80.8333,360.5 40.1667,360.5 -0.5,360.5C -0.5,240.167 -0.5,119.833 -0.5,-0.5 Z"/></g>
<g><path style="opacity:1" fill="#120909" d="M 603.5,121.5 C 604.833,121.5 606.167,121.5 607.5,121.5C 607.5,142.167 607.5,162.833 607.5,183.5C 606.167,183.5 604.833,183.5 603.5,183.5C 603.5,162.833 603.5,142.167 603.5,121.5 Z"/></g>
<g><path style="opacity:1" fill="#100c0b" d="M 170.5,104.5 C 197.376,111.625 224.042,119.459 250.5,128C 252.81,129.637 254.31,131.804 255,134.5C 255.667,152.167 255.667,169.833 255,187.5C 252.832,194.836 247.999,197.336 240.5,195C 237.177,194.517 234.51,193.017 232.5,190.5C 233,189.119 234,188.453 235.5,188.5C 239.406,189.98 243.406,190.48 247.5,190C 248.333,189.167 249.167,188.333 250,187.5C 250.667,169.833 250.667,152.167 250,134.5C 249.167,133.667 248.333,132.833 247.5,132C 222.522,124.437 197.522,116.937 172.5,109.5C 170.617,109.876 169.117,110.876 168,112.5C 167.5,125.162 167.333,137.829 167.5,150.5C 165.856,150.714 164.356,150.38 163,149.5C 162.333,137.167 162.333,124.833 163,112.5C 164.353,108.65 166.853,105.983 170.5,104.5 Z"/></g>
<g><path style="opacity:1" fill="#070708" d="M 217.5,138.5 C 220.961,138.146 223.461,139.479 225,142.5C 225.667,162.167 225.667,181.833 225,201.5C 220.837,205.747 217.171,205.414 214,200.5C 213.333,181.167 213.333,161.833 214,142.5C 214.69,140.65 215.856,139.316 217.5,138.5 Z"/></g>
<g><path style="opacity:1" fill="#19130f" d="M 359.5,137.5 C 378.753,138.941 386.586,149.275 383,168.5C 378.585,181.797 369.419,186.964 355.5,184C 348.165,181.33 343.665,176.163 342,168.5C 338.611,152.583 344.444,142.25 359.5,137.5 Z"/></g>
<g><path style="opacity:1" fill="#eac11b" d="M 358.5,141.5 C 368.146,140.071 374.979,143.738 379,152.5C 380.291,160.509 379.291,168.176 376,175.5C 370.574,180.817 364.074,182.651 356.5,181C 345.971,174.742 342.471,165.575 346,153.5C 348.145,147.184 352.312,143.184 358.5,141.5 Z"/></g>
<g><path style="opacity:1" fill="#080808" d="M 199.5,145.5 C 202.652,144.959 205.152,145.959 207,148.5C 207.667,164.167 207.667,179.833 207,195.5C 202.939,199.737 199.272,199.403 196,194.5C 195.333,179.5 195.333,164.5 196,149.5C 196.69,147.65 197.856,146.316 199.5,145.5 Z"/></g>
<g><path style="opacity:1" fill="#160f0d" d="M 470.5,137.5 C 485.098,138.627 491.765,146.627 490.5,161.5C 479.5,161.5 468.5,161.5 457.5,161.5C 459.07,181.123 468.737,186.456 486.5,177.5C 487.583,178.365 487.749,179.365 487,180.5C 478.227,185.524 469.394,185.691 460.5,181C 452.275,169.733 451.441,157.9 458,145.5C 461.367,141.41 465.533,138.744 470.5,137.5 Z"/></g>
<g><path style="opacity:1" fill="#e4bd21" d="M 467.5,141.5 C 480.466,139.801 486.799,145.467 486.5,158.5C 476.833,158.5 467.167,158.5 457.5,158.5C 458.028,151.102 461.361,145.435 467.5,141.5 Z"/></g>
<g><path style="opacity:1" fill="#120e0c" d="M 502.5,182.5 C 502.5,168.167 502.5,153.833 502.5,139.5C 503.5,139.5 504.5,139.5 505.5,139.5C 505.337,141.857 505.503,144.19 506,146.5C 508.511,143.657 511.344,141.157 514.5,139C 517.167,138.333 519.833,138.333 522.5,139C 523.337,140.011 523.67,141.178 523.5,142.5C 517.15,140.02 512.317,141.687 509,147.5C 507.592,151.057 506.592,154.724 506,158.5C 505.5,166.827 505.334,175.16 505.5,183.5C 504.209,183.737 503.209,183.404 502.5,182.5 Z"/></g>
<g><path style="opacity:1" fill="#17110d" d="M 554.5,120.5 C 561.563,120.212 568.563,120.712 575.5,122C 584.771,124.695 588.271,130.861 586,140.5C 584.028,144.972 580.862,148.305 576.5,150.5C 589.872,155.777 593.038,164.777 586,177.5C 583.436,179.727 580.603,181.561 577.5,183C 569.841,183.5 562.174,183.666 554.5,183.5C 554.5,162.5 554.5,141.5 554.5,120.5 Z"/></g>
<g><path style="opacity:1" fill="#e8bf1f" d="M 558.5,153.5 C 564.509,153.334 570.509,153.501 576.5,154C 585.393,157.963 587.893,164.463 584,173.5C 581.736,176.433 578.902,178.6 575.5,180C 569.843,180.499 564.176,180.666 558.5,180.5C 558.5,171.5 558.5,162.5 558.5,153.5 Z"/></g>
<g><path style="opacity:1" fill="#e9c01e" d="M 558.5,124.5 C 563.844,124.334 569.177,124.501 574.5,125C 581.378,127.935 583.878,133.102 582,140.5C 580.412,145.052 577.245,147.885 572.5,149C 567.845,149.499 563.179,149.666 558.5,149.5C 558.5,141.167 558.5,132.833 558.5,124.5 Z"/></g>
<g><path style="opacity:1" fill="#17120f" d="M 301.5,120.5 C 310.303,120.027 318.97,120.861 327.5,123C 334.848,127.874 337.682,134.707 336,143.5C 333.512,152.318 327.679,157.151 318.5,158C 314.179,158.499 309.846,158.666 305.5,158.5C 305.5,166.833 305.5,175.167 305.5,183.5C 304.167,183.5 302.833,183.5 301.5,183.5C 301.5,162.5 301.5,141.5 301.5,120.5 Z"/></g>
<g><path style="opacity:1" fill="#e9c11c" d="M 305.5,124.5 C 310.844,124.334 316.177,124.501 321.5,125C 330.889,128.28 334.056,134.78 331,144.5C 329.735,150.062 326.235,153.228 320.5,154C 315.511,154.499 310.511,154.666 305.5,154.5C 305.5,144.5 305.5,134.5 305.5,124.5 Z"/></g>
<g><path style="opacity:1" fill="#080908" d="M 180.5,152.5 C 183.97,151.875 186.804,152.875 189,155.5C 189.667,166.5 189.667,177.5 189,188.5C 184.414,192.937 180.748,192.271 178,186.5C 177.333,176.5 177.333,166.5 178,156.5C 179.481,155.529 180.315,154.196 180.5,152.5 Z"/></g>
<g><path style="opacity:1" fill="#110e0b" d="M 162.5,158.5 C 167.133,157.458 170.299,159.125 172,163.5C 172.667,168.833 172.667,174.167 172,179.5C 171.287,183.046 169.12,185.046 165.5,185.5C 162.896,184.731 161.062,183.064 160,180.5C 159.333,174.5 159.333,168.5 160,162.5C 160.662,161.016 161.496,159.683 162.5,158.5 Z"/></g>
<g><path style="opacity:1" fill="#9b8f64" d="M 505.5,139.5 C 504.5,139.5 503.5,139.5 502.5,139.5C 502.5,153.833 502.5,168.167 502.5,182.5C 501.504,168.01 501.171,153.343 501.5,138.5C 503.099,138.232 504.432,138.566 505.5,139.5 Z"/></g>
<g><path style="opacity:1" fill="#19130f" d="M 390.5,139.5 C 391.833,139.5 393.167,139.5 394.5,139.5C 398.297,152.062 401.797,164.729 405,177.5C 409.578,165.429 413.578,153.096 417,140.5C 418.333,139.167 419.667,139.167 421,140.5C 424.401,152.868 427.901,165.202 431.5,177.5C 436.106,165.071 439.773,152.404 442.5,139.5C 443.833,139.5 445.167,139.5 446.5,139.5C 442.174,154.157 437.84,168.824 433.5,183.5C 432.167,183.5 430.833,183.5 429.5,183.5C 426.509,171.36 423.009,159.36 419,147.5C 414.556,159.268 410.722,171.268 407.5,183.5C 405.856,183.714 404.356,183.38 403,182.5C 398.674,168.193 394.507,153.86 390.5,139.5 Z"/></g>
<g><path style="opacity:1" fill="#fdfdfc" d="M 253.5,360.5 C 253.5,373.5 253.5,386.5 253.5,399.5C 209.5,399.5 165.5,399.5 121.5,399.5C 121.5,386.5 121.5,373.5 121.5,360.5C 121.5,329.833 121.5,299.167 121.5,268.5C 165.5,268.5 209.5,268.5 253.5,268.5C 253.5,299.167 253.5,329.833 253.5,360.5 Z"/></g>
<g><path style="opacity:1" fill="#fefefd" d="M 450.5,360.5 C 450.5,373.5 450.5,386.5 450.5,399.5C 406.5,399.5 362.5,399.5 318.5,399.5C 318.5,386.5 318.5,373.5 318.5,360.5C 318.5,329.833 318.5,299.167 318.5,268.5C 362.5,268.5 406.5,268.5 450.5,268.5C 450.5,299.167 450.5,329.833 450.5,360.5 Z"/></g>
<g><path style="opacity:1" fill="#fefdfd" d="M 647.5,360.5 C 647.5,373.5 647.5,386.5 647.5,399.5C 603.5,399.5 559.5,399.5 515.5,399.5C 515.5,386.5 515.5,373.5 515.5,360.5C 515.5,329.833 515.5,299.167 515.5,268.5C 559.5,268.5 603.5,268.5 647.5,268.5C 647.5,299.167 647.5,329.833 647.5,360.5 Z"/></g>
<g><path style="opacity:1" fill="#40403f" d="M 342.5,285.5 C 342.5,314.167 342.5,342.833 342.5,371.5C 372.5,371.5 402.5,371.5 432.5,371.5C 437.42,373.974 437.753,377.141 433.5,381C 400.833,381.667 368.167,381.667 335.5,381C 334.667,380.167 333.833,379.333 333,378.5C 332.333,347.167 332.333,315.833 333,284.5C 336.579,281.627 339.745,281.96 342.5,285.5 Z"/></g>
<g><path style="opacity:1" fill="#adaaa9" d="M 342.5,285.5 C 343.498,313.662 343.831,341.995 343.5,370.5C 373.338,370.169 403.005,370.502 432.5,371.5C 402.5,371.5 372.5,371.5 342.5,371.5C 342.5,342.833 342.5,314.167 342.5,285.5 Z"/></g>
<g><path style="opacity:1" fill="#f2ca13" d="M 199.5,293.5 C 219.962,296.962 231.629,308.962 234.5,329.5C 234.5,331.5 234.5,333.5 234.5,335.5C 221.167,335.5 207.833,335.5 194.5,335.5C 194.5,321.5 194.5,307.5 194.5,293.5C 196.167,293.5 197.833,293.5 199.5,293.5 Z"/></g>
<g><path style="opacity:1" fill="#f2ca14" d="M 430.5,293.5 C 431.497,315.66 431.831,337.994 431.5,360.5C 405.833,360.5 380.167,360.5 354.5,360.5C 354.17,353.468 354.503,346.468 355.5,339.5C 359.811,342.643 363.978,345.977 368,349.5C 374.081,338.337 380.414,327.337 387,316.5C 392.333,323.167 397.667,329.833 403,336.5C 412.177,322.138 421.344,307.805 430.5,293.5 Z"/></g>
<g><path style="opacity:1" fill="#f4d661" d="M 199.5,293.5 C 197.833,293.5 196.167,293.5 194.5,293.5C 194.5,307.5 194.5,321.5 194.5,335.5C 194.167,335.5 193.833,335.5 193.5,335.5C 193.5,321.167 193.5,306.833 193.5,292.5C 195.735,292.205 197.735,292.539 199.5,293.5 Z"/></g>
<g><path style="opacity:1" fill="#f9e5a5" d="M 354.5,360.5 C 380.167,360.5 405.833,360.5 431.5,360.5C 431.831,337.994 431.497,315.66 430.5,293.5C 430.783,292.711 431.283,292.044 432,291.5C 432.5,314.831 432.667,338.164 432.5,361.5C 406.328,361.831 380.328,361.498 354.5,360.5 Z"/></g>
<g><path style="opacity:1" fill="#f2ca15" d="M 636.5,323.5 C 633.167,324.167 629.833,324.833 626.5,325.5C 625.504,340.324 625.171,355.324 625.5,370.5C 617.833,370.5 610.167,370.5 602.5,370.5C 602.829,355.324 602.496,340.324 601.5,325.5C 597.486,325.666 593.486,325.499 589.5,325C 597.343,315.66 605.343,306.493 613.5,297.5C 621.189,306.186 628.856,314.853 636.5,323.5 Z"/></g>
<g><path style="opacity:1" fill="#3f3f3e" d="M 175.5,303.5 C 178.833,303.5 182.167,303.5 185.5,303.5C 185.5,317.833 185.5,332.167 185.5,346.5C 199.183,346.167 212.85,346.501 226.5,347.5C 221.139,375.023 204.472,387.523 176.5,385C 152.188,376.891 141.688,360.058 145,334.5C 150.017,318.984 160.184,308.65 175.5,303.5 Z"/></g>
<g><path style="opacity:1" fill="#f8e29a" d="M 636.5,323.5 C 637.043,323.56 637.376,323.893 637.5,324.5C 633.893,325.489 630.226,325.823 626.5,325.5C 629.833,324.833 633.167,324.167 636.5,323.5 Z"/></g>
<g><path style="opacity:1" fill="#f5d86d" d="M 601.5,325.5 C 602.496,340.324 602.829,355.324 602.5,370.5C 610.167,370.5 617.833,370.5 625.5,370.5C 625.171,355.324 625.504,340.324 626.5,325.5C 626.5,340.833 626.5,356.167 626.5,371.5C 618.167,371.5 609.833,371.5 601.5,371.5C 601.5,356.167 601.5,340.833 601.5,325.5 Z"/></g>
<g><path style="opacity:1" fill="#8a8687" d="M 593.5,334.5 C 585.5,334.5 577.5,334.5 569.5,334.5C 569.5,346.833 569.5,359.167 569.5,371.5C 568.505,359.011 568.171,346.344 568.5,333.5C 577.017,333.174 585.35,333.507 593.5,334.5 Z"/></g>
<g><path style="opacity:1" fill="#403f3f" d="M 593.5,334.5 C 593.5,346.833 593.5,359.167 593.5,371.5C 585.5,371.5 577.5,371.5 569.5,371.5C 569.5,359.167 569.5,346.833 569.5,334.5C 577.5,334.5 585.5,334.5 593.5,334.5 Z"/></g>
<g><path style="opacity:1" fill="#f8e194" d="M 234.5,329.5 C 235.468,331.607 235.802,333.941 235.5,336.5C 221.323,336.829 207.323,336.496 193.5,335.5C 193.833,335.5 194.167,335.5 194.5,335.5C 207.833,335.5 221.167,335.5 234.5,335.5C 234.5,333.5 234.5,331.5 234.5,329.5 Z"/></g>
<g><path style="opacity:1" fill="#f2ca17" d="M 535.5,352.5 C 543.5,352.5 551.5,352.5 559.5,352.5C 559.5,358.833 559.5,365.167 559.5,371.5C 551.5,371.5 543.5,371.5 535.5,371.5C 535.5,365.167 535.5,358.833 535.5,352.5 Z"/></g>
<g><path style="opacity:1" fill="#515151" d="M -0.5,360.5 C 40.1667,360.5 80.8333,360.5 121.5,360.5C 121.5,373.5 121.5,386.5 121.5,399.5C 165.5,399.5 209.5,399.5 253.5,399.5C 253.5,386.5 253.5,373.5 253.5,360.5C 275.167,360.5 296.833,360.5 318.5,360.5C 318.5,373.5 318.5,386.5 318.5,399.5C 362.5,399.5 406.5,399.5 450.5,399.5C 450.5,386.5 450.5,373.5 450.5,360.5C 472.167,360.5 493.833,360.5 515.5,360.5C 515.5,373.5 515.5,386.5 515.5,399.5C 559.5,399.5 603.5,399.5 647.5,399.5C 647.5,386.5 647.5,373.5 647.5,360.5C 688.167,360.5 728.833,360.5 769.5,360.5C 769.5,400.167 769.5,439.833 769.5,479.5C 512.833,479.5 256.167,479.5 -0.5,479.5C -0.5,439.833 -0.5,400.167 -0.5,360.5 Z"/></g>
<g><path style="opacity:1" fill="#444442" d="M 535.5,376.5 C 565.833,376.5 596.167,376.5 626.5,376.5C 626.5,379.833 626.5,383.167 626.5,386.5C 596.167,386.5 565.833,386.5 535.5,386.5C 535.5,383.167 535.5,379.833 535.5,376.5 Z"/></g>
</svg>
