<?xml version="1.0" encoding="UTF-8"?>
<!DOCTYPE svg PUBLIC "-//W3C//DTD SVG 1.1//EN" "http://www.w3.org/Graphics/SVG/1.1/DTD/svg11.dtd">
<svg xmlns="http://www.w3.org/2000/svg" version="1.1" width="1122px" height="1135px" style="shape-rendering:geometricPrecision; text-rendering:geometricPrecision; image-rendering:optimizeQuality; fill-rule:evenodd; clip-rule:evenodd" xmlns:xlink="http://www.w3.org/1999/xlink">
<g><path style="opacity:0.997" fill="#e7e7e7" d="M 826.5,156.5 C 824.423,165.001 820.923,173.001 816,180.5C 808.268,189.733 799.768,198.066 790.5,205.5C 779.517,212.328 768.184,218.662 756.5,224.5C 747.099,228.539 737.765,232.539 728.5,236.5C 717.948,239.463 707.615,242.796 697.5,246.5C 683.991,249.544 670.658,252.877 657.5,256.5C 643.799,258.676 630.133,261.009 616.5,263.5C 598.21,265.911 579.877,267.911 561.5,269.5C 522.893,272.135 484.226,273.135 445.5,272.5C 424.813,271.498 404.147,270.165 383.5,268.5C 370.647,266.739 357.647,265.072 344.5,263.5C 331.711,260.716 318.711,258.383 305.5,256.5C 293.369,253.136 281.036,250.136 268.5,247.5C 253.188,242.395 237.855,237.061 222.5,231.5C 209.062,225.615 196.062,218.948 183.5,211.5C 176.222,206.888 169.222,201.888 162.5,196.5C 150.362,185.542 142.362,172.208 138.5,156.5C 137.342,134.314 145.342,116.148 162.5,102C 183.001,85.7426 205.667,73.0759 230.5,64C 289.789,43.5062 350.789,31.5062 413.5,28C 485.831,23.2472 557.831,26.2472 629.5,37C 666.406,42.8931 702.406,52.2265 737.5,65C 758.829,72.8272 778.496,83.4939 796.5,97C 814.593,110.195 824.927,127.861 827.5,150C 826.577,152.041 826.244,154.208 826.5,156.5 Z"/></g>
<g><path style="opacity:1" fill="#50e5fe" d="M 690.5,187.5 C 622.597,166.469 552.93,157.135 481.5,159.5C 428.416,157.529 376.082,162.695 324.5,175C 307.641,179.012 290.975,183.512 274.5,188.5C 262.135,183.2 250.135,177.034 238.5,170C 211.525,148.905 211.858,128.238 239.5,108C 271.017,90.3821 304.684,78.7155 340.5,73C 406.395,61.6625 472.729,58.3291 539.5,63C 581.064,65.7947 622.064,72.128 662.5,82C 687.399,88.2861 710.399,98.6195 731.5,113C 751.76,131.271 751.426,149.271 730.5,167C 718.146,175.677 704.812,182.511 690.5,187.5 Z"/></g>
<g><path style="opacity:1" fill="#1b8ab3" d="M 690.5,187.5 C 675.997,191.671 661.663,196.005 647.5,200.5C 576.456,216.6 504.456,222.433 431.5,218C 378.619,215.52 326.952,206.353 276.5,190.5C 275.287,190.253 274.62,189.586 274.5,188.5C 290.975,183.512 307.641,179.012 324.5,175C 376.082,162.695 428.416,157.529 481.5,159.5C 552.93,157.135 622.597,166.469 690.5,187.5 Z"/></g>
<g><path style="opacity:1" fill="#005da4" d="M 826.5,156.5 C 827.293,325.555 827.626,499.555 827.5,678.5C 827.167,678.5 826.833,678.5 826.5,678.5C 814.5,678.5 802.5,678.5 790.5,678.5C 790.5,520.833 790.5,363.167 790.5,205.5C 799.768,198.066 808.268,189.733 816,180.5C 820.923,173.001 824.423,165.001 826.5,156.5 Z"/></g>
<g><path style="opacity:0.999" fill="#005ca3" d="M 138.5,156.5 C 142.362,172.208 150.362,185.542 162.5,196.5C 162.333,414.834 162.5,633.167 163,851.5C 164.38,852.256 164.547,852.922 163.5,853.5C 151.344,843.867 143.177,831.534 139,816.5C 138.5,596.5 138.333,376.5 138.5,156.5 Z"/></g>
<g><path style="opacity:1" fill="#6ed6ec" d="M 690.5,187.5 C 676.681,193.215 662.348,197.548 647.5,200.5C 661.663,196.005 675.997,191.671 690.5,187.5 Z"/></g>
<g><path style="opacity:1" fill="#005ea6" d="M 162.5,196.5 C 169.222,201.888 176.222,206.888 183.5,211.5C 183.833,430.334 183.5,649.001 182.5,867.5C 175.595,863.554 169.262,858.887 163.5,853.5C 164.547,852.922 164.38,852.256 163,851.5C 162.5,633.167 162.333,414.834 162.5,196.5 Z"/></g>
<g><path style="opacity:1" fill="#0061ac" d="M 790.5,205.5 C 790.5,363.167 790.5,520.833 790.5,678.5C 802.5,678.5 814.5,678.5 826.5,678.5C 793.995,679.717 761.328,679.717 728.5,678.5C 728.5,667.167 728.5,655.833 728.5,644.5C 744.167,644.5 759.833,644.5 775.5,644.5C 775.5,631.5 775.5,618.5 775.5,605.5C 769.167,605.5 762.833,605.5 756.5,605.5C 756.5,478.5 756.5,351.5 756.5,224.5C 768.184,218.662 779.517,212.328 790.5,205.5 Z"/></g>
<g><path style="opacity:0.999" fill="#0061ab" d="M 183.5,211.5 C 196.062,218.948 209.062,225.615 222.5,231.5C 222.333,449.834 222.5,668.167 223,886.5C 223.995,887.066 224.828,887.733 225.5,888.5C 210.187,883.343 195.854,876.343 182.5,867.5C 183.5,649.001 183.833,430.334 183.5,211.5 Z"/></g>
<g><path style="opacity:1" fill="#0065b2" d="M 756.5,224.5 C 756.5,351.5 756.5,478.5 756.5,605.5C 747.167,605.5 737.833,605.5 728.5,605.5C 728.5,482.5 728.5,359.5 728.5,236.5C 737.765,232.539 747.099,228.539 756.5,224.5 Z"/></g>
<g><path style="opacity:1" fill="#0068b8" d="M 728.5,236.5 C 728.5,359.5 728.5,482.5 728.5,605.5C 718.833,605.5 709.167,605.5 699.5,605.5C 700.165,485.495 699.498,365.829 697.5,246.5C 707.615,242.796 717.948,239.463 728.5,236.5 Z"/></g>
<g><path style="opacity:1" fill="#006bbe" d="M 697.5,246.5 C 699.498,365.829 700.165,485.495 699.5,605.5C 697.167,605.5 694.833,605.5 692.5,605.5C 692.5,545.167 692.5,484.833 692.5,424.5C 681.167,424.5 669.833,424.5 658.5,424.5C 658.832,368.331 658.499,312.331 657.5,256.5C 670.658,252.877 683.991,249.544 697.5,246.5 Z"/></g>
<g><path style="opacity:1" fill="#0068b8" d="M 268.5,247.5 C 281.036,250.136 293.369,253.136 305.5,256.5C 305.5,311.5 305.5,366.5 305.5,421.5C 310.363,421.181 315.03,421.514 319.5,422.5C 308.495,422.333 297.495,422.5 286.5,423C 280.404,424.2 274.404,425.7 268.5,427.5C 267.167,367.5 267.167,307.5 268.5,247.5 Z"/></g>
<g><path style="opacity:1" fill="#006fc4" d="M 657.5,256.5 C 658.499,312.331 658.832,368.331 658.5,424.5C 653.305,424.179 648.305,424.513 643.5,425.5C 643.5,498.5 643.5,571.5 643.5,644.5C 662.167,644.5 680.833,644.5 699.5,644.5C 699.5,655.833 699.5,667.167 699.5,678.5C 675.514,679.261 651.514,679.761 627.5,680C 623.769,681.011 621.102,683.177 619.5,686.5C 618.778,686.918 618.278,687.584 618,688.5C 617.502,691.482 617.335,694.482 617.5,697.5C 617.5,703.167 617.5,708.833 617.5,714.5C 617.5,717.5 617.5,720.5 617.5,723.5C 617.5,727.167 617.5,730.833 617.5,734.5C 617.5,740.5 617.5,746.5 617.5,752.5C 617.5,756.5 617.5,760.5 617.5,764.5C 617.5,774.167 617.5,783.833 617.5,793.5C 617.5,816.167 617.5,838.833 617.5,861.5C 617.5,872.5 617.5,883.5 617.5,894.5C 617.5,903.5 617.5,912.5 617.5,921.5C 615.5,921.5 613.5,921.5 611.5,921.5C 612.919,920.549 614.585,920.216 616.5,920.5C 616.5,701.5 616.5,482.5 616.5,263.5C 630.133,261.009 643.799,258.676 657.5,256.5 Z"/></g>
<g><path style="opacity:1" fill="#006bbe" d="M 305.5,256.5 C 318.711,258.383 331.711,260.716 344.5,263.5C 344.171,317.905 344.505,372.238 345.5,426.5C 336.971,424.329 328.304,422.996 319.5,422.5C 315.03,421.514 310.363,421.181 305.5,421.5C 305.5,366.5 305.5,311.5 305.5,256.5 Z"/></g>
<g><path style="opacity:0.999" fill="#006fc4" d="M 344.5,263.5 C 357.647,265.072 370.647,266.739 383.5,268.5C 382.167,487.402 382.167,706.402 383.5,925.5C 370.319,923.897 357.319,921.897 344.5,919.5C 344.5,824.833 344.5,730.167 344.5,635.5C 354.749,628.366 361.582,618.699 365,606.5C 370.137,584.971 366.47,565.304 354,547.5C 350.333,544.999 347.166,541.999 344.5,538.5C 344.169,515.327 344.502,492.327 345.5,469.5C 350.339,471.17 354.839,473.503 359,476.5C 359.5,461.17 359.667,445.837 359.5,430.5C 354.728,429.474 350.061,428.141 345.5,426.5C 344.505,372.238 344.171,317.905 344.5,263.5 Z"/></g>
<g><path style="opacity:0.999" fill="#0173cb" d="M 616.5,263.5 C 616.5,482.5 616.5,701.5 616.5,920.5C 614.585,920.216 612.919,920.549 611.5,921.5C 595.293,924.234 578.96,925.9 562.5,926.5C 561.501,851.335 561.167,776.002 561.5,700.5C 574.85,700.833 588.183,700.499 601.5,699.5C 601.043,698.702 600.376,698.369 599.5,698.5C 578.397,679.903 557.397,661.069 536.5,642C 570.962,630.202 593.128,606.702 603,571.5C 610.513,542.972 608.18,515.305 596,488.5C 587.969,470.405 576.136,455.405 560.5,443.5C 561.499,385.669 561.832,327.669 561.5,269.5C 579.877,267.911 598.21,265.911 616.5,263.5 Z"/></g>
<g><path style="opacity:0.999" fill="#0072ca" d="M 383.5,268.5 C 404.147,270.165 424.813,271.498 445.5,272.5C 445.5,326.833 445.5,381.167 445.5,435.5C 407.774,456.908 388.44,489.575 387.5,533.5C 387.022,566.587 398.022,595.087 420.5,619C 428.46,625.475 436.793,631.308 445.5,636.5C 445.5,734.167 445.5,831.833 445.5,929.5C 424.796,928.719 404.129,927.386 383.5,925.5C 382.167,706.402 382.167,487.402 383.5,268.5 Z"/></g>
<g><path style="opacity:1" fill="#0176d1" d="M 561.5,269.5 C 561.832,327.669 561.499,385.669 560.5,443.5C 534.513,426.757 506.179,420.924 475.5,426C 465.156,428.282 455.156,431.449 445.5,435.5C 445.5,381.167 445.5,326.833 445.5,272.5C 484.226,273.135 522.893,272.135 561.5,269.5 Z"/></g>
<g><path style="opacity:1" fill="#efeff0" d="M 560.5,443.5 C 576.136,455.405 587.969,470.405 596,488.5C 608.18,515.305 610.513,542.972 603,571.5C 593.128,606.702 570.962,630.202 536.5,642C 557.397,661.069 578.397,679.903 599.5,698.5C 578.673,699.497 557.673,699.831 536.5,699.5C 521.523,682.186 506.523,664.853 491.5,647.5C 475.612,646.123 460.279,642.456 445.5,636.5C 436.793,631.308 428.46,625.475 420.5,619C 398.022,595.087 387.022,566.587 387.5,533.5C 388.44,489.575 407.774,456.908 445.5,435.5C 455.156,431.449 465.156,428.282 475.5,426C 506.179,420.924 534.513,426.757 560.5,443.5 Z"/></g>
<g><path style="opacity:1" fill="#edeeee" d="M 643.5,425.5 C 659.5,425.5 675.5,425.5 691.5,425.5C 691.168,485.669 691.501,545.669 692.5,605.5C 694.833,605.5 697.167,605.5 699.5,605.5C 709.167,605.5 718.833,605.5 728.5,605.5C 737.833,605.5 747.167,605.5 756.5,605.5C 762.833,605.5 769.167,605.5 775.5,605.5C 775.5,618.5 775.5,631.5 775.5,644.5C 759.833,644.5 744.167,644.5 728.5,644.5C 718.833,644.5 709.167,644.5 699.5,644.5C 680.833,644.5 662.167,644.5 643.5,644.5C 643.5,571.5 643.5,498.5 643.5,425.5 Z"/></g>
<g><path style="opacity:1" fill="#046bbd" d="M 345.5,469.5 C 344.502,492.327 344.169,515.327 344.5,538.5C 331.538,528.064 317.205,519.897 301.5,514C 295.83,511.167 290.497,507.834 285.5,504C 273.694,494.623 271.528,483.457 279,470.5C 283.446,466.396 288.612,463.563 294.5,462C 305.869,461.207 317.202,461.54 328.5,463C 334.472,464.707 340.139,466.874 345.5,469.5 Z"/></g>
<g><path style="opacity:1" fill="#0277d1" d="M 487.5,461.5 C 513.772,459.314 532.605,469.981 544,493.5C 551.151,511.507 553.485,530.174 551,549.5C 549.425,567.903 541.925,583.403 528.5,596C 511.661,607.012 493.661,609.345 474.5,603C 459.419,595.915 449.252,584.415 444,568.5C 441.882,563.029 440.549,557.362 440,551.5C 435.407,525.572 440.407,501.905 455,480.5C 463.864,470.656 474.697,464.323 487.5,461.5 Z"/></g>
<g><path style="opacity:1" fill="#ececed" d="M 319.5,422.5 C 328.304,422.996 336.971,424.329 345.5,426.5C 350.061,428.141 354.728,429.474 359.5,430.5C 359.667,445.837 359.5,461.17 359,476.5C 354.839,473.503 350.339,471.17 345.5,469.5C 340.139,466.874 334.472,464.707 328.5,463C 317.202,461.54 305.869,461.207 294.5,462C 288.612,463.563 283.446,466.396 279,470.5C 271.528,483.457 273.694,494.623 285.5,504C 290.497,507.834 295.83,511.167 301.5,514C 317.205,519.897 331.538,528.064 344.5,538.5C 347.166,541.999 350.333,544.999 354,547.5C 366.47,565.304 370.137,584.971 365,606.5C 361.582,618.699 354.749,628.366 344.5,635.5C 332.355,642.548 319.355,647.215 305.5,649.5C 293.217,650.46 280.883,650.794 268.5,650.5C 255.165,648.02 242.165,644.02 229.5,638.5C 228.334,621.843 228.167,605.177 229,588.5C 249.338,606.055 272.838,612.889 299.5,609C 318.222,603.482 323.389,591.982 315,574.5C 309.114,569.613 302.947,565.113 296.5,561C 279.605,553.888 263.605,545.221 248.5,535C 224.23,513.829 218.397,488.329 231,458.5C 240.359,444.303 252.859,433.969 268.5,427.5C 274.404,425.7 280.404,424.2 286.5,423C 297.495,422.5 308.495,422.333 319.5,422.5 Z"/></g>
<g><path style="opacity:1" fill="#5396cd" d="M 643.5,425.5 C 648.305,424.513 653.305,424.179 658.5,424.5C 669.833,424.5 681.167,424.5 692.5,424.5C 692.5,484.833 692.5,545.167 692.5,605.5C 691.501,545.669 691.168,485.669 691.5,425.5C 675.5,425.5 659.5,425.5 643.5,425.5 Z"/></g>
<g><path style="opacity:0.999" fill="#006bbe" d="M 344.5,635.5 C 344.5,730.167 344.5,824.833 344.5,919.5C 331.206,918.119 318.206,915.786 305.5,912.5C 305.5,824.833 305.5,737.167 305.5,649.5C 319.355,647.215 332.355,642.548 344.5,635.5 Z"/></g>
<g><path style="opacity:0.999" fill="#0165b2" d="M 222.5,231.5 C 237.855,237.061 253.188,242.395 268.5,247.5C 267.167,307.5 267.167,367.5 268.5,427.5C 252.859,433.969 240.359,444.303 231,458.5C 218.397,488.329 224.23,513.829 248.5,535C 263.605,545.221 279.605,553.888 296.5,561C 302.947,565.113 309.114,569.613 315,574.5C 323.389,591.982 318.222,603.482 299.5,609C 272.838,612.889 249.338,606.055 229,588.5C 228.167,605.177 228.334,621.843 229.5,638.5C 242.165,644.02 255.165,648.02 268.5,650.5C 267.501,734.665 267.167,818.998 267.5,903.5C 253.093,899.406 239.093,894.406 225.5,888.5C 224.828,887.733 223.995,887.066 223,886.5C 222.5,668.167 222.333,449.834 222.5,231.5 Z"/></g>
<g><path style="opacity:0.967" fill="#0066b7" d="M 699.5,644.5 C 709.167,644.5 718.833,644.5 728.5,644.5C 728.5,655.833 728.5,667.167 728.5,678.5C 761.328,679.717 793.995,679.717 826.5,678.5C 826.833,678.5 827.167,678.5 827.5,678.5C 888.501,678.333 949.501,678.5 1010.5,679C 1014.57,679.576 1017.23,681.743 1018.5,685.5C 885.668,686.5 752.668,686.833 619.5,686.5C 621.102,683.177 623.769,681.011 627.5,680C 651.514,679.761 675.514,679.261 699.5,678.5C 699.5,667.167 699.5,655.833 699.5,644.5 Z"/></g>
<g><path style="opacity:0.999" fill="#0076d1" d="M 445.5,636.5 C 460.279,642.456 475.612,646.123 491.5,647.5C 506.523,664.853 521.523,682.186 536.5,699.5C 544.65,700.493 552.983,700.826 561.5,700.5C 561.167,776.002 561.501,851.335 562.5,926.5C 523.723,930.177 484.723,931.177 445.5,929.5C 445.5,831.833 445.5,734.167 445.5,636.5 Z"/></g>
<g><path style="opacity:0.998" fill="#0068b8" d="M 305.5,649.5 C 305.5,737.167 305.5,824.833 305.5,912.5C 292.68,910.128 280.014,907.128 267.5,903.5C 267.167,818.998 267.501,734.665 268.5,650.5C 280.883,650.794 293.217,650.46 305.5,649.5 Z"/></g>
<g><path style="opacity:0.997" fill="#0061b1" d="M 1018.5,685.5 C 1019.93,687.148 1020.76,689.148 1021,691.5C 1021.5,695.486 1021.67,699.486 1021.5,703.5C 1020.53,701.052 1020.19,698.385 1020.5,695.5C 885.957,694.838 751.623,695.504 617.5,697.5C 617.335,694.482 617.502,691.482 618,688.5C 618.278,687.584 618.778,686.918 619.5,686.5C 752.668,686.833 885.668,686.5 1018.5,685.5 Z"/></g>
<g><path style="opacity:1" fill="#b1cfe6" d="M 599.5,698.5 C 600.376,698.369 601.043,698.702 601.5,699.5C 588.183,700.499 574.85,700.833 561.5,700.5C 552.983,700.826 544.65,700.493 536.5,699.5C 557.673,699.831 578.673,699.497 599.5,698.5 Z"/></g>
<g><path style="opacity:1" fill="#005aa7" d="M 1021.5,703.5 C 1021.5,706.167 1021.5,708.833 1021.5,711.5C 887.167,711.5 752.833,711.5 618.5,711.5C 618.737,712.791 618.404,713.791 617.5,714.5C 617.5,708.833 617.5,703.167 617.5,697.5C 751.623,695.504 885.957,694.838 1020.5,695.5C 1020.19,698.385 1020.53,701.052 1021.5,703.5 Z"/></g>
<g><path style="opacity:1" fill="#00559f" d="M 1021.5,711.5 C 1021.5,716.833 1021.5,722.167 1021.5,727.5C 1021.17,727.5 1020.83,727.5 1020.5,727.5C 1020.5,725.167 1020.5,722.833 1020.5,720.5C 886.5,720.5 752.5,720.5 618.5,720.5C 618.737,721.791 618.404,722.791 617.5,723.5C 617.5,720.5 617.5,717.5 617.5,714.5C 618.404,713.791 618.737,712.791 618.5,711.5C 752.833,711.5 887.167,711.5 1021.5,711.5 Z"/></g>
<g><path style="opacity:1" fill="#005098" d="M 1020.5,727.5 C 1020.5,728.5 1020.5,729.5 1020.5,730.5C 886.5,730.5 752.5,730.5 618.5,730.5C 618.768,732.099 618.434,733.432 617.5,734.5C 617.5,730.833 617.5,727.167 617.5,723.5C 618.404,722.791 618.737,721.791 618.5,720.5C 752.5,720.5 886.5,720.5 1020.5,720.5C 1020.5,722.833 1020.5,725.167 1020.5,727.5 Z"/></g>
<g><path style="opacity:1" fill="#004a8e" d="M 1020.5,727.5 C 1020.83,727.5 1021.17,727.5 1021.5,727.5C 1021.5,734.5 1021.5,741.5 1021.5,748.5C 887.377,746.504 753.043,745.838 618.5,746.5C 618.795,748.735 618.461,750.735 617.5,752.5C 617.5,746.5 617.5,740.5 617.5,734.5C 618.434,733.432 618.768,732.099 618.5,730.5C 752.5,730.5 886.5,730.5 1020.5,730.5C 1020.5,729.5 1020.5,728.5 1020.5,727.5 Z"/></g>
<g><path style="opacity:1" fill="#004384" d="M 1021.5,748.5 C 1021.5,753.5 1021.5,758.5 1021.5,763.5C 886.903,764.498 752.237,764.832 617.5,764.5C 617.5,760.5 617.5,756.5 617.5,752.5C 618.461,750.735 618.795,748.735 618.5,746.5C 753.043,745.838 887.377,746.504 1021.5,748.5 Z"/></g>
<g><path style="opacity:1" fill="#589ded" d="M 1021.5,763.5 C 1021.5,780.167 1021.5,796.833 1021.5,813.5C 1010.83,813.333 1000.16,813.5 989.5,814C 986.198,815.026 982.865,815.86 979.5,816.5C 979.666,810.824 979.499,805.157 979,799.5C 977.773,797.274 975.939,795.774 973.5,795C 948.167,794.333 922.833,794.333 897.5,795C 892.937,797.425 891.271,801.258 892.5,806.5C 882.833,806.5 873.167,806.5 863.5,806.5C 863.827,815.682 863.493,824.682 862.5,833.5C 862.667,821.829 862.5,810.162 862,798.5C 860.992,796.741 859.492,795.574 857.5,795C 832.167,794.333 806.833,794.333 781.5,795C 779.714,795.785 778.214,796.951 777,798.5C 776.5,809.495 776.333,820.495 776.5,831.5C 775.507,823.35 775.174,815.017 775.5,806.5C 766.167,806.5 756.833,806.5 747.5,806.5C 747.827,815.682 747.493,824.682 746.5,833.5C 746.667,821.829 746.5,810.162 746,798.5C 745.5,798 745,797.5 744.5,797C 730.732,795.859 716.899,795.359 703,795.5C 689.409,795.35 675.909,795.85 662.5,797C 662,797.5 661.5,798 661,798.5C 660.5,810.162 660.333,821.829 660.5,833.5C 659.507,824.682 659.173,815.682 659.5,806.5C 645.833,806.5 632.167,806.5 618.5,806.5C 618.818,801.968 618.485,797.634 617.5,793.5C 617.5,783.833 617.5,774.167 617.5,764.5C 752.237,764.832 886.903,764.498 1021.5,763.5 Z"/></g>
<g><path style="opacity:1" fill="#ecf4fc" d="M 746.5,833.5 C 746.141,835.371 745.141,836.871 743.5,838C 716.833,838.667 690.167,838.667 663.5,838C 662.117,836.729 661.117,835.229 660.5,833.5C 660.333,821.829 660.5,810.162 661,798.5C 661.5,798 662,797.5 662.5,797C 675.909,795.85 689.409,795.35 703,795.5C 716.899,795.359 730.732,795.859 744.5,797C 745,797.5 745.5,798 746,798.5C 746.5,810.162 746.667,821.829 746.5,833.5 Z"/></g>
<g><path style="opacity:1" fill="#eaf3fc" d="M 862.5,833.5 C 861.653,835.844 859.986,837.344 857.5,838C 831.833,838.667 806.167,838.667 780.5,838C 778.077,836.429 776.744,834.263 776.5,831.5C 776.333,820.495 776.5,809.495 777,798.5C 778.214,796.951 779.714,795.785 781.5,795C 806.833,794.333 832.167,794.333 857.5,795C 859.492,795.574 860.992,796.741 862,798.5C 862.5,810.162 862.667,821.829 862.5,833.5 Z"/></g>
<g><path style="opacity:1" fill="#eaf3fc" d="M 979.5,816.5 C 969.929,820.957 960.929,826.457 952.5,833C 948.376,835.397 944.043,837.231 939.5,838.5C 925.163,838.667 910.829,838.5 896.5,838C 895.333,836.833 894.167,835.667 893,834.5C 892.5,825.173 892.334,815.839 892.5,806.5C 891.271,801.258 892.937,797.425 897.5,795C 922.833,794.333 948.167,794.333 973.5,795C 975.939,795.774 977.773,797.274 979,799.5C 979.499,805.157 979.666,810.824 979.5,816.5 Z"/></g>
<g><path style="opacity:0.981" fill="#0476cf" d="M 1021.5,813.5 C 1028.09,814.417 1034.42,816.25 1040.5,819C 1051.85,827.666 1064.18,834.666 1077.5,840C 1090.63,843.305 1103.96,845.305 1117.5,846C 1118.98,846.662 1120.32,847.496 1121.5,848.5C 1121.5,864.833 1121.5,881.167 1121.5,897.5C 1118.5,897.5 1115.5,897.5 1112.5,897.5C 1112.67,884.829 1112.5,872.162 1112,859.5C 1111.53,858.069 1110.7,856.903 1109.5,856C 1084.16,855.687 1061.49,848.021 1041.5,833C 1024.69,824.694 1007.02,822.361 988.5,826C 976.197,829.651 965.197,835.651 955.5,844C 939.282,850.988 922.282,854.655 904.5,855C 903.667,855.833 902.833,856.667 902,857.5C 901.5,887.165 901.333,916.831 901.5,946.5C 900.504,930.342 900.17,914.009 900.5,897.5C 897.833,897.5 895.167,897.5 892.5,897.5C 892.825,905.352 892.492,913.018 891.5,920.5C 891.5,915.167 891.5,909.833 891.5,904.5C 891.5,893.833 891.5,883.167 891.5,872.5C 891.334,865.159 891.5,857.826 892,850.5C 892.956,849.421 893.789,848.255 894.5,847C 904.427,845.429 914.427,844.096 924.5,843C 929.907,842.43 934.907,840.93 939.5,838.5C 944.043,837.231 948.376,835.397 952.5,833C 960.929,826.457 969.929,820.957 979.5,816.5C 982.865,815.86 986.198,815.026 989.5,814C 1000.16,813.5 1010.83,813.333 1021.5,813.5 Z"/></g>
<g><path style="opacity:1" fill="#31d2f3" d="M 1112.5,897.5 C 1112.81,915.88 1112.47,934.213 1111.5,952.5C 1090.4,953.826 1069.4,953.826 1048.5,952.5C 1057.46,943.035 1066.63,933.702 1076,924.5C 1076.82,921.036 1076.48,917.702 1075,914.5C 1071.28,909.146 1066.28,905.813 1060,904.5C 1057.97,904.858 1056.13,905.692 1054.5,907C 1035.93,926.072 1016.93,944.572 997.5,962.5C 988.825,953.992 979.825,945.826 970.5,938C 966.793,937.004 963.459,937.67 960.5,940C 955.593,943.375 952.593,947.875 951.5,953.5C 935.167,953.5 918.833,953.5 902.5,953.5C 902.737,952.209 902.404,951.209 901.5,950.5C 901.5,949.167 901.5,947.833 901.5,946.5C 901.333,916.831 901.5,887.165 902,857.5C 902.833,856.667 903.667,855.833 904.5,855C 922.282,854.655 939.282,850.988 955.5,844C 965.197,835.651 976.197,829.651 988.5,826C 1007.02,822.361 1024.69,824.694 1041.5,833C 1061.49,848.021 1084.16,855.687 1109.5,856C 1110.7,856.903 1111.53,858.069 1112,859.5C 1112.5,872.162 1112.67,884.829 1112.5,897.5 Z"/></g>
<g><path style="opacity:1" fill="#4394e6" d="M 617.5,793.5 C 618.485,797.634 618.818,801.968 618.5,806.5C 632.167,806.5 645.833,806.5 659.5,806.5C 659.173,815.682 659.507,824.682 660.5,833.5C 661.117,835.229 662.117,836.729 663.5,838C 690.167,838.667 716.833,838.667 743.5,838C 745.141,836.871 746.141,835.371 746.5,833.5C 747.493,824.682 747.827,815.682 747.5,806.5C 756.833,806.5 766.167,806.5 775.5,806.5C 775.174,815.017 775.507,823.35 776.5,831.5C 776.744,834.263 778.077,836.429 780.5,838C 806.167,838.667 831.833,838.667 857.5,838C 859.986,837.344 861.653,835.844 862.5,833.5C 863.493,824.682 863.827,815.682 863.5,806.5C 873.167,806.5 882.833,806.5 892.5,806.5C 892.334,815.839 892.5,825.173 893,834.5C 894.167,835.667 895.333,836.833 896.5,838C 910.829,838.5 925.163,838.667 939.5,838.5C 934.907,840.93 929.907,842.43 924.5,843C 914.427,844.096 904.427,845.429 894.5,847C 893.789,848.255 892.956,849.421 892,850.5C 891.5,857.826 891.334,865.159 891.5,872.5C 882.5,872.5 873.5,872.5 864.5,872.5C 864.665,868.818 864.499,865.152 864,861.5C 862.891,859.185 861.057,857.685 858.5,857C 833.167,856.333 807.833,856.333 782.5,857C 780.333,857.833 778.833,859.333 778,861.5C 777.501,865.152 777.335,868.818 777.5,872.5C 767.833,872.5 758.167,872.5 748.5,872.5C 748.665,869.15 748.498,865.817 748,862.5C 747.535,861.069 746.701,859.903 745.5,859C 731.732,857.859 717.899,857.359 704,857.5C 691.167,857.667 678.333,857.833 665.5,858C 664.333,859.167 663.167,860.333 662,861.5C 661.501,865.152 661.335,868.818 661.5,872.5C 647.167,872.5 632.833,872.5 618.5,872.5C 618.815,868.629 618.482,864.962 617.5,861.5C 617.5,838.833 617.5,816.167 617.5,793.5 Z"/></g>
<g><path style="opacity:1" fill="#fbd20d" d="M 864.5,872.5 C 864.666,880.507 864.5,888.507 864,896.5C 862.833,897.667 861.667,898.833 860.5,900C 834.167,900.667 807.833,900.667 781.5,900C 780.333,898.833 779.167,897.667 778,896.5C 777.5,888.507 777.334,880.507 777.5,872.5C 777.335,868.818 777.501,865.152 778,861.5C 778.833,859.333 780.333,857.833 782.5,857C 807.833,856.333 833.167,856.333 858.5,857C 861.057,857.685 862.891,859.185 864,861.5C 864.499,865.152 864.665,868.818 864.5,872.5 Z"/></g>
<g><path style="opacity:1" fill="#e8f2fb" d="M 748.5,872.5 C 748.666,880.174 748.5,887.841 748,895.5C 747.417,897.002 746.584,898.335 745.5,899.5C 718.542,900.658 691.542,900.824 664.5,900C 663.667,899.167 662.833,898.333 662,897.5C 661.5,889.173 661.334,880.84 661.5,872.5C 661.335,868.818 661.501,865.152 662,861.5C 663.167,860.333 664.333,859.167 665.5,858C 678.333,857.833 691.167,857.667 704,857.5C 717.899,857.359 731.732,857.859 745.5,859C 746.701,859.903 747.535,861.069 748,862.5C 748.498,865.817 748.665,869.15 748.5,872.5 Z"/></g>
<g><path style="opacity:1" fill="#318ce1" d="M 617.5,861.5 C 618.482,864.962 618.815,868.629 618.5,872.5C 632.833,872.5 647.167,872.5 661.5,872.5C 661.334,880.84 661.5,889.173 662,897.5C 662.833,898.333 663.667,899.167 664.5,900C 691.542,900.824 718.542,900.658 745.5,899.5C 746.584,898.335 747.417,897.002 748,895.5C 748.5,887.841 748.666,880.174 748.5,872.5C 758.167,872.5 767.833,872.5 777.5,872.5C 777.334,880.507 777.5,888.507 778,896.5C 779.167,897.667 780.333,898.833 781.5,900C 807.833,900.667 834.167,900.667 860.5,900C 861.667,898.833 862.833,897.667 864,896.5C 864.5,888.507 864.666,880.507 864.5,872.5C 873.5,872.5 882.5,872.5 891.5,872.5C 891.5,883.167 891.5,893.833 891.5,904.5C 800.5,904.5 709.5,904.5 618.5,904.5C 618.813,900.958 618.479,897.625 617.5,894.5C 617.5,883.5 617.5,872.5 617.5,861.5 Z"/></g>
<g><path style="opacity:1" fill="#0079d4" d="M 1048.5,952.5 C 1033.7,966.798 1019.03,981.298 1004.5,996C 1000.33,998.788 995.997,999.121 991.5,997C 979,984.5 966.5,972 954,959.5C 952.441,957.783 951.608,955.783 951.5,953.5C 952.593,947.875 955.593,943.375 960.5,940C 963.459,937.67 966.793,937.004 970.5,938C 979.825,945.826 988.825,953.992 997.5,962.5C 1016.93,944.572 1035.93,926.072 1054.5,907C 1056.13,905.692 1057.97,904.858 1060,904.5C 1066.28,905.813 1071.28,909.146 1075,914.5C 1076.48,917.702 1076.82,921.036 1076,924.5C 1066.63,933.702 1057.46,943.035 1048.5,952.5 Z"/></g>
<g><path style="opacity:1" fill="#2487dd" d="M 617.5,894.5 C 618.479,897.625 618.813,900.958 618.5,904.5C 709.5,904.5 800.5,904.5 891.5,904.5C 891.5,909.833 891.5,915.167 891.5,920.5C 891.5,922.833 891.5,925.167 891.5,927.5C 882.5,927.5 873.5,927.5 864.5,927.5C 864.57,923.399 862.57,920.899 858.5,920C 832.833,919.333 807.167,919.333 781.5,920C 778.603,921.715 777.269,924.215 777.5,927.5C 767.833,927.5 758.167,927.5 748.5,927.5C 748.256,924.737 746.923,922.571 744.5,921C 718.167,920.333 691.833,920.333 665.5,921C 663.667,921.5 662.5,922.667 662,924.5C 661.5,930.825 661.334,937.158 661.5,943.5C 646.59,944.124 631.924,943.458 617.5,941.5C 617.5,934.833 617.5,928.167 617.5,921.5C 617.5,912.5 617.5,903.5 617.5,894.5 Z"/></g>
<g><path style="opacity:1" fill="#fdd304" d="M 748.5,927.5 C 748.666,937.839 748.5,948.172 748,958.5C 747.426,960.492 746.259,961.992 744.5,963C 718.167,963.667 691.833,963.667 665.5,963C 663.667,962.5 662.5,961.333 662,959.5C 661.501,954.177 661.334,948.844 661.5,943.5C 661.334,937.158 661.5,930.825 662,924.5C 662.5,922.667 663.667,921.5 665.5,921C 691.833,920.333 718.167,920.333 744.5,921C 746.923,922.571 748.256,924.737 748.5,927.5 Z"/></g>
<g><path style="opacity:1" fill="#fad20b" d="M 864.5,927.5 C 864.666,937.506 864.5,947.506 864,957.5C 863.727,959.329 862.893,960.829 861.5,962C 848.091,963.15 834.591,963.65 821,963.5C 807.409,963.65 793.909,963.15 780.5,962C 779.107,960.829 778.273,959.329 778,957.5C 777.5,947.506 777.334,937.506 777.5,927.5C 777.269,924.215 778.603,921.715 781.5,920C 807.167,919.333 832.833,919.333 858.5,920C 862.57,920.899 864.57,923.399 864.5,927.5 Z"/></g>
<g><path style="opacity:1" fill="#006dc1" d="M 901.5,946.5 C 901.5,947.833 901.5,949.167 901.5,950.5C 902.557,963.666 906.224,975.999 912.5,987.5C 909.272,986.586 905.939,986.253 902.5,986.5C 899.778,981.332 897.444,975.999 895.5,970.5C 892.036,956.394 890.702,942.06 891.5,927.5C 891.5,925.167 891.5,922.833 891.5,920.5C 892.492,913.018 892.825,905.352 892.5,897.5C 895.167,897.5 897.833,897.5 900.5,897.5C 900.17,914.009 900.504,930.342 901.5,946.5 Z"/></g>
<g><path style="opacity:1" fill="#1680d8" d="M 748.5,927.5 C 758.167,927.5 767.833,927.5 777.5,927.5C 777.334,937.506 777.5,947.506 778,957.5C 778.273,959.329 779.107,960.829 780.5,962C 793.909,963.15 807.409,963.65 821,963.5C 834.591,963.65 848.091,963.15 861.5,962C 862.893,960.829 863.727,959.329 864,957.5C 864.5,947.506 864.666,937.506 864.5,927.5C 873.5,927.5 882.5,927.5 891.5,927.5C 890.702,942.06 892.036,956.394 895.5,970.5C 802.931,971.832 710.264,971.832 617.5,970.5C 617.5,960.833 617.5,951.167 617.5,941.5C 631.924,943.458 646.59,944.124 661.5,943.5C 661.334,948.844 661.501,954.177 662,959.5C 662.5,961.333 663.667,962.5 665.5,963C 691.833,963.667 718.167,963.667 744.5,963C 746.259,961.992 747.426,960.492 748,958.5C 748.5,948.172 748.666,937.839 748.5,927.5 Z"/></g>
<g><path style="opacity:0.999" fill="#057ad5" d="M 617.5,970.5 C 710.264,971.832 802.931,971.832 895.5,970.5C 897.444,975.999 899.778,981.332 902.5,986.5C 904.088,991.396 906.088,996.062 908.5,1000.5C 814.833,1000.67 721.166,1000.5 627.5,1000C 622.765,998.932 619.598,996.099 618,991.5C 617.5,984.508 617.334,977.508 617.5,970.5 Z"/></g>
<g><path style="opacity:1" fill="#2dc6e9" d="M 901.5,950.5 C 902.404,951.209 902.737,952.209 902.5,953.5C 918.833,953.5 935.167,953.5 951.5,953.5C 951.608,955.783 952.441,957.783 954,959.5C 966.5,972 979,984.5 991.5,997C 995.997,999.121 1000.33,998.788 1004.5,996C 1019.03,981.298 1033.7,966.798 1048.5,952.5C 1069.4,953.826 1090.4,953.826 1111.5,952.5C 1106.97,978.465 1095.97,1001.13 1078.5,1020.5C 1030.5,1020.5 982.5,1020.5 934.5,1020.5C 925.926,1010.36 918.593,999.36 912.5,987.5C 906.224,975.999 902.557,963.666 901.5,950.5 Z"/></g>
<g><path style="opacity:0.957" fill="#0168b7" d="M 1112.5,897.5 C 1115.5,897.5 1118.5,897.5 1121.5,897.5C 1121.5,917.5 1121.5,937.5 1121.5,957.5C 1115.17,984.16 1103,1007.83 1085,1028.5C 1062.77,1053.01 1037.6,1073.84 1009.5,1091C 1006.7,1091.75 1004.03,1091.42 1001.5,1090C 972.712,1072.23 947.212,1050.39 925,1024.5C 918.889,1016.89 913.389,1008.89 908.5,1000.5C 906.088,996.062 904.088,991.396 902.5,986.5C 905.939,986.253 909.272,986.586 912.5,987.5C 918.593,999.36 925.926,1010.36 934.5,1020.5C 954.98,1044.66 978.98,1064.33 1006.5,1079.5C 1034.02,1064.33 1058.02,1044.66 1078.5,1020.5C 1095.97,1001.13 1106.97,978.465 1111.5,952.5C 1112.47,934.213 1112.81,915.88 1112.5,897.5 Z"/></g>
<g><path style="opacity:1" fill="#29bcdf" d="M 934.5,1020.5 C 982.5,1020.5 1030.5,1020.5 1078.5,1020.5C 1058.02,1044.66 1034.02,1064.33 1006.5,1079.5C 978.98,1064.33 954.98,1044.66 934.5,1020.5 Z"/></g>
</svg>
