<?xml version="1.0" encoding="UTF-8"?>
<!DOCTYPE svg PUBLIC "-//W3C//DTD SVG 1.1//EN" "http://www.w3.org/Graphics/SVG/1.1/DTD/svg11.dtd">
<svg xmlns="http://www.w3.org/2000/svg" version="1.1" width="1000px" height="895px" style="shape-rendering:geometricPrecision; text-rendering:geometricPrecision; image-rendering:optimizeQuality; fill-rule:evenodd; clip-rule:evenodd" xmlns:xlink="http://www.w3.org/1999/xlink">
<g><path style="opacity:1" fill="#fefefe" d="M -0.5,-0.5 C 332.833,-0.5 666.167,-0.5 999.5,-0.5C 999.5,297.833 999.5,596.167 999.5,894.5C 666.167,894.5 332.833,894.5 -0.5,894.5C -0.5,596.167 -0.5,297.833 -0.5,-0.5 Z"/></g>
<g><path style="opacity:1" fill="#e5f6fe" d="M 284.5,169.5 C 287.432,171.002 290.599,171.669 294,171.5C 299.643,171.214 305.143,170.214 310.5,168.5C 309.915,164.409 308.915,160.409 307.5,156.5C 306.311,155.571 304.978,155.238 303.5,155.5C 303.953,154.542 304.619,153.708 305.5,153C 305.167,152.667 304.833,152.333 304.5,152C 309.733,147.588 315.066,143.421 320.5,139.5C 320.5,150.167 320.5,160.833 320.5,171.5C 326.5,171.5 332.5,171.5 338.5,171.5C 338.5,156.833 338.5,142.167 338.5,127.5C 342.015,124.826 345.681,122.326 349.5,120C 350.577,119.53 351.577,119.697 352.5,120.5C 348.774,133.174 353.107,141.674 365.5,146C 370.637,147.268 375.637,148.934 380.5,151C 383.167,153.333 383.167,155.667 380.5,158C 370.97,159.961 362.303,158.128 354.5,152.5C 351.571,155.69 349.738,159.357 349,163.5C 362.419,172.767 376.585,173.934 391.5,167C 398.433,160.791 400.267,153.291 397,144.5C 393.613,140.554 389.446,137.72 384.5,136C 379.352,134.583 374.352,132.916 369.5,131C 365.932,125.527 367.432,122.694 374,122.5C 380.356,123.423 386.356,125.423 392,128.5C 393.399,125.371 395.065,122.371 397,119.5C 397.667,118.5 397.667,117.5 397,116.5C 387.207,110.686 376.707,109.019 365.5,111.5C 370.753,108.504 376.42,106.004 382.5,104C 383.579,101.957 385.246,100.624 387.5,100C 396.099,98.0589 404.099,94.7256 411.5,90C 415.405,88.6409 419.405,87.8076 423.5,87.5C 423.5,86.5 423.5,85.5 423.5,84.5C 440.663,80.9017 457.663,76.7351 474.5,72C 518.705,64.8117 563.038,64.1451 607.5,70C 622.585,72.2841 637.585,74.9508 652.5,78C 663.63,81.5262 674.63,85.1929 685.5,89C 700.411,96.8514 715.745,103.518 731.5,109C 735.264,113.216 739.931,115.883 745.5,117C 753.589,122.555 761.922,127.888 770.5,133C 772.833,136 775.5,138.667 778.5,141C 792.698,151.498 806.532,162.331 820,173.5C 822.092,175.346 823.426,177.679 824,180.5C 833.039,188.473 841.206,197.473 848.5,207.5C 853.902,211.751 858.069,217.084 861,223.5C 862.441,224.87 864.108,225.87 866,226.5C 867.375,230.98 869.875,234.647 873.5,237.5C 875.227,240.287 876.394,243.287 877,246.5C 881.304,250.604 884.304,255.604 886,261.5C 887.074,262.618 888.24,263.618 889.5,264.5C 898.123,280.748 905.956,297.415 913,314.5C 915.173,320.695 916.839,327.028 918,333.5C 918.615,335.116 919.615,336.449 921,337.5C 924.011,351.225 927.344,364.891 931,378.5C 932.018,393.31 933.851,407.977 936.5,422.5C 937.666,442.492 937.833,462.492 937,482.5C 934.697,493.045 933.364,503.711 933,514.5C 931.362,524.925 929.362,535.259 927,545.5C 922.406,559.706 918.073,574.039 914,588.5C 912.518,591.273 910.852,593.94 909,596.5C 908.699,599.974 907.866,603.308 906.5,606.5C 905.675,607.386 904.675,607.719 903.5,607.5C 903.779,612.723 901.945,617.056 898,620.5C 895.884,627.785 893.051,634.785 889.5,641.5C 884.911,647.438 880.411,653.438 876,659.5C 873.496,666.171 870.162,672.505 866,678.5C 860.684,685.785 854.684,692.451 848,698.5C 847.667,699.833 847.333,701.167 847,702.5C 843.534,704.808 841.034,707.808 839.5,711.5C 835.501,713.334 832.668,716.334 831,720.5C 825.544,726.799 819.378,732.132 812.5,736.5C 810.344,738.629 808.677,740.962 807.5,743.5C 806.448,743.351 805.448,743.517 804.5,744C 801.036,747.892 797.036,751.059 792.5,753.5C 788.364,758.662 783.698,763.162 778.5,767C 774.174,766.989 771.174,768.989 769.5,773C 765.148,774.523 761.481,777.023 758.5,780.5C 753.817,783.284 748.817,785.284 743.5,786.5C 742.455,789.385 740.455,791.552 737.5,793C 722.293,801.101 706.626,808.434 690.5,815C 687.833,815.333 685.167,815.667 682.5,816C 669.144,820.682 655.811,825.348 642.5,830C 632.681,830.941 623.014,832.608 613.5,835C 565.727,841.498 518.06,840.832 470.5,833C 453.082,827.247 435.415,822.247 417.5,818C 411.941,814.766 405.941,812.433 399.5,811C 395.98,809.743 392.98,807.743 390.5,805C 387.124,805.184 384.457,804.017 382.5,801.5C 375.613,798.882 368.947,796.048 362.5,793C 360.664,791.581 358.664,790.414 356.5,789.5C 355.833,788.167 355.167,786.833 354.5,785.5C 349.444,784.573 344.777,782.74 340.5,780C 328.414,771.956 317.081,762.956 306.5,753C 298.145,749.179 291.478,743.513 286.5,736C 279.352,732.852 274.185,727.685 271,720.5C 265.93,718.429 262.597,714.763 261,709.5C 256.352,703.219 251.019,697.552 245,692.5C 244.517,691.552 244.351,690.552 244.5,689.5C 241.53,688.692 239.697,686.692 239,683.5C 234.358,679.936 231.358,675.269 230,669.5C 222.308,660.738 215.642,651.405 210,641.5C 202.761,627.457 196.094,613.123 190,598.5C 188.879,593.101 187.546,587.768 186,582.5C 184.362,578.622 182.362,574.955 180,571.5C 177.542,563.128 175.708,554.628 174.5,546C 172.256,542.144 170.756,537.978 170,533.5C 161.461,483.594 160.794,433.594 168,383.5C 169.768,376.396 171.268,369.23 172.5,362C 172.769,360.393 173.603,359.226 175,358.5C 176.37,351.315 177.87,344.148 179.5,337C 185.441,320.857 191.608,304.691 198,288.5C 201.554,283.64 204.221,278.306 206,272.5C 210.711,266.412 214.378,259.745 217,252.5C 223.273,245.609 228.273,237.942 232,229.5C 236.393,224.443 240.393,219.11 244,213.5C 246.185,212.072 248.185,210.405 250,208.5C 252.97,204.188 255.97,199.854 259,195.5C 260.333,194.833 261.667,194.167 263,193.5C 270.432,185.577 277.599,177.577 284.5,169.5 Z"/></g>
<g><path style="opacity:1" fill="#4170a8" d="M 463.5,84.5 C 472.842,84.0686 476.675,88.4019 475,97.5C 472.367,102.732 468.201,104.565 462.5,103C 457.78,99.7015 456.28,95.2015 458,89.5C 459.107,86.887 460.94,85.2203 463.5,84.5 Z"/></g>
<g><path style="opacity:1" fill="#416fa9" d="M 326.5,84.5 C 336.179,83.6781 340.012,88.0114 338,97.5C 335.367,102.732 331.201,104.565 325.5,103C 320.918,99.6058 319.418,95.1058 321,89.5C 322.107,86.887 323.94,85.2203 326.5,84.5 Z"/></g>
<g><path style="opacity:1" fill="#406fa8" d="M 162.5,97.5 C 167.833,97.5 173.167,97.5 178.5,97.5C 178.179,103.026 178.512,108.36 179.5,113.5C 184.833,113.5 190.167,113.5 195.5,113.5C 195.5,117.5 195.5,121.5 195.5,125.5C 190.167,125.5 184.833,125.5 179.5,125.5C 179.334,135.172 179.5,144.839 180,154.5C 183.424,158.076 187.258,158.409 191.5,155.5C 192.167,155.833 192.833,156.167 193.5,156.5C 194.422,159.684 195.422,162.851 196.5,166C 195.48,168.026 193.813,169.359 191.5,170C 183.499,172.539 175.832,171.872 168.5,168C 166.877,165.92 165.377,163.754 164,161.5C 162.562,149.576 162.062,137.576 162.5,125.5C 159.5,125.5 156.5,125.5 153.5,125.5C 153.5,121.5 153.5,117.5 153.5,113.5C 156.5,113.5 159.5,113.5 162.5,113.5C 162.5,108.167 162.5,102.833 162.5,97.5 Z"/></g>
<g><path style="opacity:1" fill="#406fa8" d="M 276.5,97.5 C 281.833,97.5 287.167,97.5 292.5,97.5C 292.179,103.026 292.512,108.36 293.5,113.5C 298.833,113.5 304.167,113.5 309.5,113.5C 309.5,117.5 309.5,121.5 309.5,125.5C 304.167,125.5 298.833,125.5 293.5,125.5C 293.334,135.172 293.5,144.839 294,154.5C 296.918,158.056 300.085,158.39 303.5,155.5C 304.978,155.238 306.311,155.571 307.5,156.5C 308.915,160.409 309.915,164.409 310.5,168.5C 305.143,170.214 299.643,171.214 294,171.5C 290.599,171.669 287.432,171.002 284.5,169.5C 280.805,167.131 278.305,163.797 277,159.5C 276.5,148.172 276.333,136.838 276.5,125.5C 273.5,125.5 270.5,125.5 267.5,125.5C 267.5,121.5 267.5,117.5 267.5,113.5C 270.5,113.5 273.5,113.5 276.5,113.5C 276.5,108.167 276.5,102.833 276.5,97.5 Z"/></g>
<g><path style="opacity:1" fill="#7c9dc2" d="M 162.5,97.5 C 167.975,96.5111 173.642,96.1778 179.5,96.5C 179.5,102.167 179.5,107.833 179.5,113.5C 178.512,108.36 178.179,103.026 178.5,97.5C 173.167,97.5 167.833,97.5 162.5,97.5 Z"/></g>
<g><path style="opacity:1" fill="#8ca5c9" d="M 276.5,97.5 C 281.975,96.5111 287.642,96.1778 293.5,96.5C 293.5,102.167 293.5,107.833 293.5,113.5C 292.512,108.36 292.179,103.026 292.5,97.5C 287.167,97.5 281.833,97.5 276.5,97.5 Z"/></g>
<g><path style="opacity:1" fill="#406fa8" d="M 430.5,152.5 C 430.818,155.485 432.485,157.152 435.5,157.5C 438.42,156.414 441.42,155.748 444.5,155.5C 444.846,158.885 445.512,162.218 446.5,165.5C 446.471,167.029 445.804,168.196 444.5,169C 435.912,172.598 427.579,172.265 419.5,168C 416.193,165.222 414.026,161.722 413,157.5C 412.5,146.839 412.333,136.172 412.5,125.5C 409.833,125.5 407.167,125.5 404.5,125.5C 404.5,121.5 404.5,117.5 404.5,113.5C 407.167,113.5 409.833,113.5 412.5,113.5C 413.488,108.36 413.821,103.026 413.5,97.5C 418.833,97.5 424.167,97.5 429.5,97.5C 429.334,103.176 429.501,108.843 430,114.5C 430.5,115 431,115.5 431.5,116C 436.155,116.499 440.821,116.666 445.5,116.5C 445.5,119.167 445.5,121.833 445.5,124.5C 440.167,124.5 434.833,124.5 429.5,124.5C 429.173,134.015 429.506,143.348 430.5,152.5 Z"/></g>
<g><path style="opacity:1" fill="#406fa8" d="M 223.5,110.5 C 230.563,110.212 237.563,110.712 244.5,112C 251,114.5 255.5,119 258,125.5C 258.5,140.496 258.667,155.496 258.5,170.5C 252.833,170.5 247.167,170.5 241.5,170.5C 241.662,168.473 241.495,166.473 241,164.5C 231.768,171.843 221.601,173.343 210.5,169C 201.204,160.067 200.204,150.401 207.5,140C 210.795,137.566 214.462,135.899 218.5,135C 226.159,134.5 233.826,134.334 241.5,134.5C 242.026,129.043 239.693,125.543 234.5,124C 230.833,123.333 227.167,123.333 223.5,124C 219.135,125.521 214.802,127.021 210.5,128.5C 208.996,124.522 207.83,120.522 207,116.5C 212.418,113.975 217.918,111.975 223.5,110.5 Z"/></g>
<g><path style="opacity:1" fill="#4170a9" d="M 565.5,110.5 C 574.791,109.68 583.791,110.847 592.5,114C 594.555,114.687 596.221,115.854 597.5,117.5C 595.961,120.746 594.294,123.912 592.5,127C 586.237,125.556 579.903,124.056 573.5,122.5C 567.149,122.555 565.482,125.222 568.5,130.5C 575.861,133.232 583.195,136.065 590.5,139C 600.838,147.787 601.171,157.12 591.5,167C 577.98,173.283 564.647,172.949 551.5,166C 550.01,165.255 549.01,164.088 548.5,162.5C 549.568,158.693 551.401,155.36 554,152.5C 562.414,158.64 571.414,159.974 581,156.5C 581.92,153.692 581.087,151.525 578.5,150C 571.197,148.092 564.197,145.426 557.5,142C 547.68,131.707 548.347,122.04 559.5,113C 561.611,112.155 563.611,111.322 565.5,110.5 Z"/></g>
<g><path style="opacity:1" fill="#688bbc" d="M 474.5,111.5 C 469.167,111.5 463.833,111.5 458.5,111.5C 458.5,130.833 458.5,150.167 458.5,169.5C 463.833,169.5 469.167,169.5 474.5,169.5C 469.025,170.489 463.358,170.822 457.5,170.5C 457.5,150.5 457.5,130.5 457.5,110.5C 463.358,110.178 469.025,110.511 474.5,111.5 Z"/></g>
<g><path style="opacity:1" fill="#3c6da8" d="M 474.5,111.5 C 474.5,130.833 474.5,150.167 474.5,169.5C 469.167,169.5 463.833,169.5 458.5,169.5C 458.5,150.167 458.5,130.833 458.5,111.5C 463.833,111.5 469.167,111.5 474.5,111.5 Z"/></g>
<g><path style="opacity:1" fill="#6d92bd" d="M 430.5,152.5 C 429.506,143.348 429.173,134.015 429.5,124.5C 434.833,124.5 440.167,124.5 445.5,124.5C 445.5,121.833 445.5,119.167 445.5,116.5C 440.821,116.666 436.155,116.499 431.5,116C 431,115.5 430.5,115 430,114.5C 429.501,108.843 429.334,103.176 429.5,97.5C 424.167,97.5 418.833,97.5 413.5,97.5C 413.821,103.026 413.488,108.36 412.5,113.5C 412.5,107.833 412.5,102.167 412.5,96.5C 418.5,96.5 424.5,96.5 430.5,96.5C 430.5,102.167 430.5,107.833 430.5,113.5C 435.833,113.5 441.167,113.5 446.5,113.5C 446.5,117.5 446.5,121.5 446.5,125.5C 441.167,125.5 435.833,125.5 430.5,125.5C 430.5,134.5 430.5,143.5 430.5,152.5 Z"/></g>
<g><path style="opacity:1" fill="#4170a9" d="M 508.5,110.5 C 518.429,109.452 527.762,111.286 536.5,116C 538.684,118.016 540.684,120.183 542.5,122.5C 539.44,125.725 535.94,128.392 532,130.5C 524.68,124.951 516.846,124.118 508.5,128C 503.241,134.019 502.075,140.852 505,148.5C 508.22,155.694 513.72,158.527 521.5,157C 525.722,155.974 529.222,153.807 532,150.5C 535.508,152.587 538.842,154.92 542,157.5C 542.667,158.5 542.667,159.5 542,160.5C 534.969,168.43 526.135,172.097 515.5,171.5C 496.37,169.866 486.704,159.366 486.5,140C 486.795,124.877 494.128,115.044 508.5,110.5 Z"/></g>
<g><path style="opacity:1" fill="#4170a9" d="M 352.5,120.5 C 355.95,116.271 360.283,113.271 365.5,111.5C 376.707,109.019 387.207,110.686 397,116.5C 397.667,117.5 397.667,118.5 397,119.5C 395.065,122.371 393.399,125.371 392,128.5C 386.356,125.423 380.356,123.423 374,122.5C 367.432,122.694 365.932,125.527 369.5,131C 374.352,132.916 379.352,134.583 384.5,136C 389.446,137.72 393.613,140.554 397,144.5C 400.267,153.291 398.433,160.791 391.5,167C 376.585,173.934 362.419,172.767 349,163.5C 349.738,159.357 351.571,155.69 354.5,152.5C 362.303,158.128 370.97,159.961 380.5,158C 383.167,155.667 383.167,153.333 380.5,151C 375.637,148.934 370.637,147.268 365.5,146C 353.107,141.674 348.774,133.174 352.5,120.5 Z"/></g>
<g><path style="opacity:1" fill="#87a9c8" d="M 337.5,111.5 C 338.488,116.64 338.821,121.974 338.5,127.5C 338.5,142.167 338.5,156.833 338.5,171.5C 332.5,171.5 326.5,171.5 320.5,171.5C 320.5,160.833 320.5,150.167 320.5,139.5C 320.5,129.833 320.5,120.167 320.5,110.5C 326.358,110.178 332.025,110.511 337.5,111.5 Z"/></g>
<g><path style="opacity:1" fill="#3d6ea8" d="M 337.5,111.5 C 337.5,131.167 337.5,150.833 337.5,170.5C 332.167,170.5 326.833,170.5 321.5,170.5C 321.5,150.833 321.5,131.167 321.5,111.5C 326.833,111.5 332.167,111.5 337.5,111.5 Z"/></g>
<g><path style="opacity:1" fill="#f0f4f6" d="M 222.5,144.5 C 228.833,144.5 235.167,144.5 241.5,144.5C 242.453,154.381 237.953,159.381 228,159.5C 220.6,159.433 217.6,155.767 219,148.5C 220.376,147.295 221.542,145.962 222.5,144.5 Z"/></g>
<g><path style="opacity:1" fill="#4170a9" d="M 105.5,92.5 C 117.553,91.4072 129.22,92.9072 140.5,97C 143.076,97.7822 145.076,99.2822 146.5,101.5C 144.39,106.059 142.057,110.392 139.5,114.5C 130.833,109.5 121.5,107.333 111.5,108C 106.058,110.241 105.058,113.908 108.5,119C 118.022,123.063 127.689,126.729 137.5,130C 148.694,138.683 150.528,149.183 143,161.5C 139.166,165.993 134.333,168.826 128.5,170C 111.09,173.981 95.7569,170.148 82.5,158.5C 84.8378,153.824 87.1711,149.158 89.5,144.5C 100.085,154.981 112.418,158.148 126.5,154C 129.439,149.982 129.105,146.315 125.5,143C 116.056,139.972 106.722,136.639 97.5,133C 87.8563,126.063 85.023,116.896 89,105.5C 90.4578,103.04 92.2911,100.873 94.5,99C 98.0612,96.5472 101.728,94.3806 105.5,92.5 Z"/></g>
<g><path style="opacity:1" fill="#f87420" d="M 718.5,154.5 C 756.224,158.224 776.891,178.891 780.5,216.5C 759.844,217.323 739.178,217.656 718.5,217.5C 718.5,196.5 718.5,175.5 718.5,154.5 Z"/></g>
<g><path style="opacity:1" fill="#fdb78b" d="M 718.5,154.5 C 718.5,175.5 718.5,196.5 718.5,217.5C 739.178,217.656 759.844,217.323 780.5,216.5C 776.702,217.483 772.702,217.817 768.5,217.5C 769.083,249.035 754.75,270.368 725.5,281.5C 685.742,288.188 660.908,272.188 651,233.5C 648.335,199.517 663.169,177.35 695.5,167C 702.792,165.884 710.126,165.384 717.5,165.5C 717.185,161.629 717.518,157.962 718.5,154.5 Z"/></g>
<g><path style="opacity:1" fill="#fbcd67" d="M 571.5,268.5 C 569.265,268.795 567.265,268.461 565.5,267.5C 573.242,256.779 574.576,245.113 569.5,232.5C 558.42,215.709 543.753,211.542 525.5,220C 508.999,232.56 505.999,247.893 516.5,266C 514.527,266.495 512.527,266.662 510.5,266.5C 499.116,240.472 506.45,221.972 532.5,211C 555.358,208.328 570.191,217.828 577,239.5C 577.667,244.833 577.667,250.167 577,255.5C 575.694,260.106 573.86,264.439 571.5,268.5 Z"/></g>
<g><path style="opacity:1" fill="#fded9f" d="M 565.5,267.5 C 560.187,266.902 554.854,266.569 549.5,266.5C 548.391,265.71 547.058,265.21 545.5,265C 551.533,261.593 553.699,256.427 552,249.5C 547.729,246.949 543.229,244.782 538.5,243C 535.102,239.861 534.769,236.528 537.5,233C 542.367,232.36 547.034,232.86 551.5,234.5C 550.757,231.43 548.757,229.764 545.5,229.5C 545.5,228.167 545.5,226.833 545.5,225.5C 543.5,225.5 541.5,225.5 539.5,225.5C 539.5,226.833 539.5,228.167 539.5,229.5C 532.783,230.738 530.283,234.738 532,241.5C 532.785,243.286 533.951,244.786 535.5,246C 540.594,247.026 545.094,249.193 549,252.5C 549.71,257.971 547.21,260.971 541.5,261.5C 537.759,260.649 534.092,259.649 530.5,258.5C 530.799,261.642 532.466,263.809 535.5,265C 533.292,265.191 531.292,265.691 529.5,266.5C 523.477,266.502 517.477,266.835 511.5,267.5C 510.833,267.5 510.5,267.167 510.5,266.5C 512.527,266.662 514.527,266.495 516.5,266C 505.999,247.893 508.999,232.56 525.5,220C 543.753,211.542 558.42,215.709 569.5,232.5C 574.576,245.113 573.242,256.779 565.5,267.5 Z"/></g>
<g><path style="opacity:1" fill="#f6f6ee" d="M 549.5,266.5 C 542.833,266.5 536.167,266.5 529.5,266.5C 531.292,265.691 533.292,265.191 535.5,265C 532.466,263.809 530.799,261.642 530.5,258.5C 534.092,259.649 537.759,260.649 541.5,261.5C 547.21,260.971 549.71,257.971 549,252.5C 545.094,249.193 540.594,247.026 535.5,246C 533.951,244.786 532.785,243.286 532,241.5C 530.283,234.738 532.783,230.738 539.5,229.5C 539.5,228.167 539.5,226.833 539.5,225.5C 541.5,225.5 543.5,225.5 545.5,225.5C 545.5,226.833 545.5,228.167 545.5,229.5C 548.757,229.764 550.757,231.43 551.5,234.5C 547.034,232.86 542.367,232.36 537.5,233C 534.769,236.528 535.102,239.861 538.5,243C 543.229,244.782 547.729,246.949 552,249.5C 553.699,256.427 551.533,261.593 545.5,265C 547.058,265.21 548.391,265.71 549.5,266.5 Z"/></g>
<g><path style="opacity:1" fill="#3f6fa8" d="M 529.5,266.5 C 536.167,266.5 542.833,266.5 549.5,266.5C 554.854,266.569 560.187,266.902 565.5,267.5C 567.265,268.461 569.265,268.795 571.5,268.5C 645.192,286.86 690.192,333.193 706.5,407.5C 706.508,410.545 706.841,413.545 707.5,416.5C 709.771,440.325 707.438,463.659 700.5,486.5C 699.262,488.214 698.595,490.214 698.5,492.5C 691.323,509.855 682.323,526.188 671.5,541.5C 666.152,544.019 662.818,548.186 661.5,554C 659.655,555.128 657.655,555.628 655.5,555.5C 655.5,556.833 655.5,558.167 655.5,559.5C 651.049,559.949 648.049,562.283 646.5,566.5C 620.631,585.803 591.631,597.97 559.5,603C 484.475,607.993 427.808,578.493 389.5,514.5C 389.104,511.279 387.771,508.612 385.5,506.5C 373.255,477.425 368.421,447.091 371,415.5C 372.03,408.452 373.197,401.452 374.5,394.5C 375.407,392.343 376.073,390.01 376.5,387.5C 398.944,322.053 443.944,282.053 511.5,267.5C 517.477,266.835 523.477,266.502 529.5,266.5 Z"/></g>
<g><path style="opacity:1" fill="#bbdaf0" d="M 271.5,278.5 C 293.503,278.333 315.503,278.5 337.5,279C 338.406,280.699 338.739,282.533 338.5,284.5C 316.167,284.5 293.833,284.5 271.5,284.5C 271.5,282.5 271.5,280.5 271.5,278.5 Z"/></g>
<g><path style="opacity:1" fill="#e5f6fd" d="M 670.5,374.5 C 664.633,371.404 658.967,368.071 653.5,364.5C 652.042,362.989 650.209,361.989 648,361.5C 641.929,353.7 636.096,345.7 630.5,337.5C 623.189,331.12 615.189,325.62 606.5,321C 603.683,318.162 600.683,315.496 597.5,313C 588.605,311.378 580.271,308.378 572.5,304C 562.575,301.853 552.575,300.02 542.5,298.5C 539.468,298.806 536.468,299.306 533.5,300C 551.885,302.561 569.552,307.561 586.5,315C 599.882,323.715 612.382,333.548 624,344.5C 625.241,345.877 625.408,347.21 624.5,348.5C 622.997,349.052 621.331,349.052 619.5,348.5C 619.433,349.959 619.766,351.292 620.5,352.5C 620.267,354.062 619.6,355.395 618.5,356.5C 614.229,358.297 609.896,360.13 605.5,362C 559.923,387.126 514.256,412.293 468.5,437.5C 465.016,435.384 461.349,435.051 457.5,436.5C 437.189,427.839 416.855,419.172 396.5,410.5C 405.433,364.135 430.433,329.301 471.5,306C 527.735,279.93 580.735,285.263 630.5,322C 648.085,336.372 661.418,353.872 670.5,374.5 Z"/></g>
<g><path style="opacity:1" fill="#badbf4" d="M 271.5,295.5 C 293.833,295.5 316.167,295.5 338.5,295.5C 338.5,297.5 338.5,299.5 338.5,301.5C 316.167,301.5 293.833,301.5 271.5,301.5C 271.5,299.5 271.5,297.5 271.5,295.5 Z"/></g>
<g><path style="opacity:1" fill="#d12a29" d="M 862.5,335.5 C 857.882,336.357 854.882,334.69 853.5,330.5C 853.44,322.53 857.107,320.03 864.5,323C 867.864,326.026 868.364,329.526 866,333.5C 865.184,334.823 864.017,335.489 862.5,335.5 Z"/></g>
<g><path style="opacity:1" fill="#fa726e" d="M 853.5,330.5 C 854.882,334.69 857.882,336.357 862.5,335.5C 860.369,336.314 858.036,336.814 855.5,337C 819.136,367.508 782.802,398.008 746.5,428.5C 746.834,425.812 746.168,423.479 744.5,421.5C 748.271,418.232 751.938,414.732 755.5,411C 788.013,383.92 820.68,357.086 853.5,330.5 Z"/></g>
<g><path style="opacity:1" fill="#d12726" d="M 635.5,360.5 C 634.889,362.775 633.555,364.441 631.5,365.5C 628.833,366.833 626.167,366.833 623.5,365.5C 620.565,363.305 618.898,360.305 618.5,356.5C 619.6,355.395 620.267,354.062 620.5,352.5C 621.973,351.928 623.307,351.095 624.5,350C 629.785,351.443 633.452,354.943 635.5,360.5 Z"/></g>
<g><path style="opacity:1" fill="#e5f6fe" d="M 623.5,365.5 C 626.167,366.833 628.833,366.833 631.5,365.5C 634.167,366.833 636.833,368.167 639.5,369.5C 642.548,371.923 644.882,374.923 646.5,378.5C 647.883,382.75 648.883,387.083 649.5,391.5C 650.5,391.5 651.5,391.5 652.5,391.5C 659.95,418.211 660.283,444.878 653.5,471.5C 640.201,465.842 626.867,460.175 613.5,454.5C 610.99,448.932 606.657,447.099 600.5,449C 598.077,450.571 596.744,452.737 596.5,455.5C 557.826,478.834 519.493,502.668 481.5,527C 476.903,528.878 472.236,530.045 467.5,530.5C 466.395,531.6 465.062,532.267 463.5,532.5C 452.787,532.494 442.12,531.827 431.5,530.5C 418.782,517.447 409.282,502.114 403,484.5C 395.717,463.576 393.217,442.243 395.5,420.5C 414.702,429.467 434.035,438.133 453.5,446.5C 457.404,453.152 462.404,454.152 468.5,449.5C 519.923,421.285 571.589,393.285 623.5,365.5 Z"/></g>
<g><path style="opacity:1" fill="#f97775" d="M 635.5,360.5 C 638.321,363.115 639.654,366.115 639.5,369.5C 636.833,368.167 634.167,366.833 631.5,365.5C 633.555,364.441 634.889,362.775 635.5,360.5 Z"/></g>
<g><path style="opacity:1" fill="#fcfdfc" d="M 653.5,364.5 C 652.153,363.972 650.819,363.805 649.5,364C 652.816,370.15 656.483,375.984 660.5,381.5C 659.986,388.001 661.819,394.001 666,399.5C 671.262,425.604 670.095,451.271 662.5,476.5C 662.122,478.921 661.455,481.254 660.5,483.5C 658.531,489.069 656.531,494.735 654.5,500.5C 645.983,510.977 637.317,521.477 628.5,532C 616.468,543.01 603.135,552.01 588.5,559C 586.866,559.494 585.199,559.66 583.5,559.5C 583.5,560.5 583.5,561.5 583.5,562.5C 574.418,565.407 565.085,567.574 555.5,569C 551.113,569.226 546.779,569.726 542.5,570.5C 541.5,570 540.5,569.5 539.5,569C 547.923,567.364 556.256,565.364 564.5,563C 572.008,559.669 579.674,556.669 587.5,554C 593.287,548.82 599.62,544.653 606.5,541.5C 608.503,539.867 609.836,537.867 610.5,535.5C 611.675,535.719 612.675,535.386 613.5,534.5C 629.106,519.931 641.106,502.931 649.5,483.5C 649.291,482.914 648.957,482.414 648.5,482C 650.119,481.764 651.119,480.931 651.5,479.5C 651.56,476.659 652.226,473.993 653.5,471.5C 660.283,444.878 659.95,418.211 652.5,391.5C 651.5,391.5 650.5,391.5 649.5,391.5C 648.883,387.083 647.883,382.75 646.5,378.5C 644.882,374.923 642.548,371.923 639.5,369.5C 639.654,366.115 638.321,363.115 635.5,360.5C 633.452,354.943 629.785,351.443 624.5,350C 623.307,351.095 621.973,351.928 620.5,352.5C 619.766,351.292 619.433,349.959 619.5,348.5C 621.331,349.052 622.997,349.052 624.5,348.5C 625.408,347.21 625.241,345.877 624,344.5C 612.382,333.548 599.882,323.715 586.5,315C 569.552,307.561 551.885,302.561 533.5,300C 536.468,299.306 539.468,298.806 542.5,298.5C 552.575,300.02 562.575,301.853 572.5,304C 580.271,308.378 588.605,311.378 597.5,313C 600.683,315.496 603.683,318.162 606.5,321C 615.189,325.62 623.189,331.12 630.5,337.5C 636.096,345.7 641.929,353.7 648,361.5C 650.209,361.989 652.042,362.989 653.5,364.5 Z"/></g>
<g><path style="opacity:1" fill="#fa706d" d="M 653.5,364.5 C 658.967,368.071 664.633,371.404 670.5,374.5C 673.33,379.505 675.663,384.838 677.5,390.5C 671.702,387.767 666.035,384.767 660.5,381.5C 656.483,375.984 652.816,370.15 649.5,364C 650.819,363.805 652.153,363.972 653.5,364.5 Z"/></g>
<g><path style="opacity:1" fill="#d12727" d="M 364.5,382.5 C 364.606,385.079 363.939,387.412 362.5,389.5C 361.609,390.11 360.609,390.443 359.5,390.5C 352.722,392.055 349.722,389.388 350.5,382.5C 352.304,376.631 355.971,375.131 361.5,378C 362.883,379.271 363.883,380.771 364.5,382.5 Z"/></g>
<g><path style="opacity:1" fill="#f97270" d="M 364.5,382.5 C 368.504,384.169 372.504,385.836 376.5,387.5C 376.073,390.01 375.407,392.343 374.5,394.5C 370.534,392.842 366.534,391.175 362.5,389.5C 363.939,387.412 364.606,385.079 364.5,382.5 Z"/></g>
<g><path style="opacity:1" fill="#e4f5fc" d="M 660.5,381.5 C 666.035,384.767 671.702,387.767 677.5,390.5C 687.018,420.722 686.685,450.722 676.5,480.5C 672.292,479.398 668.292,477.731 664.5,475.5C 663.817,475.863 663.15,476.196 662.5,476.5C 670.095,451.271 671.262,425.604 666,399.5C 661.819,394.001 659.986,388.001 660.5,381.5 Z"/></g>
<g><path style="opacity:1" fill="#e5f5fd" d="M 362.5,389.5 C 366.534,391.175 370.534,392.842 374.5,394.5C 373.197,401.452 372.03,408.452 371,415.5C 368.421,447.091 373.255,477.425 385.5,506.5C 383.167,506.5 380.833,506.5 378.5,506.5C 375.419,503.807 371.753,502.807 367.5,503.5C 344.365,489.43 321.365,475.097 298.5,460.5C 316.826,438.165 334.826,415.498 352.5,392.5C 354.969,391.832 357.302,391.165 359.5,390.5C 360.609,390.443 361.609,390.11 362.5,389.5 Z"/></g>
<g><path style="opacity:1" fill="#fb706c" d="M 618.5,356.5 C 618.898,360.305 620.565,363.305 623.5,365.5C 571.589,393.285 519.923,421.285 468.5,449.5C 471.157,445.542 471.157,441.542 468.5,437.5C 514.256,412.293 559.923,387.126 605.5,362C 609.896,360.13 614.229,358.297 618.5,356.5 Z"/></g>
<g><path style="opacity:1" fill="#fa716e" d="M 706.5,407.5 C 715.542,413.021 724.876,418.021 734.5,422.5C 732.832,424.479 732.166,426.812 732.5,429.5C 724.036,425.435 715.703,421.101 707.5,416.5C 706.841,413.545 706.508,410.545 706.5,407.5 Z"/></g>
<g><path style="opacity:1" fill="#d22a29" d="M 744.5,421.5 C 746.168,423.479 746.834,425.812 746.5,428.5C 746.035,432.629 743.701,434.629 739.5,434.5C 735.777,434.777 733.444,433.111 732.5,429.5C 732.166,426.812 732.832,424.479 734.5,422.5C 737.617,420.223 740.951,419.89 744.5,421.5 Z"/></g>
<g><path style="opacity:1" fill="#fa706c" d="M 396.5,410.5 C 416.855,419.172 437.189,427.839 457.5,436.5C 454.306,438.977 452.973,442.31 453.5,446.5C 434.035,438.133 414.702,429.467 395.5,420.5C 395.46,417.119 395.793,413.786 396.5,410.5 Z"/></g>
<g><path style="opacity:1" fill="#653fe6" d="M 260.5,438.5 C 260.249,440.17 259.582,441.67 258.5,443C 255.518,443.498 252.518,443.665 249.5,443.5C 245.558,439.376 245.558,435.209 249.5,431C 256.002,429.572 259.669,432.072 260.5,438.5 Z"/></g>
<g><path style="opacity:1" fill="#fa716e" d="M 350.5,382.5 C 349.722,389.388 352.722,392.055 359.5,390.5C 357.302,391.165 354.969,391.832 352.5,392.5C 334.826,415.498 316.826,438.165 298.5,460.5C 296.118,459.649 294.118,458.316 292.5,456.5C 312.273,432.074 331.607,407.407 350.5,382.5 Z"/></g>
<g><path style="opacity:1" fill="#d22a29" d="M 468.5,437.5 C 471.157,441.542 471.157,445.542 468.5,449.5C 462.404,454.152 457.404,453.152 453.5,446.5C 452.973,442.31 454.306,438.977 457.5,436.5C 461.349,435.051 465.016,435.384 468.5,437.5 Z"/></g>
<g><path style="opacity:1" fill="#653fe6" d="M 613.5,454.5 C 613.507,459.17 611.507,462.503 607.5,464.5C 600.522,465.521 596.856,462.521 596.5,455.5C 596.744,452.737 598.077,450.571 600.5,449C 606.657,447.099 610.99,448.932 613.5,454.5 Z"/></g>
<g><path style="opacity:1" fill="#e5f6fd" d="M 607.5,464.5 C 619.88,468.458 631.88,473.292 643.5,479C 646.216,480.212 648.883,480.379 651.5,479.5C 651.119,480.931 650.119,481.764 648.5,482C 648.957,482.414 649.291,482.914 649.5,483.5C 641.106,502.931 629.106,519.931 613.5,534.5C 612.675,535.386 611.675,535.719 610.5,535.5C 609.836,537.867 608.503,539.867 606.5,541.5C 599.62,544.653 593.287,548.82 587.5,554C 579.674,556.669 572.008,559.669 564.5,563C 556.256,565.364 547.923,567.364 539.5,569C 540.5,569.5 541.5,570 542.5,570.5C 546.779,569.726 551.113,569.226 555.5,569C 565.085,567.574 574.418,565.407 583.5,562.5C 583.5,561.5 583.5,560.5 583.5,559.5C 585.199,559.66 586.866,559.494 588.5,559C 603.135,552.01 616.468,543.01 628.5,532C 637.317,521.477 645.983,510.977 654.5,500.5C 656.531,494.735 658.531,489.069 660.5,483.5C 660.414,484.496 660.748,485.329 661.5,486C 664.822,488.332 668.489,489.498 672.5,489.5C 664.124,511.73 650.791,530.564 632.5,546C 588.05,580.307 539.05,588.307 485.5,570C 469.425,563.399 455.091,554.232 442.5,542.5C 449.524,542.435 456.524,542.768 463.5,543.5C 465.902,547.078 469.235,548.245 473.5,547C 476.342,545.103 478.342,542.603 479.5,539.5C 489.788,533.687 500.121,527.853 510.5,522C 539.253,503.447 568.253,485.114 597.5,467C 600.909,466.004 604.242,465.171 607.5,464.5 Z"/></g>
<g><path style="opacity:1" fill="#9e8bfa" d="M 260.5,438.5 C 271.167,444.5 281.833,450.5 292.5,456.5C 294.118,458.316 296.118,459.649 298.5,460.5C 321.365,475.097 344.365,489.43 367.5,503.5C 365.615,505.053 364.615,507.053 364.5,509.5C 340.967,494.902 317.3,480.569 293.5,466.5C 291.784,464.975 289.784,463.975 287.5,463.5C 278.696,457.56 269.696,451.727 260.5,446C 256.759,444.986 253.093,444.153 249.5,443.5C 252.518,443.665 255.518,443.498 258.5,443C 259.582,441.67 260.249,440.17 260.5,438.5 Z"/></g>
<g><path style="opacity:1" fill="#9c8afb" d="M 613.5,454.5 C 626.867,460.175 640.201,465.842 653.5,471.5C 652.226,473.993 651.56,476.659 651.5,479.5C 648.883,480.379 646.216,480.212 643.5,479C 631.88,473.292 619.88,468.458 607.5,464.5C 611.507,462.503 613.507,459.17 613.5,454.5 Z"/></g>
<g><path style="opacity:1" fill="#fa706e" d="M 287.5,463.5 C 289.784,463.975 291.784,464.975 293.5,466.5C 282.596,481.578 271.096,496.245 259,510.5C 257.906,512.078 257.072,513.745 256.5,515.5C 255.776,512.451 253.776,510.785 250.5,510.5C 262.603,494.613 274.937,478.946 287.5,463.5 Z"/></g>
<g><path style="opacity:1" fill="#9c8bfa" d="M 676.5,480.5 C 675.925,483.912 674.592,486.912 672.5,489.5C 668.489,489.498 664.822,488.332 661.5,486C 660.748,485.329 660.414,484.496 660.5,483.5C 661.455,481.254 662.122,478.921 662.5,476.5C 663.15,476.196 663.817,475.863 664.5,475.5C 668.292,477.731 672.292,479.398 676.5,480.5 Z"/></g>
<g><path style="opacity:1" fill="#9d8bfb" d="M 596.5,455.5 C 596.856,462.521 600.522,465.521 607.5,464.5C 604.242,465.171 600.909,466.004 597.5,467C 568.253,485.114 539.253,503.447 510.5,522C 500.121,527.853 489.788,533.687 479.5,539.5C 478.58,532.682 474.58,529.682 467.5,530.5C 472.236,530.045 476.903,528.878 481.5,527C 519.493,502.668 557.826,478.834 596.5,455.5 Z"/></g>
<g><path style="opacity:1" fill="#9e8cfa" d="M 700.5,486.5 C 704.822,487.829 709.155,489.163 713.5,490.5C 711.852,492.456 711.185,494.789 711.5,497.5C 706.91,496.416 702.576,494.749 698.5,492.5C 698.595,490.214 699.262,488.214 700.5,486.5 Z"/></g>
<g><path style="opacity:1" fill="#a69cfd" d="M 724.5,491.5 C 744.121,492.476 763.787,492.809 783.5,492.5C 764.341,493.497 745.007,493.83 725.5,493.5C 725.167,492.833 724.833,492.167 724.5,491.5 Z"/></g>
<g><path style="opacity:1" fill="#9d8bfc" d="M 783.5,492.5 C 808.167,492.5 832.833,492.5 857.5,492.5C 857.298,494.95 857.631,497.283 858.5,499.5C 813.833,499.5 769.167,499.5 724.5,499.5C 725.341,497.621 725.675,495.621 725.5,493.5C 745.007,493.83 764.341,493.497 783.5,492.5 Z"/></g>
<g><path style="opacity:1" fill="#6944e5" d="M 724.5,491.5 C 724.833,492.167 725.167,492.833 725.5,493.5C 725.675,495.621 725.341,497.621 724.5,499.5C 721.335,502.803 717.668,503.303 713.5,501C 712.695,499.887 712.028,498.721 711.5,497.5C 711.185,494.789 711.852,492.456 713.5,490.5C 714.777,489.102 716.443,488.436 718.5,488.5C 721.102,488.467 723.102,489.467 724.5,491.5 Z"/></g>
<g><path style="opacity:1" fill="#6740e6" d="M 858.5,499.5 C 857.631,497.283 857.298,494.95 857.5,492.5C 860.952,488.119 865.118,487.453 870,490.5C 872.677,499.156 869.511,502.989 860.5,502C 859.619,501.292 858.953,500.458 858.5,499.5 Z"/></g>
<g><path style="opacity:1" fill="#9d8df8" d="M 378.5,506.5 C 380.833,506.5 383.167,506.5 385.5,506.5C 387.771,508.612 389.104,511.279 389.5,514.5C 385.865,513.886 382.198,513.552 378.5,513.5C 378.5,511.167 378.5,508.833 378.5,506.5 Z"/></g>
<g><path style="opacity:1" fill="#6640e5" d="M 367.5,503.5 C 371.753,502.807 375.419,503.807 378.5,506.5C 378.5,508.833 378.5,511.167 378.5,513.5C 371.612,519.798 366.945,518.465 364.5,509.5C 364.615,507.053 365.615,505.053 367.5,503.5 Z"/></g>
<g><path style="opacity:1" fill="#d12828" d="M 250.5,510.5 C 253.776,510.785 255.776,512.451 256.5,515.5C 256.152,522.685 252.485,525.519 245.5,524C 241.577,519.594 241.577,515.261 245.5,511C 247.134,510.506 248.801,510.34 250.5,510.5 Z"/></g>
<g><path style="opacity:1" fill="#b9dbf3" d="M 800.5,528.5 C 822.833,528.5 845.167,528.5 867.5,528.5C 867.5,530.5 867.5,532.5 867.5,534.5C 845.167,534.5 822.833,534.5 800.5,534.5C 800.5,532.5 800.5,530.5 800.5,528.5 Z"/></g>
<g><path style="opacity:1" fill="#9b88fb" d="M 431.5,530.5 C 442.12,531.827 452.787,532.494 463.5,532.5C 462.343,536.216 462.343,539.883 463.5,543.5C 456.524,542.768 449.524,542.435 442.5,542.5C 439.212,539.551 435.879,536.551 432.5,533.5C 431.614,532.675 431.281,531.675 431.5,530.5 Z"/></g>
<g><path style="opacity:1" fill="#6640e6" d="M 467.5,530.5 C 474.58,529.682 478.58,532.682 479.5,539.5C 478.342,542.603 476.342,545.103 473.5,547C 469.235,548.245 465.902,547.078 463.5,543.5C 462.343,539.883 462.343,536.216 463.5,532.5C 465.062,532.267 466.395,531.6 467.5,530.5 Z"/></g>
<g><path style="opacity:1" fill="#346393" d="M 671.5,541.5 C 684.631,555.132 697.965,568.632 711.5,582C 717.442,582.424 722.775,584.424 727.5,588C 762,622.5 796.5,657 831,691.5C 831.667,692.167 831.667,692.833 831,693.5C 820.944,705.467 810.111,716.633 798.5,727C 797.833,727.667 797.167,727.667 796.5,727C 761.333,691.833 726.167,656.667 691,621.5C 688.133,616.898 686.466,611.898 686,606.5C 672.631,593.299 659.465,579.965 646.5,566.5C 648.049,562.283 651.049,559.949 655.5,559.5C 655.5,558.167 655.5,556.833 655.5,555.5C 657.655,555.628 659.655,555.128 661.5,554C 662.818,548.186 666.152,544.019 671.5,541.5 Z"/></g>
<g><path style="opacity:1" fill="#bdddf2" d="M 800.5,544.5 C 822.833,544.5 845.167,544.5 867.5,544.5C 867.5,546.833 867.5,549.167 867.5,551.5C 845.167,551.5 822.833,551.5 800.5,551.5C 800.5,549.167 800.5,546.833 800.5,544.5 Z"/></g>
<g><path style="opacity:1" fill="#9b89fe" d="M 329.5,571.5 C 340.167,571.5 350.833,571.5 361.5,571.5C 362.163,637.842 361.497,703.842 359.5,769.5C 349.03,764.205 339.197,757.871 330,750.5C 329.5,690.834 329.333,631.168 329.5,571.5 Z"/></g>
<g><path style="opacity:1" fill="#aba5fc" d="M 329.5,571.5 C 340.321,570.505 351.321,570.172 362.5,570.5C 362.5,637.167 362.5,703.833 362.5,770.5C 361.209,770.737 360.209,770.404 359.5,769.5C 361.497,703.842 362.163,637.842 361.5,571.5C 350.833,571.5 340.167,571.5 329.5,571.5 Z"/></g>
<g><path style="opacity:1" fill="#fc6e6a" d="M 279.5,613.5 C 290.167,613.5 300.833,613.5 311.5,613.5C 311.832,654.003 311.499,694.337 310.5,734.5C 299.619,725.971 289.452,716.637 280,706.5C 279.5,675.502 279.333,644.502 279.5,613.5 Z"/></g>
<g><path style="opacity:1" fill="#f2bbc0" d="M 279.5,613.5 C 290.321,612.505 301.321,612.172 312.5,612.5C 312.833,653.505 312.5,694.505 311.5,735.5C 310.893,735.376 310.56,735.043 310.5,734.5C 311.499,694.337 311.832,654.003 311.5,613.5C 300.833,613.5 290.167,613.5 279.5,613.5 Z"/></g>
<g><path style="opacity:1" fill="#f8c9b2" d="M 380.5,648.5 C 380.5,692.833 380.5,737.167 380.5,781.5C 383.285,780.916 384.952,781.916 385.5,784.5C 383.742,784.123 382.075,783.456 380.5,782.5C 379.169,737.669 379.169,693.002 380.5,648.5 Z"/></g>
<g><path style="opacity:1" fill="#f9b58a" d="M 380.5,648.5 C 391.167,648.5 401.833,648.5 412.5,648.5C 412.5,697.833 412.5,747.167 412.5,796.5C 403.268,792.873 394.268,788.873 385.5,784.5C 384.952,781.916 383.285,780.916 380.5,781.5C 380.5,737.167 380.5,692.833 380.5,648.5 Z"/></g>
<g><path style="opacity:1" fill="#fbce6b" d="M 503.5,636.5 C 518.019,633.934 528.852,638.934 536,651.5C 539.491,677.342 528.325,688.509 502.5,685C 488.666,677.169 484.166,665.669 489,650.5C 492.433,644.231 497.266,639.564 503.5,636.5 Z"/></g>
<g><path style="opacity:1" fill="#fded9f" d="M 506.5,639.5 C 510.846,639.334 515.179,639.501 519.5,640C 534.705,648.512 537.705,660.346 528.5,675.5C 521.985,681.377 514.318,683.543 505.5,682C 491.922,675.269 487.755,664.769 493,650.5C 496.296,645.28 500.796,641.613 506.5,639.5 Z"/></g>
<g><path style="opacity:1" fill="#fdfaef" d="M 505.5,647.5 C 508.254,647.784 510.92,648.451 513.5,649.5C 507.594,650.043 505.26,653.043 506.5,658.5C 509.478,659.649 512.478,659.649 515.5,658.5C 517.608,658.86 519.608,659.527 521.5,660.5C 522.463,664.797 522.463,669.13 521.5,673.5C 517.774,673.823 514.107,673.489 510.5,672.5C 513.263,671.748 515.93,670.748 518.5,669.5C 521.441,666.457 521.108,663.957 517.5,662C 513.486,662.499 509.486,662.333 505.5,661.5C 501.633,656.835 501.633,652.168 505.5,647.5 Z"/></g>
<g><path style="opacity:1" fill="#fccd67" d="M 684.5,694.5 C 708.69,693.529 724.523,704.529 732,727.5C 735.407,754.222 724.241,771.056 698.5,778C 672.823,781.081 656.323,770.248 649,745.5C 646.075,717.965 657.909,700.965 684.5,694.5 Z"/></g>
<g><path style="opacity:1" fill="#feed9f" d="M 683.5,700.5 C 699.915,699.127 712.748,705.127 722,718.5C 730.169,737.54 726.335,753.873 710.5,767.5C 696.278,774.557 682.278,774.057 668.5,766C 654.774,753.43 651.107,738.43 657.5,721C 660.802,715.726 664.802,711.06 669.5,707C 674.244,704.828 678.911,702.661 683.5,700.5 Z"/></g>
<g><path style="opacity:1" fill="#beddf3" d="M 493.5,737.5 C 497.027,737.953 500.027,739.453 502.5,742C 509.084,748.627 516.084,754.794 523.5,760.5C 523,760.833 522.5,761.167 522,761.5C 512.941,754.384 503.774,747.384 494.5,740.5C 485.681,747.742 476.681,754.742 467.5,761.5C 466.718,759.671 467.384,758.171 469.5,757C 477.399,750.257 485.399,743.757 493.5,737.5 Z"/></g>
<g><path style="opacity:1" fill="#fdfcf3" d="M 696.5,713.5 C 700.94,712.901 702.773,714.568 702,718.5C 704.698,719.698 706.531,721.698 707.5,724.5C 707.113,725.72 706.28,726.387 705,726.5C 701.961,722.957 698.127,720.957 693.5,720.5C 687.733,721.641 686.066,724.974 688.5,730.5C 694.855,734.017 699.188,739.184 701.5,746C 698.692,753.145 693.692,757.812 686.5,760C 682.188,761.544 680.022,760.044 680,755.5C 676.081,753.333 673.914,749.999 673.5,745.5C 674.833,745.5 676.167,745.5 677.5,745.5C 677.917,749.723 680.251,752.223 684.5,753C 691.979,754.184 695.813,751.018 696,743.5C 692.333,740.5 688.667,737.5 685,734.5C 680.183,723.462 683.683,717.129 695.5,715.5C 695.863,714.817 696.196,714.15 696.5,713.5 Z"/></g>
<g><path style="opacity:1" fill="#beddf2" d="M 492.5,751.5 C 494.308,751.491 495.975,751.991 497.5,753C 506.077,760.423 514.744,767.589 523.5,774.5C 522.277,775.614 520.944,775.781 519.5,775C 511.253,767.743 502.753,760.91 494,754.5C 485.806,761.685 477.306,768.518 468.5,775C 467.365,775.749 466.365,775.583 465.5,774.5C 474.716,767.005 483.716,759.338 492.5,751.5 Z"/></g>
</svg>
