<?xml version="1.0" encoding="UTF-8"?>
<!DOCTYPE svg PUBLIC "-//W3C//DTD SVG 1.1//EN" "http://www.w3.org/Graphics/SVG/1.1/DTD/svg11.dtd">
<svg xmlns="http://www.w3.org/2000/svg" version="1.1" width="1200px" height="627px" style="shape-rendering:geometricPrecision; text-rendering:geometricPrecision; image-rendering:optimizeQuality; fill-rule:evenodd; clip-rule:evenodd" xmlns:xlink="http://www.w3.org/1999/xlink">
<g><path style="opacity:1" fill="#fefefe" d="M -0.5,-0.5 C 399.5,-0.5 799.5,-0.5 1199.5,-0.5C 1199.5,208.5 1199.5,417.5 1199.5,626.5C 799.5,626.5 399.5,626.5 -0.5,626.5C -0.5,417.5 -0.5,208.5 -0.5,-0.5 Z"/></g>
<g><path style="opacity:1" fill="#e3a4a9" d="M 607.5,157.5 C 604.5,158.167 601.5,158.833 598.5,159.5C 599.033,156.475 600.867,155.142 604,155.5C 605.681,155.608 606.848,156.275 607.5,157.5 Z"/></g>
<g><path style="opacity:1" fill="#fd8b8b" d="M 607.5,157.5 C 607.5,158.167 607.5,158.833 607.5,159.5C 607.343,160.873 607.51,162.207 608,163.5C 610.439,165.027 612.439,167.027 614,169.5C 617.025,173.863 619.359,178.53 621,183.5C 624.52,185.13 626.354,187.797 626.5,191.5C 627.833,191.5 629.167,191.5 630.5,191.5C 631.537,197.202 634.537,201.536 639.5,204.5C 639.5,205.5 639.5,206.5 639.5,207.5C 639.502,211.349 641.335,214.015 645,215.5C 646.912,219.66 649.079,223.66 651.5,227.5C 654.523,229.184 657.356,231.184 660,233.5C 664.066,239.238 667.732,245.238 671,251.5C 671.49,252.793 671.657,254.127 671.5,255.5C 672.64,259.155 674.807,262.155 678,264.5C 679.913,268.978 681.08,273.645 681.5,278.5C 683.5,278.833 685.5,279.167 687.5,279.5C 689.746,282.664 691.08,286.33 691.5,290.5C 694.755,293.011 696.422,296.344 696.5,300.5C 689.906,297.243 683.239,294.076 676.5,291C 674.091,289.799 672.091,288.133 670.5,286C 660.102,281.132 649.769,276.299 639.5,271.5C 635.132,267.316 629.799,264.649 623.5,263.5C 616.958,258.347 609.625,254.347 601.5,251.5C 597.095,248.809 592.762,245.976 588.5,243C 584.467,240.646 580.134,239.48 575.5,239.5C 575.719,238.325 575.386,237.325 574.5,236.5C 567.563,231.861 560.23,228.194 552.5,225.5C 554.827,225.753 556.827,225.086 558.5,223.5C 560.474,219.692 563.308,216.692 567,214.5C 566.881,205.575 571.215,199.575 580,196.5C 581.347,190.813 584.014,185.813 588,181.5C 589.713,175.36 592.713,170.027 597,165.5C 597.495,163.527 597.662,161.527 597.5,159.5C 597.833,159.5 598.167,159.5 598.5,159.5C 601.5,158.833 604.5,158.167 607.5,157.5 Z"/></g>
<g><path style="opacity:1" fill="#f1bbbd" d="M 587.5,175.5 C 587.291,176.922 586.791,178.255 586,179.5C 582.551,183.467 579.384,187.467 576.5,191.5C 579.205,185.396 582.872,180.063 587.5,175.5 Z"/></g>
<g><path style="opacity:1" fill="#f2cfd1" d="M 735.5,207.5 C 735.187,204.753 735.52,202.086 736.5,199.5C 738.623,193.355 740.956,187.355 743.5,181.5C 740.376,181.943 738.043,183.61 736.5,186.5C 732.067,185.709 728.4,187.209 725.5,191C 723.527,191.495 721.527,191.662 719.5,191.5C 721.976,188.422 725.309,186.589 729.5,186C 733.567,182.428 738.234,180.428 743.5,180C 745.396,181.808 745.896,183.975 745,186.5C 742.353,192.714 740.019,199.047 738,205.5C 737.583,206.756 736.75,207.423 735.5,207.5 Z"/></g>
<g><path style="opacity:1" fill="#ee9799" d="M 597.5,159.5 C 597.662,161.527 597.495,163.527 597,165.5C 592.713,170.027 589.713,175.36 588,181.5C 584.014,185.813 581.347,190.813 580,196.5C 571.215,199.575 566.881,205.575 567,214.5C 563.308,216.692 560.474,219.692 558.5,223.5C 556.827,225.086 554.827,225.753 552.5,225.5C 551.833,225.5 551.5,225.167 551.5,224.5C 555.395,223.607 558.062,221.274 559.5,217.5C 559.477,215.4 560.144,213.567 561.5,212C 566.309,205.025 571.309,198.192 576.5,191.5C 579.384,187.467 582.551,183.467 586,179.5C 586.791,178.255 587.291,176.922 587.5,175.5C 590.336,169.822 593.669,164.489 597.5,159.5 Z"/></g>
<g><path style="opacity:1" fill="#e4a5a3" d="M 607.5,159.5 C 610.298,160.706 612.465,162.706 614,165.5C 619.75,174.068 625.25,182.735 630.5,191.5C 629.167,191.5 627.833,191.5 626.5,191.5C 626.354,187.797 624.52,185.13 621,183.5C 619.359,178.53 617.025,173.863 614,169.5C 612.439,167.027 610.439,165.027 608,163.5C 607.51,162.207 607.343,160.873 607.5,159.5 Z"/></g>
<g><path style="opacity:1" fill="#d77272" d="M 487.5,191.5 C 484.215,190.598 480.881,189.598 477.5,188.5C 473.393,185.113 468.726,182.78 463.5,181.5C 463.5,183.833 463.5,186.167 463.5,188.5C 459.274,184.795 459.774,181.795 465,179.5C 471.548,182.19 478.048,185.023 484.5,188C 486.063,188.759 487.063,189.926 487.5,191.5 Z"/></g>
<g><path style="opacity:1" fill="#eea6a3" d="M 489.5,191.5 C 493.611,192.753 497.277,194.753 500.5,197.5C 499.833,197.5 499.167,197.5 498.5,197.5C 495.018,196.256 492.018,194.256 489.5,191.5 Z"/></g>
<g><path style="opacity:1" fill="#fdc7c7" d="M 735.5,207.5 C 735.662,209.527 735.495,211.527 735,213.5C 730.323,224.287 725.656,234.954 721,245.5C 720.168,254.331 717.168,262.331 712,269.5C 711.249,274.995 709.916,280.328 708,285.5C 706.89,287.037 705.39,287.703 703.5,287.5C 704.057,293.202 702.391,297.869 698.5,301.5C 699.376,298.201 699.543,294.868 699,291.5C 695.764,288.781 693.431,285.447 692,281.5C 684.775,274.728 679.275,266.728 675.5,257.5C 674.476,256.147 673.143,255.48 671.5,255.5C 671.657,254.127 671.49,252.793 671,251.5C 667.732,245.238 664.066,239.238 660,233.5C 657.356,231.184 654.523,229.184 651.5,227.5C 649.079,223.66 646.912,219.66 645,215.5C 641.335,214.015 639.502,211.349 639.5,207.5C 644.713,212.886 649.713,218.552 654.5,224.5C 660.362,221.737 666.028,218.737 671.5,215.5C 674.433,214.07 676.933,212.07 679,209.5C 679.333,209.833 679.667,210.167 680,210.5C 683.111,208.229 686.611,207.062 690.5,207C 699.169,199.8 708.835,194.633 719.5,191.5C 721.527,191.662 723.527,191.495 725.5,191C 728.4,187.209 732.067,185.709 736.5,186.5C 738.043,183.61 740.376,181.943 743.5,181.5C 740.956,187.355 738.623,193.355 736.5,199.5C 735.52,202.086 735.187,204.753 735.5,207.5 Z"/></g>
<g><path style="opacity:1" fill="#e59b96" d="M 464.5,191.5 C 467.02,196.557 469.02,201.891 470.5,207.5C 467.138,202.756 465.138,197.423 464.5,191.5 Z"/></g>
<g><path style="opacity:1" fill="#e8aeac" d="M 630.5,191.5 C 633.883,195.553 636.883,199.886 639.5,204.5C 634.537,201.536 631.537,197.202 630.5,191.5 Z"/></g>
<g><path style="opacity:1" fill="#f74d4e" d="M 487.5,191.5 C 488.167,191.5 488.833,191.5 489.5,191.5C 492.018,194.256 495.018,196.256 498.5,197.5C 499.167,198.5 499.833,199.5 500.5,200.5C 497.72,200.193 495.22,199.193 493,197.5C 491.743,197.85 491.409,198.517 492,199.5C 497.67,201.431 497.503,203.431 491.5,205.5C 487.771,204.438 485.438,202.105 484.5,198.5C 482.833,198.5 481.167,198.5 479.5,198.5C 479.5,201.5 479.5,204.5 479.5,207.5C 478.167,207.5 476.833,207.5 475.5,207.5C 475.5,209.167 475.5,210.833 475.5,212.5C 473.667,210.888 472,209.222 470.5,207.5C 469.02,201.891 467.02,196.557 464.5,191.5C 463.596,190.791 463.263,189.791 463.5,188.5C 463.5,186.167 463.5,183.833 463.5,181.5C 468.726,182.78 473.393,185.113 477.5,188.5C 480.881,189.598 484.215,190.598 487.5,191.5 Z"/></g>
<g><path style="opacity:1" fill="#fe4b4c" d="M 500.5,200.5 C 503.838,202.666 507.505,203.999 511.5,204.5C 511.5,205.5 511.5,206.5 511.5,207.5C 513.167,207.5 514.833,207.5 516.5,207.5C 517.5,207.5 518.5,207.5 519.5,207.5C 520.451,209.472 521.451,211.472 522.5,213.5C 530.074,216.125 537.074,219.458 543.5,223.5C 543.511,225.017 544.177,226.184 545.5,227C 552.307,228.96 558.973,231.293 565.5,234C 568.263,236.943 571.596,238.776 575.5,239.5C 580.134,239.48 584.467,240.646 588.5,243C 592.762,245.976 597.095,248.809 601.5,251.5C 609.625,254.347 616.958,258.347 623.5,263.5C 623.5,264.833 623.5,266.167 623.5,267.5C 626.599,267.092 628.933,268.259 630.5,271C 633.482,271.498 636.482,271.665 639.5,271.5C 639.5,273.5 639.5,275.5 639.5,277.5C 647.008,280.148 654.675,282.481 662.5,284.5C 664.806,289.625 668.806,292.625 674.5,293.5C 677.766,298.316 676.766,299.649 671.5,297.5C 671.5,298.5 671.5,299.5 671.5,300.5C 668.774,300.264 666.441,301.097 664.5,303C 613.501,303.5 562.501,303.667 511.5,303.5C 508.206,299.244 505.706,294.577 504,289.5C 503.552,282.275 500.719,276.275 495.5,271.5C 495.5,270.833 495.5,270.167 495.5,269.5C 495.663,267.143 495.497,264.81 495,262.5C 492.228,256.906 489.561,251.239 487,245.5C 485.551,240.602 484.051,235.768 482.5,231C 481.552,230.517 480.552,230.351 479.5,230.5C 479.5,228.167 479.5,225.833 479.5,223.5C 478.5,223.5 477.5,223.5 476.5,223.5C 476.577,219.785 476.244,216.119 475.5,212.5C 475.5,210.833 475.5,209.167 475.5,207.5C 476.833,207.5 478.167,207.5 479.5,207.5C 479.5,204.5 479.5,201.5 479.5,198.5C 481.167,198.5 482.833,198.5 484.5,198.5C 485.438,202.105 487.771,204.438 491.5,205.5C 497.503,203.431 497.67,201.431 492,199.5C 491.409,198.517 491.743,197.85 493,197.5C 495.22,199.193 497.72,200.193 500.5,200.5 Z"/></g>
<g><path style="opacity:1" fill="#e06d6d" d="M 498.5,197.5 C 499.167,197.5 499.833,197.5 500.5,197.5C 503.548,199.288 506.882,200.788 510.5,202C 512.996,203.331 514.996,205.164 516.5,207.5C 514.833,207.5 513.167,207.5 511.5,207.5C 511.5,206.5 511.5,205.5 511.5,204.5C 507.505,203.999 503.838,202.666 500.5,200.5C 499.833,199.5 499.167,198.5 498.5,197.5 Z"/></g>
<g><path style="opacity:1" fill="#da706d" d="M 470.5,207.5 C 472,209.222 473.667,210.888 475.5,212.5C 476.244,216.119 476.577,219.785 476.5,223.5C 473.993,218.463 471.993,213.13 470.5,207.5 Z"/></g>
<g><path style="opacity:1" fill="#e26465" d="M 519.5,207.5 C 522.986,210.445 526.986,212.445 531.5,213.5C 536.179,216.524 541.179,219.191 546.5,221.5C 547.298,221.957 547.631,222.624 547.5,223.5C 546.167,223.5 544.833,223.5 543.5,223.5C 537.074,219.458 530.074,216.125 522.5,213.5C 521.451,211.472 520.451,209.472 519.5,207.5 Z"/></g>
<g><path style="opacity:1" fill="#fbe6e4" d="M 531.5,213.5 C 536.797,214.764 542.13,215.931 547.5,217C 549.155,218.444 549.822,220.278 549.5,222.5C 552.406,222.097 554.239,220.431 555,217.5C 556.49,218.728 557.99,218.728 559.5,217.5C 558.062,221.274 555.395,223.607 551.5,224.5C 550.432,223.566 549.099,223.232 547.5,223.5C 547.631,222.624 547.298,221.957 546.5,221.5C 541.179,219.191 536.179,216.524 531.5,213.5 Z"/></g>
<g><path style="opacity:1" fill="#da7c83" d="M 476.5,223.5 C 477.5,223.5 478.5,223.5 479.5,223.5C 479.5,225.833 479.5,228.167 479.5,230.5C 477.707,228.574 476.707,226.241 476.5,223.5 Z"/></g>
<g><path style="opacity:1" fill="#f05557" d="M 543.5,223.5 C 544.833,223.5 546.167,223.5 547.5,223.5C 549.099,223.232 550.432,223.566 551.5,224.5C 551.5,225.167 551.833,225.5 552.5,225.5C 560.23,228.194 567.563,231.861 574.5,236.5C 575.386,237.325 575.719,238.325 575.5,239.5C 571.596,238.776 568.263,236.943 565.5,234C 558.973,231.293 552.307,228.96 545.5,227C 544.177,226.184 543.511,225.017 543.5,223.5 Z"/></g>
<g><path style="opacity:1" fill="#da6467" d="M 479.5,230.5 C 480.552,230.351 481.552,230.517 482.5,231C 484.051,235.768 485.551,240.602 487,245.5C 489.561,251.239 492.228,256.906 495,262.5C 495.497,264.81 495.663,267.143 495.5,269.5C 489.945,259.02 485.445,248.02 482,236.5C 481.623,235.058 480.79,234.058 479.5,233.5C 479.5,232.5 479.5,231.5 479.5,230.5 Z"/></g>
<g><path style="opacity:1" fill="#fbdddd" d="M 479.5,233.5 C 480.79,234.058 481.623,235.058 482,236.5C 485.445,248.02 489.945,259.02 495.5,269.5C 495.5,270.167 495.5,270.833 495.5,271.5C 494.153,270.829 492.986,270.829 492,271.5C 490.565,266.626 488.565,261.959 486,257.5C 485.824,254.118 485.324,250.785 484.5,247.5C 481.706,243.243 480.039,238.576 479.5,233.5 Z"/></g>
<g><path style="opacity:1" fill="#f15856" d="M 623.5,263.5 C 629.799,264.649 635.132,267.316 639.5,271.5C 636.482,271.665 633.482,271.498 630.5,271C 628.933,268.259 626.599,267.092 623.5,267.5C 623.5,266.167 623.5,264.833 623.5,263.5 Z"/></g>
<g><path style="opacity:1" fill="#f09392" d="M 671.5,255.5 C 673.143,255.48 674.476,256.147 675.5,257.5C 679.275,266.728 684.775,274.728 692,281.5C 693.431,285.447 695.764,288.781 699,291.5C 699.543,294.868 699.376,298.201 698.5,301.5C 698.167,302.167 697.833,302.833 697.5,303.5C 697.167,303.5 696.833,303.5 696.5,303.5C 696.5,302.5 696.5,301.5 696.5,300.5C 696.422,296.344 694.755,293.011 691.5,290.5C 691.08,286.33 689.746,282.664 687.5,279.5C 685.5,279.167 683.5,278.833 681.5,278.5C 681.08,273.645 679.913,268.978 678,264.5C 674.807,262.155 672.64,259.155 671.5,255.5 Z"/></g>
<g><path style="opacity:1" fill="#d08783" d="M 497.5,276.5 C 500.19,279.569 501.523,283.236 501.5,287.5C 499.796,284.061 498.462,280.395 497.5,276.5 Z"/></g>
<g><path style="opacity:1" fill="#dd5b5f" d="M 495.5,271.5 C 500.719,276.275 503.552,282.275 504,289.5C 505.706,294.577 508.206,299.244 511.5,303.5C 508.81,301.807 506.81,299.473 505.5,296.5C 505.657,295.127 505.49,293.793 505,292.5C 503.374,291.045 502.208,289.378 501.5,287.5C 501.523,283.236 500.19,279.569 497.5,276.5C 496.833,274.833 496.167,273.167 495.5,271.5 Z"/></g>
<g><path style="opacity:1" fill="#dd8e8d" d="M 501.5,287.5 C 502.208,289.378 503.374,291.045 505,292.5C 505.49,293.793 505.657,295.127 505.5,296.5C 504.792,294.622 503.626,292.955 502,291.5C 501.51,290.207 501.343,288.873 501.5,287.5 Z"/></g>
<g><path style="opacity:1" fill="#f65052" d="M 639.5,271.5 C 649.769,276.299 660.102,281.132 670.5,286C 672.091,288.133 674.091,289.799 676.5,291C 683.239,294.076 689.906,297.243 696.5,300.5C 696.5,301.5 696.5,302.5 696.5,303.5C 695.167,303.5 693.833,303.5 692.5,303.5C 632.185,304.481 571.852,304.814 511.5,304.5C 511.5,304.167 511.5,303.833 511.5,303.5C 562.501,303.667 613.501,303.5 664.5,303C 666.441,301.097 668.774,300.264 671.5,300.5C 671.5,299.5 671.5,298.5 671.5,297.5C 676.766,299.649 677.766,298.316 674.5,293.5C 668.806,292.625 664.806,289.625 662.5,284.5C 654.675,282.481 647.008,280.148 639.5,277.5C 639.5,275.5 639.5,273.5 639.5,271.5 Z"/></g>
<g><path style="opacity:1" fill="#d75a5e" d="M 692.5,303.5 C 692.082,304.222 691.416,304.722 690.5,305C 632.501,305.5 574.501,305.667 516.5,305.5C 515.167,305.5 513.833,305.5 512.5,305.5C 511.833,305.5 511.5,305.167 511.5,304.5C 571.852,304.814 632.185,304.481 692.5,303.5 Z"/></g>
<g><path style="opacity:1" fill="#e19c96" d="M 692.5,303.5 C 693.833,303.5 695.167,303.5 696.5,303.5C 696.833,303.5 697.167,303.5 697.5,303.5C 696.41,304.857 695.076,305.857 693.5,306.5C 634.331,306.832 575.331,306.499 516.5,305.5C 574.501,305.667 632.501,305.5 690.5,305C 691.416,304.722 692.082,304.222 692.5,303.5 Z"/></g>
<g><path style="opacity:1" fill="#fce6d9" d="M 512.5,305.5 C 513.833,305.5 515.167,305.5 516.5,305.5C 575.331,306.499 634.331,306.832 693.5,306.5C 634.335,307.665 575.001,307.832 515.5,307C 514.263,306.768 513.263,306.268 512.5,305.5 Z"/></g>
<g><path style="opacity:1" fill="#28272f" d="M 854.5,338.5 C 854.5,385.5 854.5,432.5 854.5,479.5C 853.5,479.5 852.5,479.5 851.5,479.5C 851.5,436.833 851.5,394.167 851.5,351.5C 850.167,351.5 848.833,351.5 847.5,351.5C 847.5,394.167 847.5,436.833 847.5,479.5C 844.833,479.5 842.167,479.5 839.5,479.5C 839.5,432.5 839.5,385.5 839.5,338.5C 844.5,338.5 849.5,338.5 854.5,338.5 Z"/></g>
<g><path style="opacity:1" fill="#46454a" d="M 854.5,338.5 C 849.5,338.5 844.5,338.5 839.5,338.5C 839.5,385.5 839.5,432.5 839.5,479.5C 842.167,479.5 844.833,479.5 847.5,479.5C 848.833,479.5 850.167,479.5 851.5,479.5C 852.5,479.5 853.5,479.5 854.5,479.5C 849.36,480.488 844.026,480.821 838.5,480.5C 838.5,432.833 838.5,385.167 838.5,337.5C 844.026,337.179 849.36,337.512 854.5,338.5 Z"/></g>
<g><path style="opacity:1" fill="#2b2b32" d="M 883.5,337.5 C 895.146,336.971 899.646,342.304 897,353.5C 891.897,359.263 886.23,359.93 880,355.5C 875.81,348.284 876.976,342.284 883.5,337.5 Z"/></g>
<g><path style="opacity:1" fill="#282633" d="M 851.5,479.5 C 850.167,479.5 848.833,479.5 847.5,479.5C 847.5,436.833 847.5,394.167 847.5,351.5C 848.833,351.5 850.167,351.5 851.5,351.5C 851.5,394.167 851.5,436.833 851.5,479.5 Z"/></g>
<g><path style="opacity:1" fill="#292931" d="M 378.5,353.5 C 378.5,361.5 378.5,369.5 378.5,377.5C 386.167,377.5 393.833,377.5 401.5,377.5C 401.5,381.833 401.5,386.167 401.5,390.5C 393.981,390.175 386.648,390.508 379.5,391.5C 378.337,413.996 378.17,436.663 379,459.5C 379.278,460.416 379.778,461.082 380.5,461.5C 381.203,463.716 382.536,465.549 384.5,467C 389.823,467.499 395.156,467.666 400.5,467.5C 402.423,471.029 403.089,475.029 402.5,479.5C 394.244,481.992 385.911,482.159 377.5,480C 369.13,476.134 364.464,469.634 363.5,460.5C 363.5,437.167 363.5,413.833 363.5,390.5C 358.5,390.5 353.5,390.5 348.5,390.5C 348.5,386.167 348.5,381.833 348.5,377.5C 353.167,377.5 357.833,377.5 362.5,377.5C 362.5,369.5 362.5,361.5 362.5,353.5C 367.833,353.5 373.167,353.5 378.5,353.5 Z"/></g>
<g><path style="opacity:1" fill="#292932" d="M 942.5,353.5 C 942.5,361.5 942.5,369.5 942.5,377.5C 950.167,377.5 957.833,377.5 965.5,377.5C 965.5,381.833 965.5,386.167 965.5,390.5C 957.648,390.175 949.982,390.508 942.5,391.5C 942.041,414.886 942.541,438.219 944,461.5C 945.122,463.624 946.622,465.457 948.5,467C 954.862,467.653 961.195,467.487 967.5,466.5C 967.5,470.833 967.5,475.167 967.5,479.5C 964.873,480.092 962.206,480.425 959.5,480.5C 953.464,480.64 947.464,480.307 941.5,479.5C 933.136,475.957 928.303,469.624 927,460.5C 926.5,437.169 926.333,413.836 926.5,390.5C 921.833,390.5 917.167,390.5 912.5,390.5C 912.5,386.167 912.5,381.833 912.5,377.5C 917.167,377.5 921.833,377.5 926.5,377.5C 926.5,369.5 926.5,361.5 926.5,353.5C 931.833,353.5 937.167,353.5 942.5,353.5 Z"/></g>
<g><path style="opacity:1" fill="#b8b9bb" d="M 378.5,353.5 C 379.492,360.982 379.825,368.648 379.5,376.5C 387.019,376.175 394.352,376.508 401.5,377.5C 393.833,377.5 386.167,377.5 378.5,377.5C 378.5,369.5 378.5,361.5 378.5,353.5 Z"/></g>
<g><path style="opacity:1" fill="#cacad1" d="M 942.5,353.5 C 943.492,360.982 943.825,368.648 943.5,376.5C 951.019,376.175 958.352,376.508 965.5,377.5C 957.833,377.5 950.167,377.5 942.5,377.5C 942.5,369.5 942.5,361.5 942.5,353.5 Z"/></g>
<g><path style="opacity:1" fill="#8f9094" d="M 334.5,375.5 C 335.434,376.568 335.768,377.901 335.5,379.5C 329.974,379.821 324.64,379.488 319.5,378.5C 324.5,378.5 329.5,378.5 334.5,378.5C 334.5,377.5 334.5,376.5 334.5,375.5 Z"/></g>
<g><path style="opacity:1" fill="#7c7c7f" d="M 674.5,377.5 C 679.64,376.512 684.974,376.179 690.5,376.5C 690.181,381.363 690.514,386.03 691.5,390.5C 691.44,391.043 691.107,391.376 690.5,391.5C 689.507,386.88 689.173,382.214 689.5,377.5C 684.5,377.5 679.5,377.5 674.5,377.5 Z"/></g>
<g><path style="opacity:1" fill="#2a2a32" d="M 813.5,395.5 C 813.259,397.898 813.926,399.898 815.5,401.5C 816.341,403.379 816.675,405.379 816.5,407.5C 816.5,431.5 816.5,455.5 816.5,479.5C 811.5,479.5 806.5,479.5 801.5,479.5C 800.668,454.337 800.168,429.003 800,403.5C 799.484,400.453 797.984,398.12 795.5,396.5C 793.337,392.613 790.004,390.446 785.5,390C 769.338,387.492 758.838,393.992 754,409.5C 753.5,432.831 753.333,456.164 753.5,479.5C 752.833,479.5 752.167,479.5 751.5,479.5C 751.5,458.167 751.5,436.833 751.5,415.5C 750.167,415.5 748.833,415.5 747.5,415.5C 747.666,410.156 747.499,404.823 747,399.5C 746.667,399.167 746.333,398.833 746,398.5C 744.175,399.103 742.341,399.77 740.5,400.5C 741.386,421.349 741.719,442.349 741.5,463.5C 743.167,463.5 744.833,463.5 746.5,463.5C 746.5,468.833 746.5,474.167 746.5,479.5C 743.5,479.5 740.5,479.5 737.5,479.5C 737.831,455.328 737.498,431.328 736.5,407.5C 736.321,398.144 731.654,392.477 722.5,390.5C 717.684,389.35 712.684,389.184 707.5,390C 705.934,390.608 704.6,391.442 703.5,392.5C 695.384,397.049 691.051,404.049 690.5,413.5C 689.503,435.327 689.169,457.327 689.5,479.5C 684.5,479.5 679.5,479.5 674.5,479.5C 674.5,445.5 674.5,411.5 674.5,377.5C 679.5,377.5 684.5,377.5 689.5,377.5C 689.173,382.214 689.507,386.88 690.5,391.5C 691.107,391.376 691.44,391.043 691.5,390.5C 697.908,380.293 707.241,375.293 719.5,375.5C 732.736,375.365 742.569,381.032 749,392.5C 762.56,376.233 779.393,371.733 799.5,379C 802.646,381.312 805.646,383.812 808.5,386.5C 810.952,389.071 812.619,392.071 813.5,395.5 Z"/></g>
<g><path style="opacity:1" fill="#a2a2a3" d="M 880.5,377.5 C 885.64,376.512 890.974,376.179 896.5,376.5C 896.832,411.004 896.498,445.337 895.5,479.5C 895.5,445.5 895.5,411.5 895.5,377.5C 890.5,377.5 885.5,377.5 880.5,377.5 Z"/></g>
<g><path style="opacity:1" fill="#28282f" d="M 459.5,376.5 C 461.5,376.5 463.5,376.5 465.5,376.5C 465.666,380.846 465.499,385.179 465,389.5C 460.961,390.056 457.128,391.056 453.5,392.5C 441.38,397.306 435.047,406.306 434.5,419.5C 433.503,439.326 433.17,459.326 433.5,479.5C 428.5,479.5 423.5,479.5 418.5,479.5C 418.5,445.5 418.5,411.5 418.5,377.5C 423.833,377.5 429.167,377.5 434.5,377.5C 434.334,382.844 434.501,388.177 435,393.5C 440.051,383.274 448.218,377.607 459.5,376.5 Z"/></g>
<g><path style="opacity:1" fill="#8c8d90" d="M 674.5,377.5 C 674.5,411.5 674.5,445.5 674.5,479.5C 679.5,479.5 684.5,479.5 689.5,479.5C 689.169,457.327 689.503,435.327 690.5,413.5C 690.5,435.833 690.5,458.167 690.5,480.5C 684.833,480.5 679.167,480.5 673.5,480.5C 673.168,445.996 673.502,411.663 674.5,377.5 Z"/></g>
<g><path style="opacity:1" fill="#909194" d="M 418.5,377.5 C 418.5,411.5 418.5,445.5 418.5,479.5C 423.5,479.5 428.5,479.5 433.5,479.5C 433.17,459.326 433.503,439.326 434.5,419.5C 434.5,439.833 434.5,460.167 434.5,480.5C 428.833,480.5 423.167,480.5 417.5,480.5C 417.168,445.996 417.502,411.663 418.5,377.5 Z"/></g>
<g><path style="opacity:1" fill="#8e8e93" d="M 880.5,377.5 C 880.5,411.5 880.5,445.5 880.5,479.5C 885.5,479.5 890.5,479.5 895.5,479.5C 890.36,480.488 885.026,480.821 879.5,480.5C 879.168,445.996 879.502,411.663 880.5,377.5 Z"/></g>
<g><path style="opacity:1" fill="#272730" d="M 880.5,377.5 C 885.5,377.5 890.5,377.5 895.5,377.5C 895.5,411.5 895.5,445.5 895.5,479.5C 890.5,479.5 885.5,479.5 880.5,479.5C 880.5,445.5 880.5,411.5 880.5,377.5 Z"/></g>
<g><path style="opacity:1" fill="#676768" d="M 459.5,376.5 C 461.948,375.527 464.615,375.194 467.5,375.5C 467.666,380.511 467.499,385.511 467,390.5C 462.574,391.419 458.074,392.086 453.5,392.5C 457.128,391.056 460.961,390.056 465,389.5C 465.499,385.179 465.666,380.846 465.5,376.5C 463.5,376.5 461.5,376.5 459.5,376.5 Z"/></g>
<g><path style="opacity:1" fill="#9a9a9a" d="M 401.5,377.5 C 402.486,381.97 402.819,386.637 402.5,391.5C 394.833,391.5 387.167,391.5 379.5,391.5C 386.648,390.508 393.981,390.175 401.5,390.5C 401.5,386.167 401.5,381.833 401.5,377.5 Z"/></g>
<g><path style="opacity:1" fill="#b6b5ba" d="M 722.5,390.5 C 716.013,390.152 709.68,390.818 703.5,392.5C 704.6,391.442 705.934,390.608 707.5,390C 712.684,389.184 717.684,389.35 722.5,390.5 Z"/></g>
<g><path style="opacity:1" fill="#9b9aa0" d="M 965.5,377.5 C 966.486,381.97 966.819,386.637 966.5,391.5C 958.5,391.5 950.5,391.5 942.5,391.5C 949.982,390.508 957.648,390.175 965.5,390.5C 965.5,386.167 965.5,381.833 965.5,377.5 Z"/></g>
<g><path style="opacity:1" fill="#848489" d="M 348.5,390.5 C 353.5,390.5 358.5,390.5 363.5,390.5C 363.5,413.833 363.5,437.167 363.5,460.5C 362.502,437.673 362.169,414.673 362.5,391.5C 357.637,391.819 352.97,391.486 348.5,390.5 Z"/></g>
<g><path style="opacity:1" fill="#a7a7a7" d="M 270.5,395.5 C 275.032,396.457 279.365,397.79 283.5,399.5C 278.711,399.346 274.378,398.013 270.5,395.5 Z"/></g>
<g><path style="opacity:1" fill="#969799" d="M 379.5,391.5 C 379.197,414.866 379.53,438.199 380.5,461.5C 379.778,461.082 379.278,460.416 379,459.5C 378.17,436.663 378.337,413.996 379.5,391.5 Z"/></g>
<g><path style="opacity:1" fill="#272633" d="M 751.5,479.5 C 749.833,479.5 748.167,479.5 746.5,479.5C 746.5,474.167 746.5,468.833 746.5,463.5C 744.833,463.5 743.167,463.5 741.5,463.5C 741.719,442.349 741.386,421.349 740.5,400.5C 742.341,399.77 744.175,399.103 746,398.5C 746.333,398.833 746.667,399.167 747,399.5C 747.499,404.823 747.666,410.156 747.5,415.5C 748.833,415.5 750.167,415.5 751.5,415.5C 751.5,436.833 751.5,458.167 751.5,479.5 Z"/></g>
<g><path style="opacity:1" fill="#9a9b9e" d="M 287.5,400.5 C 290.187,400.336 292.854,400.503 295.5,401C 296.416,401.278 297.082,401.778 297.5,402.5C 293.922,402.451 290.589,401.785 287.5,400.5 Z"/></g>
<g><path style="opacity:1" fill="#8c8c94" d="M 813.5,395.5 C 815.074,397.102 815.741,399.102 815.5,401.5C 813.926,399.898 813.259,397.898 813.5,395.5 Z"/></g>
<g><path style="opacity:1" fill="#abaab1" d="M 475.5,400.5 C 474.871,403.397 473.871,406.064 472.5,408.5C 472.345,405.284 473.345,402.617 475.5,400.5 Z"/></g>
<g><path style="opacity:1" fill="#4c4c50" d="M 582.5,391.5 C 581.465,393.205 581.465,394.872 582.5,396.5C 582.154,397.696 581.654,397.696 581,396.5C 579.57,399.353 578.737,402.353 578.5,405.5C 583.5,405.5 588.5,405.5 593.5,405.5C 588.36,406.488 583.026,406.821 577.5,406.5C 577.402,400.795 579.068,395.795 582.5,391.5 Z"/></g>
<g><path style="opacity:1" fill="#d8d9dd" d="M 653.5,402.5 C 654.167,415.329 654.5,428.329 654.5,441.5C 654.499,454.851 653.833,467.851 652.5,480.5C 652.5,480.167 652.5,479.833 652.5,479.5C 653.498,454.005 653.831,428.339 653.5,402.5 Z"/></g>
<g><path style="opacity:1" fill="#67686d" d="M 647.5,387.5 C 648.458,387.953 649.292,388.619 650,389.5C 651.68,393.705 652.847,398.038 653.5,402.5C 653.831,428.339 653.498,454.005 652.5,479.5C 652.667,452.831 652.5,426.165 652,399.5C 649.741,395.769 648.241,391.769 647.5,387.5 Z"/></g>
<g><path style="opacity:1" fill="#2a2a32" d="M 561.5,432.5 C 536.5,432.5 511.5,432.5 486.5,432.5C 486.198,435.059 486.532,437.393 487.5,439.5C 488.672,451.196 494.339,459.862 504.5,465.5C 506.019,466.41 507.685,467.243 509.5,468C 515.681,468.819 521.681,468.653 527.5,467.5C 537,465.996 543,460.662 545.5,451.5C 550.544,451.173 555.544,451.506 560.5,452.5C 559.691,454.071 559.357,455.738 559.5,457.5C 554.013,470.781 544.013,478.614 529.5,481C 496.921,485.225 477.254,471.392 470.5,439.5C 470.17,429.419 470.837,419.419 472.5,409.5C 472.5,409.167 472.5,408.833 472.5,408.5C 473.871,406.064 474.871,403.397 475.5,400.5C 483.826,383.82 497.492,375.487 516.5,375.5C 540.487,376.331 555.321,388.331 561,411.5C 561.5,418.492 561.666,425.492 561.5,432.5 Z"/></g>
<g><path style="opacity:1" fill="#f8f8f8" d="M 509.5,388.5 C 520.411,387.3 530.077,390.133 538.5,397C 543.534,403.63 545.867,411.13 545.5,419.5C 526.167,419.5 506.833,419.5 487.5,419.5C 488.723,404.686 496.056,394.353 509.5,388.5 Z"/></g>
<g><path style="opacity:1" fill="#afb0b0" d="M 736.5,407.5 C 737.498,431.328 737.831,455.328 737.5,479.5C 740.5,479.5 743.5,479.5 746.5,479.5C 748.167,479.5 749.833,479.5 751.5,479.5C 752.167,479.5 752.833,479.5 753.5,479.5C 748.025,480.489 742.358,480.822 736.5,480.5C 736.5,456.167 736.5,431.833 736.5,407.5 Z"/></g>
<g><path style="opacity:1" fill="#cccdd2" d="M 795.5,396.5 C 797.984,398.12 799.484,400.453 800,403.5C 800.168,429.003 800.668,454.337 801.5,479.5C 801.5,479.833 801.5,480.167 801.5,480.5C 799.674,455.52 798.84,430.186 799,404.5C 797.917,401.733 796.75,399.067 795.5,396.5 Z"/></g>
<g><path style="opacity:1" fill="#bcbcbc" d="M 281.5,414.5 C 287.711,415.418 293.711,416.751 299.5,418.5C 293.085,418.438 287.085,417.105 281.5,414.5 Z"/></g>
<g><path style="opacity:1" fill="#c5c6c9" d="M 636.5,401.5 C 637.49,407.645 637.823,413.978 637.5,420.5C 631.5,420.5 625.5,420.5 619.5,420.5C 624.975,419.511 630.642,419.178 636.5,419.5C 636.5,413.5 636.5,407.5 636.5,401.5 Z"/></g>
<g><path style="opacity:1" fill="#b9b9bc" d="M 472.5,409.5 C 470.837,419.419 470.17,429.419 470.5,439.5C 469.345,432.345 469.178,425.012 470,417.5C 470.098,414.478 470.932,411.811 472.5,409.5 Z"/></g>
<g><path style="opacity:1" fill="#292932" d="M 334.5,375.5 C 334.5,376.5 334.5,377.5 334.5,378.5C 329.5,378.5 324.5,378.5 319.5,378.5C 319.5,377.5 319.5,376.5 319.5,375.5C 319.448,372.654 318.448,370.32 316.5,368.5C 313.355,361.736 308.022,357.569 300.5,356C 289.785,353.36 279.451,354.36 269.5,359C 258.436,368.226 256.603,379.06 264,391.5C 266.069,393.085 268.236,394.419 270.5,395.5C 274.378,398.013 278.711,399.346 283.5,399.5C 284.568,400.434 285.901,400.768 287.5,400.5C 290.589,401.785 293.922,402.451 297.5,402.5C 309.751,403.819 320.751,408.319 330.5,416C 338.04,425.928 340.54,437.094 338,449.5C 332.632,466.704 321.132,477.037 303.5,480.5C 295.534,481.365 287.534,481.698 279.5,481.5C 260.549,478.883 248.216,468.55 242.5,450.5C 241.962,446.476 241.295,442.476 240.5,438.5C 245.5,438.5 250.5,438.5 255.5,438.5C 255.263,439.791 255.596,440.791 256.5,441.5C 257.613,448.061 260.113,454.061 264,459.5C 266.099,461.797 268.599,463.464 271.5,464.5C 274.422,466.531 277.755,467.698 281.5,468C 287.349,468.818 293.015,468.652 298.5,467.5C 313.955,465.048 321.955,456.048 322.5,440.5C 322.93,433.527 320.264,428.027 314.5,424C 309.917,421.042 304.917,419.209 299.5,418.5C 293.711,416.751 287.711,415.418 281.5,414.5C 249.003,408.856 238.169,390.523 249,359.5C 262.06,343.412 278.893,337.578 299.5,342C 319.193,344.861 330.86,356.028 334.5,375.5 Z"/></g>
<g><path style="opacity:1" fill="#808080" d="M 316.5,368.5 C 318.448,370.32 319.448,372.654 319.5,375.5C 317.935,373.491 316.935,371.157 316.5,368.5 Z"/></g>
<g><path style="opacity:1" fill="#b0b0b0" d="M 561.5,432.5 C 537.006,433.498 512.339,433.831 487.5,433.5C 487.5,435.5 487.5,437.5 487.5,439.5C 486.532,437.393 486.198,435.059 486.5,432.5C 511.5,432.5 536.5,432.5 561.5,432.5 Z"/></g>
<g><path style="opacity:1" fill="#858589" d="M 256.5,441.5 C 255.596,440.791 255.263,439.791 255.5,438.5C 250.5,438.5 245.5,438.5 240.5,438.5C 241.295,442.476 241.962,446.476 242.5,450.5C 240.627,446.485 239.627,442.151 239.5,437.5C 245.167,437.5 250.833,437.5 256.5,437.5C 256.5,438.833 256.5,440.167 256.5,441.5 Z"/></g>
<g><path style="opacity:1" fill="#2a2932" d="M 647.5,387.5 C 648.241,391.769 649.741,395.769 652,399.5C 652.5,426.165 652.667,452.831 652.5,479.5C 647.5,479.5 642.5,479.5 637.5,479.5C 637.5,476.167 637.5,472.833 637.5,469.5C 635.821,469.285 634.821,469.952 634.5,471.5C 623.185,481.037 610.185,484.204 595.5,481C 577.945,475.067 570.778,462.9 574,444.5C 577.048,435.117 583.215,428.617 592.5,425C 601.192,421.628 610.192,420.128 619.5,420.5C 625.5,420.5 631.5,420.5 637.5,420.5C 637.823,413.978 637.49,407.645 636.5,401.5C 635.357,396.353 632.357,392.686 627.5,390.5C 627.082,389.778 626.416,389.278 625.5,389C 619.319,388.181 613.319,388.347 607.5,389.5C 599.161,391.453 594.495,396.787 593.5,405.5C 588.5,405.5 583.5,405.5 578.5,405.5C 578.737,402.353 579.57,399.353 581,396.5C 581.654,397.696 582.154,397.696 582.5,396.5C 581.465,394.872 581.465,393.205 582.5,391.5C 588.189,382.31 596.522,377.144 607.5,376C 618.573,374.417 629.239,375.751 639.5,380C 642.666,382 645.332,384.5 647.5,387.5 Z"/></g>
<g><path style="opacity:1" fill="#9f9ea1" d="M 613.5,432.5 C 621.316,431.508 629.316,431.174 637.5,431.5C 637.823,438.022 637.49,444.355 636.5,450.5C 636.5,444.5 636.5,438.5 636.5,432.5C 628.833,432.5 621.167,432.5 613.5,432.5 Z"/></g>
<g><path style="opacity:1" fill="#fbfbfb" d="M 613.5,432.5 C 621.167,432.5 628.833,432.5 636.5,432.5C 636.5,438.5 636.5,444.5 636.5,450.5C 633.022,461.626 625.355,467.626 613.5,468.5C 608.463,468.587 603.463,468.254 598.5,467.5C 595.236,466.073 592.736,463.739 591,460.5C 587.037,442.273 594.537,432.94 613.5,432.5 Z"/></g>
<g><path style="opacity:1" fill="#77777c" d="M 607.5,389.5 C 613.319,388.347 619.319,388.181 625.5,389C 626.416,389.278 627.082,389.778 627.5,390.5C 620.869,389.669 614.202,389.336 607.5,389.5 Z"/></g>
<g><path style="opacity:1" fill="#b2b2b5" d="M 545.5,451.5 C 550.64,450.512 555.974,450.179 561.5,450.5C 561.829,453.228 561.163,455.562 559.5,457.5C 559.357,455.738 559.691,454.071 560.5,452.5C 555.544,451.506 550.544,451.173 545.5,451.5 Z"/></g>
<g><path style="opacity:1" fill="#b2b3b7" d="M 271.5,464.5 C 280.345,466.485 289.345,467.485 298.5,467.5C 293.015,468.652 287.349,468.818 281.5,468C 277.755,467.698 274.422,466.531 271.5,464.5 Z"/></g>
<g><path style="opacity:1" fill="#c0c1c5" d="M 504.5,465.5 C 512.046,467.202 519.713,467.868 527.5,467.5C 521.681,468.653 515.681,468.819 509.5,468C 507.685,467.243 506.019,466.41 504.5,465.5 Z"/></g>
<g><path style="opacity:1" fill="#95959c" d="M 598.5,467.5 C 603.463,468.254 608.463,468.587 613.5,468.5C 611.696,469.162 609.696,469.495 607.5,469.5C 604.186,469.657 601.186,468.991 598.5,467.5 Z"/></g>
<g><path style="opacity:1" fill="#6c6c6e" d="M 400.5,467.5 C 401.209,466.596 402.209,466.263 403.5,466.5C 403.818,471.032 403.485,475.366 402.5,479.5C 403.089,475.029 402.423,471.029 400.5,467.5 Z"/></g>
<g><path style="opacity:1" fill="#a2a3a6" d="M 652.5,479.5 C 652.5,479.833 652.5,480.167 652.5,480.5C 647.167,480.5 641.833,480.5 636.5,480.5C 636.665,477.15 636.498,473.817 636,470.5C 635.617,471.056 635.117,471.389 634.5,471.5C 634.821,469.952 635.821,469.285 637.5,469.5C 637.5,472.833 637.5,476.167 637.5,479.5C 642.5,479.5 647.5,479.5 652.5,479.5 Z"/></g>
<g><path style="opacity:1" fill="#9f9f9f" d="M 816.5,407.5 C 817.498,431.661 817.831,455.994 817.5,480.5C 812.167,480.5 806.833,480.5 801.5,480.5C 801.5,480.167 801.5,479.833 801.5,479.5C 806.5,479.5 811.5,479.5 816.5,479.5C 816.5,455.5 816.5,431.5 816.5,407.5 Z"/></g>
<g><path style="opacity:1" fill="#717171" d="M 941.5,479.5 C 947.464,480.307 953.464,480.64 959.5,480.5C 954.35,481.651 949.016,481.817 943.5,481C 942.584,480.722 941.918,480.222 941.5,479.5 Z"/></g>
<g><path style="opacity:1" fill="#b2b2b5" d="M 303.5,480.5 C 303.082,481.222 302.416,481.722 301.5,482C 293.988,482.822 286.655,482.655 279.5,481.5C 287.534,481.698 295.534,481.365 303.5,480.5 Z"/></g>
</svg>
